<?xml version="1.0" encoding="utf-8"?>
<!-- Generator: Adobe Illustrator 16.0.0, SVG Export Plug-In . SVG Version: 6.00 Build 0)  -->
<!DOCTYPE svg PUBLIC "-//W3C//DTD SVG 1.1//EN" "http://www.w3.org/Graphics/SVG/1.1/DTD/svg11.dtd">
<svg version="1.1" xmlns="http://www.w3.org/2000/svg" xmlns:xlink="http://www.w3.org/1999/xlink" x="0px" y="0px" width="120.1px"
	 height="120.1px" viewBox="0 0 120.1 120.1" style="enable-background:new 0 0 120.1 120.1;" xml:space="preserve">
<style type="text/css">
<![CDATA[
	.st0{fill:#48555E;}
	.st1{fill:#7C9499;}
	.st2{display:inline;fill:none;stroke:#0B0146;stroke-width:0.9033;stroke-miterlimit:10;}
	.st3{fill:#111516;}
	.st4{fill:#B0B6B7;}
	.st5{fill:#B1E4EF;}
	.st6{display:inline;fill:none;stroke:#0B0146;stroke-miterlimit:10;}
	.st7{display:inline;fill:none;stroke:#0B0146;stroke-width:0.9243;stroke-miterlimit:10;}
	.st8{display:inline;fill:none;stroke:#0B0146;stroke-width:0.7161;stroke-miterlimit:10;}
	.st9{fill:#1B2123;}
	.st10{display:inline;fill:none;stroke:#0B0146;stroke-width:1.2001;stroke-miterlimit:10;}
	.st11{fill:#8AB0BC;}
	.st12{fill:none;stroke:#221F20;stroke-width:0.7151;stroke-miterlimit:10;}
	.st13{fill:#5D777F;}
	.st14{opacity:0.6;fill:#435054;}
	.st15{fill:#C11616;}
	.st16{display:inline;fill:none;stroke:#0B0146;stroke-width:1.0603;stroke-miterlimit:10;}
	.st17{fill:#C7CFD1;}
	.st18{fill:#2E3738;}
	.st19{fill:#FFFFFF;}
	.st20{display:inline;}
	.st21{fill:#30393D;}
	.st22{fill:#9ECBDC;}
	.st23{display:inline;fill:none;stroke:#0B0146;stroke-width:1.0352;stroke-miterlimit:10;}
	.st24{fill:#6E8389;}
	.st25{display:inline;fill:none;stroke:#0B0146;stroke-width:0.9813;stroke-miterlimit:10;}
	.st26{fill:#3A4549;}
	.st27{fill:#D7E0E3;}
	.st28{display:inline;fill:none;stroke:#0B0146;stroke-width:0.9634;stroke-miterlimit:10;}
	.st29{display:none;}
	.st30{fill:#73949B;}
]]>
</style>
<g id="photo" class="st29">
	
		<image style="display:inline;overflow:visible;opacity:0.6;" width="1193" height="1200" xlink:href="tape_02.jpg"  transform="matrix(0.2784 0 0 0.2784 -2.7061 -3.3047)">
	</image>
</g>
<g id="body" class="st29">
	<path class="st6" d="M58.8,58.7v138L58.7,385c0,0-1.2,4.2,4,4.2l283.9-11.6c0,0,1.7,0.3,1.7-1.7l4.3-174L356,64.7
		c0-3.2-3.3-3-3.3-3L233,58l-32.9-1.3l-133.6-5C66.5,51.7,58.8,50.4,58.8,58.7z"/>
	<path class="st6" d="M64.1,395.8l-1.4,5.8c0,0-0.6,1.3,1.4,1.3l15-0.5c0,0,1.4,0,1-1.8l-1.3-5.3"/>
	<line class="st6" x1="61.1" y1="389.3" x2="62.6" y2="402.3"/>
	<line class="st6" x1="79.1" y1="388.6" x2="80.1" y2="401.5"/>
	<path class="st6" d="M317.1,378.9l15.5,11.6c0,0,1.5,1.2,3.9,1l11.2-0.3c0,0,1.2,0,1.3-2l-0.3-4.5c0,0-0.4-1.1-1.6-1.9l-4.9-5"/>
	<path class="st6" d="M348.3,384.2h-12c0,0-1.4-0.1-1.5,1.4l-0.6,4.1c0,0-0.2,1.4,1,1.9"/>
	<line class="st6" x1="335.2" y1="384.2" x2="328.5" y2="378.4"/>
	<path class="st6" d="M151.5,235l4.2-1.8l103,0.5c1.9-0.1,1.8,0.1,1.8,0.1l1.5,2.2l-22.5,23.5c-1.2,1.2-2.1,1.6-2.1,1.6h-63.6
		c-1.9,0-2.5-1.2-2.5-1.2l-16.9-18l-1.8-1.5l-3.8-25c0.6-2.3,4.5-2.2,4.5-2.2L164,213l4.4,2.6c0,0,0.4,0.2,1.2-0.9l4.3-10.2
		l20.7-28.9c0,0,0.4-1.1,2.7-1.1l39.4,0.5c0,0,1.7-0.3,2.9,1.8l18.3,27.8l9.4,12c0,0,0.1-0.4,0,0.5c0,0.2,0,0.5,0,0.9l4.6,5.8
		c0,0,0.3,0.9-0.5,1.8l-7.7,8.7c0,0-0.6,0.6-1.6-0.3l-2.1-2.1l-11.2-0.1v-6.9l-69.2-0.1l-0.2,6.6l-24.7-0.2l0.4-13.2
		c0,0,0.1-2.1,2.8-2l109.5,1.1"/>
	<path class="st6" d="M238.5,175.2l-3.7-2.5c0,0-1.1-0.6-3-0.6l-39.3-0.7c0,0-1.5-0.1-3.5,3.1l-27.4,36.7h-45.4c0,0-1.5-0.4-1.5,3
		v29.5l17.8,17.5l40-0.2"/>
	<polyline class="st6" points="237.3,261.2 276.5,261.2 293.8,243.7 	"/>
	<polyline class="st6" points="116.3,211.3 112.8,212.4 112.8,251.7 127.8,267.7 192.3,267.9 	"/>
	<polyline class="st6" points="191.8,261.7 191.8,272.7 194,274.2 209.8,274.2 209.8,269.2 194.3,269.2 	"/>
	<line class="st6" x1="193.8" y1="274.7" x2="193.8" y2="261.7"/>
	<polyline class="st6" points="211.5,261.7 210.3,267.9 279,267.2 293.8,251.7 293.8,212.2 264.3,212.2 	"/>
	<polygon class="st6" points="203.5,183.9 229.8,184.2 229.8,194.2 203.3,194.2 	"/>
	<rect x="237.8" y="188.2" class="st6" width="4" height="6"/>
	<polyline class="st6" points="237.9,188.1 236.9,187.2 241.3,187.2 241.8,187.6 	"/>
	<polyline class="st6" points="236.8,187.7 236.8,192.7 237.4,194.2 	"/>
	<rect x="192.8" y="187.2" class="st6" width="4" height="6"/>
	<polyline class="st6" points="192.9,187.1 191.9,186.2 196.3,186.2 196.8,186.6 	"/>
	<polyline class="st6" points="191.8,186.7 191.8,191.7 192.4,193.2 	"/>
	<path class="st6" d="M79.1,388.6l0,5.8c0.1,1-0.7,1.2-0.7,1.2l-13.5,0.5c-1.1,0-1-1-1-1l-1.2-5.9c-3.1-1.4-1.9-4.6-1.9-4.6v-329
		c0,0,1-4.2,4.5-4.1"/>
	<polyline class="st6" points="351,267.9 209.8,269.2 210.3,267.9 	"/>
	<line class="st6" x1="191.3" y1="269.2" x2="62.3" y2="269.2"/>
	<rect x="179.8" y="235.2" class="st6" width="56" height="12"/>
	<polygon class="st6" points="72.8,277.4 338.8,274.2 338.8,292.7 72.8,297.2 	"/>
	<rect x="203.8" y="277.2" class="st6" width="15" height="10"/>
	<path class="st6" d="M226.6,282.2"/>
	<polygon class="st6" points="226.8,291.7 226.8,281.7 297.8,280.7 297.8,290.7 	"/>
	<line class="st6" x1="244.8" y1="281.7" x2="244.8" y2="291.7"/>
	<line class="st6" x1="262.8" y1="280.7" x2="262.8" y2="290.7"/>
	<line class="st6" x1="280.8" y1="280.7" x2="280.8" y2="290.7"/>
	<polygon class="st6" points="301.8,281.2 335.8,281.2 335.8,289.7 301.8,290.7 	"/>
	<line class="st6" x1="318.8" y1="281.7" x2="318.8" y2="290.7"/>
	<rect x="78.8" y="283.2" class="st6" width="11" height="12"/>
	<rect x="105.8" y="282.2" class="st6" width="5" height="12"/>
	<rect x="120.8" y="282.2" class="st6" width="5" height="12"/>
	<rect x="135.8" y="282.2" class="st6" width="5" height="12"/>
	<rect x="193.8" y="290.2" class="st6" width="6" height="3"/>
	<polyline class="st6" points="193.8,293.4 191.8,291.7 191.8,287.7 193.8,290.2 	"/>
	<polyline class="st6" points="191.3,288.2 197.3,288.2 199.8,289.9 	"/>
	<polyline class="st6" points="198.8,289.7 198.8,281.2 191.8,281.2 191.8,287.7 	"/>
	<path class="st6" d="M111.4,340.5l51.3-0.7c0,0,1.8-0.2,1.8,1.8l-0.4,27.3c0,0,0.1,1.1-1.4,1.1l-50.8,1.3c0,0-1.2,0.1-1.2-2.1
		v-27.4C110.8,341.7,110.5,340.8,111.4,340.5z"/>
	<path class="st6" d="M170.4,339.5l51.3-0.7c0,0,1.8-0.2,1.8,1.8l-0.4,25.3c0,0,0.1,2.1-1.4,2.1l-50.8,1.3c0,0-1.2,0.1-1.2-2.1
		v-26.4C169.8,340.7,169.5,339.8,170.4,339.5z"/>
	<polygon class="st6" points="112.8,343.1 161.8,342.2 161.8,366.7 112.8,367.7 	"/>
	<polygon class="st6" points="171.8,342.3 220.8,341.4 220.8,364.7 171.8,365.9 	"/>
	<path class="st6" d="M120.7,351.7c0,0,15.6-5.5,32.4-0.8"/>
	<line class="st6" x1="121.2" y1="349" x2="122.1" y2="351.2"/>
	<line class="st6" x1="125.5" y1="347.9" x2="126.2" y2="350.1"/>
	<line class="st6" x1="129.7" y1="347.3" x2="130.1" y2="349.6"/>
	<line class="st6" x1="133.8" y1="346.7" x2="133.8" y2="349.7"/>
	<line class="st6" x1="138.8" y1="346.7" x2="138.8" y2="348.7"/>
	<line class="st6" x1="145" y1="347.3" x2="144.6" y2="349.3"/>
	<line class="st6" x1="150.5" y1="348.5" x2="149.7" y2="350.1"/>
	<path class="st6" d="M178.7,349.7c0,0,15.6-5.5,32.4-0.8"/>
	<line class="st6" x1="179.2" y1="347" x2="180.1" y2="349.2"/>
	<line class="st6" x1="183.5" y1="345.9" x2="184.2" y2="348.1"/>
	<line class="st6" x1="187.7" y1="345.3" x2="188.1" y2="347.6"/>
	<line class="st6" x1="191.8" y1="344.7" x2="191.8" y2="347.7"/>
	<line class="st6" x1="196.8" y1="344.7" x2="196.8" y2="346.7"/>
	<line class="st6" x1="203" y1="345.3" x2="202.6" y2="347.3"/>
	<line class="st6" x1="208.5" y1="346.5" x2="207.7" y2="348.1"/>
	<path class="st6" d="M131.7,367.3c0,0,4.9-6.7,9.7-0.2"/>
	<path class="st6" d="M189.7,365.5c0,0,4.5-6.8,10.1-0.3"/>
	<rect x="120.8" y="321.2" class="st6" width="4" height="13"/>
	<rect x="135.8" y="321.2" class="st6" width="4" height="13"/>
	<rect x="150.8" y="320.2" class="st6" width="4" height="13"/>
	<rect x="179.8" y="320.2" class="st6" width="4" height="13"/>
	<rect x="194.8" y="320.2" class="st6" width="4" height="13"/>
	<rect x="209.8" y="319.2" class="st6" width="4" height="13"/>
	<rect x="245.8" y="318.2" class="st6" width="4" height="12"/>
	<rect x="259.8" y="318.2" class="st6" width="4" height="12"/>
	<rect x="287.8" y="317.2" class="st6" width="4" height="12"/>
	<rect x="314.8" y="317.2" class="st6" width="4" height="12"/>
	<rect x="300.8" y="317.2" class="st6" width="4" height="12"/>
	<polyline class="st6" points="210.8,309.7 210.8,308.4 121.8,309.8 121.8,311.7 	"/>
	<line class="st6" x1="196.8" y1="308.7" x2="196.8" y2="309.7"/>
	<line class="st6" x1="181.8" y1="308.7" x2="181.8" y2="309.7"/>
	<line class="st6" x1="152.8" y1="309.7" x2="152.8" y2="311.7"/>
	<line class="st6" x1="137.8" y1="309.7" x2="137.8" y2="311.7"/>
	<polyline class="st6" points="260.8,309.7 260.8,308.2 246.8,308.2 246.8,309.7 	"/>
	<polyline class="st6" points="315.8,307.7 315.8,305.8 288.8,306.8 288.8,308.7 	"/>
	<line class="st6" x1="302.8" y1="306.7" x2="302.8" y2="308.7"/>
	<circle class="st23" cx="131.4" cy="233.6" r="14.6"/>
	<circle class="st16" cx="131.5" cy="233.9" r="9.7"/>
	<circle class="st10" cx="132.7" cy="233.9" r="6.4"/>
	<circle class="st10" cx="94.9" cy="231.3" r="7.1"/>
	<path class="st10" d="M97,224.2l6.9-4.5c0,0,3.9-0.2,2.6,3.4c0,0-5.6,2.8-6.1,3.7"/>
	<path class="st10" d="M88.6,234.5c0,0-3.5,9.2-2.5,15.6c0,0,2,3.6,4.9,0.6c0,0-0.4-9.4,2.1-12.2"/>
	<circle class="st10" cx="263.5" cy="251.7" r="10"/>
	<circle class="st6" cx="264" cy="252.4" r="7.8"/>
	<circle class="st6" cx="288.5" cy="230.8" r="3.4"/>
	<path class="st6" d="M287.3,227.7c0,0-0.7-1.3-3.4-1.3c0,0-3.7,0.1-3.7,3.4c0,0-0.1,5.6,3.6,5.6c0,0,3.6-0.1,3.6-1.4"/>
	<circle class="st6" cx="284.6" cy="230.7" r="7.5"/>
	<circle class="st6" cx="263.8" cy="223.9" r="2.5"/>
	<circle class="st6" cx="160.8" cy="223.4" r="3"/>
	<circle class="st6" cx="327.5" cy="229.2" r="6.4"/>
	<path class="st6" d="M324.7,223.5c0,0-2-1.8-5.7,0c0,0-2.3,1.3-2.5,4.6c0,0-0.4,3.2,2.3,5.2c0,0,1.9,1.6,5.1,1.1"/>
	<path class="st6" d="M319.7,223.2l-4.3-2.7c0,0-6.1,0.1-2.9,4.2c0,0,2.2,1.4,4.1,2.8"/>
	<path class="st6" d="M322.3,234.6c0,0,4.1,8.8,3.1,14.9c0,0,2,3.9,4.9,0.4c0,0,0.3-11.6-2.4-14.3"/>
	<circle class="st6" cx="67.5" cy="310.3" r="2.8"/>
	<circle class="st6" cx="345.7" cy="304.6" r="2.7"/>
	<path class="st6" d="M92.9,326c0,3.4-2.8,6.2-6.2,6.2s-6.2-2.8-6.2-6.2c0-1.7,0.7-3.3,1.8-4.4c1.1-1.1,2.7-1.8,4.4-1.8
		C90.2,319.8,92.9,322.6,92.9,326z"/>
	<circle class="st6" cx="87.3" cy="343.5" r="3.8"/>
	<circle class="st8" cx="87.3" cy="343.4" r="2.7"/>
	<circle class="st6" cx="68" cy="383.2" r="2.8"/>
	<circle class="st6" cx="343.9" cy="372.6" r="2.6"/>
	<circle class="st6" cx="166.4" cy="289.9" r="5.6"/>
	<path class="st6" d="M169.7,285.3l-3.8-3.1c0,0-3.4-0.7-5.9,3.1c0,0-1.9,2.9-0.6,6.4l3.7,2.8"/>
	<path class="st6" d="M269.4,357.6c0,5.7-4.6,10.3-10.3,10.3c-5.7,0-10.3-4.6-10.3-10.3c0-5.7,4.6-10.3,10.3-10.3
		c2.5,0,4.9,0.9,6.7,2.5C268,351.6,269.4,354.4,269.4,357.6z"/>
	<path class="st6" d="M265.2,349.3l-6.2-4.5c0,0-4.6-2.8-10.3,3c0,0-4.9,4.8-2.6,11.2l5.9,6.1"/>
	<path class="st6" d="M266.7,350.7c0,0-2.3-7.3-7.6-8.4c0,0-7.4-2.5-12.8,4.2c0,0-3.8,4-3.3,9.7c0,0-0.1,5.7,4.8,9c0,0,4,2.8,7.6,2"
		/>
	<path class="st6" d="M318.4,354.6c0,5.7-4.6,10.3-10.3,10.3c-5.7,0-10.3-4.6-10.3-10.3c0-5.7,4.6-10.3,10.3-10.3
		c2.5,0,4.9,0.9,6.7,2.5C317,348.6,318.4,351.4,318.4,354.6z"/>
	<path class="st6" d="M314.2,346.3l-6.2-4.5c0,0-4.6-2.8-10.3,3c0,0-4.9,4.8-2.6,11.2l5.9,6.1"/>
	<path class="st6" d="M315.7,347.7c0,0-2.3-7.3-7.6-8.4c0,0-7.4-2.5-12.8,4.2c0,0-3.8,4-3.3,9.7c0,0-0.1,5.7,4.8,9c0,0,4,2.8,7.6,2"
		/>
	<rect x="119.8" y="315.2" class="st6" width="4" height="2"/>
	<rect x="135.8" y="315.2" class="st6" width="4" height="2"/>
	<rect x="150.8" y="315.2" class="st6" width="4" height="2"/>
	<rect x="180.8" y="314.2" class="st6" width="4" height="2"/>
	<rect x="209.8" y="314.2" class="st6" width="4" height="2"/>
	<rect x="194.8" y="314.2" class="st6" width="4" height="2"/>
	<rect x="245.8" y="313.2" class="st6" width="4" height="2"/>
	<rect x="258.8" y="313.2" class="st6" width="4" height="2"/>
	<rect x="286.8" y="312.2" class="st6" width="4" height="2"/>
	<rect x="300.8" y="312.2" class="st6" width="4" height="2"/>
	<rect x="314.8" y="311.2" class="st6" width="4" height="2"/>
	<circle class="st6" cx="87.3" cy="358.5" r="3.8"/>
	<circle class="st8" cx="87.3" cy="358.4" r="2.7"/>
	<circle class="st6" cx="87.3" cy="371.5" r="3.8"/>
	<circle class="st8" cx="87.3" cy="371.4" r="2.7"/>
	<line class="st6" x1="80.7" y1="324.9" x2="79.1" y2="324.5"/>
	<line class="st6" x1="81.4" y1="322.8" x2="79.9" y2="322.3"/>
	<path class="st6" d="M80.7,319.8"/>
	<line class="st6" x1="82.4" y1="321.6" x2="80.9" y2="320.4"/>
	<line class="st6" x1="83.5" y1="320.4" x2="82.7" y2="318.9"/>
	<line class="st6" x1="85.2" y1="319.8" x2="84.5" y2="317.8"/>
	<line class="st6" x1="86.8" y1="319.7" x2="86.8" y2="316.7"/>
	<line class="st6" x1="88.2" y1="320" x2="88.9" y2="317.8"/>
	<line class="st6" x1="89.7" y1="320.5" x2="90.8" y2="318.9"/>
	<line class="st6" x1="91.1" y1="321.6" x2="92.7" y2="320.5"/>
	<line class="st6" x1="92.2" y1="323.2" x2="94" y2="322.6"/>
	<line class="st6" x1="93.3" y1="325.2" x2="94.3" y2="325.2"/>
</g>
<g id="reels" class="st29">
	<circle class="st25" cx="109" cy="105.4" r="105"/>
	<circle class="st7" cx="316.9" cy="112.3" r="98.9"/>
	<path class="st7" d="M67.1,32.2c0,0-2-3.7-5.3-1.7c0,0-17.5,7.2-26.8,27c0,0-2,1.7,1.7,4.2c0,0,15.5,12.3,31.7,17.8
		c0,0,3.2,1.5,5.2,0c0,0,6.7-5.3,11.2-11.8c0,0,1-1.2,0-4.5C84.6,63.2,80.1,48.6,67.1,32.2z"/>
	<path class="st7" d="M70.3,179.3c0,0-2.1,3.6,1.3,5.4c0,0,15,11.5,36.9,9.4c0,0,2.5,0.9,2.7-3.5c0,0,2.8-19.6-0.7-36.3
		c0,0-0.3-3.5-2.6-4.5c0,0-8-3-15.9-3.6c0,0-1.5-0.3-3.9,2.3C88.1,148.5,77.9,159.8,70.3,179.3z"/>
	<path class="st7" d="M195.8,104c0,0,4.2-0.1,3.9-4c0,0,1.5-18.9-12-36.1c0,0-1.9-1.2-5.8,1c0,0-15.7,6.9-27.9,18.9
		c0,0-2.8,2.2-2.3,4.6c0,0,1.8,8.4,5.5,15.3c0,0,0.6,1.4,4,2C161.3,105.6,175.3,108.1,195.8,104z"/>
	<circle class="st7" cx="74.1" cy="115.9" r="3.2"/>
	<circle class="st7" cx="139.1" cy="132.9" r="3.2"/>
	<circle class="st7" cx="121.1" cy="68.9" r="3.2"/>
	<path class="st2" d="M141.1,104.3c0,16-13,27.5-29,27.5c-16,0-29-11.5-29-27.5c0-16,13-29,29-29C128.1,75.4,141.1,88.3,141.1,104.3
		z"/>
	<circle class="st2" cx="110.6" cy="105.2" r="30"/>
	<circle class="st2" cx="111.4" cy="104.9" r="8.9"/>
	<circle class="st2" cx="112.3" cy="102.9" r="3.3"/>
	<circle class="st2" cx="111.3" cy="104.4" r="19.5"/>
	<polygon class="st2" points="118.9,23.3 130.3,25.6 124.3,57.7 112.9,55.1 	"/>
	<polygon class="st2" points="151.9,135.2 139.9,147.7 176.7,183.3 188.8,170.3 	"/>
	<path class="st7" d="M365.3,49L343,78.4c0,0-1.8,1.5,0,4.2l9.2,13.5c0,0,0.7,1.3,3.8,0l32.3-13.3c0,0,3.2-0.7,1.3-5.2
		c0,0-6-16.7-19.5-28.5C370.1,49,368,46.4,365.3,49z"/>
	<path class="st7" d="M329.1,152.9c0,0-8,3-14.7,1.8c0,0-2.7-1.3-3,1.5l-5,40.2c0,0-0.7,4.2,3,4.7c0,0,20,2.8,33.7-4.5
		c0,0,2.7-0.8,1.7-5.3l-13-36.3C331.8,154.9,331.4,152.1,329.1,152.9z"/>
	<path class="st7" d="M283.6,84.9l-32.7-26.4c0,0-3.3-2.6-5.5,0.8c0,0-10,13.8-13.5,33.2c0,0-1.7,3.7,3.3,4.7l39,7.5
		c0,0,2.7,1.2,2.8-1.5c0,0,0.8-7,6.5-15.3C283.6,87.9,285,86,283.6,84.9z"/>
	<circle class="st7" cx="281.9" cy="116.4" r="2.8"/>
	<circle class="st7" cx="330.3" cy="79.9" r="2.8"/>
	<circle class="st7" cx="337.2" cy="142.3" r="2.8"/>
	<circle class="st7" cx="320.5" cy="148.7" r="4.5"/>
	<circle class="st7" cx="322.1" cy="111.2" r="26.3"/>
	<circle class="st28" cx="320.2" cy="111.7" r="28.7"/>
	<circle class="st28" cx="322.3" cy="110.5" r="17.7"/>
	<circle class="st28" cx="323.8" cy="110.8" r="3.6"/>
	<circle class="st28" cx="321.3" cy="112.1" r="7.1"/>
	<path class="st6" d="M312.4,75.4l-4.7,0.9c0,0-2.1,0.9,0,1.9h4.6L312.4,75.4z"/>
	<polygon class="st6" points="282.2,40.2 334.8,35.7 334.8,43.7 284.2,47.9 	"/>
</g>
<g id="body_smaller" class="st29">
	<g class="st20">
		<ellipse class="st14" cx="114.3" cy="225.5" rx="123" ry="11.8"/>
		<g id="XMLID_2_">
			<g>
				<path class="st0" d="M64.2,120.4c-0.1,0-0.4-0.1-0.7,0.2l-1.1,0.4v11l-7.4,2.4c0.6-0.7,1-1.7,1-2.7c0-1-0.4-1.9-0.9-2.6h0
					c0.3-0.5,3.5-2.1,3.5-2.1c0.7-2.1-1.5-1.9-1.5-1.9l-4.3,2.6c-0.3,0-0.5-0.1-0.8-0.1c-2.2,0-4.1,1.8-4.1,4l-15.6-24.1V31.8
					c0,0,0.5-1.6,1.7-2.2c0,0,0,0,0,0c1-0.3,1.8-0.1,1.8-0.1l75.9,2.8l18.7,0.8l68,2.1c0,0,1.9-0.1,1.9,1.7l-0.7,28.7l-14.3,61.4v0
					c-0.4-0.1-0.8-0.2-1.2-0.2c-0.6,0-1.1,0.1-1.6,0.4c0,0-1-0.9-2.9-0.2l-2.5-1.6c0,0-3.5,0.1-1.6,2.4c0,0,1.3,0.8,2.3,1.6
					c0,0.1,0,0.3,0,0.4c0,0-0.3,1.8,1.3,3c0,0,0.3,0.3,0.9,0.5l-14.9-2.9v-9.3h-16.8l-0.1,0.1l-3.7-4.8l-10.4-15.8
					c-0.2-0.4-0.5-0.6-0.7-0.8l0.1-0.1l-2.1-1.4c0,0-0.6-0.4-1.7-0.4l-22.3-0.4c0,0-0.9,0-2,1.9l-15.6,21L64.2,120.4
					C64.2,120.4,64.2,120.4,64.2,120.4z"/>
				<path class="st0" d="M199.8,65.7l-1.2,49.4l-0.9,37.5h0l-80.2,0.7h-0.1l0.3-0.7l0.1,0l0,0.1l39.2-0.5l8.5-8.9V139v-8.6l14.9,2.9
					l0,0c0.3,0.1,0.6,0.2,1.1,0.2h0c0,0,2.3,5,1.8,8.5c0,0,1.1,2.2,2.8,0.2c0,0,0.2-6.6-1.3-8.1c1.9-0.1,3.3-1.7,3.3-3.6
					c0-1.6-1-3-2.5-3.4v0L199.8,65.7z"/>
				<path class="st13" d="M177.6,197.8c-0.1-0.2-1.4-4.2-4.3-4.8c0,0-4.2-1.4-7.3,2.4c0,0-2.2,2.3-1.9,5.5c0,0,0,3.2,2.7,5.1
					c0,0,2.3,1.6,4.3,1.2c0.6,0.2,1.4,0.4,2.1,0.4c3.2,0,5.8-2.6,5.8-5.8C179.1,200.3,178.6,198.9,177.6,197.8L177.6,197.8z
					 M108.2,155.9l0.2,0.2h9.1v-2.9v0l80.2-0.7h0l-1.5,61.5c0,1.1-0.9,1-0.9,1l-2.5,0.1l-7.8,0.3l-6.5,0.3l-135.4,5.5h0l-9.3,0.4
					c-0.1,0-0.1,0-0.2,0c-1.7-0.8-1.2-2.6-1.2-2.6v-65.6h74.7h0.4v1.9L108.2,155.9z M50.6,183.9c-0.2-0.3-0.4-0.6-0.6-0.9
					c-0.2-0.2-0.5-0.5-0.8-0.6c-0.5-0.3-1.1-0.4-1.6-0.4h0c-1,0-1.9,0.4-2.5,1c-0.5,0.5-0.8,1.1-1,1.9c0,0.2-0.1,0.4-0.1,0.6
					c0,1.9,1.6,3.5,3.5,3.5c1.9,0,3.5-1.6,3.5-3.5C50.9,185,50.8,184.4,50.6,183.9z M196.2,173.4c0-0.8-0.7-1.5-1.5-1.5
					c-0.8,0-1.5,0.7-1.5,1.5c0,0.8,0.7,1.5,1.5,1.5C195.5,174.9,196.2,174.2,196.2,173.4z M195.1,212c0-0.8-0.7-1.5-1.5-1.5
					c-0.8,0-1.5,0.7-1.5,1.5c0,0.8,0.7,1.5,1.5,1.5C194.5,213.5,195.1,212.8,195.1,212z M190.5,166.6v-10.5l-150.9,1.8v11.2
					L190.5,166.6z M179.7,187.6v-7.2h-2.9v7.2H179.7z M179.7,178.3v-1.4h-2.9v1.4H179.7z M171.1,187.6v-7.2H169v7.2H171.1z
					 M171.1,179v-1.4H169v1.4H171.1z M164,187.6v-7.2h-2.1v7.2H164z M163.3,179v-1.4h-2.1v1.4H163.3z M151.3,203.5
					c0-1.5-0.6-2.9-1.5-3.9c0,0-1.3-4.2-4.3-4.8c0,0-4.2-1.4-7.3,2.4c0,0-2.2,2.3-1.9,5.5c0,0,0,3.2,2.7,5.1c0,0,2.3,1.6,4.3,1.1
					c0.7,0.2,1.4,0.4,2.1,0.4C148.7,209.3,151.3,206.7,151.3,203.5z M148.3,187.6v-6.4h-2.1v6.4H148.3z M147.5,179.7v-1.4h-2.1v1.4
					H147.5z M140.4,187.6v-6.4h-2.9v6.4H140.4z M140.4,179.7v-1.4h-2.9v1.4H140.4z M125,208.2l0.2-14.4c0-1.1-1-1-1-1L95,193.2
					c-0.5,0.2-0.4,0.7-0.4,0.7v15c0,1.2,0.7,1.2,0.7,1.2l28.9-0.8C125,209.3,125,208.2,125,208.2z M119.7,189v-7.2h-2.1v7.2H119.7z
					 M119.7,179.7V179h-2.1v0.7H119.7z M111.1,189.7v-7.9h-2.1v7.9H111.1z M111.1,179.7V179h-2.1v0.7H111.1z M103.2,179.7V179h-2.1
					v0.7H103.2z M102.5,189.7v-7.9h-2.1v7.9H102.5z M91.4,209.9l0.2-15.5c0-1.1-1-1-1-1l-29.2,0.4c-0.5,0.2-0.4,0.7-0.4,0.7v15.6
					c0,1.2,0.7,1.2,0.7,1.2l28.9-0.8C91.5,210.5,91.4,209.9,91.4,209.9z M86,189.7v-7.9h-2.1v7.9H86z M86,180.4v-0.7h-2.1v0.7H86z
					 M77.5,190.5v-7.9h-2.1v7.9H77.5z M77.5,180.4v-0.7h-2.1v0.7H77.5z M68.9,190.5v-7.9h-2.1v7.9H68.9z M68.2,180.4v-0.7H66v0.7
					H68.2z M49.9,195.5c0-1.2-1-2.2-2.2-2.2c-1.2,0-2.2,1-2.2,2.2c0,1.2,1,2.2,2.2,2.2C49,197.7,49.9,196.7,49.9,195.5z M49.9,204
					c0-1.2-1-2.2-2.2-2.2c-1.2,0-2.2,1-2.2,2.2c0,1.2,1,2.2,2.2,2.2C49,206.2,49.9,205.2,49.9,204z M49.9,211.4c0-1.2-1-2.2-2.2-2.2
					c-1.2,0-2.2,1-2.2,2.2c0,1.2,1,2.2,2.2,2.2C49,213.6,49.9,212.6,49.9,211.4z M38.4,218.1c0-0.9-0.7-1.6-1.6-1.6
					c-0.9,0-1.6,0.7-1.6,1.6c0,0.9,0.7,1.6,1.6,1.6C37.7,219.6,38.4,218.9,38.4,218.1z M38.1,176.6c0-0.9-0.7-1.6-1.6-1.6
					c-0.9,0-1.6,0.7-1.6,1.6c0,0.9,0.7,1.6,1.6,1.6C37.4,178.2,38.1,177.5,38.1,176.6z"/>
				<path class="st21" d="M196.4,219l0.2,2.5c-0.1,1.2-0.7,1.1-0.7,1.1l-6.4,0.2c-0.4,0-0.7,0-1-0.1l0-0.1c-0.7-0.3-0.4-1-0.4-1
					l0.4-2.4c0-0.3,0.1-0.5,0.3-0.6c0.3-0.3,0.6-0.3,0.6-0.3h6.5l0.1-0.1C196.3,218.6,196.4,219,196.4,219z"/>
				<path class="st26" d="M195.9,218.2l-0.1,0.1h-6.5c0,0-0.3,0-0.6,0.3l0,0l-3.8-3.3l7.8-0.3l2.8,2.8
					C195.7,218,195.8,218.1,195.9,218.2z"/>
				<path class="st27" d="M194.7,171.9c0.8,0,1.5,0.7,1.5,1.5c0,0.8-0.7,1.5-1.5,1.5c-0.8,0-1.5-0.7-1.5-1.5
					C193.2,172.5,193.9,171.9,194.7,171.9z"/>
				<path class="st27" d="M193.6,210.5c0.8,0,1.5,0.7,1.5,1.5c0,0.8-0.7,1.5-1.5,1.5c-0.8,0-1.5-0.7-1.5-1.5
					C192.1,211.2,192.8,210.5,193.6,210.5z"/>
				<path class="st0" d="M108.3,166.9h3.5v-1.4h-3.6v1.3v0.1H108.3z M137.5,160.2l-10.7,0.1v5.7l10.7-0.2l10-0.1l10-0.1l10-0.1v-5.7
					l-10,0.1l-10,0.1L137.5,160.2z M111.1,164.5v-4.8h-3.6v3.9v0.1v0.3h0.2h2.6L111.1,164.5z M190.5,156.1v10.5l-150.9,2.6v-11.2
					L190.5,156.1z M189,164.9v-5.2h-9.3h-10v5.7l10-0.3L189,164.9z M122.5,163.3v-5.7h-8.6v5.7H122.5z M95.9,165
					c0-1.1-0.5-2.1-1.4-2.6l0,0l-2.1-1.8c0,0-2-0.4-3.3,1.8c0,0-1.1,1.6-0.4,3.6l2,1.5l0.1,0.1c0.5,0.4,1.2,0.6,1.9,0.6
					C94.5,168.2,95.9,166.8,95.9,165z M78.2,167.6v-7.2h-2.9v7.2H78.2z M69.6,167.6v-7.2h-2.9v7.2H69.6z M61,167.6v-7.2h-2.9v7.2H61
					z M48.9,168.3v-7.2h-5.7v7.2H48.9z"/>
				<polygon class="st27" points="189,159.7 189,164.9 179.7,165.2 179.7,165.2 179.7,160.1 179.7,159.7 				"/>
				<path class="st21" d="M188.7,218.6L188.7,218.6c-0.1,0.2-0.2,0.4-0.2,0.6l-0.4,2.4c0,0-0.3,0.7,0.4,1l0,0.1
					c-0.8-0.2-1.2-0.5-1.2-0.5l-8.8-6.6l6.5-0.3L188.7,218.6z"/>
				<path class="st22" d="M185.5,127.1c1.4,0.5,2.5,1.8,2.5,3.4c0,1.9-1.5,3.5-3.3,3.6c-0.1,0-0.2,0-0.3,0c-0.8,0-1.5-0.2-2-0.6
					c-1-0.7-1.6-1.8-1.6-3c0-1.4,0.8-2.7,2.1-3.3c0.5-0.2,1-0.4,1.6-0.4C184.7,126.9,185.1,126.9,185.5,127.1z"/>
				<path class="st9" d="M184.6,134.1c1.5,1.5,1.3,8.1,1.3,8.1c-1.7,2-2.8-0.2-2.8-0.2c0.6-3.5-1.8-8.5-1.8-8.5c0.3,0,0.6,0,0.9,0
					c0.6,0.4,1.3,0.6,2,0.6C184.4,134.1,184.5,134.1,184.6,134.1z"/>
				<path class="st21" d="M182.8,127.2c-1.2,0.6-2.1,1.8-2.1,3.3c0,1.2,0.6,2.3,1.6,3c-0.3,0-0.6,0-0.9,0h0l-1.1-0.2l0,0
					c-0.6-0.2-0.9-0.5-0.9-0.5c-1.6-1.2-1.3-3-1.3-3c0-0.1,0-0.3,0-0.4c0.2-1.6,1.4-2.2,1.4-2.2c0.1-0.1,0.3-0.1,0.4-0.2
					C181.8,126.3,182.8,127.2,182.8,127.2z"/>
				<path class="st9" d="M177.4,125.5l2.5,1.6c-0.1,0.1-0.3,0.1-0.4,0.2c0,0-1.1,0.6-1.4,2.2c-1.1-0.8-2.3-1.6-2.3-1.6
					C174,125.6,177.4,125.5,177.4,125.5z"/>
				<rect x="176.9" y="180.4" class="st27" width="2.9" height="7.2"/>
				<rect x="176.9" y="176.9" class="st15" width="2.9" height="1.4"/>
				<polygon class="st27" points="179.7,165.2 179.7,165.2 169.7,165.5 169.7,159.7 179.7,159.7 179.7,160.1 				"/>
				<path class="st22" d="M168.9,205.6c-0.9-1-1.4-2.4-1.4-3.8c0-3.2,2.6-5.8,5.8-5.8c1.3,0,2.4,0.4,3.4,1.1l0.1,0.1
					c0.1,0.1,0.2,0.1,0.3,0.2c0.2,0.2,0.4,0.3,0.5,0.5c1,1,1.5,2.4,1.5,3.9c0,3.2-2.6,5.8-5.8,5.8c-0.7,0-1.4-0.1-2.1-0.4
					C170.3,206.9,169.5,206.3,168.9,205.6z"/>
				<path class="st22" d="M177.6,197.8L177.6,197.8c-0.2-0.2-0.3-0.4-0.5-0.5c-0.1-0.1-0.2-0.2-0.3-0.2l-0.1-0.1l-3.4-2.5
					c0,0-2.6-1.6-5.8,1.7c0,0-2.8,2.7-1.5,6.4l2.9,2.9c0.6,0.7,1.4,1.3,2.3,1.7c-2.1,0.4-4.3-1.2-4.3-1.2c-2.8-1.9-2.7-5.1-2.7-5.1
					c-0.3-3.2,1.9-5.5,1.9-5.5c3-3.8,7.3-2.4,7.3-2.4C176.2,193.7,177.5,197.6,177.6,197.8z"/>
				<path class="st21" d="M173.3,194.5l3.4,2.5c-1-0.7-2.1-1.1-3.4-1.1c-3.2,0-5.8,2.6-5.8,5.8c0,1.5,0.5,2.8,1.4,3.8l-2.9-2.9
					c-1.3-3.7,1.5-6.4,1.5-6.4C170.7,193,173.3,194.5,173.3,194.5z"/>
				<rect x="169" y="180.4" class="st27" width="2.1" height="7.2"/>
				<polygon class="st27" points="167.6,159.8 167.6,165.5 157.6,165.6 157.6,160.1 157.6,159.9 				"/>
				<polygon class="st21" points="165.4,139 165.4,143.3 156.9,152.1 117.8,152.6 117.8,152.5 118.5,149.1 118.5,149 132.9,149 
					133,149 147.9,149 155.4,149 165.1,139 				"/>
				<path class="st0" d="M165.4,130.4v8.6h-0.3l-9.7,10h-7.4v0c3.1,0,5.7-2.5,5.7-5.7c0-3.1-2.5-5.7-5.7-5.7c-1.6,0-3,0.6-4,1.7
					l-0.8-0.7l1-1.1h0l11.9-4.6c0.6,1.6,2.2,2.7,4,2.7c2.3,0,4.2-1.9,4.2-4.2c0-0.4-0.1-0.8-0.2-1.2L165.4,130.4z"/>
				<path class="st0" d="M165.4,121.1v9.3l-1.4-0.3c-0.5-1.8-2.1-3.1-4.1-3.1c-2.3,0-4.2,1.9-4.2,4.2c0,0.5,0.1,1.1,0.3,1.5
					l-11.9,4.6l2.9-3.1l-0.9-1.3c0,0,0,0,0,0l0.5-0.5l0.4,0.5c0.5,0.5,0.9,0.2,0.9,0.2l4.4-4.9c0.5-0.5,0.3-1,0.3-1l-2.6-3.3
					c0-0.2,0-0.4,0-0.5c0-0.5,0-0.3,0-0.3l-1.6-2l0.1-0.1H165.4z"/>
				<path class="st22" d="M164,130.1c0.1,0.4,0.2,0.8,0.2,1.2c0,2.3-1.9,4.2-4.2,4.2c-1.8,0-3.3-1.1-4-2.7l1.6-0.6
					c0.2,0.8,0.7,1.7,1.8,1.7c0,0,2-0.1,2-0.8c0.2,0.1,0.5,0.1,0.7,0.1c1.1,0,1.9-0.9,1.9-1.9c0-0.5-0.2-1-0.6-1.4L164,130.1z"/>
				<path class="st22" d="M164,130.1l-0.5-0.1h0c-0.3-0.3-0.8-0.5-1.3-0.5c-0.2,0-0.5,0-0.7,0.1c0,0-0.4-0.7-2-0.7
					c0,0-2.1,0.1-2.1,1.9c0,0,0,0.7,0.2,1.4l-1.6,0.6c-0.2-0.5-0.3-1-0.3-1.5c0-2.3,1.9-4.2,4.2-4.2
					C161.9,127.1,163.5,128.4,164,130.1z"/>
				<rect x="161.9" y="180.4" class="st27" width="2.1" height="7.2"/>
				<path class="st22" d="M163.5,130c0.4,0.4,0.6,0.8,0.6,1.4c0,1.1-0.9,1.9-1.9,1.9c-0.2,0-0.5-0.1-0.7-0.1c-0.7-0.3-1.2-1-1.2-1.8
					c0-0.8,0.5-1.5,1.2-1.8c0.2-0.1,0.5-0.1,0.7-0.1C162.7,129.5,163.2,129.7,163.5,130L163.5,130z"/>
				<rect x="161.1" y="177.6" class="st15" width="2.1" height="1.4"/>
				<path class="st21" d="M157.6,132.2c-0.2-0.7-0.2-1.4-0.2-1.4c0-1.8,2.1-1.9,2.1-1.9c1.5,0,2,0.7,2,0.7c-0.7,0.3-1.2,1-1.2,1.8
					c0,0.8,0.5,1.5,1.2,1.8c0,0.7-2,0.8-2,0.8C158.4,134,157.8,133.1,157.6,132.2z"/>
				<polygon class="st27" points="157.6,160.1 157.6,165.6 147.5,165.7 147.5,160.1 147.5,160 157.6,159.9 				"/>
				<path class="st22" d="M152.7,127.3c0,0,0.2,0.5-0.3,1l-4.4,4.9c0,0-0.4,0.4-0.9-0.2l-0.4-0.5l-0.7-0.7l-6.3-0.1v-3.9l-39.4-0.1
					l-0.2,3.8l-14-0.1l0.2-7.5c0,0,0-1.2,1.6-1.1l6.1,0.1l56.2,0.6c0,0.1,0,0.3,0,0.5L152.7,127.3z M149.5,127.5
					c0-0.8-0.6-1.4-1.4-1.4c-0.8,0-1.4,0.6-1.4,1.4s0.6,1.4,1.4,1.4C148.9,128.9,149.5,128.2,149.5,127.5z M91.2,127.2
					c0-0.9-0.8-1.7-1.7-1.7c-0.9,0-1.7,0.8-1.7,1.7c0,0.9,0.8,1.7,1.7,1.7C90.5,128.9,91.2,128.1,91.2,127.2z"/>
				<path class="st21" d="M147.9,137.6c3.1,0,5.7,2.5,5.7,5.7c0,3.1-2.5,5.7-5.7,5.7c-3.1,0-5.7-2.5-5.7-5.7c0-1.6,0.6-3,1.7-4
					C144.9,138.2,146.3,137.6,147.9,137.6z M152.6,143.7c0-2.4-2-4.4-4.4-4.4c-2.5,0-4.4,2-4.4,4.4c0,2.5,2,4.4,4.4,4.4
					C150.7,148.1,152.6,146.1,152.6,143.7z"/>
				<path class="st22" d="M148.2,139.2c2.4,0,4.4,2,4.4,4.4c0,2.5-2,4.4-4.4,4.4c-2.5,0-4.4-2-4.4-4.4
					C143.8,141.2,145.8,139.2,148.2,139.2z"/>
				<path class="st22" d="M141,207.3c-0.9-1-1.4-2.4-1.4-3.8c0-3.2,2.6-5.8,5.8-5.8c1.3,0,2.4,0.4,3.4,1.1l0.1,0.1
					c0.1,0.1,0.2,0.2,0.3,0.2c0.2,0.2,0.4,0.3,0.5,0.5c0.9,1,1.5,2.4,1.5,3.9c0,3.2-2.6,5.8-5.8,5.8c-0.7,0-1.4-0.1-2.1-0.4
					C142.4,208.6,141.6,208,141,207.3z"/>
				<path class="st5" d="M107.5,106.8v2.4v1.2h2.9v-3.6H107.5z M150.1,123.2c0,0,0.1-0.2,0,0.3L93.9,123v-0.2c0.1,0,0.3-0.1,0.6-0.5
					l2.5-5.8l11.7-16.4c0,0,0.2-0.6,1.6-0.6l22.4,0.3c0,0,0.4-0.1,0.9,0.2c0.2,0.1,0.5,0.4,0.7,0.8l10.4,15.8l3.7,4.8L150.1,123.2z
					 M135.4,110.4v-2.9h-2.1v2.9H135.4z M129,110.4v-5.5l-15-0.3l-0.2,5.8H129z"/>
				<path class="st22" d="M149.8,199.6c-0.2-0.2-0.4-0.4-0.5-0.5c-0.1-0.1-0.2-0.2-0.3-0.2l-0.1-0.1l-3.4-2.5c0,0-2.6-1.6-5.8,1.7
					c0,0-2.8,2.7-1.5,6.4l2.9,3c0.6,0.7,1.4,1.3,2.3,1.6c-2.1,0.4-4.3-1.1-4.3-1.1c-2.8-1.9-2.7-5.1-2.7-5.1
					c-0.3-3.2,1.9-5.5,1.9-5.5c3-3.8,7.3-2.4,7.3-2.4C148.4,195.4,149.8,199.6,149.8,199.6z"/>
				<path class="st27" d="M148.1,126c0.8,0,1.4,0.6,1.4,1.4s-0.6,1.4-1.4,1.4c-0.8,0-1.4-0.6-1.4-1.4S147.3,126,148.1,126z"/>
				<path class="st21" d="M145.4,196.3l3.4,2.5c-1-0.7-2.1-1.1-3.4-1.1c-3.2,0-5.8,2.6-5.8,5.8c0,1.5,0.5,2.8,1.4,3.8l-2.9-3
					c-1.3-3.6,1.5-6.4,1.5-6.4C142.8,194.7,145.4,196.3,145.4,196.3z"/>
				<rect x="146.1" y="181.2" class="st27" width="2.1" height="6.4"/>
				<path class="st0" d="M147.9,149L147.9,149l-14.9,0c0,0,0.5-0.4,1.2-1.1l8.9-9.4l0.8,0.7c-1,1-1.7,2.4-1.7,4
					C142.2,146.4,144.8,149,147.9,149z"/>
				<rect x="145.4" y="178.3" class="st15" width="2.1" height="1.4"/>
				<polygon class="st27" points="147.5,160.1 147.5,165.7 137.5,165.9 137.5,165.8 137.5,160.2 147.5,160 				"/>
				<path class="st22" d="M108.2,149h-0.7H96.9c-0.5,0-0.9-0.2-1.1-0.4c-0.2-0.2-0.3-0.5-0.3-0.5l-9.6-10.3l-1-0.9l-0.5-3.2l2.3-1
					l13.5,0.1l45.1,0.2c0.9-0.1,1,0,1,0c0,0,0,0,0,0l0.9,1.3l-2.9,3.1h0l-1,1.1l-8.9,9.4c-0.7,0.7-1.2,1.1-1.2,1.1h-0.1h-14.4H108.2
					z M132.5,140.4V134h-32.2v6.4H132.5z"/>
				<path class="st13" d="M146,131.9l0.7,0.7l-0.5,0.5c0,0-0.1-0.1-1,0l-45.1-0.2l0-1.2l0.2-3.8l39.4,0.1v3.9L146,131.9z"/>
				<rect x="137.5" y="181.2" class="st27" width="2.9" height="6.4"/>
				<polygon class="st27" points="137.5,165.8 137.5,165.9 126.8,166 126.8,160.3 137.5,160.2 				"/>
				<rect x="133.2" y="107.5" class="st27" width="2.1" height="2.9"/>
				<path class="st13" d="M131.6,98.3l2.1,1.4l-0.1,0.1c-0.5-0.3-0.9-0.2-0.9-0.2l-22.4-0.3c-1.4,0-1.6,0.6-1.6,0.6L97,116.4
					l-2.5,5.8c-0.3,0.5-0.5,0.5-0.6,0.5c0,0,0,0,0,0l-2.5-1.5l-1.3,0l0-1l15.6-21c1.1-1.9,2-1.9,2-1.9L130,98
					C131,98,131.6,98.3,131.6,98.3z"/>
				<rect x="100.4" y="134" class="st11" width="32.2" height="6.4"/>
				<polygon points="129,104.9 129,110.4 113.7,110.4 113.9,104.6 				"/>
				<path class="st22" d="M125.2,193.8l-0.2,14.4c0,0,0.1,1.2-0.8,1.2l-28.9,0.8c0,0-0.7,0-0.7-1.2v-15c0,0-0.1-0.5,0.4-0.7
					l29.2-0.4C124.2,192.8,125.2,192.6,125.2,193.8z M124,207.5v-13.2l-27.9,0.5v13.4l15.7-0.4L124,207.5z"/>
				<rect x="113.9" y="157.6" class="st26" width="8.6" height="5.7"/>
				<rect x="117.5" y="181.9" class="st27" width="2.1" height="7.2"/>
				<polygon class="st24" points="118.5,149 118.5,149.1 117.8,152.5 117.7,152.5 117.4,153.2 117.5,153.2 117.5,153.3 108.6,153.3 
					108.2,153.3 108.2,149 				"/>
				<polygon class="st1" points="117.5,153.3 117.5,156.1 108.4,156.1 108.2,155.9 108.2,153.3 108.6,153.3 				"/>
				<polygon class="st27" points="111.8,165.4 111.8,166.9 108.3,166.9 108.2,166.8 108.2,165.4 				"/>
				<rect x="108.9" y="181.9" class="st27" width="2.1" height="7.9"/>
				<polygon class="st27" points="111.1,159.7 111.1,164.5 110.3,164 107.7,164 107.5,163.7 107.5,163.6 107.5,159.7 				"/>
				<polygon class="st27" points="107.5,109.2 107.5,106.8 110.4,106.8 110.4,110.4 107.5,110.4 				"/>
				<path class="st0" d="M107.5,152.5v0.8h-0.4H32.4v-45.6L48,131.7c0,0.7,0.1,1.3,0.4,1.8c0,0-2,5.2-1.4,8.9c0,0,1.1,2.1,2.8,0.4
					c0,0-0.2-5.3,1.2-7l0-0.1c0.3,0.1,0.7,0.1,1,0.1c1.2,0,2.3-0.5,3-1.4l7.4-2.4v11.3l8.4,9.1L107.5,152.5z"/>
				<path class="st21" d="M107.5,149v3.5l-36.6-0.1l-8.4-9.1V132l0.7-0.2v7l10.2,10l22.4-0.1c0.2,0.2,0.6,0.4,1.1,0.4H107.5z"/>
				<rect x="100.4" y="181.9" class="st27" width="2.1" height="7.9"/>
				<path class="st13" d="M100.1,131.6l0,1.2l-13.5-0.1l-2.3,1l-1.7-11.1c0.4-1.3,2.6-1.3,2.6-1.3l4.8-0.1l1.3,0l2.5,1.5
					c0,0,0,0,0,0v0.2l-6.1-0.1c-1.6-0.1-1.6,1.1-1.6,1.1l-0.2,7.5L100.1,131.6z"/>
				<path class="st0" d="M95.8,148.6l-22.4,0.1l-10.2-10v-7l1.5-0.5c-0.1,0.6-0.2,1.1-0.2,1.7c0,4.6,3.7,8.3,8.3,8.3
					s8.3-3.7,8.3-8.3c0-0.3,0-0.6,0-0.9l3.1,1.7l0.1,0l0.5,3.2l1,0.9l9.6,10.3C95.4,148.1,95.5,148.4,95.8,148.6z"/>
				<path class="st22" d="M94.6,162.4c0.8,0.6,1.4,1.5,1.4,2.6c0,1.8-1.4,3.2-3.2,3.2c-0.7,0-1.4-0.2-1.9-0.6l-0.1-0.1
					c-0.7-0.6-1.2-1.5-1.2-2.5c0-1.8,1.4-3.2,3.2-3.2C93.4,161.8,94,162,94.6,162.4L94.6,162.4z"/>
				<path class="st21" d="M92.4,160.6l2.1,1.8c-0.5-0.3-1.1-0.5-1.8-0.5c-1.8,0-3.2,1.4-3.2,3.2c0,1,0.5,1.9,1.2,2.5l-2-1.5
					c-0.7-2,0.4-3.6,0.4-3.6C90.5,160.2,92.4,160.6,92.4,160.6z"/>
				<path class="st22" d="M91.6,194.4l-0.2,15.5c0,0,0.1,0.6-0.8,0.6l-28.9,0.8c0,0-0.7,0-0.7-1.2v-15.6c0,0-0.1-0.5,0.4-0.7
					l29.2-0.4C90.6,193.4,91.6,193.2,91.6,194.4z M90.3,208.7v-13.9l-27.9,0.5v14L73,209l5.5-0.1L90.3,208.7z"/>
				<path class="st27" d="M89.5,125.5c0.9,0,1.7,0.8,1.7,1.7c0,0.9-0.8,1.7-1.7,1.7c-0.9,0-1.7-0.8-1.7-1.7
					C87.8,126.3,88.6,125.5,89.5,125.5z"/>
				<path class="st0" d="M90,120.4l0,1l-4.8,0.1c0,0-2.2,0-2.6,1.3l1.7,11.1l-0.1,0l-3.1-1.7c-0.4-4.2-4-7.4-8.3-7.4
					c-4,0-7.3,2.8-8.1,6.6l-1.5,0.5v-9.8c0-0.7,0.2-1.1,0.4-1.4l0.7-0.2c0,0,0,0,0,0H90z"/>
				<rect x="83.9" y="181.9" class="st27" width="2.1" height="7.9"/>
				<path class="st22" d="M81.1,132.1c0,0.3,0,0.6,0,0.9c0,4.6-3.7,8.3-8.3,8.3s-8.3-3.7-8.3-8.3c0-0.6,0.1-1.2,0.2-1.7l3.6-1.2
					c-0.6,0.9-1,2-1,3.1c0,3.1,2.5,5.5,5.5,5.5c3.1,0,5.5-2.5,5.5-5.5c0-1.1-0.3-2.1-0.9-3L81.1,132.1z"/>
				<path class="st22" d="M81.1,132.1l-3.6-1.9c0,0,0,0,0,0c-1-1.5-2.7-2.5-4.6-2.5c-1.9,0-3.6,0.9-4.5,2.4l-3.6,1.2
					c0.8-3.8,4.1-6.6,8.1-6.6C77.1,124.7,80.7,127.9,81.1,132.1z"/>
				<rect x="75.3" y="160.4" class="st27" width="2.9" height="7.2"/>
				<path class="st21" d="M77.5,130.2c0.6,0.9,0.9,1.9,0.9,3c0,3.1-2.5,5.5-5.5,5.5c-3.1,0-5.5-2.5-5.5-5.5c0-1.2,0.4-2.2,1-3.1
					c1-1.4,2.7-2.4,4.5-2.4C74.8,127.6,76.6,128.6,77.5,130.2C77.5,130.2,77.5,130.2,77.5,130.2z M77.2,133.1c0-2-1.6-3.7-3.7-3.7
					c-2,0-3.7,1.6-3.7,3.7c0,2,1.6,3.7,3.7,3.7C75.6,136.8,77.2,135.2,77.2,133.1z"/>
				<rect x="75.3" y="182.6" class="st27" width="2.1" height="7.9"/>
				<path class="st22" d="M73.6,129.5c2,0,3.7,1.6,3.7,3.7c0,2-1.6,3.7-3.7,3.7c-2,0-3.7-1.6-3.7-3.7
					C69.9,131.1,71.6,129.5,73.6,129.5z"/>
				<rect x="66.7" y="160.4" class="st27" width="2.9" height="7.2"/>
				<rect x="66.7" y="182.6" class="st27" width="2.1" height="7.9"/>
				<rect x="58.2" y="160.4" class="st27" width="2.9" height="7.2"/>
				<path class="st9" d="M57.2,125.1c0,0,2.2-0.1,1.5,1.9c0,0-3.2,1.6-3.5,2.1h0c-0.6-0.7-1.4-1.2-2.3-1.4L57.2,125.1z"/>
				<path class="st22" d="M55.2,129.1c0.6,0.7,0.9,1.6,0.9,2.6c0,1-0.4,2-1,2.7c-0.7,0.8-1.8,1.4-3,1.4c-0.4,0-0.7,0-1-0.1
					c-1.1-0.3-2.1-1.1-2.6-2.1c-0.3-0.5-0.4-1.2-0.4-1.8c0-2.2,1.8-4,4.1-4c0.3,0,0.5,0,0.8,0.1C53.8,127.9,54.6,128.4,55.2,129.1z"
					/>
				<path class="st9" d="M51,135.6l0,0.1c-1.4,1.6-1.2,7-1.2,7c-1.6,1.7-2.8-0.4-2.8-0.4c-0.6-3.6,1.4-8.9,1.4-8.9
					C49,134.5,49.9,135.3,51,135.6z"/>
				<path class="st22" d="M50.6,183.9c0.3,0.5,0.4,1,0.4,1.6c0,1.9-1.6,3.5-3.5,3.5c-1.9,0-3.5-1.6-3.5-3.5c0-0.2,0-0.4,0.1-0.6
					c0.1-0.7,0.5-1.4,1-1.9c0.6-0.6,1.5-1,2.5-1h0c0.6,0,1.2,0.2,1.6,0.4c0.3,0.2,0.6,0.4,0.8,0.6C50.2,183.3,50.4,183.6,50.6,183.9
					z"/>
				<path class="st22" d="M47.8,193.3c1.2,0,2.2,1,2.2,2.2c0,1.2-1,2.2-2.2,2.2c-1.2,0-2.2-1-2.2-2.2
					C45.6,194.3,46.6,193.3,47.8,193.3z M49.3,195.5c0-0.9-0.7-1.5-1.5-1.5c-0.9,0-1.5,0.7-1.5,1.5c0,0.9,0.7,1.5,1.5,1.5
					C48.6,197,49.3,196.3,49.3,195.5z"/>
				<circle class="st3" cx="47.7" cy="195.5" r="1.5"/>
				<circle class="st3" cx="47.7" cy="204" r="1.5"/>
				<path class="st3" d="M47.7,209.8c0.9,0,1.5,0.7,1.5,1.5c0,0.9-0.7,1.5-1.5,1.5c-0.9,0-1.5-0.7-1.5-1.5
					C46.2,210.5,46.9,209.8,47.7,209.8z"/>
				<rect x="43.1" y="161.1" class="st15" width="5.7" height="7.2"/>
				<path class="st21" d="M43.6,228l0,0.4c0,0.6-0.6,0.6-0.6,0.6l-8.5,0.3c-0.7,0-0.8-0.3-0.8-0.5c0-0.1,0.1-0.2,0.1-0.2l0.8-3.3
					c0.1,0.1,0.2,0.2,0.5,0.2l7.7-0.3c0,0,0.1,0,0.2-0.1L43.6,228C43.6,228,43.6,228,43.6,228z"/>
				<path class="st26" d="M43,224.5c0,0.3-0.1,0.5-0.2,0.6v0c-0.1,0.1-0.2,0.1-0.2,0.1l-7.7,0.3c-0.3,0-0.4-0.1-0.5-0.2
					c-0.1-0.2-0.1-0.3-0.1-0.3l-0.8-3.4c0,0,0,0,0,0c0.1,0,0.1,0,0.2,0l9.3-0.4L43,224.5z"/>
				<path class="st27" d="M36.8,216.5c0.9,0,1.6,0.7,1.6,1.6c0,0.9-0.7,1.6-1.6,1.6c-0.9,0-1.6-0.7-1.6-1.6
					C35.2,217.2,35.9,216.5,36.8,216.5z"/>
				<path class="st27" d="M36.5,175c0.9,0,1.6,0.7,1.6,1.6c0,0.9-0.7,1.6-1.6,1.6c-0.9,0-1.6-0.7-1.6-1.6
					C34.9,175.7,35.6,175,36.5,175z"/>
				<path class="st21" d="M34.5,225.2l-0.8,3.3c0,0-0.1,0.1-0.1,0.2h0l-0.8-7.3l0-0.1c0.2,0.1,0.5,0.1,0.7,0.1c0,0,0,0,0,0l0.8,3.4
					C34.5,224.9,34.4,225.1,34.5,225.2z"/>
				<path class="st18" d="M32.4,107.6v45.6v65.6c0,0-0.5,1.8,1.2,2.6c-0.3,0-0.5,0-0.7-0.1c-1.9-0.4-1.3-2.3-1.3-2.3L31.7,112V33.5
					c0-2.6,1.3-3.5,2.4-3.9c-1.3,0.5-1.7,2.2-1.7,2.2V107.6z"/>
			</g>
			<g>
				<path class="st12" d="M34.1,29.7C33,30,31.7,31,31.7,33.5V112l-0.2,107.1c0,0-0.6,1.9,1.3,2.3c0.2,0.1,0.5,0.1,0.7,0.1
					c0.1,0,0.1,0,0.2,0l9.3-0.4h0l135.4-5.5l6.5-0.3l7.8-0.3l2.5-0.1c0,0,0.9,0.2,0.9-1l1.5-61.5l0.9-37.5l1.2-49.4l0.7-28.7
					c0-1.8-1.9-1.7-1.9-1.7l-68-2.1l-18.7-0.8L36,29.5C36,29.5,35.1,29.4,34.1,29.7"/>
				<path class="st12" d="M34.5,225.2l-0.8,3.3c0,0-0.1,0.1-0.1,0.2c0,0.2,0.1,0.5,0.8,0.5l8.5-0.3c0,0,0.6,0,0.6-0.6
					c0-0.1,0-0.2,0-0.4c0,0,0,0,0,0l-0.8-3"/>
				<polyline class="st12" points="32.9,221.5 33.7,228.8 33.7,228.9 				"/>
				<polyline class="st12" points="43.1,221.1 43.6,228 43.7,228.4 43.7,228.5 				"/>
				<path class="st12" d="M178.4,215.6l8.8,6.6c0,0,0.4,0.4,1.2,0.5c0.3,0.1,0.6,0.1,1,0.1l6.4-0.2c0,0,0.7,0,0.7-1.1l-0.2-2.5
					c0,0-0.1-0.4-0.5-0.7c-0.1-0.1-0.3-0.2-0.4-0.4l-2.8-2.8"/>
				<path class="st12" d="M195.8,218.3h-6.5c0,0-0.3,0-0.6,0.3c-0.1,0.1-0.2,0.3-0.3,0.6l-0.4,2.4c0,0-0.3,0.7,0.4,1"/>
				<line class="st12" x1="188.7" y1="218.6" x2="184.9" y2="215.4"/>
				<path class="st12" d="M144.1,137.5l2.9-3.1l-0.9-1.3c0,0,0,0,0,0c0,0-0.1-0.1-1,0l-45.1-0.2l-13.5-0.1l-2.3,1l-0.1,0l-3.1-1.7
					l-3.6-1.9"/>
				<path class="st12" d="M133,149c0,0,0.5-0.4,1.2-1.1l8.9-9.4l1-1.1"/>
				<path class="st12" d="M150.1,123.5L93.9,123l-6.1-0.1c-1.6-0.1-1.6,1.1-1.6,1.1l-0.2,7.5l14,0.1l0.2-3.8l39.4,0.1v3.9l6.3,0.1
					l0.7,0.7l0.4,0.5c0.5,0.5,0.9,0.2,0.9,0.2l4.4-4.9c0.5-0.5,0.3-1,0.3-1l-2.6-3.3C150.1,123.8,150.1,123.6,150.1,123.5
					c0-0.5,0-0.3,0-0.3l-1.6-2l-3.7-4.8l-10.4-15.8c-0.2-0.4-0.5-0.6-0.7-0.8c-0.5-0.3-0.9-0.2-0.9-0.2l-22.4-0.3
					c-1.4,0-1.6,0.6-1.6,0.6L97,116.4l-2.5,5.8c-0.3,0.5-0.5,0.5-0.6,0.5c0,0,0,0,0,0l-2.5-1.5l-1.3,0l-4.8,0.1c0,0-2.2,0-2.6,1.3
					l1.7,11.1l0.5,3.2l1,0.9l9.6,10.3c0,0,0.1,0.2,0.3,0.5c0.2,0.2,0.6,0.4,1.1,0.4h10.6h0.7h10.2h14.4"/>
				<path class="st12" d="M133.7,99.8L133.7,99.8l-2.1-1.4c0,0-0.6-0.4-1.7-0.4l-22.3-0.4c0,0-0.9,0-2,1.9l-15.6,21H64.2
					c0,0,0,0,0,0c-0.1,0-0.4-0.1-0.7,0.2c-0.2,0.2-0.4,0.6-0.4,1.4v9.8v7l10.2,10l22.4-0.1h0.4"/>
				<polyline class="st12" points="132.9,149 133,149 147.9,149 155.4,149 165.1,139 				"/>
				<polyline class="st12" points="64.3,120.3 64.2,120.4 63.5,120.6 62.5,121 62.5,132 62.5,143.3 70.9,152.4 107.5,152.5 
					107.6,152.5 				"/>
				<polyline class="st12" points="107.5,148.6 107.5,149 107.5,152.5 107.5,153.3 107.5,155.2 108.2,155.9 108.4,156.1 
					117.5,156.1 117.5,153.3 108.6,153.3 				"/>
				<polyline class="st12" points="108.2,156.5 108.2,155.9 108.2,153.3 108.2,149 108.2,148.6 				"/>
				<polyline class="st12" points="118.5,149.1 117.8,152.5 117.8,152.6 156.9,152.1 165.4,143.3 165.4,139 165.4,130.4 
					165.4,121.1 148.6,121.1 				"/>
				<polygon class="st12" points="113.9,104.6 129,104.9 129,110.4 113.7,110.4 				"/>
				<rect x="133.2" y="107.5" class="st12" width="2.1" height="2.9"/>
				<polyline class="st12" points="133.4,107.2 132.8,106.8 135.3,106.8 135.6,107 				"/>
				<polyline class="st12" points="132.5,107.1 132.5,109.7 132.9,110.7 				"/>
				<polyline class="st12" points="107.5,106.8 110.4,106.8 110.4,110.4 107.5,110.4 107.5,109.2 				"/>
				<polyline class="st12" points="107.8,106.6 107.2,106.1 109.7,106.1 110,106.3 				"/>
				<polyline class="st12" points="107.5,106.4 107.5,106.8 107.5,109.2 107.8,110.1 				"/>
				<path class="st12" d="M43.1,221.1l0,3.3c0,0.3-0.1,0.5-0.2,0.6v0c-0.1,0.1-0.2,0.1-0.2,0.1l-7.7,0.3c-0.3,0-0.4-0.1-0.5-0.2
					c-0.1-0.2-0.1-0.3-0.1-0.3l-0.8-3.4c0,0,0,0,0,0c-1.7-0.8-1.2-2.6-1.2-2.6v-65.6v-45.6V31.8c0,0,0.5-1.6,1.7-2.2c0,0,0,0,0,0
					c0.3-0.1,0.6-0.2,0.9-0.2"/>
				<polyline class="st12" points="197.7,152.5 117.5,153.2 117.4,153.2 117.7,152.5 				"/>
				<line class="st12" x1="107.1" y1="153.3" x2="32.4" y2="153.3"/>
				<rect x="100.4" y="134" class="st12" width="32.2" height="6.4"/>
				<polygon class="st12" points="39.6,157.9 190.5,156.1 190.5,166.6 39.6,169.2 				"/>
				<rect x="113.9" y="157.6" class="st12" width="8.6" height="5.7"/>
				<polygon class="st12" points="137.5,165.9 126.8,166 126.8,160.3 137.5,160.2 147.5,160 157.6,159.9 167.6,159.8 167.6,165.5 
					157.6,165.6 147.5,165.7 				"/>
				<polyline class="st12" points="137.5,160.1 137.5,160.2 137.5,165.8 				"/>
				<polyline class="st12" points="147.5,160.1 147.5,165.7 147.5,165.8 				"/>
				<polyline class="st12" points="157.6,160.1 157.6,165.6 157.6,165.8 				"/>
				<polygon class="st12" points="179.7,165.2 169.7,165.5 169.7,159.7 179.7,159.7 189,159.7 189,164.9 				"/>
				<line class="st12" x1="179.7" y1="160.1" x2="179.7" y2="165.2"/>
				<rect x="43.1" y="161.1" class="st12" width="5.7" height="7.2"/>
				<rect x="58.2" y="160.4" class="st12" width="2.9" height="7.2"/>
				<rect x="66.7" y="160.4" class="st12" width="2.9" height="7.2"/>
				<rect x="75.3" y="160.4" class="st12" width="2.9" height="7.2"/>
				<polygon class="st12" points="108.2,166.8 108.2,165.4 111.8,165.4 111.8,166.9 108.3,166.9 108.2,166.9 				"/>
				<polyline class="st12" points="108.5,167 108.3,166.9 108.2,166.8 107.5,166 107.5,164 107.5,163.7 107.7,164 108.6,165.2 				
					"/>
				<polyline class="st12" points="107.1,164 107.5,164 107.7,164 110.3,164 111.1,164.5 111.9,164.9 				"/>
				<polyline class="st12" points="111.1,165.1 111.1,164.5 111.1,159.7 107.5,159.7 107.5,163.6 				"/>
				<path class="st12" d="M61.4,193.8l29.2-0.4c0,0,1-0.1,1,1l-0.2,15.5c0,0,0.1,0.6-0.8,0.6l-28.9,0.8c0,0-0.7,0-0.7-1.2v-15.6
					C61,194.5,60.9,193.9,61.4,193.8z"/>
				<path class="st12" d="M95,193.2l29.2-0.4c0,0,1-0.1,1,1l-0.2,14.4c0,0,0.1,1.2-0.8,1.2l-28.9,0.8c0,0-0.7,0-0.7-1.2v-15
					C94.6,193.9,94.5,193.4,95,193.2z"/>
				<polygon class="st12" points="73,209 62.5,209.2 62.5,195.2 90.3,194.7 90.3,208.7 78.5,208.9 				"/>
				<polygon class="st12" points="96.1,194.8 124,194.3 124,207.5 111.7,207.8 96.1,208.2 				"/>
				<path class="st12" d="M66.7,200.1c0,0,0.3-0.1,0.8-0.3c0.9-0.3,2.5-0.7,4.5-0.9c1.4-0.2,2.9-0.3,4.7-0.3c2.6,0,5.4,0.3,8.4,1.1"
					/>
				<line class="st12" x1="67" y1="198.6" x2="67.5" y2="199.9"/>
				<line class="st12" x1="69.5" y1="198" x2="69.9" y2="199.3"/>
				<polyline class="st12" points="71.9,197.7 72.1,198.9 72.1,199 				"/>
				<line class="st12" x1="73.9" y1="197.3" x2="73.9" y2="198.7"/>
				<polyline class="st12" points="76.8,197.3 76.8,198.6 76.8,198.7 				"/>
				<line class="st12" x1="80.6" y1="197.7" x2="80.3" y2="198.8"/>
				<line class="st12" x1="83.7" y1="198.3" x2="83.2" y2="199.3"/>
				<path class="st12" d="M99.7,199c0,0,0.3-0.1,0.8-0.3c0.9-0.3,2.5-0.7,4.5-0.9c0.8-0.1,1.6-0.2,2.4-0.2c3.1-0.2,6.8-0.1,10.6,1"
					/>
				<line class="st12" x1="100" y1="197.5" x2="100.5" y2="198.7"/>
				<line class="st12" x1="102.5" y1="196.9" x2="102.8" y2="198.1"/>
				<polyline class="st12" points="104.9,196.5 105.1,197.8 105.1,197.8 				"/>
				<polyline class="st12" points="107.5,195.8 107.5,197.6 107.5,198 				"/>
				<line class="st12" x1="110.4" y1="195.8" x2="110.4" y2="197.3"/>
				<line class="st12" x1="113.6" y1="196.5" x2="113.3" y2="197.7"/>
				<line class="st12" x1="116.7" y1="197.2" x2="116.2" y2="198.1"/>
				<path class="st12" d="M73,209c0,0,2.8-3.8,5.5-0.1"/>
				<path class="st12" d="M106,208c0,0,2.6-3.9,5.7-0.1"/>
				<rect x="66.7" y="182.6" class="st12" width="2.1" height="7.9"/>
				<rect x="75.3" y="182.6" class="st12" width="2.1" height="7.9"/>
				<rect x="83.9" y="181.9" class="st12" width="2.1" height="7.9"/>
				<rect x="100.4" y="181.9" class="st12" width="2.1" height="7.9"/>
				<rect x="108.9" y="181.9" class="st12" width="2.1" height="7.9"/>
				<rect x="117.5" y="181.9" class="st12" width="2.1" height="7.2"/>
				<rect x="137.5" y="181.2" class="st12" width="2.9" height="6.4"/>
				<rect x="146.1" y="181.2" class="st12" width="2.1" height="6.4"/>
				<rect x="161.9" y="180.4" class="st12" width="2.1" height="7.2"/>
				<rect x="176.9" y="180.4" class="st12" width="2.9" height="7.2"/>
				<rect x="169" y="180.4" class="st12" width="2.1" height="7.2"/>
				<polyline class="st12" points="118.2,176.5 118.2,175.5 101.8,175.8 67.5,176.3 67.5,177.2 				"/>
				<line class="st12" x1="110.4" y1="175.8" x2="110.4" y2="176.5"/>
				<line class="st12" x1="101.8" y1="175.8" x2="101.8" y2="176.5"/>
				<line class="st12" x1="85.3" y1="176.5" x2="85.3" y2="177.2"/>
				<line class="st12" x1="76.8" y1="176.5" x2="76.8" y2="177.2"/>
				<polyline class="st12" points="146.1,176.5 146.1,175.4 138.3,175.4 138.3,176.5 				"/>
				<polyline class="st12" points="177.6,175.1 177.6,174.1 162.6,174.6 162.6,175.8 				"/>
				<line class="st12" x1="170.4" y1="174.4" x2="170.4" y2="175.8"/>
				<path class="st12" d="M81.1,132.1c0,0.3,0,0.6,0,0.9c0,4.6-3.7,8.3-8.3,8.3s-8.3-3.7-8.3-8.3c0-0.6,0.1-1.2,0.2-1.7
					c0.8-3.8,4.1-6.6,8.1-6.6C77.1,124.7,80.7,127.9,81.1,132.1z"/>
				<path class="st12" d="M77.5,130.2c0.6,0.9,0.9,1.9,0.9,3c0,3.1-2.5,5.5-5.5,5.5c-3.1,0-5.5-2.5-5.5-5.5c0-1.2,0.4-2.2,1-3.1
					c1-1.4,2.7-2.4,4.5-2.4C74.8,127.6,76.6,128.6,77.5,130.2C77.5,130.2,77.5,130.2,77.5,130.2z"/>
				<path class="st12" d="M77.2,133.1c0,2-1.6,3.7-3.7,3.7c-2,0-3.7-1.6-3.7-3.7c0-2,1.6-3.7,3.7-3.7
					C75.6,129.5,77.2,131.1,77.2,133.1z"/>
				<path class="st12" d="M55.2,129.1c0.6,0.7,0.9,1.6,0.9,2.6c0,1-0.4,2-1,2.7c-0.7,0.8-1.8,1.4-3,1.4c-0.4,0-0.7,0-1-0.1
					c-1.1-0.3-2.1-1.1-2.6-2.1c-0.3-0.5-0.4-1.2-0.4-1.8c0-2.2,1.8-4,4.1-4c0.3,0,0.5,0,0.8,0.1C53.8,127.9,54.6,128.4,55.2,129.1z"
					/>
				<path class="st12" d="M52.9,127.7l4.3-2.6c0,0,2.2-0.1,1.5,1.9c0,0-3.2,1.6-3.5,2.1"/>
				<path class="st12" d="M48.5,133.5c0,0-2,5.2-1.4,8.9c0,0,1.1,2.1,2.8,0.4c0,0-0.2-5.3,1.2-7"/>
				<path class="st12" d="M143.9,139.3c1-1,2.4-1.7,4-1.7c3.1,0,5.7,2.5,5.7,5.7c0,3.1-2.5,5.7-5.7,5.7c-3.1,0-5.7-2.5-5.7-5.7
					C142.2,141.7,142.9,140.3,143.9,139.3z"/>
				<path class="st12" d="M152.6,143.7c0,2.5-2,4.4-4.4,4.4c-2.5,0-4.4-2-4.4-4.4c0-2.4,2-4.4,4.4-4.4
					C150.7,139.2,152.6,141.2,152.6,143.7z"/>
				<path class="st12" d="M163.5,130c0.4,0.4,0.6,0.8,0.6,1.4c0,1.1-0.9,1.9-1.9,1.9c-0.2,0-0.5-0.1-0.7-0.1c-0.7-0.3-1.2-1-1.2-1.8
					c0-0.8,0.5-1.5,1.2-1.8c0.2-0.1,0.5-0.1,0.7-0.1C162.7,129.5,163.2,129.7,163.5,130"/>
				<path class="st12" d="M161.5,129.6c0,0-0.4-0.7-2-0.7c0,0-2.1,0.1-2.1,1.9c0,0,0,0.7,0.2,1.4c0.2,0.8,0.7,1.7,1.8,1.7
					c0,0,2-0.1,2-0.8"/>
				<path class="st12" d="M164,130.1c0.1,0.4,0.2,0.8,0.2,1.2c0,2.3-1.9,4.2-4.2,4.2c-1.8,0-3.3-1.1-4-2.7c-0.2-0.5-0.3-1-0.3-1.5
					c0-2.3,1.9-4.2,4.2-4.2C161.9,127.1,163.5,128.4,164,130.1z"/>
				<path class="st12" d="M149.5,127.5c0,0.8-0.6,1.4-1.4,1.4c-0.8,0-1.4-0.6-1.4-1.4s0.6-1.4,1.4-1.4
					C148.9,126,149.5,126.7,149.5,127.5z"/>
				<path class="st12" d="M91.2,127.2c0,0.9-0.8,1.7-1.7,1.7c-0.9,0-1.7-0.8-1.7-1.7c0-0.9,0.8-1.7,1.7-1.7
					C90.5,125.5,91.2,126.3,91.2,127.2z"/>
				<path class="st12" d="M185.5,127.1c1.4,0.5,2.5,1.8,2.5,3.4c0,1.9-1.5,3.5-3.3,3.6c-0.1,0-0.2,0-0.3,0c-0.8,0-1.5-0.2-2-0.6
					c-1-0.7-1.6-1.8-1.6-3c0-1.4,0.8-2.7,2.1-3.3c0.5-0.2,1-0.4,1.6-0.4C184.7,126.9,185.1,126.9,185.5,127.1z"/>
				<path class="st12" d="M181.4,133.5c0.3,0,0.6,0,0.9,0"/>
				<path class="st12" d="M180.3,133.3c0.3,0.1,0.6,0.2,1.1,0.2"/>
				<path class="st12" d="M182.8,127.2c0,0-1-0.9-2.9-0.2c-0.1,0.1-0.3,0.1-0.4,0.2c0,0-1.1,0.6-1.4,2.2c0,0.1,0,0.3,0,0.4
					c0,0-0.3,1.8,1.3,3c0,0,0.3,0.3,0.9,0.5"/>
				<path class="st12" d="M179.9,127.1l-2.5-1.6c0,0-3.5,0.1-1.6,2.4c0,0,1.3,0.8,2.3,1.6"/>
				<path class="st12" d="M184.6,134.1c1.5,1.5,1.3,8.1,1.3,8.1c-1.7,2-2.8-0.2-2.8-0.2c0.6-3.5-1.8-8.5-1.8-8.5h0l-1.1-0.2l0,0
					l-14.9-2.9l-1.4-0.3l-0.5-0.1h0"/>
				<path class="st12" d="M38.1,176.6c0,0.9-0.7,1.6-1.6,1.6c-0.9,0-1.6-0.7-1.6-1.6c0-0.9,0.7-1.6,1.6-1.6
					C37.4,175,38.1,175.7,38.1,176.6z"/>
				<path class="st12" d="M196.2,173.4c0,0.8-0.7,1.5-1.5,1.5c-0.8,0-1.5-0.7-1.5-1.5c0-0.8,0.7-1.5,1.5-1.5
					C195.5,171.9,196.2,172.5,196.2,173.4z"/>
				<path class="st12" d="M50.6,183.9c0.3,0.5,0.4,1,0.4,1.6c0,1.9-1.6,3.5-3.5,3.5c-1.9,0-3.5-1.6-3.5-3.5c0-0.2,0-0.4,0.1-0.6
					c0.1-0.7,0.5-1.4,1-1.9c0.6-0.6,1.5-1,2.5-1h0c0.6,0,1.2,0.2,1.6,0.4c0.3,0.2,0.6,0.4,0.8,0.6C50.2,183.3,50.4,183.6,50.6,183.9
					z"/>
				<path class="st12" d="M49.9,195.5c0,1.2-1,2.2-2.2,2.2c-1.2,0-2.2-1-2.2-2.2c0-1.2,1-2.2,2.2-2.2
					C49,193.3,49.9,194.3,49.9,195.5z"/>
				<path class="st12" d="M49.3,195.5c0,0.9-0.7,1.5-1.5,1.5c-0.9,0-1.5-0.7-1.5-1.5c0-0.9,0.7-1.5,1.5-1.5
					C48.6,193.9,49.3,194.6,49.3,195.5z"/>
				<path class="st12" d="M38.4,218.1c0,0.9-0.7,1.6-1.6,1.6c-0.9,0-1.6-0.7-1.6-1.6c0-0.9,0.7-1.6,1.6-1.6
					C37.7,216.5,38.4,217.2,38.4,218.1z"/>
				<path class="st12" d="M195.1,212c0,0.8-0.7,1.5-1.5,1.5c-0.8,0-1.5-0.7-1.5-1.5c0-0.8,0.7-1.5,1.5-1.5
					C194.5,210.5,195.1,211.2,195.1,212z"/>
				<path class="st12" d="M90.7,167.5c-0.7-0.6-1.2-1.5-1.2-2.5c0-1.8,1.4-3.2,3.2-3.2c0.7,0,1.3,0.2,1.8,0.5"/>
				<path class="st12" d="M94.6,162.4c0.8,0.6,1.4,1.5,1.4,2.6c0,1.8-1.4,3.2-3.2,3.2c-0.7,0-1.4-0.2-1.9-0.6"/>
				<path class="st12" d="M94.6,162.4L94.6,162.4l-2.2-1.8c0,0-2-0.4-3.3,1.8c0,0-1.1,1.6-0.4,3.6l2,1.5l0.1,0.1"/>
				<path class="st12" d="M148.9,198.8c0.1,0.1,0.2,0.2,0.3,0.2c0.2,0.2,0.4,0.3,0.5,0.5c0.9,1,1.5,2.4,1.5,3.9
					c0,3.2-2.6,5.8-5.8,5.8c-0.7,0-1.4-0.1-2.1-0.4c-0.9-0.3-1.7-0.9-2.3-1.6c-0.9-1-1.4-2.4-1.4-3.8c0-3.2,2.6-5.8,5.8-5.8
					c1.3,0,2.4,0.4,3.4,1.1"/>
				<path class="st12" d="M148.9,198.8l-0.1-0.1l-3.4-2.5c0,0-2.6-1.6-5.8,1.7c0,0-2.8,2.7-1.5,6.4l2.9,3l0.5,0.5"/>
				<path class="st12" d="M149.8,199.6c0,0-1.3-4.2-4.3-4.8c0,0-4.2-1.4-7.3,2.4c0,0-2.2,2.3-1.9,5.5c0,0,0,3.2,2.7,5.1
					c0,0,2.3,1.6,4.3,1.1"/>
				<path class="st12" d="M176.8,197.1c0.1,0.1,0.2,0.1,0.3,0.2c0.2,0.2,0.4,0.3,0.5,0.5c1,1,1.5,2.4,1.5,3.9c0,3.2-2.6,5.8-5.8,5.8
					c-0.7,0-1.4-0.1-2.1-0.4c-0.9-0.4-1.7-0.9-2.3-1.7c-0.9-1-1.4-2.4-1.4-3.8c0-3.2,2.6-5.8,5.8-5.8c1.3,0,2.4,0.4,3.4,1.1"/>
				<path class="st12" d="M176.8,197.1l-0.1-0.1l-3.4-2.5c0,0-2.6-1.6-5.8,1.7c0,0-2.8,2.7-1.5,6.4l2.9,2.9l0.5,0.5"/>
				<path class="st12" d="M177.6,197.9C177.6,197.9,177.6,197.9,177.6,197.9c-0.1-0.3-1.4-4.2-4.3-4.8c0,0-4.2-1.4-7.3,2.4
					c0,0-2.2,2.3-1.9,5.5c0,0,0,3.2,2.7,5.1c0,0,2.3,1.6,4.3,1.2"/>
				<rect x="66" y="179.7" class="st12" width="2.1" height="0.7"/>
				<rect x="75.3" y="179.7" class="st12" width="2.1" height="0.7"/>
				<rect x="83.9" y="179.7" class="st12" width="2.1" height="0.7"/>
				<rect x="101.1" y="179" class="st12" width="2.1" height="0.7"/>
				<rect x="117.5" y="179" class="st12" width="2.1" height="0.7"/>
				<rect x="108.9" y="179" class="st12" width="2.1" height="0.7"/>
				<rect x="137.5" y="178.3" class="st12" width="2.9" height="1.4"/>
				<rect x="145.4" y="178.3" class="st12" width="2.1" height="1.4"/>
				<rect x="161.1" y="177.6" class="st12" width="2.1" height="1.4"/>
				<rect x="169" y="177.6" class="st12" width="2.1" height="1.4"/>
				<rect x="176.9" y="176.9" class="st12" width="2.9" height="1.4"/>
				<path class="st12" d="M49.9,204c0,1.2-1,2.2-2.2,2.2c-1.2,0-2.2-1-2.2-2.2c0-1.2,1-2.2,2.2-2.2C49,201.9,49.9,202.8,49.9,204z"
					/>
				<path class="st12" d="M49.3,204c0,0.9-0.7,1.5-1.5,1.5c-0.9,0-1.5-0.7-1.5-1.5c0-0.9,0.7-1.5,1.5-1.5
					C48.6,202.4,49.3,203.1,49.3,204z"/>
				<path class="st12" d="M49.9,211.4c0,1.2-1,2.2-2.2,2.2c-1.2,0-2.2-1-2.2-2.2c0-1.2,1-2.2,2.2-2.2
					C49,209.3,49.9,210.2,49.9,211.4z"/>
				<circle class="st12" cx="47.7" cy="211.4" r="1.5"/>
				<line class="st12" x1="44" y1="184.9" x2="43.1" y2="184.7"/>
				<line class="st12" x1="44.4" y1="183.7" x2="43.5" y2="183.4"/>
				<line class="st12" x1="44.9" y1="183" x2="44.1" y2="182.3"/>
				<line class="st12" x1="45.6" y1="182.3" x2="45.1" y2="181.5"/>
				<line class="st12" x1="46.5" y1="182" x2="46.2" y2="180.8"/>
				<polyline class="st12" points="47.4,182.2 47.4,182 47.4,180.1 				"/>
				<line class="st12" x1="48.2" y1="182.1" x2="48.7" y2="180.8"/>
				<line class="st12" x1="49.1" y1="182.4" x2="49.7" y2="181.5"/>
				<line class="st12" x1="49.9" y1="183" x2="50.8" y2="182.4"/>
				<polyline class="st12" points="50.5,183.9 50.6,183.9 51.6,183.6 				"/>
				<polyline class="st12" points="144.1,137.5 144.1,137.5 156,132.9 157.6,132.2 160,131.3 				"/>
				<polyline class="st12" points="68.3,130 64.7,131.2 63.2,131.7 62.5,132 55.1,134.4 				"/>
				<polyline class="st12" points="48,131.7 32.4,107.6 32.3,107.5 				"/>
				<line class="st12" x1="185.5" y1="127.1" x2="199.8" y2="65.7"/>
			</g>
		</g>
	</g>
</g>
<g id="drive" class="st29">
	
		<image style="display:inline;overflow:visible;" width="600" height="843" xlink:href="insp/824409576735_TTq9U5Cd_l.jpg"  transform="matrix(1 0 0 1 -585.1826 -240.5718)">
	</image>
</g>
<g id="reels_smaller" class="st29">
</g>
<g id="reels_paint">
	<g id="XMLID_3_">
		<g>
			<path class="st30" d="M60.1,0.4c33,0,59.7,26.7,59.7,59.7c0,33-26.7,59.7-59.7,59.7c-33,0-59.7-26.7-59.7-59.7
				C0.4,27.1,27.1,0.4,60.1,0.4z M111.7,57c0,0,0.8-10.7-6.8-20.5c0,0-1.1-0.7-3.3,0.6c0,0-8.9,3.9-15.8,10.7c0,0-1.6,1.2-1.3,2.6
				c0,0,1,4.8,3.1,8.7c0,0,0.3,0.8,2.3,1.2c0,0,8,1.4,19.7-0.9C109.5,59.3,111.8,59.2,111.7,57z M77.4,60c0-9.4-7.6-17.1-17.1-17.1
				c-2.4,0-4.7,0.5-6.8,1.4c-0.2,0.1-0.4,0.2-0.6,0.3c-5.8,2.7-9.9,8.6-9.9,15.5c0,9.4,7.6,17.1,17.1,17.1c2.4,0,4.7-0.5,6.8-1.4
				c0.2-0.1,0.4-0.2,0.6-0.3C73.3,72.7,77.4,66.8,77.4,60z M61.3,109.3c0,0,1.6-11.2-0.4-20.7c0,0-0.2-2-1.5-2.5c0,0-4.5-1.7-9-2.1
				c0,0-0.9-0.2-2.2,1.3c0,0-5.8,6.4-10.2,17.5c0,0-1.2,2,0.7,3.1c0,0,8.6,6.5,21,5.4C59.8,111.3,61.2,111.8,61.3,109.3z M46.2,38.6
				c0,0,0.6-0.7,0-2.6c0,0-2.6-8.3-9.9-17.6c0,0-1.1-2.1-3-0.9c0,0-9.9,4.1-15.3,15.3c0,0-1.1,1,0.9,2.4c0,0,8.8,7,18,10.1
				c0,0,1.8,0.9,2.9,0C39.9,45.4,43.7,42.3,46.2,38.6z"/>
			<path class="st19" d="M60.3,42.9c9.4,0,17.1,7.6,17.1,17.1c0,6.9-4,12.8-9.9,15.5c5.7-2.8,9.7-8.6,9.7-15.4
				c0-9.4-7.6-17.1-17.1-17.1c-2.3,0-4.6,0.5-6.6,1.3C55.6,43.4,57.9,42.9,60.3,42.9z"/>
			<path class="st27" d="M60.1,43c9.4,0,17.1,7.6,17.1,17.1c0,6.8-3.9,12.6-9.7,15.4c-0.2,0.1-0.4,0.2-0.6,0.3
				c-2,0.9-4.3,1.3-6.6,1.3c-9.4,0-17.1-7.6-17.1-17.1c0-6.8,3.9-12.6,9.7-15.4c0.2-0.1,0.4-0.2,0.6-0.3C55.5,43.5,57.7,43,60.1,43z
				 M71.6,60.1c0-6.4-5.2-11.5-11.5-11.5c-6.4,0-11.5,5.2-11.5,11.5c0,6.4,5.2,11.5,11.5,11.5C66.4,71.6,71.6,66.4,71.6,60.1z"/>
			<path class="st17" d="M60.1,48.5c6.4,0,11.5,5.2,11.5,11.5c0,6.4-5.2,11.5-11.5,11.5c-6.4,0-11.5-5.2-11.5-11.5
				C48.5,53.7,53.7,48.5,60.1,48.5z M65.1,60.1c0-2.8-2.3-5.1-5.1-5.1c-2.8,0-5.1,2.3-5.1,5.1c0,2.8,2.3,5.1,5.1,5.1
				C62.9,65.1,65.1,62.9,65.1,60.1z"/>
			<path class="st4" d="M60.1,55c2.8,0,5.1,2.3,5.1,5.1c0,2.8-2.3,5.1-5.1,5.1c-2.8,0-5.1-2.3-5.1-5.1C55,57.3,57.3,55,60.1,55z"/>
			<path class="st19" d="M60.3,77c2.3,0,4.6-0.5,6.6-1.3c-2.1,0.9-4.4,1.4-6.8,1.4c-9.4,0-17.1-7.6-17.1-17.1c0-6.9,4-12.8,9.9-15.5
				c-5.7,2.8-9.7,8.6-9.7,15.4C43.2,69.4,50.9,77,60.3,77z"/>
		</g>
		<g>
			<path class="st12" d="M60.1,0.4c33,0,59.7,26.7,59.7,59.7c0,33-26.7,59.7-59.7,59.7c-33,0-59.7-26.7-59.7-59.7
				C0.4,27.1,27.1,0.4,60.1,0.4z"/>
			<path class="st12" d="M46.2,38.6c0,0,0.6-0.7,0-2.6c0,0-2.6-8.3-9.9-17.6c0,0-1.1-2.1-3-0.9c0,0-9.9,4.1-15.3,15.3
				c0,0-1.1,1,0.9,2.4c0,0,8.8,7,18,10.1c0,0,1.8,0.9,2.9,0C39.9,45.4,43.7,42.3,46.2,38.6z"/>
			<path class="st12" d="M61.3,109.3c0,0,1.6-11.2-0.4-20.7c0,0-0.2-2-1.5-2.5c0,0-4.5-1.7-9-2.1c0,0-0.9-0.2-2.2,1.3
				c0,0-5.8,6.4-10.2,17.5c0,0-1.2,2,0.7,3.1c0,0,8.6,6.5,21,5.4C59.8,111.3,61.2,111.8,61.3,109.3z"/>
			<path class="st12" d="M111.7,57c0,0,0.8-10.7-6.8-20.5c0,0-1.1-0.7-3.3,0.6c0,0-8.9,3.9-15.8,10.7c0,0-1.6,1.2-1.3,2.6
				c0,0,1,4.8,3.1,8.7c0,0,0.3,0.8,2.3,1.2c0,0,8,1.4,19.7-0.9C109.5,59.3,111.8,59.2,111.7,57z"/>
			<path class="st12" d="M53.5,44.3c2-0.9,4.2-1.3,6.6-1.3c9.4,0,17.1,7.6,17.1,17.1c0,6.8-3.9,12.6-9.7,15.4
				c-0.2,0.1-0.4,0.2-0.6,0.3c-2.1,0.9-4.4,1.4-6.8,1.4c-9.4,0-17.1-7.6-17.1-17.1c0-6.9,4-12.8,9.9-15.5
				C53.1,44.5,53.3,44.4,53.5,44.3z"/>
			<path class="st12" d="M71.6,60.1c0,6.4-5.2,11.5-11.5,11.5c-6.4,0-11.5-5.2-11.5-11.5c0-6.4,5.2-11.5,11.5-11.5
				C66.4,48.5,71.6,53.7,71.6,60.1z"/>
			<path class="st12" d="M65.1,60.1c0,2.8-2.3,5.1-5.1,5.1c-2.8,0-5.1-2.3-5.1-5.1c0-2.8,2.3-5.1,5.1-5.1
				C62.9,55,65.1,57.3,65.1,60.1z"/>
		</g>
	</g>
</g>
</svg>
