<?xml version="1.0" encoding="utf-8"?>
<!-- Generator: Adobe Illustrator 16.0.0, SVG Export Plug-In . SVG Version: 6.00 Build 0)  -->
<!DOCTYPE svg PUBLIC "-//W3C//DTD SVG 1.1//EN" "http://www.w3.org/Graphics/SVG/1.1/DTD/svg11.dtd">
<svg version="1.1" xmlns="http://www.w3.org/2000/svg" xmlns:xlink="http://www.w3.org/1999/xlink" x="0px" y="0px" width="113.2px"
	 height="113.2px" viewBox="0 0 113.2 113.2" style="enable-background:new 0 0 113.2 113.2;" xml:space="preserve">
<style type="text/css">
<![CDATA[
	.st0{fill:#48555E;}
	.st1{fill:#7C9499;}
	.st2{display:inline;fill:none;stroke:#0B0146;stroke-width:0.9033;stroke-miterlimit:10;}
	.st3{fill:#111516;}
	.st4{fill:#B0B6B7;}
	.st5{fill:#B1E4EF;}
	.st6{display:inline;fill:none;stroke:#0B0146;stroke-miterlimit:10;}
	.st7{display:inline;fill:none;stroke:#0B0146;stroke-width:0.9243;stroke-miterlimit:10;}
	.st8{display:inline;fill:none;stroke:#0B0146;stroke-width:0.7161;stroke-miterlimit:10;}
	.st9{fill:#1B2123;}
	.st10{display:inline;fill:none;stroke:#0B0146;stroke-width:1.2001;stroke-miterlimit:10;}
	.st11{fill:#8AB0BC;}
	.st12{fill:none;stroke:#221F20;stroke-width:0.7151;stroke-miterlimit:10;}
	.st13{fill:#5D777F;}
	.st14{opacity:0.6;fill:#435054;}
	.st15{fill:#C11616;}
	.st16{display:inline;fill:none;stroke:#0B0146;stroke-width:1.0603;stroke-miterlimit:10;}
	.st17{fill:#C7CFD1;}
	.st18{fill:#2E3738;}
	.st19{display:inline;}
	.st20{fill:#30393D;}
	.st21{fill:#9ECBDC;}
	.st22{display:inline;fill:none;stroke:#0B0146;stroke-width:1.0352;stroke-miterlimit:10;}
	.st23{fill:#6E8389;}
	.st24{display:inline;fill:none;stroke:#0B0146;stroke-width:0.9813;stroke-miterlimit:10;}
	.st25{fill:#3A4549;}
	.st26{fill:#D7E0E3;}
	.st27{display:inline;fill:none;stroke:#0B0146;stroke-width:0.9634;stroke-miterlimit:10;}
	.st28{display:none;}
	.st29{fill:#73949B;}
]]>
</style>
<g id="photo" class="st28">
	
		<image style="display:inline;overflow:visible;opacity:0.6;" width="1193" height="1200" xlink:href="tape_02.jpg"  transform="matrix(0.2784 0 0 0.2784 -124.397 -10.6919)">
	</image>
</g>
<g id="body" class="st28">
	<path class="st6" d="M-62.9,51.3v138L-63,377.6c0,0-1.2,4.2,4,4.2l283.9-11.6c0,0,1.7,0.3,1.7-1.7l4.3-174l3.3-137.3
		c0-3.2-3.3-3-3.3-3l-119.6-3.7l-32.9-1.3l-133.6-5C-55.2,44.3-62.9,43-62.9,51.3z"/>
	<path class="st6" d="M-57.6,388.4l-1.4,5.8c0,0-0.6,1.3,1.4,1.3l15-0.5c0,0,1.4,0,1-1.8L-43,388"/>
	<line class="st6" x1="-60.6" y1="381.9" x2="-59.1" y2="394.9"/>
	<line class="st6" x1="-42.6" y1="381.2" x2="-41.6" y2="394.1"/>
	<path class="st6" d="M195.4,371.5l15.5,11.6c0,0,1.5,1.2,3.9,1l11.2-0.3c0,0,1.2,0,1.3-2l-0.3-4.5c0,0-0.4-1.1-1.6-1.9l-4.9-5"/>
	<path class="st6" d="M226.6,376.8h-12c0,0-1.4-0.1-1.5,1.4l-0.6,4.1c0,0-0.2,1.4,1,1.9"/>
	<line class="st6" x1="213.5" y1="376.8" x2="206.9" y2="371"/>
	<path class="st6" d="M29.8,227.6l4.2-1.8l103,0.5c1.9-0.1,1.8,0.1,1.8,0.1l1.5,2.2l-22.5,23.5c-1.2,1.2-2.1,1.6-2.1,1.6H52
		c-1.9,0-2.5-1.2-2.5-1.2l-16.9-18l-1.8-1.5l-3.8-25c0.6-2.3,4.5-2.2,4.5-2.2l10.8-0.1l4.4,2.6c0,0,0.4,0.2,1.2-0.9l4.3-10.2
		l20.7-28.9c0,0,0.4-1.1,2.7-1.1l39.4,0.5c0,0,1.7-0.3,2.9,1.8l18.3,27.8l9.4,12c0,0,0.1-0.4,0,0.5c0,0.2,0,0.5,0,0.9l4.6,5.8
		c0,0,0.3,0.9-0.5,1.8l-7.7,8.7c0,0-0.6,0.6-1.6-0.3l-2.1-2.1l-11.2-0.1v-6.9l-69.2-0.1l-0.2,6.6l-24.7-0.2l0.4-13.2
		c0,0,0.1-2.1,2.8-2l109.5,1.1"/>
	<path class="st6" d="M116.9,167.8l-3.7-2.5c0,0-1.1-0.6-3-0.6l-39.3-0.7c0,0-1.5-0.1-3.5,3.1L40,203.8H-5.4c0,0-1.5-0.4-1.5,3v29.5
		l17.8,17.5l40-0.2"/>
	<polyline class="st6" points="115.6,253.8 154.9,253.8 172.1,236.3 	"/>
	<polyline class="st6" points="-5.4,203.9 -8.9,205.1 -8.9,244.3 6.1,260.3 70.6,260.6 	"/>
	<polyline class="st6" points="70.1,254.3 70.1,265.3 72.3,266.8 88.1,266.8 88.1,261.8 72.6,261.8 	"/>
	<line class="st6" x1="72.1" y1="267.3" x2="72.1" y2="254.3"/>
	<polyline class="st6" points="89.8,254.3 88.7,260.6 157.4,259.8 172.1,244.3 172.1,204.8 142.6,204.8 	"/>
	<polygon class="st6" points="81.8,176.5 108.1,176.8 108.1,186.8 81.6,186.8 	"/>
	<rect x="116.1" y="180.8" class="st6" width="4" height="6"/>
	<polyline class="st6" points="116.2,180.7 115.2,179.8 119.6,179.8 120.1,180.3 	"/>
	<polyline class="st6" points="115.1,180.3 115.1,185.3 115.7,186.8 	"/>
	<rect x="71.1" y="179.8" class="st6" width="4" height="6"/>
	<polyline class="st6" points="71.2,179.7 70.2,178.8 74.6,178.8 75.1,179.3 	"/>
	<polyline class="st6" points="70.1,179.3 70.1,184.3 70.7,185.8 	"/>
	<path class="st6" d="M-42.6,381.2l0,5.8c0.1,1-0.7,1.2-0.7,1.2l-13.5,0.5c-1.1,0-1-1-1-1l-1.2-5.9c-3.1-1.4-1.9-4.6-1.9-4.6v-329
		c0,0,1-4.2,4.5-4.1"/>
	<polyline class="st6" points="229.3,260.6 88.1,261.8 88.7,260.6 	"/>
	<line class="st6" x1="69.6" y1="261.8" x2="-59.4" y2="261.8"/>
	<rect x="58.1" y="227.8" class="st6" width="56" height="12"/>
	<polygon class="st6" points="-48.9,270.1 217.1,266.8 217.1,285.3 -48.9,289.8 	"/>
	<rect x="82.1" y="269.8" class="st6" width="15" height="10"/>
	<path class="st6" d="M104.9,274.8"/>
	<polygon class="st6" points="105.1,284.3 105.1,274.3 176.1,273.3 176.1,283.3 	"/>
	<line class="st6" x1="123.1" y1="274.3" x2="123.1" y2="284.3"/>
	<line class="st6" x1="141.1" y1="273.3" x2="141.1" y2="283.3"/>
	<line class="st6" x1="159.1" y1="273.3" x2="159.1" y2="283.3"/>
	<polygon class="st6" points="180.1,273.8 214.1,273.8 214.1,282.3 180.1,283.3 	"/>
	<line class="st6" x1="197.1" y1="274.3" x2="197.1" y2="283.3"/>
	<rect x="-42.9" y="275.8" class="st6" width="11" height="12"/>
	<rect x="-15.9" y="274.8" class="st6" width="5" height="12"/>
	<rect x="-0.9" y="274.8" class="st6" width="5" height="12"/>
	<rect x="14.1" y="274.8" class="st6" width="5" height="12"/>
	<rect x="72.1" y="282.8" class="st6" width="6" height="3"/>
	<polyline class="st6" points="72.1,286.1 70.1,284.3 70.1,280.3 72.1,282.8 	"/>
	<polyline class="st6" points="69.6,280.8 75.6,280.8 78.1,282.5 	"/>
	<polyline class="st6" points="77.1,282.3 77.1,273.8 70.1,273.8 70.1,280.3 	"/>
	<path class="st6" d="M-10.3,333.1l51.3-0.7c0,0,1.8-0.2,1.8,1.8l-0.4,27.3c0,0,0.1,1.1-1.4,1.1l-50.8,1.3c0,0-1.2,0.1-1.2-2.1
		v-27.4C-10.9,334.3-11.1,333.4-10.3,333.1z"/>
	<path class="st6" d="M48.7,332.1l51.3-0.7c0,0,1.8-0.2,1.8,1.8l-0.4,25.3c0,0,0.1,2.1-1.4,2.1l-50.8,1.3c0,0-1.2,0.1-1.2-2.1v-26.4
		C48.1,333.3,47.9,332.4,48.7,332.1z"/>
	<polygon class="st6" points="-8.9,335.7 40.1,334.8 40.1,359.3 -8.9,360.3 	"/>
	<polygon class="st6" points="50.1,334.9 99.1,334.1 99.1,357.3 50.1,358.6 	"/>
	<path class="st6" d="M-1,344.3c0,0,15.6-5.5,32.4-0.8"/>
	<line class="st6" x1="-0.5" y1="341.6" x2="0.4" y2="343.9"/>
	<line class="st6" x1="3.9" y1="340.6" x2="4.5" y2="342.7"/>
	<line class="st6" x1="8" y1="339.9" x2="8.4" y2="342.2"/>
	<line class="st6" x1="12.1" y1="339.3" x2="12.1" y2="342.3"/>
	<line class="st6" x1="17.1" y1="339.3" x2="17.1" y2="341.3"/>
	<line class="st6" x1="23.4" y1="339.9" x2="22.9" y2="341.9"/>
	<line class="st6" x1="28.8" y1="341.1" x2="28" y2="342.7"/>
	<path class="st6" d="M57,342.3c0,0,15.6-5.5,32.4-0.8"/>
	<line class="st6" x1="57.5" y1="339.6" x2="58.4" y2="341.9"/>
	<line class="st6" x1="61.9" y1="338.6" x2="62.5" y2="340.7"/>
	<line class="st6" x1="66" y1="337.9" x2="66.4" y2="340.2"/>
	<line class="st6" x1="70.1" y1="337.3" x2="70.1" y2="340.3"/>
	<line class="st6" x1="75.1" y1="337.3" x2="75.1" y2="339.3"/>
	<line class="st6" x1="81.4" y1="337.9" x2="80.9" y2="339.9"/>
	<line class="st6" x1="86.8" y1="339.1" x2="86" y2="340.7"/>
	<path class="st6" d="M10,359.9c0,0,4.9-6.7,9.7-0.2"/>
	<path class="st6" d="M68,358.1c0,0,4.5-6.8,10.1-0.3"/>
	<rect x="-0.9" y="313.8" class="st6" width="4" height="13"/>
	<rect x="14.1" y="313.8" class="st6" width="4" height="13"/>
	<rect x="29.1" y="312.8" class="st6" width="4" height="13"/>
	<rect x="58.1" y="312.8" class="st6" width="4" height="13"/>
	<rect x="73.1" y="312.8" class="st6" width="4" height="13"/>
	<rect x="88.1" y="311.8" class="st6" width="4" height="13"/>
	<rect x="124.1" y="310.8" class="st6" width="4" height="12"/>
	<rect x="138.1" y="310.8" class="st6" width="4" height="12"/>
	<rect x="166.1" y="309.8" class="st6" width="4" height="12"/>
	<rect x="193.1" y="309.8" class="st6" width="4" height="12"/>
	<rect x="179.1" y="309.8" class="st6" width="4" height="12"/>
	<polyline class="st6" points="89.1,302.3 89.1,301.1 0.1,302.4 0.1,304.3 	"/>
	<line class="st6" x1="75.1" y1="301.3" x2="75.1" y2="302.3"/>
	<line class="st6" x1="60.1" y1="301.3" x2="60.1" y2="302.3"/>
	<line class="st6" x1="31.1" y1="302.3" x2="31.1" y2="304.3"/>
	<line class="st6" x1="16.1" y1="302.3" x2="16.1" y2="304.3"/>
	<polyline class="st6" points="139.1,302.3 139.1,300.8 125.1,300.8 125.1,302.3 	"/>
	<polyline class="st6" points="194.1,300.3 194.1,298.4 167.1,299.4 167.1,301.3 	"/>
	<line class="st6" x1="181.1" y1="299.3" x2="181.1" y2="301.3"/>
	<circle class="st22" cx="9.7" cy="226.2" r="14.6"/>
	<circle class="st16" cx="9.8" cy="226.5" r="9.7"/>
	<circle class="st10" cx="11" cy="226.5" r="6.4"/>
	<circle class="st10" cx="-26.8" cy="223.9" r="7.1"/>
	<path class="st10" d="M-24.6,216.8l6.9-4.5c0,0,3.9-0.2,2.6,3.4c0,0-5.6,2.8-6.1,3.7"/>
	<path class="st10" d="M-33.1,227.1c0,0-3.5,9.2-2.5,15.6c0,0,2,3.6,4.9,0.6c0,0-0.4-9.4,2.1-12.2"/>
	<circle class="st10" cx="141.8" cy="244.3" r="10"/>
	<circle class="st6" cx="142.3" cy="245" r="7.8"/>
	<circle class="st6" cx="166.9" cy="223.4" r="3.4"/>
	<path class="st6" d="M165.6,220.3c0,0-0.7-1.3-3.4-1.3c0,0-3.7,0.1-3.7,3.4c0,0-0.1,5.6,3.6,5.6c0,0,3.6-0.1,3.6-1.4"/>
	<circle class="st6" cx="162.9" cy="223.3" r="7.5"/>
	<circle class="st6" cx="142.1" cy="216.5" r="2.5"/>
	<circle class="st6" cx="39.1" cy="216" r="3"/>
	<circle class="st6" cx="205.8" cy="221.8" r="6.4"/>
	<path class="st6" d="M203,216.1c0,0-2-1.8-5.7,0c0,0-2.3,1.3-2.5,4.6c0,0-0.4,3.2,2.3,5.2c0,0,1.9,1.6,5.1,1.1"/>
	<path class="st6" d="M198,215.8l-4.3-2.7c0,0-6.1,0.1-2.9,4.2c0,0,2.2,1.4,4.1,2.8"/>
	<path class="st6" d="M200.6,227.2c0,0,4.1,8.8,3.1,14.9c0,0,2,3.9,4.9,0.4c0,0,0.3-11.6-2.4-14.3"/>
	<circle class="st6" cx="-54.2" cy="302.9" r="2.8"/>
	<circle class="st6" cx="224" cy="297.2" r="2.7"/>
	<path class="st6" d="M-28.8,318.6c0,3.4-2.8,6.2-6.2,6.2s-6.2-2.8-6.2-6.2c0-1.7,0.7-3.3,1.8-4.4c1.1-1.1,2.7-1.8,4.4-1.8
		C-31.5,312.4-28.8,315.2-28.8,318.6z"/>
	<circle class="st6" cx="-34.4" cy="336.1" r="3.8"/>
	<circle class="st8" cx="-34.4" cy="336.1" r="2.7"/>
	<circle class="st6" cx="-53.6" cy="375.8" r="2.8"/>
	<circle class="st6" cx="222.2" cy="365.2" r="2.6"/>
	<circle class="st6" cx="44.7" cy="282.6" r="5.6"/>
	<path class="st6" d="M48,277.9l-3.8-3.1c0,0-3.4-0.7-5.9,3.1c0,0-1.9,2.9-0.6,6.4l3.7,2.8"/>
	<path class="st6" d="M147.7,350.2c0,5.7-4.6,10.3-10.3,10.3c-5.7,0-10.3-4.6-10.3-10.3c0-5.7,4.6-10.3,10.3-10.3
		c2.5,0,4.9,0.9,6.7,2.5C146.3,344.2,147.7,347.1,147.7,350.2z"/>
	<path class="st6" d="M143.5,341.9l-6.2-4.5c0,0-4.6-2.8-10.3,3c0,0-4.9,4.8-2.6,11.2l5.9,6.1"/>
	<path class="st6" d="M145,343.3c0,0-2.3-7.3-7.6-8.4c0,0-7.4-2.5-12.8,4.2c0,0-3.8,4-3.3,9.7c0,0-0.1,5.7,4.8,9c0,0,4,2.8,7.6,2"/>
	<path class="st6" d="M196.7,347.2c0,5.7-4.6,10.3-10.3,10.3c-5.7,0-10.3-4.6-10.3-10.3c0-5.7,4.6-10.3,10.3-10.3
		c2.5,0,4.9,0.9,6.7,2.5C195.3,341.2,196.7,344.1,196.7,347.2z"/>
	<path class="st6" d="M192.5,338.9l-6.2-4.5c0,0-4.6-2.8-10.3,3c0,0-4.9,4.8-2.6,11.2l5.9,6.1"/>
	<path class="st6" d="M194,340.3c0,0-2.3-7.3-7.6-8.4c0,0-7.4-2.5-12.8,4.2c0,0-3.8,4-3.3,9.7c0,0-0.1,5.7,4.8,9c0,0,4,2.8,7.6,2"/>
	<rect x="-1.9" y="307.8" class="st6" width="4" height="2"/>
	<rect x="14.1" y="307.8" class="st6" width="4" height="2"/>
	<rect x="29.1" y="307.8" class="st6" width="4" height="2"/>
	<rect x="59.1" y="306.8" class="st6" width="4" height="2"/>
	<rect x="88.1" y="306.8" class="st6" width="4" height="2"/>
	<rect x="73.1" y="306.8" class="st6" width="4" height="2"/>
	<rect x="124.1" y="305.8" class="st6" width="4" height="2"/>
	<rect x="137.1" y="305.8" class="st6" width="4" height="2"/>
	<rect x="165.1" y="304.8" class="st6" width="4" height="2"/>
	<rect x="179.1" y="304.8" class="st6" width="4" height="2"/>
	<rect x="193.1" y="303.8" class="st6" width="4" height="2"/>
	<circle class="st6" cx="-34.4" cy="351.1" r="3.8"/>
	<circle class="st8" cx="-34.4" cy="351.1" r="2.7"/>
	<circle class="st6" cx="-34.4" cy="364.1" r="3.8"/>
	<circle class="st8" cx="-34.4" cy="364.1" r="2.7"/>
	<line class="st6" x1="-41" y1="317.5" x2="-42.6" y2="317.1"/>
	<line class="st6" x1="-40.3" y1="315.4" x2="-41.8" y2="314.9"/>
	<path class="st6" d="M-41,312.4"/>
	<line class="st6" x1="-39.3" y1="314.2" x2="-40.8" y2="313"/>
	<line class="st6" x1="-38.1" y1="313" x2="-39" y2="311.5"/>
	<line class="st6" x1="-36.5" y1="312.4" x2="-37.1" y2="310.4"/>
	<line class="st6" x1="-34.9" y1="312.3" x2="-34.9" y2="309.3"/>
	<line class="st6" x1="-33.5" y1="312.6" x2="-32.8" y2="310.4"/>
	<line class="st6" x1="-32" y1="313.2" x2="-30.9" y2="311.5"/>
	<line class="st6" x1="-30.6" y1="314.2" x2="-29" y2="313.2"/>
	<line class="st6" x1="-29.5" y1="315.8" x2="-27.6" y2="315.2"/>
	<line class="st6" x1="-28.4" y1="317.8" x2="-27.4" y2="317.8"/>
</g>
<g id="reels" class="st28">
	<circle class="st24" cx="-12.7" cy="98" r="105"/>
	<circle class="st7" cx="195.2" cy="104.9" r="98.9"/>
	<path class="st7" d="M-54.6,24.8c0,0-2-3.7-5.3-1.7c0,0-17.5,7.2-26.8,27c0,0-2,1.7,1.7,4.2c0,0,15.5,12.3,31.7,17.8
		c0,0,3.2,1.5,5.2,0c0,0,6.7-5.3,11.2-11.8c0,0,1-1.2,0-4.5C-37.1,55.8-41.6,41.2-54.6,24.8z"/>
	<path class="st7" d="M-51.4,171.9c0,0-2.1,3.6,1.3,5.4c0,0,15,11.5,36.9,9.4c0,0,2.5,0.9,2.7-3.5c0,0,2.8-19.6-0.7-36.3
		c0,0-0.3-3.5-2.6-4.5c0,0-8-3-15.9-3.6c0,0-1.5-0.3-3.9,2.3C-33.5,141.1-43.8,152.4-51.4,171.9z"/>
	<path class="st7" d="M74.1,96.6c0,0,4.2-0.1,3.9-4c0,0,1.5-18.9-12-36.1c0,0-1.9-1.2-5.8,1c0,0-15.7,6.9-27.9,18.9
		c0,0-2.8,2.2-2.3,4.6c0,0,1.8,8.4,5.5,15.3c0,0,0.6,1.4,4,2C39.6,98.2,53.6,100.7,74.1,96.6z"/>
	<circle class="st7" cx="-47.6" cy="108.5" r="3.2"/>
	<circle class="st7" cx="17.4" cy="125.5" r="3.2"/>
	<circle class="st7" cx="-0.6" cy="61.5" r="3.2"/>
	<path class="st2" d="M19.4,97c0,16-13,27.5-29,27.5c-16,0-29-11.5-29-27.5c0-16,13-29,29-29C6.4,68,19.4,80.9,19.4,97z"/>
	<circle class="st2" cx="-11.1" cy="97.8" r="30"/>
	<circle class="st2" cx="-10.3" cy="97.5" r="8.9"/>
	<circle class="st2" cx="-9.4" cy="95.5" r="3.3"/>
	<circle class="st2" cx="-10.4" cy="97" r="19.5"/>
	<polygon class="st2" points="-2.8,15.9 8.6,18.2 2.6,50.3 -8.8,47.7 	"/>
	<polygon class="st2" points="30.2,127.8 18.2,140.3 55,175.9 67.1,162.9 	"/>
	<path class="st7" d="M243.6,41.6L221.3,71c0,0-1.8,1.5,0,4.2l9.2,13.5c0,0,0.7,1.3,3.8,0l32.3-13.3c0,0,3.2-0.7,1.3-5.2
		c0,0-6-16.7-19.5-28.5C248.4,41.6,246.4,39.1,243.6,41.6z"/>
	<path class="st7" d="M207.4,145.5c0,0-8,3-14.7,1.8c0,0-2.7-1.3-3,1.5l-5,40.2c0,0-0.7,4.2,3,4.7c0,0,20,2.8,33.7-4.5
		c0,0,2.7-0.8,1.7-5.3l-13-36.3C210.1,147.5,209.7,144.8,207.4,145.5z"/>
	<path class="st7" d="M161.9,77.5l-32.7-26.4c0,0-3.3-2.6-5.5,0.8c0,0-10,13.8-13.5,33.2c0,0-1.7,3.7,3.3,4.7l39,7.5
		c0,0,2.7,1.2,2.8-1.5c0,0,0.8-7,6.5-15.3C161.9,80.5,163.3,78.6,161.9,77.5z"/>
	<circle class="st7" cx="160.2" cy="109.1" r="2.8"/>
	<circle class="st7" cx="208.6" cy="72.5" r="2.8"/>
	<circle class="st7" cx="215.5" cy="134.9" r="2.8"/>
	<circle class="st7" cx="198.8" cy="141.3" r="4.5"/>
	<circle class="st7" cx="200.4" cy="103.8" r="26.3"/>
	<circle class="st27" cx="198.5" cy="104.3" r="28.7"/>
	<circle class="st27" cx="200.6" cy="103.1" r="17.7"/>
	<circle class="st27" cx="202.1" cy="103.4" r="3.6"/>
	<circle class="st27" cx="199.6" cy="104.7" r="7.1"/>
	<path class="st6" d="M190.7,68l-4.7,0.9c0,0-2.1,0.9,0,1.9h4.6L190.7,68z"/>
	<polygon class="st6" points="160.5,32.8 213.1,28.3 213.1,36.3 162.5,40.5 	"/>
</g>
<g id="body_smaller" class="st28">
	<g class="st19">
		<ellipse class="st14" cx="-7.4" cy="218.1" rx="123" ry="11.8"/>
		<g id="XMLID_2_">
			<g>
				<path class="st0" d="M-57.5,113c-0.1,0-0.4-0.1-0.7,0.2l-1.1,0.4v11l-7.4,2.4c0.6-0.7,1-1.7,1-2.7c0-1-0.4-1.9-0.9-2.6h0
					c0.3-0.5,3.5-2.1,3.5-2.1c0.7-2.1-1.5-1.9-1.5-1.9l-4.3,2.6c-0.3,0-0.5-0.1-0.8-0.1c-2.2,0-4.1,1.8-4.1,4l-15.6-24.1V24.4
					c0,0,0.5-1.6,1.7-2.2c0,0,0,0,0,0c1-0.3,1.8-0.1,1.8-0.1L-9.8,25l18.7,0.8l68,2.1c0,0,1.9-0.1,1.9,1.7l-0.7,28.7l-14.3,61.4v0
					c-0.4-0.1-0.8-0.2-1.2-0.2c-0.6,0-1.1,0.1-1.6,0.4c0,0-1-0.9-2.9-0.2l-2.5-1.6c0,0-3.5,0.1-1.6,2.4c0,0,1.3,0.8,2.3,1.6
					c0,0.1,0,0.3,0,0.4c0,0-0.3,1.8,1.3,3c0,0,0.3,0.3,0.9,0.5L43.7,123v-9.3H26.9l-0.1,0.1l-3.7-4.8L12.7,93.2
					c-0.2-0.4-0.5-0.6-0.7-0.8l0.1-0.1L9.9,91c0,0-0.6-0.4-1.7-0.4l-22.3-0.4c0,0-0.9,0-2,1.9l-15.6,21L-57.5,113
					C-57.5,113-57.5,113-57.5,113z"/>
				<path class="st0" d="M78.1,58.3l-1.2,49.4L76,145.1h0l-80.2,0.7h-0.1l0.3-0.7l0.1,0l0,0.1l39.2-0.5l8.5-8.9v-4.2V123l14.9,2.9
					l0,0c0.3,0.1,0.6,0.2,1.1,0.2h0c0,0,2.3,5,1.8,8.5c0,0,1.1,2.2,2.8,0.2c0,0,0.2-6.6-1.3-8.1c1.9-0.1,3.3-1.7,3.3-3.6
					c0-1.6-1-3-2.5-3.4v0L78.1,58.3z"/>
				<path class="st13" d="M55.9,190.5c-0.1-0.2-1.4-4.2-4.3-4.8c0,0-4.2-1.4-7.3,2.4c0,0-2.2,2.3-1.9,5.5c0,0,0,3.2,2.7,5.1
					c0,0,2.3,1.6,4.3,1.2c0.6,0.2,1.4,0.4,2.1,0.4c3.2,0,5.8-2.6,5.8-5.8C57.4,192.9,56.9,191.5,55.9,190.5L55.9,190.5z
					 M-13.5,148.6l0.2,0.2h9.1v-2.9v0l80.2-0.7h0l-1.5,61.5c0,1.1-0.9,1-0.9,1l-2.5,0.1l-7.8,0.3l-6.5,0.3l-135.4,5.5h0l-9.3,0.4
					c-0.1,0-0.1,0-0.2,0c-1.7-0.8-1.2-2.6-1.2-2.6v-65.6h74.7h0.4v1.9L-13.5,148.6z M-71.1,176.5c-0.2-0.3-0.4-0.6-0.6-0.9
					c-0.2-0.2-0.5-0.5-0.8-0.6c-0.5-0.3-1.1-0.4-1.6-0.4h0c-1,0-1.9,0.4-2.5,1c-0.5,0.5-0.8,1.1-1,1.9c0,0.2-0.1,0.4-0.1,0.6
					c0,1.9,1.6,3.5,3.5,3.5c1.9,0,3.5-1.6,3.5-3.5C-70.7,177.6-70.9,177-71.1,176.5z M74.5,166c0-0.8-0.7-1.5-1.5-1.5
					c-0.8,0-1.5,0.7-1.5,1.5c0,0.8,0.7,1.5,1.5,1.5C73.8,167.5,74.5,166.8,74.5,166z M73.4,204.6c0-0.8-0.7-1.5-1.5-1.5
					c-0.8,0-1.5,0.7-1.5,1.5c0,0.8,0.7,1.5,1.5,1.5C72.8,206.1,73.4,205.5,73.4,204.6z M68.8,159.2v-10.5l-150.9,1.8v11.2
					L68.8,159.2z M58,180.2v-7.2h-2.9v7.2H58z M58,170.9v-1.4h-2.9v1.4H58z M49.5,180.2v-7.2h-2.1v7.2H49.5z M49.5,171.6v-1.4h-2.1
					v1.4H49.5z M42.3,180.2v-7.2h-2.1v7.2H42.3z M41.6,171.6v-1.4h-2.1v1.4H41.6z M29.6,196.1c0-1.5-0.6-2.9-1.5-3.9
					c0,0-1.3-4.2-4.3-4.8c0,0-4.2-1.4-7.3,2.4c0,0-2.2,2.3-1.9,5.5c0,0,0,3.2,2.7,5.1c0,0,2.3,1.6,4.3,1.1c0.7,0.2,1.4,0.4,2.1,0.4
					C27,201.9,29.6,199.3,29.6,196.1z M26.6,180.2v-6.4h-2.1v6.4H26.6z M25.9,172.3v-1.4h-2.1v1.4H25.9z M18.7,180.2v-6.4h-2.9v6.4
					H18.7z M18.7,172.3v-1.4h-2.9v1.4H18.7z M3.3,200.8l0.2-14.4c0-1.1-1-1-1-1l-29.2,0.4c-0.5,0.2-0.4,0.7-0.4,0.7v15
					c0,1.2,0.7,1.2,0.7,1.2L2.5,202C3.4,201.9,3.3,200.8,3.3,200.8z M-2,181.6v-7.2h-2.1v7.2H-2z M-2,172.3v-0.7h-2.1v0.7H-2z
					 M-10.6,182.4v-7.9h-2.1v7.9H-10.6z M-10.6,172.3v-0.7h-2.1v0.7H-10.6z M-18.5,172.3v-0.7h-2.1v0.7H-18.5z M-19.2,182.4v-7.9
					h-2.1v7.9H-19.2z M-30.3,202.5L-30,187c0-1.1-1-1-1-1l-29.2,0.4c-0.5,0.2-0.4,0.7-0.4,0.7v15.6c0,1.2,0.7,1.2,0.7,1.2l28.9-0.8
					C-30.2,203.1-30.3,202.5-30.3,202.5z M-35.6,182.4v-7.9h-2.1v7.9H-35.6z M-35.6,173.1v-0.7h-2.1v0.7H-35.6z M-44.2,183.1v-7.9
					h-2.1v7.9H-44.2z M-44.2,173.1v-0.7h-2.1v0.7H-44.2z M-52.8,183.1v-7.9h-2.1v7.9H-52.8z M-53.5,173.1v-0.7h-2.1v0.7H-53.5z
					 M-71.8,188.1c0-1.2-1-2.2-2.2-2.2c-1.2,0-2.2,1-2.2,2.2c0,1.2,1,2.2,2.2,2.2C-72.7,190.3-71.8,189.3-71.8,188.1z M-71.8,196.6
					c0-1.2-1-2.2-2.2-2.2c-1.2,0-2.2,1-2.2,2.2c0,1.2,1,2.2,2.2,2.2C-72.7,198.8-71.8,197.8-71.8,196.6z M-71.8,204
					c0-1.2-1-2.2-2.2-2.2c-1.2,0-2.2,1-2.2,2.2c0,1.2,1,2.2,2.2,2.2C-72.7,206.2-71.8,205.2-71.8,204z M-83.3,210.7
					c0-0.9-0.7-1.6-1.6-1.6c-0.9,0-1.6,0.7-1.6,1.6c0,0.9,0.7,1.6,1.6,1.6C-84,212.2-83.3,211.5-83.3,210.7z M-83.6,169.2
					c0-0.9-0.7-1.6-1.6-1.6c-0.9,0-1.6,0.7-1.6,1.6c0,0.9,0.7,1.6,1.6,1.6C-84.3,170.8-83.6,170.1-83.6,169.2z"/>
				<path class="st20" d="M74.7,211.6l0.2,2.5c-0.1,1.2-0.7,1.1-0.7,1.1l-6.4,0.2c-0.4,0-0.7,0-1-0.1l0-0.1c-0.7-0.3-0.4-1-0.4-1
					l0.4-2.4c0-0.3,0.1-0.5,0.3-0.6c0.3-0.3,0.6-0.3,0.6-0.3h6.5l0.1-0.1C74.6,211.2,74.7,211.6,74.7,211.6z"/>
				<path class="st25" d="M74.2,210.9l-0.1,0.1h-6.5c0,0-0.3,0-0.6,0.3l0,0l-3.8-3.3l7.8-0.3l2.8,2.8
					C74,210.6,74.1,210.7,74.2,210.9z"/>
				<path class="st26" d="M73,164.5c0.8,0,1.5,0.7,1.5,1.5c0,0.8-0.7,1.5-1.5,1.5c-0.8,0-1.5-0.7-1.5-1.5
					C71.5,165.1,72.2,164.5,73,164.5z"/>
				<path class="st26" d="M71.9,203.1c0.8,0,1.5,0.7,1.5,1.5c0,0.8-0.7,1.5-1.5,1.5c-0.8,0-1.5-0.7-1.5-1.5
					C70.4,203.8,71.1,203.1,71.9,203.1z"/>
				<path class="st0" d="M-13.4,159.5h3.5V158h-3.6v1.3v0.1H-13.4z M15.8,152.8l-10.7,0.1v5.7l10.7-0.2l10-0.1l10-0.1l10-0.1v-5.7
					l-10,0.1l-10,0.1L15.8,152.8z M-10.6,157.1v-4.8h-3.6v3.9v0.1v0.3h0.2h2.6L-10.6,157.1z M68.8,148.7v10.5l-150.9,2.6v-11.2
					L68.8,148.7z M67.3,157.5v-5.2H58H48v5.7l10-0.3L67.3,157.5z M0.8,155.9v-5.7h-8.6v5.7H0.8z M-25.7,157.6c0-1.1-0.5-2.1-1.4-2.6
					l0,0l-2.1-1.8c0,0-2-0.4-3.3,1.8c0,0-1.1,1.6-0.4,3.6l2,1.5l0.1,0.1c0.5,0.4,1.2,0.6,1.9,0.6C-27.2,160.9-25.7,159.4-25.7,157.6
					z M-43.5,160.2V153h-2.9v7.2H-43.5z M-52.1,160.2V153h-2.9v7.2H-52.1z M-60.7,160.2V153h-2.9v7.2H-60.7z M-72.8,160.9v-7.2h-5.7
					v7.2H-72.8z"/>
				<polygon class="st26" points="67.3,152.3 67.3,157.5 58,157.8 58,157.8 58,152.7 58,152.3 				"/>
				<path class="st20" d="M67,211.2L67,211.2c-0.1,0.2-0.2,0.4-0.2,0.6l-0.4,2.4c0,0-0.3,0.7,0.4,1l0,0.1c-0.8-0.2-1.2-0.5-1.2-0.5
					l-8.8-6.6l6.5-0.3L67,211.2z"/>
				<path class="st21" d="M63.8,119.7c1.4,0.5,2.5,1.8,2.5,3.4c0,1.9-1.5,3.5-3.3,3.6c-0.1,0-0.2,0-0.3,0c-0.8,0-1.5-0.2-2-0.6
					c-1-0.7-1.6-1.8-1.6-3c0-1.4,0.8-2.7,2.1-3.3c0.5-0.2,1-0.4,1.6-0.4C63,119.5,63.4,119.6,63.8,119.7z"/>
				<path class="st9" d="M62.9,126.7c1.5,1.5,1.3,8.1,1.3,8.1c-1.7,2-2.8-0.2-2.8-0.2c0.6-3.5-1.8-8.5-1.8-8.5c0.3,0,0.6,0,0.9,0
					c0.6,0.4,1.3,0.6,2,0.6C62.7,126.7,62.8,126.7,62.9,126.7z"/>
				<path class="st20" d="M61.1,119.9c-1.2,0.6-2.1,1.8-2.1,3.3c0,1.2,0.6,2.3,1.6,3c-0.3,0-0.6,0-0.9,0h0l-1.1-0.2l0,0
					c-0.6-0.2-0.9-0.5-0.9-0.5c-1.6-1.2-1.3-3-1.3-3c0-0.1,0-0.3,0-0.4c0.2-1.6,1.4-2.2,1.4-2.2c0.1-0.1,0.3-0.1,0.4-0.2
					C60.1,119,61.1,119.9,61.1,119.9z"/>
				<path class="st9" d="M55.7,118.1l2.5,1.6c-0.1,0.1-0.3,0.1-0.4,0.2c0,0-1.1,0.6-1.4,2.2c-1.1-0.8-2.3-1.6-2.3-1.6
					C52.3,118.2,55.7,118.1,55.7,118.1z"/>
				<rect x="55.2" y="173.1" class="st26" width="2.9" height="7.2"/>
				<rect x="55.2" y="169.5" class="st15" width="2.9" height="1.4"/>
				<polygon class="st26" points="58,157.8 58,157.8 48,158.1 48,152.3 58,152.3 58,152.7 				"/>
				<path class="st21" d="M47.2,198.2c-0.9-1-1.4-2.4-1.4-3.8c0-3.2,2.6-5.8,5.8-5.8c1.3,0,2.4,0.4,3.4,1.1l0.1,0.1
					c0.1,0.1,0.2,0.1,0.3,0.2c0.2,0.2,0.4,0.3,0.5,0.5c1,1,1.5,2.4,1.5,3.9c0,3.2-2.6,5.8-5.8,5.8c-0.7,0-1.4-0.1-2.1-0.4
					C48.6,199.5,47.8,198.9,47.2,198.2z"/>
				<path class="st21" d="M55.9,190.5L55.9,190.5c-0.2-0.2-0.3-0.4-0.5-0.5c-0.1-0.1-0.2-0.2-0.3-0.2l-0.1-0.1l-3.4-2.5
					c0,0-2.6-1.6-5.8,1.7c0,0-2.8,2.7-1.5,6.4l2.9,2.9c0.6,0.7,1.4,1.3,2.3,1.7c-2.1,0.4-4.3-1.2-4.3-1.2c-2.8-1.9-2.7-5.1-2.7-5.1
					c-0.3-3.2,1.9-5.5,1.9-5.5c3-3.8,7.3-2.4,7.3-2.4C54.5,186.3,55.9,190.2,55.9,190.5z"/>
				<path class="st20" d="M51.6,187.2l3.4,2.5c-1-0.7-2.1-1.1-3.4-1.1c-3.2,0-5.8,2.6-5.8,5.8c0,1.5,0.5,2.8,1.4,3.8l-2.9-2.9
					c-1.3-3.7,1.5-6.4,1.5-6.4C49,185.6,51.6,187.2,51.6,187.2z"/>
				<rect x="47.3" y="173.1" class="st26" width="2.1" height="7.2"/>
				<polygon class="st26" points="45.9,152.4 45.9,158.1 35.9,158.2 35.9,152.7 35.9,152.5 				"/>
				<polygon class="st20" points="43.7,131.6 43.7,135.9 35.2,144.7 -3.9,145.2 -3.9,145.1 -3.2,141.7 -3.2,141.6 11.2,141.6 
					11.3,141.6 26.2,141.6 33.7,141.6 43.4,131.6 				"/>
				<path class="st0" d="M43.7,123v8.6h-0.3l-9.7,10h-7.4v0c3.1,0,5.7-2.5,5.7-5.7c0-3.1-2.5-5.7-5.7-5.7c-1.6,0-3,0.6-4,1.7
					l-0.8-0.7l1-1.1h0l11.9-4.6c0.6,1.6,2.2,2.7,4,2.7c2.3,0,4.2-1.9,4.2-4.2c0-0.4-0.1-0.8-0.2-1.2L43.7,123z"/>
				<path class="st0" d="M43.7,113.7v9.3l-1.4-0.3c-0.5-1.8-2.1-3.1-4.1-3.1c-2.3,0-4.2,1.9-4.2,4.2c0,0.5,0.1,1.1,0.3,1.5
					l-11.9,4.6l2.9-3.1l-0.9-1.3c0,0,0,0,0,0l0.5-0.5l0.4,0.5c0.5,0.5,0.9,0.2,0.9,0.2l4.4-4.9c0.5-0.5,0.3-1,0.3-1l-2.6-3.3
					c0-0.2,0-0.4,0-0.5c0-0.5,0-0.3,0-0.3l-1.6-2l0.1-0.1H43.7z"/>
				<path class="st21" d="M42.3,122.7c0.1,0.4,0.2,0.8,0.2,1.2c0,2.3-1.9,4.2-4.2,4.2c-1.8,0-3.3-1.1-4-2.7l1.6-0.6
					c0.2,0.8,0.7,1.7,1.8,1.7c0,0,2-0.1,2-0.8c0.2,0.1,0.5,0.1,0.7,0.1c1.1,0,1.9-0.9,1.9-1.9c0-0.5-0.2-1-0.6-1.4L42.3,122.7z"/>
				<path class="st21" d="M42.3,122.7l-0.5-0.1h0c-0.3-0.3-0.8-0.5-1.3-0.5c-0.2,0-0.5,0-0.7,0.1c0,0-0.4-0.7-2-0.7
					c0,0-2.1,0.1-2.1,1.9c0,0,0,0.7,0.2,1.4l-1.6,0.6c-0.2-0.5-0.3-1-0.3-1.5c0-2.3,1.9-4.2,4.2-4.2C40.2,119.7,41.8,121,42.3,122.7
					z"/>
				<rect x="40.2" y="173.1" class="st26" width="2.1" height="7.2"/>
				<path class="st21" d="M41.8,122.6c0.4,0.4,0.6,0.8,0.6,1.4c0,1.1-0.9,1.9-1.9,1.9c-0.2,0-0.5-0.1-0.7-0.1
					c-0.7-0.3-1.2-1-1.2-1.8c0-0.8,0.5-1.5,1.2-1.8c0.2-0.1,0.5-0.1,0.7-0.1C41,122.1,41.5,122.3,41.8,122.6L41.8,122.6z"/>
				<rect x="39.4" y="170.2" class="st15" width="2.1" height="1.4"/>
				<path class="st20" d="M35.9,124.8c-0.2-0.7-0.2-1.4-0.2-1.4c0-1.8,2.1-1.9,2.1-1.9c1.5,0,2,0.7,2,0.7c-0.7,0.3-1.2,1-1.2,1.8
					c0,0.8,0.5,1.5,1.2,1.8c0,0.7-2,0.8-2,0.8C36.7,126.6,36.2,125.7,35.9,124.8z"/>
				<polygon class="st26" points="35.9,152.7 35.9,158.2 25.9,158.3 25.9,152.7 25.9,152.7 35.9,152.5 				"/>
				<path class="st21" d="M31,119.9c0,0,0.2,0.5-0.3,1l-4.4,4.9c0,0-0.4,0.4-0.9-0.2l-0.4-0.5l-0.7-0.7l-6.3-0.1v-3.9l-39.4-0.1
					l-0.2,3.8l-14-0.1l0.2-7.5c0,0,0-1.2,1.6-1.1l6.1,0.1l56.2,0.6c0,0.1,0,0.3,0,0.5L31,119.9z M27.9,120.1c0-0.8-0.6-1.4-1.4-1.4
					c-0.8,0-1.4,0.6-1.4,1.4s0.6,1.4,1.4,1.4C27.2,121.5,27.9,120.9,27.9,120.1z M-30.5,119.8c0-0.9-0.8-1.7-1.7-1.7
					c-0.9,0-1.7,0.8-1.7,1.7c0,0.9,0.8,1.7,1.7,1.7C-31.2,121.5-30.5,120.7-30.5,119.8z"/>
				<path class="st20" d="M26.2,130.2c3.1,0,5.7,2.5,5.7,5.7c0,3.1-2.5,5.7-5.7,5.7c-3.1,0-5.7-2.5-5.7-5.7c0-1.6,0.6-3,1.7-4
					C23.2,130.8,24.7,130.2,26.2,130.2z M30.9,136.3c0-2.4-2-4.4-4.4-4.4c-2.5,0-4.4,2-4.4,4.4c0,2.5,2,4.4,4.4,4.4
					C29,140.7,30.9,138.7,30.9,136.3z"/>
				<path class="st21" d="M26.5,131.8c2.4,0,4.4,2,4.4,4.4c0,2.5-2,4.4-4.4,4.4c-2.5,0-4.4-2-4.4-4.4
					C22.1,133.8,24.1,131.8,26.5,131.8z"/>
				<path class="st21" d="M19.3,199.9c-0.9-1-1.4-2.4-1.4-3.8c0-3.2,2.6-5.8,5.8-5.8c1.3,0,2.4,0.4,3.4,1.1l0.1,0.1
					c0.1,0.1,0.2,0.2,0.3,0.2c0.2,0.2,0.4,0.3,0.5,0.5c0.9,1,1.5,2.4,1.5,3.9c0,3.2-2.6,5.8-5.8,5.8c-0.7,0-1.4-0.1-2.1-0.4
					C20.7,201.2,19.9,200.7,19.3,199.9z"/>
				<path class="st5" d="M-14.2,99.4v2.4v1.2h2.9v-3.6H-14.2z M28.4,115.8c0,0,0.1-0.2,0,0.3l-56.2-0.6v-0.2c0.1,0,0.3-0.1,0.6-0.5
					l2.5-5.8l11.7-16.4c0,0,0.2-0.6,1.6-0.6L11,92.2c0,0,0.4-0.1,0.9,0.2c0.2,0.1,0.5,0.4,0.7,0.8L23.1,109l3.7,4.8L28.4,115.8z
					 M13.7,103v-2.9h-2.1v2.9H13.7z M7.3,103v-5.5l-15-0.3L-8,103H7.3z"/>
				<path class="st21" d="M28.1,192.2c-0.2-0.2-0.4-0.4-0.5-0.5c-0.1-0.1-0.2-0.2-0.3-0.2l-0.1-0.1l-3.4-2.5c0,0-2.6-1.6-5.8,1.7
					c0,0-2.8,2.7-1.5,6.4l2.9,3c0.6,0.7,1.4,1.3,2.3,1.6c-2.1,0.4-4.3-1.1-4.3-1.1c-2.8-1.9-2.7-5.1-2.7-5.1
					c-0.3-3.2,1.9-5.5,1.9-5.5c3-3.8,7.3-2.4,7.3-2.4C26.7,188,28.1,192.2,28.1,192.2z"/>
				<path class="st26" d="M26.4,118.6c0.8,0,1.4,0.6,1.4,1.4s-0.6,1.4-1.4,1.4c-0.8,0-1.4-0.6-1.4-1.4S25.6,118.6,26.4,118.6z"/>
				<path class="st20" d="M23.7,188.9l3.4,2.5c-1-0.7-2.1-1.1-3.4-1.1c-3.2,0-5.8,2.6-5.8,5.8c0,1.5,0.5,2.8,1.4,3.8l-2.9-3
					c-1.3-3.6,1.5-6.4,1.5-6.4C21.1,187.3,23.7,188.9,23.7,188.9z"/>
				<rect x="24.4" y="173.8" class="st26" width="2.1" height="6.4"/>
				<path class="st0" d="M26.2,141.6L26.2,141.6l-14.9,0c0,0,0.5-0.4,1.2-1.1l8.9-9.4l0.8,0.7c-1,1-1.7,2.4-1.7,4
					C20.5,139,23.1,141.6,26.2,141.6z"/>
				<rect x="23.7" y="170.9" class="st15" width="2.1" height="1.4"/>
				<polygon class="st26" points="25.9,152.7 25.9,158.3 15.8,158.5 15.8,158.4 15.8,152.8 25.9,152.7 				"/>
				<path class="st21" d="M-13.5,141.6h-0.7h-10.6c-0.5,0-0.9-0.2-1.1-0.4c-0.2-0.2-0.3-0.5-0.3-0.5l-9.6-10.3l-1-0.9l-0.5-3.2
					l2.3-1l13.5,0.1l45.1,0.2c0.9-0.1,1,0,1,0c0,0,0,0,0,0l0.9,1.3l-2.9,3.1h0l-1,1.1l-8.9,9.4c-0.7,0.7-1.2,1.1-1.2,1.1h-0.1H-3.2
					H-13.5z M10.8,133v-6.4h-32.2v6.4H10.8z"/>
				<path class="st13" d="M24.3,124.5l0.7,0.7l-0.5,0.5c0,0-0.1-0.1-1,0l-45.1-0.2l0-1.2l0.2-3.8l39.4,0.1v3.9L24.3,124.5z"/>
				<rect x="15.8" y="173.8" class="st26" width="2.9" height="6.4"/>
				<polygon class="st26" points="15.8,158.4 15.8,158.5 5.1,158.6 5.1,152.9 15.8,152.8 				"/>
				<rect x="11.6" y="100.1" class="st26" width="2.1" height="2.9"/>
				<path class="st13" d="M9.9,91l2.1,1.4l-0.1,0.1c-0.5-0.3-0.9-0.2-0.9-0.2L-11.4,92c-1.4,0-1.6,0.6-1.6,0.6L-24.7,109l-2.5,5.8
					c-0.3,0.5-0.5,0.5-0.6,0.5c0,0,0,0,0,0l-2.5-1.5l-1.3,0l0-1l15.6-21c1.1-1.9,2-1.9,2-1.9l22.3,0.4C9.3,90.6,9.9,91,9.9,91z"/>
				<rect x="-21.3" y="126.6" class="st11" width="32.2" height="6.4"/>
				<polygon points="7.3,97.5 7.3,103 -8,103 -7.8,97.2 				"/>
				<path class="st21" d="M3.5,186.4l-0.2,14.4c0,0,0.1,1.2-0.8,1.2l-28.9,0.8c0,0-0.7,0-0.7-1.2v-15c0,0-0.1-0.5,0.4-0.7l29.2-0.4
					C2.5,185.4,3.5,185.3,3.5,186.4z M2.3,200.1v-13.2l-27.9,0.5v13.4l15.7-0.4L2.3,200.1z"/>
				<rect x="-7.8" y="150.2" class="st25" width="8.6" height="5.7"/>
				<rect x="-4.2" y="174.5" class="st26" width="2.1" height="7.2"/>
				<polygon class="st23" points="-3.2,141.6 -3.2,141.7 -3.9,145.1 -4,145.1 -4.3,145.8 -4.2,145.8 -4.2,145.9 -13.1,145.9 
					-13.5,145.9 -13.5,141.6 				"/>
				<polygon class="st1" points="-4.2,145.9 -4.2,148.7 -13.3,148.7 -13.5,148.6 -13.5,145.9 -13.1,145.9 				"/>
				<polygon class="st26" points="-9.9,158 -9.9,159.5 -13.4,159.5 -13.5,159.4 -13.5,158 				"/>
				<rect x="-12.8" y="174.5" class="st26" width="2.1" height="7.9"/>
				<polygon class="st26" points="-10.6,152.3 -10.6,157.1 -11.4,156.6 -14,156.6 -14.2,156.4 -14.2,156.3 -14.2,152.3 				"/>
				<polygon class="st26" points="-14.2,101.8 -14.2,99.4 -11.3,99.4 -11.3,103 -14.2,103 				"/>
				<path class="st0" d="M-14.2,145.1v0.8h-0.4h-74.7v-45.6l15.6,24.1c0,0.7,0.1,1.3,0.4,1.8c0,0-2,5.2-1.4,8.9c0,0,1.1,2.1,2.8,0.4
					c0,0-0.2-5.3,1.2-7l0-0.1c0.3,0.1,0.7,0.1,1,0.1c1.2,0,2.3-0.5,3-1.4l7.4-2.4v11.3l8.4,9.1L-14.2,145.1z"/>
				<path class="st20" d="M-14.2,141.6v3.5l-36.6-0.1l-8.4-9.1v-11.3l0.7-0.2v7l10.2,10l22.4-0.1c0.2,0.2,0.6,0.4,1.1,0.4H-14.2z"/>
				<rect x="-21.3" y="174.5" class="st26" width="2.1" height="7.9"/>
				<path class="st13" d="M-21.6,124.2l0,1.2l-13.5-0.1l-2.3,1l-1.7-11.1c0.4-1.3,2.6-1.3,2.6-1.3l4.8-0.1l1.3,0l2.5,1.5
					c0,0,0,0,0,0v0.2l-6.1-0.1c-1.6-0.1-1.6,1.1-1.6,1.1l-0.2,7.5L-21.6,124.2z"/>
				<path class="st0" d="M-25.9,141.2l-22.4,0.1l-10.2-10v-7l1.5-0.5c-0.1,0.6-0.2,1.1-0.2,1.7c0,4.6,3.7,8.3,8.3,8.3
					s8.3-3.7,8.3-8.3c0-0.3,0-0.6,0-0.9l3.1,1.7l0.1,0l0.5,3.2l1,0.9l9.6,10.3C-26.3,140.7-26.2,141-25.9,141.2z"/>
				<path class="st21" d="M-27.1,155c0.8,0.6,1.4,1.5,1.4,2.6c0,1.8-1.4,3.2-3.2,3.2c-0.7,0-1.4-0.2-1.9-0.6l-0.1-0.1
					c-0.7-0.6-1.2-1.5-1.2-2.5c0-1.8,1.4-3.2,3.2-3.2C-28.3,154.4-27.7,154.6-27.1,155L-27.1,155z"/>
				<path class="st20" d="M-29.3,153.2l2.1,1.8c-0.5-0.3-1.1-0.5-1.8-0.5c-1.8,0-3.2,1.4-3.2,3.2c0,1,0.5,1.9,1.2,2.5l-2-1.5
					c-0.7-2,0.4-3.6,0.4-3.6C-31.2,152.9-29.3,153.2-29.3,153.2z"/>
				<path class="st21" d="M-30,187l-0.2,15.5c0,0,0.1,0.6-0.8,0.6l-28.9,0.8c0,0-0.7,0-0.7-1.2v-15.6c0,0-0.1-0.5,0.4-0.7l29.2-0.4
					C-31.1,186-30.1,185.8-30,187z M-31.4,201.3v-13.9l-27.9,0.5v14l10.5-0.2l5.5-0.1L-31.4,201.3z"/>
				<path class="st26" d="M-32.2,118.1c0.9,0,1.7,0.8,1.7,1.7c0,0.9-0.8,1.7-1.7,1.7c-0.9,0-1.7-0.8-1.7-1.7
					C-33.9,118.9-33.1,118.1-32.2,118.1z"/>
				<path class="st0" d="M-31.7,113l0,1l-4.8,0.1c0,0-2.2,0-2.6,1.3l1.7,11.1l-0.1,0l-3.1-1.7c-0.4-4.2-4-7.4-8.3-7.4
					c-4,0-7.3,2.8-8.1,6.6l-1.5,0.5v-9.8c0-0.7,0.2-1.1,0.4-1.4l0.7-0.2c0,0,0,0,0,0H-31.7z"/>
				<rect x="-37.8" y="174.5" class="st26" width="2.1" height="7.9"/>
				<path class="st21" d="M-40.6,124.7c0,0.3,0,0.6,0,0.9c0,4.6-3.7,8.3-8.3,8.3s-8.3-3.7-8.3-8.3c0-0.6,0.1-1.2,0.2-1.7l3.6-1.2
					c-0.6,0.9-1,2-1,3.1c0,3.1,2.5,5.5,5.5,5.5c3.1,0,5.5-2.5,5.5-5.5c0-1.1-0.3-2.1-0.9-3L-40.6,124.7z"/>
				<path class="st21" d="M-40.6,124.7l-3.6-1.9c0,0,0,0,0,0c-1-1.5-2.7-2.5-4.6-2.5c-1.9,0-3.6,0.9-4.5,2.4l-3.6,1.2
					c0.8-3.8,4.1-6.6,8.1-6.6C-44.6,117.3-41,120.5-40.6,124.7z"/>
				<rect x="-46.4" y="153" class="st26" width="2.9" height="7.2"/>
				<path class="st20" d="M-44.2,122.8c0.6,0.9,0.9,1.9,0.9,3c0,3.1-2.5,5.5-5.5,5.5c-3.1,0-5.5-2.5-5.5-5.5c0-1.2,0.4-2.2,1-3.1
					c1-1.4,2.7-2.4,4.5-2.4C-46.8,120.3-45.1,121.3-44.2,122.8C-44.1,122.8-44.1,122.8-44.2,122.8z M-44.5,125.8
					c0-2-1.6-3.7-3.7-3.7c-2,0-3.7,1.6-3.7,3.7c0,2,1.6,3.7,3.7,3.7C-46.1,129.4-44.5,127.8-44.5,125.8z"/>
				<rect x="-46.4" y="175.2" class="st26" width="2.1" height="7.9"/>
				<path class="st21" d="M-48.1,122.1c2,0,3.7,1.6,3.7,3.7c0,2-1.6,3.7-3.7,3.7c-2,0-3.7-1.6-3.7-3.7
					C-51.8,123.7-50.1,122.1-48.1,122.1z"/>
				<rect x="-54.9" y="153" class="st26" width="2.9" height="7.2"/>
				<rect x="-54.9" y="175.2" class="st26" width="2.1" height="7.9"/>
				<rect x="-63.5" y="153" class="st26" width="2.9" height="7.2"/>
				<path class="st9" d="M-64.5,117.7c0,0,2.2-0.1,1.5,1.9c0,0-3.2,1.6-3.5,2.1h0c-0.6-0.7-1.4-1.2-2.3-1.4L-64.5,117.7z"/>
				<path class="st21" d="M-66.5,121.7c0.6,0.7,0.9,1.6,0.9,2.6c0,1-0.4,2-1,2.7c-0.7,0.8-1.8,1.4-3,1.4c-0.4,0-0.7,0-1-0.1
					c-1.1-0.3-2.1-1.1-2.6-2.1c-0.3-0.5-0.4-1.2-0.4-1.8c0-2.2,1.8-4,4.1-4c0.3,0,0.5,0,0.8,0.1C-67.9,120.5-67.1,121-66.5,121.7z"
					/>
				<path class="st9" d="M-70.6,128.2l0,0.1c-1.4,1.6-1.2,7-1.2,7c-1.6,1.7-2.8-0.4-2.8-0.4c-0.6-3.6,1.4-8.9,1.4-8.9
					C-72.7,127.1-71.8,127.9-70.6,128.2z"/>
				<path class="st21" d="M-71.1,176.5c0.3,0.5,0.4,1,0.4,1.6c0,1.9-1.6,3.5-3.5,3.5c-1.9,0-3.5-1.6-3.5-3.5c0-0.2,0-0.4,0.1-0.6
					c0.1-0.7,0.5-1.4,1-1.9c0.6-0.6,1.5-1,2.5-1h0c0.6,0,1.2,0.2,1.6,0.4c0.3,0.2,0.6,0.4,0.8,0.6
					C-71.5,175.9-71.3,176.2-71.1,176.5z"/>
				<path class="st21" d="M-73.9,186c1.2,0,2.2,1,2.2,2.2c0,1.2-1,2.2-2.2,2.2c-1.2,0-2.2-1-2.2-2.2C-76.1,186.9-75.1,186-73.9,186z
					 M-72.4,188.1c0-0.9-0.7-1.5-1.5-1.5c-0.9,0-1.5,0.7-1.5,1.5c0,0.9,0.7,1.5,1.5,1.5C-73.1,189.6-72.4,188.9-72.4,188.1z"/>
				<circle class="st3" cx="-74" cy="188.1" r="1.5"/>
				<circle class="st3" cx="-74" cy="196.6" r="1.5"/>
				<path class="st3" d="M-74,202.4c0.9,0,1.5,0.7,1.5,1.5c0,0.9-0.7,1.5-1.5,1.5c-0.9,0-1.5-0.7-1.5-1.5
					C-75.5,203.1-74.8,202.4-74,202.4z"/>
				<rect x="-78.5" y="153.8" class="st15" width="5.7" height="7.2"/>
				<path class="st20" d="M-78.1,220.7l0,0.4c0,0.6-0.6,0.6-0.6,0.6l-8.5,0.3c-0.7,0-0.8-0.3-0.8-0.5c0-0.1,0.1-0.2,0.1-0.2l0.8-3.3
					c0.1,0.1,0.2,0.2,0.5,0.2l7.7-0.3c0,0,0.1,0,0.2-0.1L-78.1,220.7C-78.1,220.6-78.1,220.6-78.1,220.7z"/>
				<path class="st25" d="M-78.6,217.1c0,0.3-0.1,0.5-0.2,0.6v0c-0.1,0.1-0.2,0.1-0.2,0.1l-7.7,0.3c-0.3,0-0.4-0.1-0.5-0.2
					c-0.1-0.2-0.1-0.3-0.1-0.3l-0.8-3.4c0,0,0,0,0,0c0.1,0,0.1,0,0.2,0l9.3-0.4L-78.6,217.1z"/>
				<path class="st26" d="M-84.9,209.1c0.9,0,1.6,0.7,1.6,1.6c0,0.9-0.7,1.6-1.6,1.6c-0.9,0-1.6-0.7-1.6-1.6
					C-86.5,209.8-85.8,209.1-84.9,209.1z"/>
				<path class="st26" d="M-85.2,167.6c0.9,0,1.6,0.7,1.6,1.6c0,0.9-0.7,1.6-1.6,1.6c-0.9,0-1.6-0.7-1.6-1.6
					C-86.8,168.3-86.1,167.6-85.2,167.6z"/>
				<path class="st20" d="M-87.2,217.8l-0.8,3.3c0,0-0.1,0.1-0.1,0.2h0l-0.8-7.3l0-0.1c0.2,0.1,0.5,0.1,0.7,0.1c0,0,0,0,0,0l0.8,3.4
					C-87.2,217.5-87.2,217.7-87.2,217.8z"/>
				<path class="st18" d="M-89.3,100.2v45.6v65.6c0,0-0.5,1.8,1.2,2.6c-0.3,0-0.5,0-0.7-0.1c-1.9-0.4-1.3-2.3-1.3-2.3l0.2-107.1
					V26.1c0-2.6,1.3-3.5,2.4-3.9c-1.3,0.5-1.7,2.2-1.7,2.2V100.2z"/>
			</g>
			<g>
				<path class="st12" d="M-87.6,22.3c-1.2,0.3-2.4,1.3-2.4,3.9v78.5l-0.2,107.1c0,0-0.6,1.9,1.3,2.3c0.2,0.1,0.5,0.1,0.7,0.1
					c0.1,0,0.1,0,0.2,0l9.3-0.4h0l135.4-5.5l6.5-0.3l7.8-0.3l2.5-0.1c0,0,0.9,0.2,0.9-1l1.5-61.5l0.9-37.5l1.2-49.4l0.7-28.7
					c0-1.8-1.9-1.7-1.9-1.7l-68-2.1L-9.8,25l-75.9-2.8C-85.7,22.2-86.6,22-87.6,22.3"/>
				<path class="st12" d="M-87.2,217.8l-0.8,3.3c0,0-0.1,0.1-0.1,0.2c0,0.2,0.1,0.5,0.8,0.5l8.5-0.3c0,0,0.6,0,0.6-0.6
					c0-0.1,0-0.2,0-0.4c0,0,0,0,0,0l-0.8-3"/>
				<polyline class="st12" points="-88.8,214.1 -88,221.4 -88,221.5 				"/>
				<polyline class="st12" points="-78.6,213.7 -78.1,220.7 -78,221 -78,221.1 				"/>
				<path class="st12" d="M56.7,208.2l8.8,6.6c0,0,0.4,0.4,1.2,0.5c0.3,0.1,0.6,0.1,1,0.1l6.4-0.2c0,0,0.7,0,0.7-1.1l-0.2-2.5
					c0,0-0.1-0.4-0.5-0.7c-0.1-0.1-0.3-0.2-0.4-0.4l-2.8-2.8"/>
				<path class="st12" d="M74.1,211h-6.5c0,0-0.3,0-0.6,0.3c-0.1,0.1-0.2,0.3-0.3,0.6l-0.4,2.4c0,0-0.3,0.7,0.4,1"/>
				<line class="st12" x1="67" y1="211.2" x2="63.2" y2="208"/>
				<path class="st12" d="M22.5,130.1l2.9-3.1l-0.9-1.3c0,0,0,0,0,0c0,0-0.1-0.1-1,0l-45.1-0.2l-13.5-0.1l-2.3,1l-0.1,0l-3.1-1.7
					l-3.6-1.9"/>
				<path class="st12" d="M11.3,141.6c0,0,0.5-0.4,1.2-1.1l8.9-9.4l1-1.1"/>
				<path class="st12" d="M28.4,116.1l-56.2-0.6l-6.1-0.1c-1.6-0.1-1.6,1.1-1.6,1.1l-0.2,7.5l14,0.1l0.2-3.8l39.4,0.1v3.9l6.3,0.1
					l0.7,0.7l0.4,0.5c0.5,0.5,0.9,0.2,0.9,0.2l4.4-4.9c0.5-0.5,0.3-1,0.3-1l-2.6-3.3C28.4,116.4,28.4,116.2,28.4,116.1
					c0-0.5,0-0.3,0-0.3l-1.6-2l-3.7-4.8L12.7,93.2c-0.2-0.4-0.5-0.6-0.7-0.8c-0.5-0.3-0.9-0.2-0.9-0.2L-11.4,92
					c-1.4,0-1.6,0.6-1.6,0.6L-24.7,109l-2.5,5.8c-0.3,0.5-0.5,0.5-0.6,0.5c0,0,0,0,0,0l-2.5-1.5l-1.3,0l-4.8,0.1c0,0-2.2,0-2.6,1.3
					l1.7,11.1l0.5,3.2l1,0.9l9.6,10.3c0,0,0.1,0.2,0.3,0.5c0.2,0.2,0.6,0.4,1.1,0.4h10.6h0.7h10.2h14.4"/>
				<path class="st12" d="M12.1,92.4L12.1,92.4L9.9,91c0,0-0.6-0.4-1.7-0.4l-22.3-0.4c0,0-0.9,0-2,1.9l-15.6,21h-25.8c0,0,0,0,0,0
					c-0.1,0-0.4-0.1-0.7,0.2c-0.2,0.2-0.4,0.6-0.4,1.4v9.8v7l10.2,10l22.4-0.1h0.4"/>
				<polyline class="st12" points="11.2,141.6 11.3,141.6 26.2,141.6 33.7,141.6 43.4,131.6 				"/>
				<polyline class="st12" points="-57.4,112.9 -57.5,113 -58.2,113.2 -59.2,113.6 -59.2,124.6 -59.2,135.9 -50.8,145 -14.2,145.1 
					-14.1,145.1 				"/>
				<polyline class="st12" points="-14.2,141.2 -14.2,141.6 -14.2,145.1 -14.2,145.9 -14.2,147.8 -13.5,148.6 -13.3,148.7 
					-4.2,148.7 -4.2,145.9 -13.1,145.9 				"/>
				<polyline class="st12" points="-13.5,149.1 -13.5,148.6 -13.5,145.9 -13.5,141.6 -13.5,141.2 				"/>
				<polyline class="st12" points="-3.2,141.7 -3.9,145.1 -3.9,145.2 35.2,144.7 43.7,135.9 43.7,131.6 43.7,123 43.7,113.7 
					26.9,113.7 				"/>
				<polygon class="st12" points="-7.8,97.2 7.3,97.5 7.3,103 -8,103 				"/>
				<rect x="11.6" y="100.1" class="st12" width="2.1" height="2.9"/>
				<polyline class="st12" points="11.7,99.8 11.1,99.4 13.6,99.4 13.9,99.6 				"/>
				<polyline class="st12" points="10.8,99.8 10.8,102.3 11.2,103.3 				"/>
				<polyline class="st12" points="-14.2,99.4 -11.3,99.4 -11.3,103 -14.2,103 -14.2,101.8 				"/>
				<polyline class="st12" points="-13.9,99.2 -14.5,98.7 -12,98.7 -11.7,98.9 				"/>
				<polyline class="st12" points="-14.2,99 -14.2,99.4 -14.2,101.8 -13.9,102.7 				"/>
				<path class="st12" d="M-78.6,213.7l0,3.3c0,0.3-0.1,0.5-0.2,0.6v0c-0.1,0.1-0.2,0.1-0.2,0.1l-7.7,0.3c-0.3,0-0.4-0.1-0.5-0.2
					c-0.1-0.2-0.1-0.3-0.1-0.3l-0.8-3.4c0,0,0,0,0,0c-1.7-0.8-1.2-2.6-1.2-2.6v-65.6v-45.6V24.4c0,0,0.5-1.6,1.7-2.2c0,0,0,0,0,0
					c0.3-0.1,0.6-0.2,0.9-0.2"/>
				<polyline class="st12" points="76,145.1 -4.2,145.8 -4.3,145.8 -4,145.1 				"/>
				<line class="st12" x1="-14.5" y1="145.9" x2="-89.3" y2="145.9"/>
				<rect x="-21.3" y="126.6" class="st12" width="32.2" height="6.4"/>
				<polygon class="st12" points="-82.1,150.5 68.8,148.7 68.8,159.2 -82.1,161.8 				"/>
				<rect x="-7.8" y="150.2" class="st12" width="8.6" height="5.7"/>
				<polygon class="st12" points="15.8,158.5 5.1,158.6 5.1,152.9 15.8,152.8 25.9,152.7 35.9,152.5 45.9,152.4 45.9,158.1 
					35.9,158.2 25.9,158.3 				"/>
				<polyline class="st12" points="15.8,152.7 15.8,152.8 15.8,158.4 				"/>
				<polyline class="st12" points="25.9,152.7 25.9,158.3 25.9,158.4 				"/>
				<polyline class="st12" points="35.9,152.7 35.9,158.2 35.9,158.4 				"/>
				<polygon class="st12" points="58,157.8 48,158.1 48,152.3 58,152.3 67.3,152.3 67.3,157.5 				"/>
				<line class="st12" x1="58" y1="152.7" x2="58" y2="157.8"/>
				<rect x="-78.5" y="153.8" class="st12" width="5.7" height="7.2"/>
				<rect x="-63.5" y="153" class="st12" width="2.9" height="7.2"/>
				<rect x="-54.9" y="153" class="st12" width="2.9" height="7.2"/>
				<rect x="-46.4" y="153" class="st12" width="2.9" height="7.2"/>
				<polygon class="st12" points="-13.5,159.4 -13.5,158 -9.9,158 -9.9,159.5 -13.4,159.5 -13.5,159.5 				"/>
				<polyline class="st12" points="-13.2,159.6 -13.4,159.5 -13.5,159.4 -14.2,158.6 -14.2,156.6 -14.2,156.4 -14,156.6 
					-13.1,157.8 				"/>
				<polyline class="st12" points="-14.5,156.6 -14.2,156.6 -14,156.6 -11.4,156.6 -10.6,157.1 -9.8,157.6 				"/>
				<polyline class="st12" points="-10.6,157.7 -10.6,157.1 -10.6,152.3 -14.2,152.3 -14.2,156.3 				"/>
				<path class="st12" d="M-60.3,186.4l29.2-0.4c0,0,1-0.1,1,1l-0.2,15.5c0,0,0.1,0.6-0.8,0.6l-28.9,0.8c0,0-0.7,0-0.7-1.2v-15.6
					C-60.7,187.1-60.8,186.5-60.3,186.4z"/>
				<path class="st12" d="M-26.7,185.8l29.2-0.4c0,0,1-0.1,1,1l-0.2,14.4c0,0,0.1,1.2-0.8,1.2l-28.9,0.8c0,0-0.7,0-0.7-1.2v-15
					C-27.1,186.5-27.2,186-26.7,185.8z"/>
				<polygon class="st12" points="-48.7,201.6 -59.2,201.9 -59.2,187.8 -31.4,187.4 -31.4,201.3 -43.2,201.5 				"/>
				<polygon class="st12" points="-25.6,187.4 2.3,186.9 2.3,200.1 -10,200.5 -25.6,200.9 				"/>
				<path class="st12" d="M-55,192.8c0,0,0.3-0.1,0.8-0.3c0.9-0.3,2.5-0.7,4.5-0.9c1.4-0.2,2.9-0.3,4.7-0.3c2.6,0,5.4,0.3,8.4,1.1"
					/>
				<line class="st12" x1="-54.7" y1="191.2" x2="-54.1" y2="192.5"/>
				<line class="st12" x1="-52.2" y1="190.6" x2="-51.8" y2="191.9"/>
				<polyline class="st12" points="-49.8,190.3 -49.6,191.6 -49.6,191.6 				"/>
				<line class="st12" x1="-47.8" y1="189.9" x2="-47.8" y2="191.3"/>
				<polyline class="st12" points="-44.9,189.9 -44.9,191.2 -44.9,191.3 				"/>
				<line class="st12" x1="-41.1" y1="190.3" x2="-41.4" y2="191.4"/>
				<line class="st12" x1="-38" y1="190.9" x2="-38.5" y2="191.9"/>
				<path class="st12" d="M-22,191.6c0,0,0.3-0.1,0.8-0.3c0.9-0.3,2.5-0.7,4.5-0.9c0.8-0.1,1.6-0.2,2.4-0.2c3.1-0.2,6.8-0.1,10.6,1"
					/>
				<line class="st12" x1="-21.7" y1="190.1" x2="-21.2" y2="191.4"/>
				<line class="st12" x1="-19.2" y1="189.5" x2="-18.9" y2="190.7"/>
				<polyline class="st12" points="-16.8,189.1 -16.6,190.4 -16.6,190.4 				"/>
				<polyline class="st12" points="-14.2,188.4 -14.2,190.2 -14.2,190.6 				"/>
				<line class="st12" x1="-11.3" y1="188.4" x2="-11.3" y2="189.9"/>
				<line class="st12" x1="-8.1" y1="189.1" x2="-8.4" y2="190.3"/>
				<line class="st12" x1="-5" y1="189.8" x2="-5.5" y2="190.7"/>
				<path class="st12" d="M-48.7,201.6c0,0,2.8-3.8,5.5-0.1"/>
				<path class="st12" d="M-15.7,200.6c0,0,2.6-3.9,5.7-0.1"/>
				<rect x="-54.9" y="175.2" class="st12" width="2.1" height="7.9"/>
				<rect x="-46.4" y="175.2" class="st12" width="2.1" height="7.9"/>
				<rect x="-37.8" y="174.5" class="st12" width="2.1" height="7.9"/>
				<rect x="-21.3" y="174.5" class="st12" width="2.1" height="7.9"/>
				<rect x="-12.8" y="174.5" class="st12" width="2.1" height="7.9"/>
				<rect x="-4.2" y="174.5" class="st12" width="2.1" height="7.2"/>
				<rect x="15.8" y="173.8" class="st12" width="2.9" height="6.4"/>
				<rect x="24.4" y="173.8" class="st12" width="2.1" height="6.4"/>
				<rect x="40.2" y="173.1" class="st12" width="2.1" height="7.2"/>
				<rect x="55.2" y="173.1" class="st12" width="2.9" height="7.2"/>
				<rect x="47.3" y="173.1" class="st12" width="2.1" height="7.2"/>
				<polyline class="st12" points="-3.5,169.1 -3.5,168.2 -19.9,168.4 -54.2,168.9 -54.2,169.8 				"/>
				<line class="st12" x1="-11.3" y1="168.4" x2="-11.3" y2="169.1"/>
				<line class="st12" x1="-19.9" y1="168.4" x2="-19.9" y2="169.1"/>
				<line class="st12" x1="-36.4" y1="169.1" x2="-36.4" y2="169.8"/>
				<line class="st12" x1="-44.9" y1="169.1" x2="-44.9" y2="169.8"/>
				<polyline class="st12" points="24.4,169.1 24.4,168.1 16.6,168.1 16.6,169.1 				"/>
				<polyline class="st12" points="55.9,167.7 55.9,166.7 40.9,167.2 40.9,168.4 				"/>
				<line class="st12" x1="48.7" y1="167" x2="48.7" y2="168.4"/>
				<path class="st12" d="M-40.6,124.7c0,0.3,0,0.6,0,0.9c0,4.6-3.7,8.3-8.3,8.3s-8.3-3.7-8.3-8.3c0-0.6,0.1-1.2,0.2-1.7
					c0.8-3.8,4.1-6.6,8.1-6.6C-44.6,117.3-41,120.5-40.6,124.7z"/>
				<path class="st12" d="M-44.2,122.8c0.6,0.9,0.9,1.9,0.9,3c0,3.1-2.5,5.5-5.5,5.5c-3.1,0-5.5-2.5-5.5-5.5c0-1.2,0.4-2.2,1-3.1
					c1-1.4,2.7-2.4,4.5-2.4C-46.8,120.3-45.1,121.3-44.2,122.8C-44.1,122.8-44.1,122.8-44.2,122.8z"/>
				<path class="st12" d="M-44.5,125.8c0,2-1.6,3.7-3.7,3.7c-2,0-3.7-1.6-3.7-3.7c0-2,1.6-3.7,3.7-3.7
					C-46.1,122.1-44.5,123.7-44.5,125.8z"/>
				<path class="st12" d="M-66.5,121.7c0.6,0.7,0.9,1.6,0.9,2.6c0,1-0.4,2-1,2.7c-0.7,0.8-1.8,1.4-3,1.4c-0.4,0-0.7,0-1-0.1
					c-1.1-0.3-2.1-1.1-2.6-2.1c-0.3-0.5-0.4-1.2-0.4-1.8c0-2.2,1.8-4,4.1-4c0.3,0,0.5,0,0.8,0.1C-67.9,120.5-67.1,121-66.5,121.7z"
					/>
				<path class="st12" d="M-68.8,120.3l4.3-2.6c0,0,2.2-0.1,1.5,1.9c0,0-3.2,1.6-3.5,2.1"/>
				<path class="st12" d="M-73.2,126.1c0,0-2,5.2-1.4,8.9c0,0,1.1,2.1,2.8,0.4c0,0-0.2-5.3,1.2-7"/>
				<path class="st12" d="M22.2,131.9c1-1,2.4-1.7,4-1.7c3.1,0,5.7,2.5,5.7,5.7c0,3.1-2.5,5.7-5.7,5.7c-3.1,0-5.7-2.5-5.7-5.7
					C20.5,134.3,21.2,132.9,22.2,131.9z"/>
				<path class="st12" d="M30.9,136.3c0,2.5-2,4.4-4.4,4.4c-2.5,0-4.4-2-4.4-4.4c0-2.4,2-4.4,4.4-4.4
					C29,131.8,30.9,133.8,30.9,136.3z"/>
				<path class="st12" d="M41.8,122.6c0.4,0.4,0.6,0.8,0.6,1.4c0,1.1-0.9,1.9-1.9,1.9c-0.2,0-0.5-0.1-0.7-0.1
					c-0.7-0.3-1.2-1-1.2-1.8c0-0.8,0.5-1.5,1.2-1.8c0.2-0.1,0.5-0.1,0.7-0.1C41,122.1,41.5,122.3,41.8,122.6"/>
				<path class="st12" d="M39.8,122.2c0,0-0.4-0.7-2-0.7c0,0-2.1,0.1-2.1,1.9c0,0,0,0.7,0.2,1.4c0.2,0.8,0.7,1.7,1.8,1.7
					c0,0,2-0.1,2-0.8"/>
				<path class="st12" d="M42.3,122.7c0.1,0.4,0.2,0.8,0.2,1.2c0,2.3-1.9,4.2-4.2,4.2c-1.8,0-3.3-1.1-4-2.7c-0.2-0.5-0.3-1-0.3-1.5
					c0-2.3,1.9-4.2,4.2-4.2C40.2,119.7,41.8,121,42.3,122.7z"/>
				<path class="st12" d="M27.9,120.1c0,0.8-0.6,1.4-1.4,1.4c-0.8,0-1.4-0.6-1.4-1.4s0.6-1.4,1.4-1.4
					C27.2,118.6,27.9,119.3,27.9,120.1z"/>
				<path class="st12" d="M-30.5,119.8c0,0.9-0.8,1.7-1.7,1.7c-0.9,0-1.7-0.8-1.7-1.7c0-0.9,0.8-1.7,1.7-1.7
					C-31.2,118.1-30.5,118.9-30.5,119.8z"/>
				<path class="st12" d="M63.8,119.7c1.4,0.5,2.5,1.8,2.5,3.4c0,1.9-1.5,3.5-3.3,3.6c-0.1,0-0.2,0-0.3,0c-0.8,0-1.5-0.2-2-0.6
					c-1-0.7-1.6-1.8-1.6-3c0-1.4,0.8-2.7,2.1-3.3c0.5-0.2,1-0.4,1.6-0.4C63,119.5,63.4,119.6,63.8,119.7z"/>
				<path class="st12" d="M59.7,126.2c0.3,0,0.6,0,0.9,0"/>
				<path class="st12" d="M58.6,125.9c0.3,0.1,0.6,0.2,1.1,0.2"/>
				<path class="st12" d="M61.1,119.9c0,0-1-0.9-2.9-0.2c-0.1,0.1-0.3,0.1-0.4,0.2c0,0-1.1,0.6-1.4,2.2c0,0.1,0,0.3,0,0.4
					c0,0-0.3,1.8,1.3,3c0,0,0.3,0.3,0.9,0.5"/>
				<path class="st12" d="M58.2,119.7l-2.5-1.6c0,0-3.5,0.1-1.6,2.4c0,0,1.3,0.8,2.3,1.6"/>
				<path class="st12" d="M62.9,126.7c1.5,1.5,1.3,8.1,1.3,8.1c-1.7,2-2.8-0.2-2.8-0.2c0.6-3.5-1.8-8.5-1.8-8.5h0l-1.1-0.2l0,0
					L43.7,123l-1.4-0.3l-0.5-0.1h0"/>
				<path class="st12" d="M-83.6,169.2c0,0.9-0.7,1.6-1.6,1.6c-0.9,0-1.6-0.7-1.6-1.6c0-0.9,0.7-1.6,1.6-1.6
					C-84.3,167.6-83.6,168.3-83.6,169.2z"/>
				<path class="st12" d="M74.5,166c0,0.8-0.7,1.5-1.5,1.5c-0.8,0-1.5-0.7-1.5-1.5c0-0.8,0.7-1.5,1.5-1.5
					C73.8,164.5,74.5,165.1,74.5,166z"/>
				<path class="st12" d="M-71.1,176.5c0.3,0.5,0.4,1,0.4,1.6c0,1.9-1.6,3.5-3.5,3.5c-1.9,0-3.5-1.6-3.5-3.5c0-0.2,0-0.4,0.1-0.6
					c0.1-0.7,0.5-1.4,1-1.9c0.6-0.6,1.5-1,2.5-1h0c0.6,0,1.2,0.2,1.6,0.4c0.3,0.2,0.6,0.4,0.8,0.6
					C-71.5,175.9-71.3,176.2-71.1,176.5z"/>
				<path class="st12" d="M-71.8,188.1c0,1.2-1,2.2-2.2,2.2c-1.2,0-2.2-1-2.2-2.2c0-1.2,1-2.2,2.2-2.2
					C-72.7,186-71.8,186.9-71.8,188.1z"/>
				<path class="st12" d="M-72.4,188.1c0,0.9-0.7,1.5-1.5,1.5c-0.9,0-1.5-0.7-1.5-1.5c0-0.9,0.7-1.5,1.5-1.5
					C-73.1,186.5-72.4,187.2-72.4,188.1z"/>
				<path class="st12" d="M-83.3,210.7c0,0.9-0.7,1.6-1.6,1.6c-0.9,0-1.6-0.7-1.6-1.6c0-0.9,0.7-1.6,1.6-1.6
					C-84,209.1-83.3,209.8-83.3,210.7z"/>
				<path class="st12" d="M73.4,204.6c0,0.8-0.7,1.5-1.5,1.5c-0.8,0-1.5-0.7-1.5-1.5c0-0.8,0.7-1.5,1.5-1.5
					C72.8,203.1,73.4,203.8,73.4,204.6z"/>
				<path class="st12" d="M-31,160.1c-0.7-0.6-1.2-1.5-1.2-2.5c0-1.8,1.4-3.2,3.2-3.2c0.7,0,1.3,0.2,1.8,0.5"/>
				<path class="st12" d="M-27.1,155c0.8,0.6,1.4,1.5,1.4,2.6c0,1.8-1.4,3.2-3.2,3.2c-0.7,0-1.4-0.2-1.9-0.6"/>
				<path class="st12" d="M-27.1,155L-27.1,155l-2.2-1.8c0,0-2-0.4-3.3,1.8c0,0-1.1,1.6-0.4,3.6l2,1.5l0.1,0.1"/>
				<path class="st12" d="M27.2,191.4c0.1,0.1,0.2,0.2,0.3,0.2c0.2,0.2,0.4,0.3,0.5,0.5c0.9,1,1.5,2.4,1.5,3.9
					c0,3.2-2.6,5.8-5.8,5.8c-0.7,0-1.4-0.1-2.1-0.4c-0.9-0.3-1.7-0.9-2.3-1.6c-0.9-1-1.4-2.4-1.4-3.8c0-3.2,2.6-5.8,5.8-5.8
					c1.3,0,2.4,0.4,3.4,1.1"/>
				<path class="st12" d="M27.2,191.4l-0.1-0.1l-3.4-2.5c0,0-2.6-1.6-5.8,1.7c0,0-2.8,2.7-1.5,6.4l2.9,3l0.5,0.5"/>
				<path class="st12" d="M28.1,192.2c0,0-1.3-4.2-4.3-4.8c0,0-4.2-1.4-7.3,2.4c0,0-2.2,2.3-1.9,5.5c0,0,0,3.2,2.7,5.1
					c0,0,2.3,1.6,4.3,1.1"/>
				<path class="st12" d="M55.1,189.7c0.1,0.1,0.2,0.1,0.3,0.2c0.2,0.2,0.4,0.3,0.5,0.5c1,1,1.5,2.4,1.5,3.9c0,3.2-2.6,5.8-5.8,5.8
					c-0.7,0-1.4-0.1-2.1-0.4c-0.9-0.4-1.7-0.9-2.3-1.7c-0.9-1-1.4-2.4-1.4-3.8c0-3.2,2.6-5.8,5.8-5.8c1.3,0,2.4,0.4,3.4,1.1"/>
				<path class="st12" d="M55.1,189.7l-0.1-0.1l-3.4-2.5c0,0-2.6-1.6-5.8,1.7c0,0-2.8,2.7-1.5,6.4l2.9,2.9l0.5,0.5"/>
				<path class="st12" d="M55.9,190.5C55.9,190.5,55.9,190.5,55.9,190.5c-0.1-0.3-1.4-4.2-4.3-4.8c0,0-4.2-1.4-7.3,2.4
					c0,0-2.2,2.3-1.9,5.5c0,0,0,3.2,2.7,5.1c0,0,2.3,1.6,4.3,1.2"/>
				<rect x="-55.7" y="172.3" class="st12" width="2.1" height="0.7"/>
				<rect x="-46.4" y="172.3" class="st12" width="2.1" height="0.7"/>
				<rect x="-37.8" y="172.3" class="st12" width="2.1" height="0.7"/>
				<rect x="-20.6" y="171.6" class="st12" width="2.1" height="0.7"/>
				<rect x="-4.2" y="171.6" class="st12" width="2.1" height="0.7"/>
				<rect x="-12.8" y="171.6" class="st12" width="2.1" height="0.7"/>
				<rect x="15.8" y="170.9" class="st12" width="2.9" height="1.4"/>
				<rect x="23.7" y="170.9" class="st12" width="2.1" height="1.4"/>
				<rect x="39.4" y="170.2" class="st12" width="2.1" height="1.4"/>
				<rect x="47.3" y="170.2" class="st12" width="2.1" height="1.4"/>
				<rect x="55.2" y="169.5" class="st12" width="2.9" height="1.4"/>
				<path class="st12" d="M-71.8,196.6c0,1.2-1,2.2-2.2,2.2c-1.2,0-2.2-1-2.2-2.2c0-1.2,1-2.2,2.2-2.2
					C-72.7,194.5-71.8,195.5-71.8,196.6z"/>
				<path class="st12" d="M-72.4,196.6c0,0.9-0.7,1.5-1.5,1.5c-0.9,0-1.5-0.7-1.5-1.5c0-0.9,0.7-1.5,1.5-1.5
					C-73.1,195.1-72.4,195.7-72.4,196.6z"/>
				<path class="st12" d="M-71.8,204c0,1.2-1,2.2-2.2,2.2c-1.2,0-2.2-1-2.2-2.2c0-1.2,1-2.2,2.2-2.2
					C-72.7,201.9-71.8,202.8-71.8,204z"/>
				<circle class="st12" cx="-74" cy="204" r="1.5"/>
				<line class="st12" x1="-77.7" y1="177.5" x2="-78.6" y2="177.3"/>
				<line class="st12" x1="-77.3" y1="176.3" x2="-78.2" y2="176"/>
				<line class="st12" x1="-76.8" y1="175.7" x2="-77.6" y2="174.9"/>
				<line class="st12" x1="-76.1" y1="174.9" x2="-76.6" y2="174.1"/>
				<line class="st12" x1="-75.2" y1="174.6" x2="-75.5" y2="173.5"/>
				<polyline class="st12" points="-74.3,174.8 -74.3,174.6 -74.3,172.7 				"/>
				<line class="st12" x1="-73.4" y1="174.7" x2="-73" y2="173.5"/>
				<line class="st12" x1="-72.6" y1="175" x2="-72" y2="174.1"/>
				<line class="st12" x1="-71.8" y1="175.7" x2="-70.9" y2="175"/>
				<polyline class="st12" points="-71.1,176.5 -71.1,176.5 -70.1,176.2 				"/>
				<polyline class="st12" points="22.4,130.1 22.5,130.1 34.3,125.5 35.9,124.8 38.3,123.9 				"/>
				<polyline class="st12" points="-53.3,122.6 -57,123.8 -58.5,124.3 -59.2,124.6 -66.6,127 				"/>
				<polyline class="st12" points="-73.7,124.3 -89.3,100.2 -89.4,100.1 				"/>
				<line class="st12" x1="63.8" y1="119.7" x2="78.1" y2="58.3"/>
			</g>
		</g>
	</g>
</g>
<g id="drive" class="st28">
	
		<image style="display:inline;overflow:visible;" width="600" height="843" xlink:href="insp/824409576735_TTq9U5Cd_l.jpg"  transform="matrix(1 0 0 1 -706.8735 -247.959)">
	</image>
</g>
<g id="reels_smaller" class="st28">
</g>
<g id="reels_paint">
	<g id="XMLID_3_">
		<g>
			<path class="st29" d="M56.6,0.4c31.1,0,56.2,25.2,56.2,56.2c0,31.1-25.2,56.2-56.2,56.2c-31.1,0-56.2-25.2-56.2-56.2
				C0.4,25.5,25.5,0.4,56.6,0.4z M100.8,39.8c0,0,1.8-0.4,0.8-2.9c0,0-3.4-9.5-11.1-16.2c0,0-1.2-1.5-2.7,0L75,37.3c0,0-1,0.8,0,2.4
				l5.2,7.7c0,0,0.4,0.8,2.2,0L100.8,39.8z M71.5,103.1c0,0,1.5-0.5,0.9-3l-7.4-20.7c0,0-0.2-1.5-1.5-1.1c0,0-4.6,1.7-8.3,1
				c0,0-1.5-0.8-1.7,0.9L50.7,103c0,0-0.4,2.4,1.7,2.7C52.4,105.6,63.8,107.3,71.5,103.1z M72.9,56.6c0-9-7.3-16.3-16.3-16.3
				s-16.3,7.3-16.3,16.3c0,9,7.3,16.3,16.3,16.3S72.9,65.6,72.9,56.6z M37.7,42.7c0,0,0.8-1,0-1.7l-18.6-15c0,0-1.9-1.5-3.1,0.4
				c0,0-5.7,7.9-7.7,18.9c0,0-1,2.1,1.9,2.7l22.2,4.3c0,0,1.5,0.7,1.6-0.9C34,51.4,34.5,47.5,37.7,42.7z"/>
			<path class="st26" d="M56.6,40.3c9,0,16.3,7.3,16.3,16.3c0,9-7.3,16.3-16.3,16.3s-16.3-7.3-16.3-16.3
				C40.3,47.6,47.6,40.3,56.6,40.3z M68.1,56.6c0-6.4-5.1-11.5-11.5-11.5c-6.4,0-11.5,5.2-11.5,11.5c0,6.4,5.2,11.5,11.5,11.5
				C63,68.1,68.1,63,68.1,56.6z"/>
			<path class="st17" d="M56.6,45.1c6.4,0,11.5,5.2,11.5,11.5c0,6.4-5.1,11.5-11.5,11.5c-6.4,0-11.5-5.2-11.5-11.5
				C45.1,50.2,50.2,45.1,56.6,45.1z M61.7,56.6c0-2.8-2.3-5.1-5.1-5.1s-5.1,2.3-5.1,5.1c0,2.8,2.3,5.1,5.1,5.1S61.7,59.4,61.7,56.6z
				"/>
			<path class="st4" d="M56.6,51.5c2.8,0,5.1,2.3,5.1,5.1c0,2.8-2.3,5.1-5.1,5.1s-5.1-2.3-5.1-5.1C51.5,53.8,53.8,51.5,56.6,51.5z"
				/>
		</g>
		<g>
			<path class="st12" d="M56.6,0.4c31.1,0,56.2,25.2,56.2,56.2c0,31.1-25.2,56.2-56.2,56.2c-31.1,0-56.2-25.2-56.2-56.2
				C0.4,25.5,25.5,0.4,56.6,0.4z"/>
			<path class="st12" d="M100.8,39.8c0,0,1.8-0.4,0.8-2.9c0,0-3.4-9.5-11.1-16.2c0,0-1.2-1.5-2.7,0L75,37.3c0,0-1,0.8,0,2.4l5.2,7.7
				c0,0,0.4,0.8,2.2,0L100.8,39.8z"/>
			<path class="st12" d="M71.5,103.1c0,0,1.5-0.5,0.9-3l-7.4-20.7c0,0-0.2-1.5-1.5-1.1c0,0-4.6,1.7-8.3,1c0,0-1.5-0.8-1.7,0.9
				L50.7,103c0,0-0.4,2.4,1.7,2.7C52.4,105.6,63.8,107.3,71.5,103.1z"/>
			<path class="st12" d="M37.7,42.7c0,0,0.8-1,0-1.7l-18.6-15c0,0-1.9-1.5-3.1,0.4c0,0-5.7,7.9-7.7,18.9c0,0-1,2.1,1.9,2.7l22.2,4.3
				c0,0,1.5,0.7,1.6-0.9C34,51.4,34.5,47.5,37.7,42.7z"/>
			<path class="st12" d="M72.9,56.6c0,9-7.3,16.3-16.3,16.3s-16.3-7.3-16.3-16.3c0-9,7.3-16.3,16.3-16.3S72.9,47.6,72.9,56.6z"/>
			<path class="st12" d="M68.1,56.6c0,6.4-5.1,11.5-11.5,11.5c-6.4,0-11.5-5.2-11.5-11.5c0-6.4,5.2-11.5,11.5-11.5
				C63,45.1,68.1,50.2,68.1,56.6z"/>
			<path class="st12" d="M61.7,56.6c0,2.8-2.3,5.1-5.1,5.1s-5.1-2.3-5.1-5.1c0-2.8,2.3-5.1,5.1-5.1S61.7,53.8,61.7,56.6z"/>
		</g>
	</g>
</g>
</svg>
