<?xml version="1.0" encoding="utf-8"?>
<!-- Generator: Adobe Illustrator 16.0.0, SVG Export Plug-In . SVG Version: 6.00 Build 0)  -->
<!DOCTYPE svg PUBLIC "-//W3C//DTD SVG 1.1//EN" "http://www.w3.org/Graphics/SVG/1.1/DTD/svg11.dtd">
<svg version="1.1" id="Layer_1" xmlns="http://www.w3.org/2000/svg" xmlns:xlink="http://www.w3.org/1999/xlink" x="0px" y="0px"
	 width="344px" height="291.1px" viewBox="201 164.9 344 291.1" style="enable-background:new 201 164.9 344 291.1;"
	 xml:space="preserve">
<style type="text/css">
<![CDATA[
	.st0{fill:#48555E;}
	.st1{fill:#7C9499;}
	.st2{display:inline;fill:none;stroke:#0B0146;stroke-width:0.9033;stroke-miterlimit:10;}
	.st3{fill:#111516;}
	.st4{fill:#B0B6B7;}
	.st5{fill:#B1E4EF;}
	.st6{display:inline;fill:none;stroke:#0B0146;stroke-miterlimit:10;}
	.st7{display:inline;fill:none;stroke:#0B0146;stroke-width:0.9243;stroke-miterlimit:10;}
	.st8{display:inline;fill:none;stroke:#0B0146;stroke-width:0.7161;stroke-miterlimit:10;}
	.st9{fill:#1B2123;}
	.st10{display:inline;fill:none;stroke:#0B0146;stroke-width:1.2001;stroke-miterlimit:10;}
	.st11{fill:#8AB0BC;}
	.st12{fill:none;stroke:#221F20;stroke-miterlimit:10;}
	.st13{fill:#5D777F;}
	.st14{fill:#C11616;}
	.st15{display:inline;fill:none;stroke:#0B0146;stroke-width:1.0603;stroke-miterlimit:10;}
	.st16{fill:#C7CFD1;}
	.st17{fill:#2E3738;}
	.st18{display:inline;}
	.st19{fill:#30393D;}
	.st20{fill:#9ECBDC;}
	.st21{display:inline;fill:none;stroke:#0B0146;stroke-width:1.0352;stroke-miterlimit:10;}
	.st22{fill:#6E8389;}
	.st23{display:inline;fill:none;stroke:#0B0146;stroke-width:0.9813;stroke-miterlimit:10;}
	.st24{fill:#3A4549;}
	.st25{fill:#D7E0E3;}
	.st26{display:inline;fill:none;stroke:#0B0146;stroke-width:0.9634;stroke-miterlimit:10;}
	.st27{display:none;}
	.st28{fill:#73949B;}
	.st29{opacity:0.6;fill:#435054;enable-background:new    ;}
]]>
</style>
<g id="photo" class="st27">
	
		<image style="display:inline;overflow:visible;opacity:0.6;enable-background:new    ;" width="1193" height="1200" xlink:href="tape_02.jpg"  transform="matrix(0.2784 0 0 0.2784 206.9971 121.0073)">
	</image>
</g>
<g id="body" class="st27">
	<path class="st6" d="M268.5,183v138l-0.1,188.3c0,0-1.2,4.2,4,4.2L556.3,502c0,0,1.7,0.3,1.7-1.7l4.3-174l3.3-137.3
		c0-3.2-3.3-3-3.3-3l-119.6-3.7l-32.9-1.3l-133.6-5C276.2,176,268.5,174.7,268.5,183z"/>
	<path class="st6" d="M273.8,520.1l-1.4,5.8c0,0-0.6,1.3,1.4,1.3l15-0.5c0,0,1.4,0,1-1.8l-1.3-5.3"/>
	<line class="st6" x1="270.8" y1="513.6" x2="272.3" y2="526.6"/>
	<line class="st6" x1="288.8" y1="512.9" x2="289.8" y2="525.8"/>
	<path class="st6" d="M526.8,503.2l15.5,11.6c0,0,1.5,1.2,3.9,1l11.2-0.3c0,0,1.2,0,1.3-2l-0.3-4.5c0,0-0.4-1.1-1.6-1.9l-4.9-5"/>
	<path class="st6" d="M558,508.5h-12c0,0-1.4-0.1-1.5,1.4l-0.6,4.1c0,0-0.2,1.4,1,1.9"/>
	<line class="st6" x1="544.9" y1="508.5" x2="538.2" y2="502.7"/>
	<path class="st6" d="M361.2,359.3l4.2-1.8l103,0.5c1.9-0.1,1.8,0.1,1.8,0.1l1.5,2.2l-22.5,23.5c-1.2,1.2-2.1,1.6-2.1,1.6h-63.6
		c-1.9,0-2.5-1.2-2.5-1.2l-16.9-18l-1.8-1.5l-3.8-25c0.6-2.3,4.5-2.2,4.5-2.2l10.8-0.1l4.4,2.6c0,0,0.4,0.2,1.2-0.9l4.3-10.2
		l20.7-28.9c0,0,0.4-1.1,2.7-1.1l39.4,0.5c0,0,1.7-0.3,2.9,1.8l18.3,27.8l9.4,12c0,0,0.1-0.4,0,0.5c0,0.2,0,0.5,0,0.9l4.6,5.8
		c0,0,0.3,0.9-0.5,1.8l-7.7,8.7c0,0-0.6,0.6-1.6-0.3l-2.1-2.1l-11.2-0.1V349l-69.2-0.1l-0.2,6.6l-24.7-0.2l0.4-13.2
		c0,0,0.1-2.1,2.8-2l109.5,1.1"/>
	<path class="st6" d="M448.2,299.5l-3.7-2.5c0,0-1.1-0.6-3-0.6l-39.3-0.7c0,0-1.5-0.1-3.5,3.1l-27.4,36.7H326c0,0-1.5-0.4-1.5,3V368
		l17.8,17.5l40-0.2"/>
	<polyline class="st6" points="447,385.5 486.2,385.5 503.5,368 	"/>
	<polyline class="st6" points="326,335.6 322.5,336.8 322.5,376 337.5,392 402,392.2 	"/>
	<polyline class="st6" points="401.5,386 401.5,397 403.7,398.5 419.5,398.5 419.5,393.5 404,393.5 	"/>
	<line class="st6" x1="403.5" y1="399" x2="403.5" y2="386"/>
	<polyline class="st6" points="421.2,386 420,392.2 488.8,391.5 503.5,376 503.5,336.5 474,336.5 	"/>
	<polygon class="st6" points="413.2,308.2 439.5,308.5 439.5,318.5 413,318.5 	"/>
	<rect x="447.5" y="312.5" class="st6" width="4" height="6"/>
	<polyline class="st6" points="447.6,312.4 446.6,311.5 451,311.5 451.5,312 	"/>
	<polyline class="st6" points="446.5,312 446.5,317 447.1,318.5 	"/>
	<rect x="402.5" y="311.5" class="st6" width="4" height="6"/>
	<polyline class="st6" points="402.6,311.4 401.6,310.5 406,310.5 406.5,311 	"/>
	<polyline class="st6" points="401.5,311 401.5,316 402.1,317.5 	"/>
	<path class="st6" d="M288.8,512.9v5.8c0.1,1-0.7,1.2-0.7,1.2l-13.5,0.5c-1.1,0-1-1-1-1l-1.2-5.9c-3.1-1.4-1.9-4.6-1.9-4.6V180
		c0,0,1-4.2,4.5-4.1"/>
	<polyline class="st6" points="560.7,392.2 419.5,393.5 420,392.2 	"/>
	<line class="st6" x1="401" y1="393.5" x2="272" y2="393.5"/>
	<rect x="389.5" y="359.5" class="st6" width="56" height="12"/>
	<polygon class="st6" points="282.5,401.8 548.5,398.5 548.5,417 282.5,421.5 	"/>
	<rect x="413.5" y="401.5" class="st6" width="15" height="10"/>
	<path class="st6" d="M436.3,406.5"/>
	<polygon class="st6" points="436.5,416 436.5,406 507.5,405 507.5,415 	"/>
	<line class="st6" x1="454.5" y1="406" x2="454.5" y2="416"/>
	<line class="st6" x1="472.5" y1="405" x2="472.5" y2="415"/>
	<line class="st6" x1="490.5" y1="405" x2="490.5" y2="415"/>
	<polygon class="st6" points="511.5,405.5 545.5,405.5 545.5,414 511.5,415 	"/>
	<line class="st6" x1="528.5" y1="406" x2="528.5" y2="415"/>
	<rect x="288.5" y="407.5" class="st6" width="11" height="12"/>
	<rect x="315.5" y="406.5" class="st6" width="5" height="12"/>
	<rect x="330.5" y="406.5" class="st6" width="5" height="12"/>
	<rect x="345.5" y="406.5" class="st6" width="5" height="12"/>
	<rect x="403.5" y="414.5" class="st6" width="6" height="3"/>
	<polyline class="st6" points="403.5,417.8 401.5,416 401.5,412 403.5,414.5 	"/>
	<polyline class="st6" points="401,412.5 407,412.5 409.5,414.2 	"/>
	<polyline class="st6" points="408.5,414 408.5,405.5 401.5,405.5 401.5,412 	"/>
	<path class="st6" d="M321.1,464.8l51.3-0.7c0,0,1.8-0.2,1.8,1.8l-0.4,27.3c0,0,0.1,1.1-1.4,1.1l-50.8,1.3c0,0-1.2,0.1-1.2-2.1V466
		C320.5,466,320.2,465.1,321.1,464.8z"/>
	<path class="st6" d="M380.1,463.8l51.3-0.7c0,0,1.8-0.2,1.8,1.8l-0.4,25.3c0,0,0.1,2.1-1.4,2.1l-50.8,1.3c0,0-1.2,0.1-1.2-2.1V465
		C379.5,465,379.2,464.1,380.1,463.8z"/>
	<polygon class="st6" points="322.5,467.4 371.5,466.5 371.5,491 322.5,492 	"/>
	<polygon class="st6" points="381.5,466.6 430.5,465.8 430.5,489 381.5,490.2 	"/>
	<path class="st6" d="M330.4,476c0,0,15.6-5.5,32.4-0.8"/>
	<line class="st6" x1="330.9" y1="473.3" x2="331.8" y2="475.5"/>
	<line class="st6" x1="335.2" y1="472.2" x2="335.9" y2="474.4"/>
	<line class="st6" x1="339.4" y1="471.6" x2="339.8" y2="473.9"/>
	<line class="st6" x1="343.5" y1="471" x2="343.5" y2="474"/>
	<line class="st6" x1="348.5" y1="471" x2="348.5" y2="473"/>
	<line class="st6" x1="354.8" y1="471.6" x2="354.3" y2="473.6"/>
	<line class="st6" x1="360.2" y1="472.8" x2="359.4" y2="474.4"/>
	<path class="st6" d="M388.4,474c0,0,15.6-5.5,32.4-0.8"/>
	<line class="st6" x1="388.9" y1="471.3" x2="389.8" y2="473.5"/>
	<line class="st6" x1="393.2" y1="470.2" x2="393.9" y2="472.4"/>
	<line class="st6" x1="397.4" y1="469.6" x2="397.8" y2="471.9"/>
	<line class="st6" x1="401.5" y1="469" x2="401.5" y2="472"/>
	<line class="st6" x1="406.5" y1="469" x2="406.5" y2="471"/>
	<line class="st6" x1="412.8" y1="469.6" x2="412.3" y2="471.6"/>
	<line class="st6" x1="418.2" y1="470.8" x2="417.4" y2="472.4"/>
	<path class="st6" d="M341.4,491.6c0,0,4.9-6.7,9.7-0.2"/>
	<path class="st6" d="M399.4,489.8c0,0,4.5-6.8,10.1-0.3"/>
	<rect x="330.5" y="445.5" class="st6" width="4" height="13"/>
	<rect x="345.5" y="445.5" class="st6" width="4" height="13"/>
	<rect x="360.5" y="444.5" class="st6" width="4" height="13"/>
	<rect x="389.5" y="444.5" class="st6" width="4" height="13"/>
	<rect x="404.5" y="444.5" class="st6" width="4" height="13"/>
	<rect x="419.5" y="443.5" class="st6" width="4" height="13"/>
	<rect x="455.5" y="442.5" class="st6" width="4" height="12"/>
	<rect x="469.5" y="442.5" class="st6" width="4" height="12"/>
	<rect x="497.5" y="441.5" class="st6" width="4" height="12"/>
	<rect x="524.5" y="441.5" class="st6" width="4" height="12"/>
	<rect x="510.5" y="441.5" class="st6" width="4" height="12"/>
	<polyline class="st6" points="420.5,434 420.5,432.8 331.5,434.1 331.5,436 	"/>
	<line class="st6" x1="406.5" y1="433" x2="406.5" y2="434"/>
	<line class="st6" x1="391.5" y1="433" x2="391.5" y2="434"/>
	<line class="st6" x1="362.5" y1="434" x2="362.5" y2="436"/>
	<line class="st6" x1="347.5" y1="434" x2="347.5" y2="436"/>
	<polyline class="st6" points="470.5,434 470.5,432.5 456.5,432.5 456.5,434 	"/>
	<polyline class="st6" points="525.5,432 525.5,430.1 498.5,431.1 498.5,433 	"/>
	<line class="st6" x1="512.5" y1="431" x2="512.5" y2="433"/>
	<circle class="st21" cx="341.1" cy="357.9" r="14.6"/>
	<circle class="st15" cx="341.2" cy="358.2" r="9.7"/>
	<circle class="st10" cx="342.4" cy="358.2" r="6.4"/>
	<circle class="st10" cx="304.6" cy="355.6" r="7.1"/>
	<path class="st10" d="M306.8,348.5l6.9-4.5c0,0,3.9-0.2,2.6,3.4c0,0-5.6,2.8-6.1,3.7"/>
	<path class="st10" d="M298.3,358.8c0,0-3.5,9.2-2.5,15.6c0,0,2,3.6,4.9,0.6c0,0-0.4-9.4,2.1-12.2"/>
	<circle class="st10" cx="473.2" cy="376" r="10"/>
	<circle class="st6" cx="473.7" cy="376.7" r="7.8"/>
	<circle class="st6" cx="498.2" cy="355.1" r="3.4"/>
	<path class="st6" d="M497,352c0,0-0.7-1.3-3.4-1.3c0,0-3.7,0.1-3.7,3.4c0,0-0.1,5.6,3.6,5.6c0,0,3.6-0.1,3.6-1.4"/>
	<circle class="st6" cx="494.3" cy="355" r="7.5"/>
	<circle class="st6" cx="473.5" cy="348.2" r="2.5"/>
	<circle class="st6" cx="370.5" cy="347.7" r="3"/>
	<circle class="st6" cx="537.2" cy="353.5" r="6.4"/>
	<path class="st6" d="M534.4,347.8c0,0-2-1.8-5.7,0c0,0-2.3,1.3-2.5,4.6c0,0-0.4,3.2,2.3,5.2c0,0,1.9,1.6,5.1,1.1"/>
	<path class="st6" d="M529.4,347.5l-4.3-2.7c0,0-6.1,0.1-2.9,4.2c0,0,2.2,1.4,4.1,2.8"/>
	<path class="st6" d="M532,358.9c0,0,4.1,8.8,3.1,14.9c0,0,2,3.9,4.9,0.4c0,0,0.3-11.6-2.4-14.3"/>
	<circle class="st6" cx="277.2" cy="434.6" r="2.8"/>
	<circle class="st6" cx="555.4" cy="428.9" r="2.7"/>
	<path class="st6" d="M302.6,450.3c0,3.4-2.8,6.2-6.2,6.2s-6.2-2.8-6.2-6.2c0-1.7,0.7-3.3,1.8-4.4c1.1-1.1,2.7-1.8,4.4-1.8
		C299.9,444.1,302.6,446.9,302.6,450.3z"/>
	<circle class="st6" cx="297" cy="467.8" r="3.8"/>
	<circle class="st8" cx="297" cy="467.8" r="2.7"/>
	<circle class="st6" cx="277.8" cy="507.5" r="2.8"/>
	<circle class="st6" cx="553.6" cy="496.9" r="2.6"/>
	<circle class="st6" cx="376.1" cy="414.3" r="5.6"/>
	<path class="st6" d="M379.4,409.6l-3.8-3.1c0,0-3.4-0.7-5.9,3.1c0,0-1.9,2.9-0.6,6.4l3.7,2.8"/>
	<path class="st6" d="M479.1,481.9c0,5.7-4.6,10.3-10.3,10.3s-10.3-4.6-10.3-10.3c0-5.7,4.6-10.3,10.3-10.3c2.5,0,4.9,0.9,6.7,2.5
		C477.7,475.9,479.1,478.8,479.1,481.9z"/>
	<path class="st6" d="M474.9,473.6l-6.2-4.5c0,0-4.6-2.8-10.3,3c0,0-4.9,4.8-2.6,11.2l5.9,6.1"/>
	<path class="st6" d="M476.4,475c0,0-2.3-7.3-7.6-8.4c0,0-7.4-2.5-12.8,4.2c0,0-3.8,4-3.3,9.7c0,0-0.1,5.7,4.8,9c0,0,4,2.8,7.6,2"/>
	<path class="st6" d="M528.1,478.9c0,5.7-4.6,10.3-10.3,10.3s-10.3-4.6-10.3-10.3c0-5.7,4.6-10.3,10.3-10.3c2.5,0,4.9,0.9,6.7,2.5
		C526.7,472.9,528.1,475.8,528.1,478.9z"/>
	<path class="st6" d="M523.9,470.6l-6.2-4.5c0,0-4.6-2.8-10.3,3c0,0-4.9,4.8-2.6,11.2l5.9,6.1"/>
	<path class="st6" d="M525.4,472c0,0-2.3-7.3-7.6-8.4c0,0-7.4-2.5-12.8,4.2c0,0-3.8,4-3.3,9.7c0,0-0.1,5.7,4.8,9c0,0,4,2.8,7.6,2"/>
	<rect x="329.5" y="439.5" class="st6" width="4" height="2"/>
	<rect x="345.5" y="439.5" class="st6" width="4" height="2"/>
	<rect x="360.5" y="439.5" class="st6" width="4" height="2"/>
	<rect x="390.5" y="438.5" class="st6" width="4" height="2"/>
	<rect x="419.5" y="438.5" class="st6" width="4" height="2"/>
	<rect x="404.5" y="438.5" class="st6" width="4" height="2"/>
	<rect x="455.5" y="437.5" class="st6" width="4" height="2"/>
	<rect x="468.5" y="437.5" class="st6" width="4" height="2"/>
	<rect x="496.5" y="436.5" class="st6" width="4" height="2"/>
	<rect x="510.5" y="436.5" class="st6" width="4" height="2"/>
	<rect x="524.5" y="435.5" class="st6" width="4" height="2"/>
	<circle class="st6" cx="297" cy="482.8" r="3.8"/>
	<circle class="st8" cx="297" cy="482.8" r="2.7"/>
	<circle class="st6" cx="297" cy="495.8" r="3.8"/>
	<circle class="st8" cx="297" cy="495.8" r="2.7"/>
	<line class="st6" x1="290.4" y1="449.2" x2="288.8" y2="448.8"/>
	<line class="st6" x1="291.1" y1="447.1" x2="289.6" y2="446.6"/>
	<path class="st6" d="M290.4,444.1"/>
	<line class="st6" x1="292.1" y1="445.9" x2="290.6" y2="444.7"/>
	<line class="st6" x1="293.2" y1="444.7" x2="292.4" y2="443.2"/>
	<line class="st6" x1="294.9" y1="444.1" x2="294.2" y2="442.1"/>
	<line class="st6" x1="296.5" y1="444" x2="296.5" y2="441"/>
	<line class="st6" x1="297.9" y1="444.3" x2="298.6" y2="442.1"/>
	<line class="st6" x1="299.4" y1="444.9" x2="300.5" y2="443.2"/>
	<line class="st6" x1="300.8" y1="445.9" x2="302.4" y2="444.9"/>
	<line class="st6" x1="301.9" y1="447.5" x2="303.8" y2="446.9"/>
	<line class="st6" x1="303" y1="449.5" x2="304" y2="449.5"/>
</g>
<g id="reels" class="st27">
	<circle class="st23" cx="318.7" cy="229.7" r="105"/>
	<circle class="st7" cx="526.6" cy="236.6" r="98.9"/>
	<path class="st7" d="M276.8,156.5c0,0-2-3.7-5.3-1.7c0,0-17.5,7.2-26.8,27c0,0-2,1.7,1.7,4.2c0,0,15.5,12.3,31.7,17.8
		c0,0,3.2,1.5,5.2,0c0,0,6.7-5.3,11.2-11.8c0,0,1-1.2,0-4.5C294.3,187.5,289.8,172.9,276.8,156.5z"/>
	<path class="st7" d="M280,303.6c0,0-2.1,3.6,1.3,5.4c0,0,15,11.5,36.9,9.4c0,0,2.5,0.9,2.7-3.5c0,0,2.8-19.6-0.7-36.3
		c0,0-0.3-3.5-2.6-4.5c0,0-8-3-15.9-3.6c0,0-1.5-0.3-3.9,2.3C297.8,272.8,287.6,284.1,280,303.6z"/>
	<path class="st7" d="M405.5,228.3c0,0,4.2-0.1,3.9-4c0,0,1.5-18.9-12-36.1c0,0-1.9-1.2-5.8,1c0,0-15.7,6.9-27.9,18.9
		c0,0-2.8,2.2-2.3,4.6c0,0,1.8,8.4,5.5,15.3c0,0,0.6,1.4,4,2C371,229.9,385,232.4,405.5,228.3z"/>
	<circle class="st7" cx="283.8" cy="240.2" r="3.2"/>
	<circle class="st7" cx="348.8" cy="257.2" r="3.2"/>
	<circle class="st7" cx="330.8" cy="193.2" r="3.2"/>
	<path class="st2" d="M350.8,228.7c0,16-13,27.5-29,27.5s-29-11.5-29-27.5s13-29,29-29S350.8,212.6,350.8,228.7z"/>
	<circle class="st2" cx="320.3" cy="229.5" r="30"/>
	<circle class="st2" cx="321.1" cy="229.2" r="8.9"/>
	<circle class="st2" cx="322" cy="227.2" r="3.3"/>
	<circle class="st2" cx="321" cy="228.7" r="19.5"/>
	<polygon class="st2" points="328.6,147.6 340,149.9 334,182 322.6,179.4 	"/>
	<polygon class="st2" points="361.6,259.5 349.6,272 386.4,307.6 398.5,294.6 	"/>
	<path class="st7" d="M575,173.3l-22.3,29.3c0,0-1.8,1.5,0,4.2l9.2,13.5c0,0,0.7,1.3,3.8,0L598,207c0,0,3.2-0.7,1.3-5.2
		c0,0-6-16.7-19.5-28.5C579.8,173.3,577.8,170.8,575,173.3z"/>
	<path class="st7" d="M538.8,277.2c0,0-8,3-14.7,1.8c0,0-2.7-1.3-3,1.5l-5,40.2c0,0-0.7,4.2,3,4.7c0,0,20,2.8,33.7-4.5
		c0,0,2.7-0.8,1.7-5.3l-13-36.3C541.5,279.2,541.1,276.5,538.8,277.2z"/>
	<path class="st7" d="M493.3,209.2l-32.7-26.4c0,0-3.3-2.6-5.5,0.8c0,0-10,13.8-13.5,33.2c0,0-1.7,3.7,3.3,4.7l39,7.5
		c0,0,2.7,1.2,2.8-1.5c0,0,0.8-7,6.5-15.3C493.3,212.2,494.7,210.3,493.3,209.2z"/>
	<circle class="st7" cx="491.6" cy="240.8" r="2.8"/>
	<circle class="st7" cx="540" cy="204.2" r="2.8"/>
	<circle class="st7" cx="546.9" cy="266.6" r="2.8"/>
	<circle class="st7" cx="530.2" cy="273" r="4.5"/>
	<circle class="st7" cx="531.8" cy="235.5" r="26.3"/>
	<circle class="st26" cx="529.9" cy="236" r="28.7"/>
	<circle class="st26" cx="532" cy="234.8" r="17.7"/>
	<circle class="st26" cx="533.5" cy="235.1" r="3.6"/>
	<circle class="st26" cx="531" cy="236.4" r="7.1"/>
	<path class="st6" d="M522.1,199.7l-4.7,0.9c0,0-2.1,0.9,0,1.9h4.6L522.1,199.7z"/>
	<polygon class="st6" points="491.9,164.5 544.5,160 544.5,168 493.9,172.2 	"/>
</g>
<g id="body_smaller">
	<ellipse class="st29" cx="373" cy="439.5" rx="172" ry="16.5"/>
	<g id="XMLID_2_">
		<g>
			<path class="st0" d="M303,292.5c-0.1,0-0.6-0.1-1,0.3l-1.5,0.5v15.4l-10.3,3.4c0.9-1,1.5-2.3,1.5-3.8c0-1.4-0.5-2.6-1.3-3.6l0,0
				c0.4-0.7,4.9-3,4.9-3c1-2.9-2.1-2.7-2.1-2.7l-6,3.7c-0.4-0.1-0.7-0.1-1.1-0.1c-3.1,0-5.7,2.5-5.7,5.7l-21.8-33.7v-106
				c0,0,0.6-2.3,2.4-3l0,0c1.3-0.4,2.6-0.2,2.6-0.2l106.1,4l26.2,1.1l95.1,2.9c0,0,2.6-0.1,2.6,2.4l-1,40.2l-20.1,85.8l0,0
				c-0.5-0.2-1-0.3-1.6-0.3c-0.8,0-1.5,0.2-2.2,0.5c0,0-1.4-1.3-4-0.2l-3.4-2.2c0,0-4.8,0.1-2.3,3.4c0,0,1.8,1.1,3.2,2.2
				c0,0.2,0,0.4-0.1,0.5c0,0-0.3,2.5,1.8,4.2c0,0,0.4,0.4,1.2,0.7l-20.8-4.1v-13H421l-0.2,0.1l-5.2-6.7l-14.6-22
				c-0.3-0.5-0.7-0.9-1-1.1l0.1-0.1l-2.9-2c0,0-0.9-0.5-2.4-0.5l-31.2-0.6c0,0-1.2,0-2.8,2.6L339,292.5H303L303,292.5z"/>
			<path class="st0" d="M492.6,216l-1.7,69l-1.3,52.4l0,0l-112.1,1h-0.2l0.4-1h0.1v0.1l54.8-0.6l11.9-12.4v-5.9v-12.1l20.8,4.1l0,0
				c0.4,0.1,0.9,0.2,1.5,0.3l0,0c0,0,3.3,7,2.5,11.9c0,0,1.6,3.1,3.9,0.3c0,0,0.2-9.2-1.9-11.4c2.6-0.2,4.7-2.4,4.7-5
				c0-2.2-1.5-4.1-3.5-4.8l0,0L492.6,216z"/>
			<path class="st13" d="M461.5,400.8c-0.1-0.3-2-5.8-6-6.7c0,0-5.9-2-10.2,3.3c0,0-3,3.2-2.7,7.7c0,0-0.1,4.5,3.8,7.1
				c0,0,3.2,2.2,6.1,1.6c0.9,0.3,1.9,0.5,2.9,0.5c4.5,0,8.2-3.7,8.2-8.2C463.7,404.2,462.9,402.3,461.5,400.8L461.5,400.8z
				 M364.5,342.2l0.2,0.3h12.8v-4v-0.1l112.1-1l0,0l-2.1,85.9c0,1.6-1.3,1.3-1.3,1.3l-3.5,0.1l-10.9,0.4l-9.1,0.4l-189.3,7.7l0,0
				l-12.9,0.5c-0.1,0-0.2,0-0.2,0c-2.4-1.1-1.7-3.6-1.7-3.6v-91.8H363h0.5v2.7L364.5,342.2z M283.9,381.4c-0.2-0.5-0.5-0.9-0.9-1.2
				c-0.3-0.3-0.7-0.6-1.2-0.9c-0.7-0.4-1.5-0.6-2.3-0.6l0,0c-1.4,0-2.6,0.5-3.5,1.4c-0.7,0.7-1.2,1.6-1.4,2.6
				c-0.1,0.3-0.1,0.6-0.1,0.9c0,2.7,2.2,4.9,4.9,4.9c2.7,0,4.9-2.2,4.9-4.9C284.4,382.8,284.2,382,283.9,381.4z M487.5,366.6
				c0-1.2-1-2.1-2.1-2.1c-1.2,0-2.1,0.9-2.1,2.1c0,1.2,1,2.1,2.1,2.1C486.6,368.7,487.5,367.8,487.5,366.6z M486,420.6
				c0-1.1-0.9-2.1-2.1-2.1c-1.2,0-2.1,0.9-2.1,2.1c0,1.2,0.9,2.1,2.1,2.1C485.1,422.7,486,421.8,486,420.6z M479.5,357.1v-14.7
				l-211,2.6v15.7L479.5,357.1z M464.5,386.5v-10h-4v10H464.5z M464.5,373.5v-2h-4v2H464.5z M452.5,386.5v-10h-3v10H452.5z
				 M452.5,374.5v-2h-3v2H452.5z M442.5,386.5v-10h-3v10H442.5z M441.5,374.5v-2h-3v2H441.5z M424.7,408.7c0-2.1-0.8-4-2.1-5.5
				c0,0-1.9-5.8-6.1-6.7c0,0-5.9-2-10.2,3.3c0,0-3,3.2-2.7,7.7c0,0-0.1,4.5,3.8,7.1c0,0,3.2,2.2,6.1,1.6c0.9,0.3,1.9,0.5,2.9,0.5
				C421,416.9,424.7,413.2,424.7,408.7z M420.5,386.5v-9h-3v9H420.5z M419.5,375.5v-2h-3v2H419.5z M409.5,386.5v-9h-4v9H409.5z
				 M409.5,375.5v-2h-4v2H409.5z M387.9,415.2l0.3-20.1c0-1.6-1.5-1.4-1.5-1.4l-40.8,0.6c-0.7,0.2-0.5,1-0.5,1v21c0,1.7,1,1.7,1,1.7
				l40.4-1C388,416.9,387.9,415.2,387.9,415.2z M380.5,388.5v-10h-3v10H380.5z M380.5,375.5v-1h-3v1H380.5z M368.5,389.5v-11h-3v11
				H368.5z M368.5,375.5v-1h-3v1H368.5z M357.5,375.5v-1h-3v1H357.5z M356.5,389.5v-11h-3v11H356.5z M341,417.6l0.3-21.7
				c0-1.6-1.5-1.4-1.5-1.4l-40.8,0.6c-0.7,0.2-0.6,1-0.6,1v21.8c0,1.7,1,1.7,1,1.7l40.4-1C341.1,418.5,341,417.6,341,417.6z
				 M333.5,389.5v-11h-3v11H333.5z M333.5,376.5v-1h-3v1H333.5z M321.5,390.5v-11h-3v11H321.5z M321.5,376.5v-1h-3v1H321.5z
				 M309.5,390.5v-11h-3v11H309.5z M308.5,376.5v-1h-3v1H308.5z M283,397.5c0-1.7-1.3-3-3-3s-3,1.3-3,3s1.3,3,3,3
				C281.6,400.6,283,399.2,283,397.5z M283,409.5c0-1.7-1.3-3-3-3s-3,1.4-3,3c0,1.7,1.3,3,3,3C281.6,412.5,283,411.1,283,409.5z
				 M283,419.8c0-1.7-1.3-3-3-3s-3,1.3-3,3s1.3,3,3,3C281.6,422.8,283,421.5,283,419.8z M266.8,429.1c0-1.2-1-2.2-2.2-2.2
				c-1.2,0-2.2,1-2.2,2.2c0,1.2,1,2.2,2.2,2.2C265.8,431.3,266.8,430.3,266.8,429.1z M266.4,371.1c0-1.2-1-2.2-2.2-2.2
				c-1.2,0-2.2,1-2.2,2.2c0,1.2,1,2.2,2.2,2.2C265.4,373.3,266.4,372.3,266.4,371.1z"/>
			<path class="st19" d="M487.8,430.4l0.2,3.5c-0.1,1.6-1,1.6-1,1.6l-8.9,0.2c-0.5,0-1,0-1.4-0.1v-0.2c-1-0.4-0.5-1.4-0.5-1.4
				l0.5-3.3c0-0.4,0.2-0.7,0.4-0.8c0.4-0.4,0.8-0.4,0.8-0.4h9.1l0.2-0.2C487.6,429.9,487.8,430.4,487.8,430.4z"/>
			<path class="st24" d="M487.2,429.3l-0.2,0.2h-9.1c0,0-0.5,0.1-0.8,0.4l-0.1-0.1l-5.3-4.6l10.9-0.4l3.9,4
				C486.8,429,487,429.2,487.2,429.3z"/>
			<path class="st25" d="M485.4,364.5c1.2,0,2.1,0.9,2.1,2.1c0,1.2-1,2.1-2.1,2.1c-1.2,0-2.1-1-2.1-2.1
				C483.3,365.4,484.2,364.5,485.4,364.5z"/>
			<path class="st25" d="M483.9,418.5c1.1,0,2.1,0.9,2.1,2.1c0,1.2-0.9,2.1-2.1,2.1c-1.2,0-2.1-0.9-2.1-2.1
				C481.8,419.5,482.8,418.5,483.9,418.5z"/>
			<path class="st0" d="M364.6,357.5h4.9v-2h-5v1.8v0.2H364.6z M405.5,348.2l-15,0.2v8l15-0.2l14-0.2l14-0.2l14-0.2v-8l-14,0.2
				l-14,0.2L405.5,348.2z M368.5,354.2v-6.7h-5v5.5v0.2v0.3h0.3h3.6L368.5,354.2z M479.5,342.4v14.7l-211,3.6V345L479.5,342.4z
				 M477.5,354.7v-7.2h-13h-14v8l14-0.4L477.5,354.7z M384.5,352.5v-8h-12v8H384.5z M347.3,355c0-1.5-0.8-2.9-1.9-3.7l0,0l-3-2.5
				c0,0-2.7-0.5-4.7,2.5c0,0-1.5,2.3-0.5,5.1l2.8,2.1l0.2,0.1c0.7,0.6,1.7,0.9,2.7,0.9C345.3,359.4,347.3,357.4,347.3,355z
				 M322.5,358.5v-10h-4v10H322.5z M310.5,358.5v-10h-4v10H310.5z M298.5,358.5v-10h-4v10H298.5z M281.5,359.5v-10h-8v10H281.5z"/>
			<polygon class="st25" points="477.5,347.5 477.5,354.7 464.5,355.1 464.5,355.1 464.5,348 464.5,347.5 			"/>
			<path class="st19" d="M477,429.9L477,429.9c-0.1,0.2-0.3,0.5-0.3,0.9l-0.5,3.3c0,0-0.4,1,0.5,1.4v0.2c-1.1-0.2-1.7-0.8-1.7-0.8
				l-12.3-9.2l9.1-0.4L477,429.9z"/>
			<path class="st20" d="M472.5,301.9c2,0.7,3.5,2.6,3.5,4.8c0,2.7-2.1,4.9-4.7,5c-0.1,0-0.3,0-0.4,0c-1.1,0-2-0.3-2.9-0.9
				c-1.3-0.9-2.2-2.5-2.2-4.2c0-2,1.2-3.8,2.9-4.6c0.7-0.3,1.4-0.5,2.2-0.5C471.5,301.6,472,301.7,472.5,301.9z"/>
			<path class="st9" d="M471.3,311.7c2.1,2.2,1.9,11.4,1.9,11.4c-2.3,2.8-3.9-0.3-3.9-0.3c0.8-4.9-2.5-11.9-2.5-11.9
				c0.4,0,0.8,0,1.3,0c0.8,0.5,1.8,0.9,2.9,0.9C471.1,311.7,471.2,311.7,471.3,311.7z"/>
			<path class="st19" d="M468.7,302.1c-1.7,0.8-2.9,2.6-2.9,4.6c0,1.7,0.9,3.3,2.2,4.2c-0.5,0.1-0.9,0.1-1.3,0l0,0l-1.5-0.3l0,0
				c-0.8-0.3-1.2-0.7-1.2-0.7c-2.2-1.6-1.8-4.2-1.8-4.2c0-0.2,0-0.4,0.1-0.5c0.3-2.2,1.9-3.1,1.9-3.1c0.2-0.1,0.4-0.2,0.6-0.2
				C467.3,300.8,468.7,302.1,468.7,302.1z"/>
			<path class="st9" d="M461.3,299.7l3.4,2.2c-0.2,0.1-0.4,0.2-0.6,0.2c0,0-1.6,0.9-1.9,3.1c-1.5-1.1-3.2-2.2-3.2-2.2
				C456.5,299.8,461.3,299.7,461.3,299.7z"/>
			<rect x="460.5" y="376.5" class="st25" width="4" height="10"/>
			<rect x="460.5" y="371.5" class="st14" width="4" height="2"/>
			<polygon class="st25" points="464.5,355.1 464.5,355.1 450.5,355.5 450.5,347.5 464.5,347.5 464.5,348 			"/>
			<path class="st20" d="M449.3,411.7c-1.2-1.4-2-3.3-2-5.3c0-4.5,3.7-8.2,8.2-8.2c1.8,0,3.4,0.6,4.8,1.5l0.1,0.1
				c0.1,0.1,0.3,0.2,0.4,0.3c0.3,0.2,0.5,0.5,0.7,0.7c1.3,1.5,2.1,3.4,2.1,5.5c0,4.5-3.7,8.2-8.2,8.2c-1,0-2-0.2-2.9-0.5
				C451.3,413.5,450.2,412.7,449.3,411.7z"/>
			<path class="st20" d="M461.5,400.8L461.5,400.8c-0.2-0.2-0.5-0.5-0.7-0.7c-0.1-0.1-0.3-0.2-0.4-0.3l-0.1-0.1l-4.8-3.5
				c0,0-3.7-2.2-8.2,2.4c0,0-3.9,3.8-2.1,8.9l4,4.1c0.9,1,2,1.8,3.3,2.3c-2.9,0.6-6.1-1.6-6.1-1.6c-3.9-2.6-3.8-7.1-3.8-7.1
				c-0.4-4.5,2.7-7.7,2.7-7.7c4.2-5.3,10.2-3.3,10.2-3.3C459.6,395,461.4,400.5,461.5,400.8z"/>
			<path class="st19" d="M455.5,396.2l4.8,3.5c-1.3-1-3-1.5-4.8-1.5c-4.5,0-8.2,3.7-8.2,8.2c0,2,0.8,3.9,2,5.3l-4-4.1
				c-1.9-5.1,2.1-8.9,2.1-8.9C451.8,394,455.5,396.2,455.5,396.2z"/>
			<rect x="449.5" y="376.5" class="st25" width="3" height="10"/>
			<polygon class="st25" points="447.5,347.6 447.5,355.5 433.5,355.7 433.5,348 433.5,347.8 			"/>
			<polygon class="st19" points="444.5,318.6 444.5,324.5 432.6,336.9 377.9,337.5 377.9,337.5 378.8,332.7 378.8,332.5 399,332.5 
				399.2,332.5 420,332.5 430.4,332.5 444,318.6 			"/>
			<path class="st0" d="M444.5,306.5v12.1H444l-13.6,13.9H420l0,0c4.4,0,8-3.6,8-8s-3.6-7.9-8-7.9c-2.2,0-4.2,0.9-5.6,2.3l-1.1-1
				l1.4-1.5l0,0l16.6-6.4c0.9,2.2,3,3.8,5.5,3.8c3.3,0,5.9-2.7,5.9-5.9c0-0.6-0.1-1.1-0.2-1.7L444.5,306.5z"/>
			<path class="st0" d="M444.5,293.5v13l-1.9-0.4c-0.7-2.5-3-4.3-5.7-4.3c-3.3,0-5.9,2.7-5.9,5.9c0,0.8,0.1,1.5,0.4,2.2l-16.6,6.4
				l4-4.3l-1.2-1.8l0,0l0.7-0.7l0.6,0.6c0.8,0.8,1.2,0.2,1.2,0.2l6.1-6.9c0.7-0.7,0.4-1.4,0.4-1.4l-3.6-4.6c0-0.3,0-0.5,0-0.7
				c0-0.7,0-0.4,0-0.4l-2.2-2.9l0.2-0.1h23.5V293.5z"/>
			<path class="st20" d="M442.6,306.1c0.2,0.5,0.2,1.1,0.2,1.7c0,3.3-2.7,5.9-5.9,5.9c-2.5,0-4.7-1.6-5.5-3.8l2.2-0.9
				c0.3,1.2,1,2.4,2.6,2.4c0,0,2.8-0.1,2.8-1.1c0.3,0.1,0.6,0.2,1,0.2c1.5,0,2.7-1.2,2.7-2.7c0-0.8-0.3-1.4-0.8-1.9L442.6,306.1z"/>
			<path class="st20" d="M442.6,306.1l-0.7-0.1l0,0c-0.5-0.5-1.1-0.8-1.9-0.8c-0.3,0-0.7,0.1-1,0.2c0,0-0.6-1-2.7-1
				c0,0-2.9,0.1-2.9,2.7c0,0,0,1,0.3,2l-2.2,0.9c-0.3-0.7-0.4-1.4-0.4-2.2c0-3.3,2.7-5.9,5.9-5.9
				C439.6,301.9,441.8,303.7,442.6,306.1z"/>
			<rect x="439.5" y="376.5" class="st25" width="3" height="10"/>
			<path class="st20" d="M441.8,306c0.5,0.5,0.8,1.2,0.8,1.9c0,1.5-1.2,2.7-2.7,2.7c-0.3,0-0.7-0.1-1-0.2c-1-0.4-1.7-1.4-1.7-2.5
				c0-1.1,0.7-2.1,1.7-2.5c0.3-0.1,0.6-0.2,1-0.2C440.7,305.2,441.3,305.5,441.8,306L441.8,306z"/>
			<rect x="438.5" y="372.5" class="st14" width="3" height="2"/>
			<path class="st19" d="M433.6,309.1c-0.3-1-0.3-2-0.3-2c0-2.6,2.9-2.7,2.9-2.7c2.1,0,2.7,1,2.7,1c-1,0.4-1.7,1.4-1.7,2.5
				c0,1.1,0.7,2.1,1.7,2.5c0,1-2.8,1.1-2.8,1.1C434.6,311.5,433.9,310.2,433.6,309.1z"/>
			<polygon class="st25" points="433.5,348 433.5,355.7 419.5,355.9 419.5,348 419.5,348 433.5,347.8 			"/>
			<path class="st20" d="M426.7,302.2c0,0,0.2,0.7-0.4,1.4l-6.1,6.9c0,0-0.5,0.5-1.2-0.2l-0.6-0.6l-1-1l-8.9-0.1V303l-55.1-0.1
				l-0.2,5.3l-19.6-0.1l0.3-10.5c0,0,0.1-1.7,2.2-1.6l8.5,0.1l78.6,0.8c0,0.2,0,0.4,0,0.7L426.7,302.2z M422.3,302.4
				c0-1.1-0.9-2-2-2c-1.1,0-2,0.9-2,2s0.9,2,2,2C421.4,304.4,422.3,303.5,422.3,302.4z M340.7,302c0-1.3-1-2.4-2.4-2.4
				c-1.3,0-2.4,1-2.4,2.4c0,1.3,1.1,2.4,2.4,2.4C339.7,304.4,340.7,303.3,340.7,302z"/>
			<path class="st19" d="M420,316.6c4.4,0,8,3.6,8,7.9c0,4.4-3.6,8-8,8s-7.9-3.6-7.9-8c0-2.2,0.9-4.2,2.3-5.6
				C415.8,317.5,417.8,316.6,420,316.6z M426.6,325c0-3.4-2.8-6.2-6.2-6.2c-3.4,0-6.2,2.8-6.2,6.2s2.8,6.2,6.2,6.2
				C423.8,331.2,426.6,328.5,426.6,325z"/>
			<path class="st20" d="M420.4,318.9c3.4,0,6.2,2.8,6.2,6.2c0,3.4-2.8,6.2-6.2,6.2c-3.4,0-6.2-2.8-6.2-6.2
				C414.2,321.6,417,318.9,420.4,318.9z"/>
			<path class="st20" d="M410.4,414.1c-1.2-1.4-2-3.3-2-5.4c0-4.5,3.7-8.2,8.2-8.2c1.8,0,3.4,0.6,4.8,1.5l0.1,0.1
				c0.1,0.1,0.3,0.2,0.4,0.3c0.3,0.2,0.5,0.5,0.8,0.7c1.3,1.5,2.1,3.4,2.1,5.5c0,4.5-3.7,8.2-8.2,8.2c-1,0-2-0.2-2.9-0.5
				C412.3,415.9,411.2,415.1,410.4,414.1z"/>
			<path class="st5" d="M363.5,273.5v3.3v1.7h4v-5H363.5z M423.1,296.5c0,0,0.1-0.3,0,0.4l-78.6-0.8v-0.3c0.1,0,0.4-0.1,0.9-0.7
				l3.5-8.1l16.4-23c0,0,0.3-0.9,2.2-0.9l31.3,0.4c0,0,0.6-0.1,1.3,0.3c0.3,0.2,0.7,0.5,1,1.1l14.6,22.1l5.2,6.7L423.1,296.5z
				 M402.5,278.5v-4h-3v4H402.5z M393.5,278.5v-7.6l-21-0.4l-0.3,8.1h21.3V278.5z"/>
			<path class="st20" d="M422.6,403.2c-0.2-0.3-0.5-0.5-0.8-0.7c-0.1-0.1-0.3-0.2-0.4-0.3l-0.1-0.1l-4.8-3.5c0,0-3.7-2.2-8.2,2.4
				c0,0-3.9,3.8-2.1,8.9l4.1,4.1c0.9,1,2,1.8,3.2,2.3c-2.9,0.6-6.1-1.6-6.1-1.6c-3.9-2.6-3.8-7.1-3.8-7.1c-0.4-4.5,2.7-7.7,2.7-7.7
				c4.2-5.3,10.2-3.3,10.2-3.3C420.7,397.4,422.6,403.2,422.6,403.2z"/>
			<path class="st25" d="M420.3,300.4c1.1,0,2,0.9,2,2s-0.9,2-2,2c-1.1,0-2-0.9-2-2S419.2,300.4,420.3,300.4z"/>
			<path class="st19" d="M416.5,398.6l4.8,3.5c-1.3-1-3-1.5-4.8-1.5c-4.5,0-8.2,3.7-8.2,8.2c0,2,0.8,3.9,2,5.4l-4.1-4.1
				c-1.8-5.1,2.1-8.9,2.1-8.9C412.9,396.4,416.5,398.6,416.5,398.6z"/>
			<rect x="417.5" y="377.5" class="st25" width="3" height="9"/>
			<path class="st0" d="M420,332.5L420,332.5h-20.8c0,0,0.7-0.5,1.7-1.5l12.4-13.1l1.1,1c-1.4,1.4-2.3,3.4-2.3,5.6
				C412.1,328.9,415.6,332.5,420,332.5z"/>
			<rect x="416.5" y="373.5" class="st14" width="3" height="2"/>
			<polygon class="st25" points="419.5,348 419.5,355.9 405.5,356.1 405.5,356 405.5,348.2 			"/>
			<path class="st20" d="M364.5,332.5h-1h-14.9c-0.7,0-1.2-0.3-1.5-0.6c-0.4-0.3-0.5-0.6-0.5-0.6l-13.4-14.4l-1.4-1.2l-0.7-4.4
				l3.1-1.3l18.8,0.1l63.1,0.3c1.3-0.1,1.4,0,1.4,0.1l0,0l1.2,1.8l-4,4.3l0,0l-1.4,1.5L400.9,331c-1,1-1.7,1.5-1.7,1.5H399h-20.2
				H364.5z M398.5,320.5v-9h-45v9H398.5z"/>
			<path class="st13" d="M417.4,308.6l1,1l-0.7,0.7c0,0-0.1-0.2-1.4-0.1l-63.1-0.3v-1.7l0.2-5.3l55.1,0.1v5.5L417.4,308.6z"/>
			<rect x="405.5" y="377.5" class="st25" width="4" height="9"/>
			<polygon class="st25" points="405.5,356 405.5,356.1 390.5,356.3 390.5,348.4 405.5,348.2 			"/>
			<rect x="399.5" y="274.5" class="st25" width="3" height="4"/>
			<path class="st13" d="M397.2,261.7l2.9,2l-0.1,0.1c-0.7-0.4-1.3-0.3-1.3-0.3l-31.3-0.4c-1.9,0-2.2,0.9-2.2,0.9l-16.4,23l-3.5,8.1
				c-0.4,0.7-0.8,0.7-0.9,0.7l0,0l-3.5-2H339v-1.3l21.8-29.3c1.6-2.6,2.8-2.6,2.8-2.6l31.2,0.6C396.4,261.2,397.2,261.7,397.2,261.7
				z"/>
			<rect x="353.5" y="311.5" class="st11" width="45" height="9"/>
			<polygon points="393.5,270.9 393.5,278.5 372.2,278.5 372.5,270.4 			"/>
			<path class="st20" d="M388.2,395.2l-0.3,20.1c0,0,0.1,1.7-1.1,1.7l-40.4,1c0,0-1,0.1-1-1.7v-21c0,0-0.2-0.8,0.5-1l40.8-0.6
				C386.8,393.8,388.2,393.6,388.2,395.2z M386.5,414.4v-18.5l-39,0.7v18.8l21.9-0.6L386.5,414.4z"/>
			<rect x="372.5" y="344.5" class="st24" width="12" height="8"/>
			<rect x="377.5" y="378.5" class="st25" width="3" height="10"/>
			<polygon class="st22" points="378.8,332.5 378.8,332.7 377.9,337.5 377.8,337.5 377.3,338.4 377.5,338.4 377.5,338.5 365,338.5 
				364.5,338.5 364.5,332.5 			"/>
			<polygon class="st1" points="377.5,338.5 377.5,342.5 364.8,342.5 364.5,342.2 364.5,338.5 365,338.5 			"/>
			<polygon class="st25" points="369.5,355.5 369.5,357.5 364.6,357.5 364.5,357.3 364.5,355.5 			"/>
			<rect x="365.5" y="378.5" class="st25" width="3" height="11"/>
			<polygon class="st25" points="368.5,347.5 368.5,354.2 367.4,353.5 363.8,353.5 363.5,353.2 363.5,353 363.5,347.5 			"/>
			<polygon class="st25" points="363.5,276.8 363.5,273.5 367.5,273.5 367.5,278.5 363.5,278.5 			"/>
			<path class="st0" d="M363.5,337.5v1H363H258.5v-63.8l21.8,33.7c0,0.9,0.2,1.8,0.6,2.5c0,0-2.8,7.3-2,12.4c0,0,1.6,2.9,3.9,0.5
				c0,0-0.3-7.5,1.7-9.7v-0.2c0.5,0.1,1,0.2,1.5,0.2c1.7,0,3.2-0.7,4.2-1.9l10.3-3.4v15.8l11.8,12.7L363.5,337.5z"/>
			<path class="st19" d="M363.5,332.5v5l-51.2-0.2l-11.8-12.7v-15.8l1-0.3v9.8l14.3,13.9l31.4-0.2c0.3,0.3,0.8,0.6,1.5,0.6
				L363.5,332.5L363.5,332.5z"/>
			<rect x="353.5" y="378.5" class="st25" width="3" height="11"/>
			<path class="st13" d="M353.1,308.2v1.7l-18.8-0.1l-3.1,1.3l-2.3-15.5c0.5-1.8,3.6-1.8,3.6-1.8l6.7-0.1h1.9l3.5,2l0,0v0.3
				l-8.5-0.1c-2.2-0.1-2.2,1.6-2.2,1.6l-0.3,10.5L353.1,308.2z"/>
			<path class="st0" d="M347.1,331.9l-31.4,0.2l-14.3-13.9v-9.8l2.1-0.7c-0.2,0.8-0.3,1.6-0.3,2.4c0,6.4,5.2,11.6,11.6,11.6
				c6.4,0,11.6-5.2,11.6-11.6c0-0.4,0-0.8-0.1-1.2l4.4,2.4l0.2-0.1l0.7,4.4l1.4,1.2l13.4,14.4C346.6,331.3,346.8,331.6,347.1,331.9z
				"/>
			<path class="st20" d="M345.4,351.3c1.2,0.8,1.9,2.2,1.9,3.7c0,2.5-2,4.5-4.5,4.5c-1,0-1.9-0.3-2.7-0.9l-0.2-0.1
				c-1-0.8-1.6-2.1-1.6-3.5c0-2.5,2-4.5,4.5-4.5C343.8,350.5,344.6,350.8,345.4,351.3L345.4,351.3z"/>
			<path class="st19" d="M342.4,348.8l3,2.5c-0.7-0.5-1.6-0.8-2.5-0.8c-2.5,0-4.5,2-4.5,4.5c0,1.4,0.6,2.6,1.6,3.5l-2.8-2.1
				c-1-2.8,0.5-5.1,0.5-5.1C339.7,348.2,342.4,348.8,342.4,348.8z"/>
			<path class="st20" d="M341.3,396l-0.3,21.7c0,0,0.1,0.9-1.1,0.9l-40.4,1c0,0-1,0.1-1-1.7v-21.8c0,0-0.1-0.7,0.6-1l40.8-0.6
				C339.9,394.5,341.3,394.4,341.3,396z M339.5,416v-19.5l-39,0.7v19.6l14.7-0.3l7.8-0.2L339.5,416z"/>
			<path class="st25" d="M338.4,299.7c1.3,0,2.4,1,2.4,2.4c0,1.3-1,2.4-2.4,2.4c-1.3,0-2.4-1.1-2.4-2.4
				C336,300.7,337,299.7,338.4,299.7z"/>
			<path class="st0" d="M339.1,292.5v1.3l-6.7,0.1c0,0-3.1,0-3.6,1.8l2.3,15.5l-0.2,0.1l-4.4-2.4c-0.6-5.8-5.6-10.4-11.6-10.4
				c-5.6,0-10.2,3.9-11.4,9.2l-2.1,0.7v-13.7c0-1,0.2-1.6,0.5-1.9l1-0.3l0,0H339.1L339.1,292.5z"/>
			<rect x="330.5" y="378.5" class="st25" width="3" height="11"/>
			<path class="st20" d="M326.6,308.9c0,0.4,0.1,0.8,0.1,1.2c0,6.4-5.2,11.6-11.6,11.6s-11.6-5.2-11.6-11.6c0-0.8,0.1-1.7,0.3-2.4
				l5.1-1.7c-0.9,1.2-1.4,2.8-1.4,4.4c0,4.3,3.5,7.7,7.7,7.7c4.3,0,7.7-3.5,7.7-7.7c0-1.5-0.4-3-1.2-4.2L326.6,308.9z"/>
			<path class="st20" d="M326.6,308.9l-5-2.7l0,0c-1.4-2.1-3.8-3.5-6.5-3.5c-2.6,0-5,1.3-6.4,3.3l-5.1,1.7c1.1-5.2,5.8-9.2,11.4-9.2
				C321,298.5,326,303,326.6,308.9z"/>
			<rect x="318.5" y="348.5" class="st25" width="4" height="10"/>
			<path class="st19" d="M321.6,306.2c0.8,1.2,1.2,2.6,1.2,4.2c0,4.3-3.5,7.7-7.7,7.7c-4.3,0-7.7-3.5-7.7-7.7c0-1.6,0.5-3.1,1.4-4.4
				c1.4-2,3.7-3.3,6.4-3.3C317.8,302.7,320.2,304.1,321.6,306.2L321.6,306.2z M321.2,310.4c0-2.8-2.3-5.1-5.1-5.1
				c-2.8,0-5.1,2.3-5.1,5.1c0,2.8,2.3,5.1,5.1,5.1C318.9,315.5,321.2,313.2,321.2,310.4z"/>
			<rect x="318.5" y="379.5" class="st25" width="3" height="11"/>
			<path class="st20" d="M316.1,305.2c2.8,0,5.1,2.3,5.1,5.1s-2.3,5.1-5.1,5.1c-2.8,0-5.1-2.3-5.1-5.1S313.2,305.2,316.1,305.2z"/>
			<rect x="306.5" y="348.5" class="st25" width="4" height="10"/>
			<rect x="306.5" y="379.5" class="st25" width="3" height="11"/>
			<rect x="294.5" y="348.5" class="st25" width="4" height="10"/>
			<path class="st9" d="M293.1,299.1c0,0,3.1-0.2,2.1,2.7c0,0-4.5,2.2-4.9,3l0,0c-0.8-1-1.9-1.7-3.2-2L293.1,299.1z"/>
			<path class="st20" d="M290.4,304.7c0.8,1,1.3,2.2,1.3,3.6c0,1.4-0.6,2.8-1.5,3.8c-1,1.2-2.5,1.9-4.2,1.9c-0.5,0-1-0.1-1.5-0.2
				c-1.6-0.4-2.9-1.5-3.6-3c-0.4-0.8-0.6-1.6-0.6-2.5c0-3.1,2.5-5.7,5.7-5.7c0.4,0,0.8,0,1.1,0.1C288.4,303,289.5,303.7,290.4,304.7
				z"/>
			<path class="st9" d="M284.5,313.8v0.2c-2,2.3-1.7,9.7-1.7,9.7c-2.3,2.4-3.9-0.5-3.9-0.5c-0.8-5.1,2-12.4,2-12.4
				C281.6,312.3,283,313.4,284.5,313.8z"/>
			<path class="st20" d="M283.9,381.4c0.4,0.7,0.6,1.4,0.6,2.3c0,2.7-2.2,4.9-4.9,4.9c-2.7,0-4.9-2.2-4.9-4.9c0-0.3,0-0.6,0.1-0.9
				c0.2-1,0.7-1.9,1.4-2.6c0.9-0.9,2.1-1.4,3.5-1.4l0,0c0.8,0,1.6,0.2,2.3,0.6c0.4,0.2,0.8,0.5,1.2,0.9
				C283.3,380.5,283.6,380.9,283.9,381.4z"/>
			<path class="st20" d="M280,394.5c1.7,0,3,1.3,3,3s-1.3,3-3,3s-3-1.3-3-3C277,395.9,278.3,394.5,280,394.5z M282.1,397.5
				c0-1.2-1-2.2-2.2-2.2c-1.2,0-2.1,1-2.1,2.2s1,2.2,2.1,2.2S282.1,398.7,282.1,397.5z"/>
			<path class="st3" d="M279.9,395.3c1.2,0,2.2,1,2.2,2.2s-1,2.2-2.2,2.2c-1.2,0-2.1-1-2.1-2.2S278.7,395.3,279.9,395.3z"/>
			<path class="st3" d="M279.9,407.3c1.2,0,2.2,1,2.2,2.2s-1,2.2-2.2,2.2c-1.2,0-2.1-1-2.1-2.2C277.8,408.2,278.7,407.3,279.9,407.3
				z"/>
			<path class="st3" d="M279.9,417.6c1.2,0,2.2,1,2.2,2.2s-1,2.2-2.2,2.2c-1.2,0-2.1-1-2.1-2.2S278.7,417.6,279.9,417.6z"/>
			<rect x="273.5" y="349.5" class="st14" width="8" height="10"/>
			<path class="st19" d="M274.2,443.1v0.5c-0.1,0.8-0.8,0.8-0.8,0.8l-11.9,0.4c-1,0-1.2-0.4-1.2-0.7c0-0.2,0.1-0.3,0.1-0.3l1.1-4.6
				c0.1,0.2,0.3,0.3,0.7,0.3l10.7-0.4c0,0,0.1,0,0.3-0.1L274.2,443.1C274.2,443,274.2,443,274.2,443.1z"/>
			<path class="st24" d="M273.4,438c0,0.4-0.1,0.7-0.3,0.8l0,0c-0.1,0.1-0.3,0.1-0.3,0.1l-10.7,0.4c-0.4,0-0.6-0.1-0.7-0.3
				s-0.1-0.5-0.1-0.5l-1.2-4.7l0,0c0.1,0,0.2,0,0.2,0l12.9-0.5L273.4,438z"/>
			<path class="st25" d="M264.6,426.9c1.2,0,2.2,1,2.2,2.2c0,1.2-1,2.2-2.2,2.2c-1.2,0-2.2-1-2.2-2.2
				C262.4,427.9,263.4,426.9,264.6,426.9z"/>
			<path class="st25" d="M264.2,368.9c1.2,0,2.2,1,2.2,2.2c0,1.2-1,2.2-2.2,2.2c-1.2,0-2.2-1-2.2-2.2
				C261.9,369.9,262.9,368.9,264.2,368.9z"/>
			<path class="st19" d="M261.5,439.1l-1.1,4.6c0,0-0.1,0.2-0.1,0.3l0,0l-1.2-10.2v-0.1c0.3,0.1,0.6,0.1,1,0.1l0,0l1.2,4.7
				C261.4,438.6,261.3,438.9,261.5,439.1z"/>
			<path class="st17" d="M258.5,274.7v63.8v91.8c0,0-0.8,2.5,1.7,3.6c-0.4,0-0.7,0-1-0.1c-2.7-0.6-1.9-3.2-1.9-3.2l0.2-149.8V171
				c0-3.6,1.8-4.9,3.4-5.4c-1.8,0.8-2.4,3-2.4,3V274.7L258.5,274.7z"/>
		</g>
		<g>
			<path class="st12" d="M260.9,165.7c-1.6,0.5-3.4,1.8-3.4,5.4v109.7l-0.2,149.8c0,0-0.8,2.6,1.9,3.2c0.3,0.1,0.6,0.1,1,0.1
				c0.1,0,0.2,0,0.2,0l12.9-0.5l0,0l189.3-7.7l9.1-0.4l10.9-0.4l3.5-0.1c0,0,1.3,0.3,1.3-1.3l2.1-85.9l1.3-52.4l1.7-69l1-40.2
				c0-2.5-2.6-2.4-2.6-2.4l-95.1-2.9l-26.2-1.1l-106.1-4C263.5,165.5,262.3,165.3,260.9,165.7"/>
			<path class="st12" d="M261.5,439.1l-1.1,4.6c0,0-0.1,0.2-0.1,0.3c0,0.3,0.2,0.7,1.2,0.7l11.9-0.4c0,0,0.8,0,0.8-0.8
				c0-0.1,0-0.3,0-0.5l0,0l-1.1-4.2"/>
			<polyline class="st12" points="259.1,433.9 260.3,444.1 260.3,444.3 			"/>
			<polyline class="st12" points="273.4,433.4 274.2,443.1 274.2,443.6 274.2,443.7 			"/>
			<path class="st12" d="M462.7,425.7l12.3,9.2c0,0,0.6,0.5,1.7,0.8c0.4,0.1,0.9,0.1,1.4,0.1l8.9-0.2c0,0,0.9,0,1-1.6l-0.2-3.5
				c0,0-0.2-0.5-0.7-1c-0.2-0.2-0.4-0.3-0.6-0.5l-3.9-4"/>
			<path class="st12" d="M487,429.5h-9.1c0,0-0.5,0.1-0.8,0.4c-0.2,0.2-0.3,0.5-0.4,0.8l-0.5,3.3c0,0-0.4,1,0.5,1.4"/>
			<line class="st12" x1="477" y1="429.9" x2="471.8" y2="425.3"/>
			<path class="st12" d="M414.7,316.4l4-4.3l-1.2-1.8l0,0c0,0-0.1-0.2-1.4-0.1l-63.1-0.3l-18.8-0.1l-3.1,1.3l-0.2,0.1l-4.4-2.4
				l-5-2.7"/>
			<path class="st12" d="M399.2,332.5c0,0,0.7-0.5,1.7-1.5l12.4-13.1l1.4-1.5"/>
			<path class="st12" d="M423.1,296.9l-78.6-0.8L336,296c-2.2-0.1-2.2,1.6-2.2,1.6l-0.3,10.5l19.6,0.1l0.2-5.3l55.1,0.1v5.5l8.9,0.1
				l1,1l0.6,0.6c0.8,0.8,1.2,0.2,1.2,0.2l6.1-6.9c0.7-0.7,0.4-1.4,0.4-1.4l-3.6-4.6C423.1,297.3,423.1,297.1,423.1,296.9
				c0-0.7,0-0.4,0-0.4l-2.2-2.9l-5.2-6.7l-14.7-22c-0.3-0.5-0.7-0.9-1-1.1c-0.7-0.4-1.3-0.3-1.3-0.3l-31.3-0.4
				c-1.9,0-2.2,0.9-2.2,0.9l-16.4,23l-3.5,8.1c-0.4,0.7-0.8,0.7-0.9,0.7l0,0l-3.5-2H339l-6.7,0.1c0,0-3.1,0-3.6,1.8l2.3,15.5
				l0.7,4.4l1.4,1.2l13.4,14.4c0,0,0.1,0.3,0.5,0.6c0.3,0.3,0.8,0.6,1.5,0.6h14.9h1h14.3H399"/>
			<path class="st12" d="M400.2,263.7L400.2,263.7l-3-2c0,0-0.9-0.5-2.4-0.5l-31.2-0.6c0,0-1.2,0-2.8,2.6L339,292.5h-36l0,0
				c-0.1,0-0.6-0.1-1,0.3c-0.3,0.3-0.5,0.9-0.5,1.9v13.7v9.8l14.3,13.9l31.4-0.2h0.5"/>
			<polyline class="st12" points="399,332.5 399.2,332.5 420,332.5 430.4,332.5 444,318.6 			"/>
			<polyline class="st12" points="303.1,292.4 303,292.5 302,292.8 300.5,293.3 300.5,308.7 300.5,324.5 312.3,337.2 363.5,337.5 
				363.6,337.5 			"/>
			<polyline class="st12" points="363.5,332 363.5,332.5 363.5,337.5 363.5,338.5 363.5,341.2 364.5,342.2 364.8,342.5 377.5,342.5 
				377.5,338.5 365,338.5 			"/>
			<polyline class="st12" points="364.5,343 364.5,342.2 364.5,338.5 364.5,332.5 364.5,332 			"/>
			<polyline class="st12" points="378.8,332.7 377.9,337.5 377.9,337.5 432.6,336.9 444.5,324.5 444.5,318.6 444.5,306.5 
				444.5,293.5 421,293.5 			"/>
			<polygon class="st12" points="372.5,270.4 393.5,270.9 393.5,278.5 372.2,278.5 			"/>
			<rect x="399.5" y="274.5" class="st12" width="3" height="4"/>
			<polyline class="st12" points="399.7,274.1 398.9,273.5 402.4,273.5 402.8,273.8 			"/>
			<polyline class="st12" points="398.5,274 398.5,277.6 399,279 			"/>
			<polyline class="st12" points="363.5,273.5 367.5,273.5 367.5,278.5 363.5,278.5 363.5,276.8 			"/>
			<polyline class="st12" points="363.9,273.2 363.1,272.5 366.6,272.5 367,272.9 			"/>
			<polyline class="st12" points="363.5,273 363.5,273.5 363.5,276.8 364,278.1 			"/>
			<path class="st12" d="M273.4,433.4v4.6c0,0.4-0.1,0.7-0.3,0.8l0,0c-0.1,0.1-0.3,0.1-0.3,0.1l-10.7,0.4c-0.4,0-0.6-0.1-0.7-0.3
				s-0.1-0.5-0.1-0.5l-1.2-4.7l0,0c-2.4-1.1-1.7-3.6-1.7-3.6v-91.8v-63.8v-106c0,0,0.6-2.3,2.4-3l0,0c0.4-0.2,0.8-0.2,1.3-0.2"/>
			<polyline class="st12" points="489.6,337.5 377.5,338.4 377.3,338.4 377.8,337.5 			"/>
			<line class="st12" x1="363" y1="338.5" x2="258.5" y2="338.5"/>
			<rect x="353.5" y="311.5" class="st12" width="45" height="9"/>
			<polygon class="st12" points="268.5,345 479.5,342.4 479.5,357.1 268.5,360.7 			"/>
			<rect x="372.5" y="344.5" class="st12" width="12" height="8"/>
			<polygon class="st12" points="405.5,356.1 390.5,356.3 390.5,348.4 405.5,348.2 419.5,348 433.5,347.8 447.5,347.6 447.5,355.5 
				433.5,355.7 419.5,355.9 			"/>
			<polyline class="st12" points="405.5,348 405.5,348.2 405.5,356 			"/>
			<polyline class="st12" points="419.5,348 419.5,355.9 419.5,356 			"/>
			<polyline class="st12" points="433.5,348 433.5,355.7 433.5,356 			"/>
			<polygon class="st12" points="464.5,355.1 450.5,355.5 450.5,347.5 464.5,347.5 477.5,347.5 477.5,354.7 			"/>
			<line class="st12" x1="464.5" y1="348" x2="464.5" y2="355.1"/>
			<rect x="273.5" y="349.5" class="st12" width="8" height="10"/>
			<rect x="294.5" y="348.5" class="st12" width="4" height="10"/>
			<rect x="306.5" y="348.5" class="st12" width="4" height="10"/>
			<rect x="318.5" y="348.5" class="st12" width="4" height="10"/>
			<polygon class="st12" points="364.5,357.3 364.5,355.5 369.5,355.5 369.5,357.5 364.6,357.5 364.5,357.5 			"/>
			<polyline class="st12" points="364.9,357.7 364.6,357.5 364.5,357.3 363.5,356.3 363.5,353.5 363.5,353.2 363.8,353.5 365,355.1 
							"/>
			<polyline class="st12" points="363,353.5 363.5,353.5 363.8,353.5 367.4,353.5 368.5,354.2 369.6,354.8 			"/>
			<polyline class="st12" points="368.5,355 368.5,354.2 368.5,347.5 363.5,347.5 363.5,353 			"/>
			<path class="st12" d="M299.1,395.1l40.8-0.6c0,0,1.4-0.2,1.5,1.4l-0.3,21.7c0,0,0.1,0.9-1.1,0.9l-40.4,1c0,0-1,0.1-1-1.7V396
				C298.5,396.1,298.4,395.3,299.1,395.1z"/>
			<path class="st12" d="M346,394.3l40.8-0.6c0,0,1.4-0.2,1.5,1.4l-0.3,20.1c0,0,0.1,1.7-1.1,1.7l-40.4,1c0,0-1,0.1-1-1.7v-21
				C345.5,395.3,345.3,394.5,346,394.3z"/>
			<polygon class="st12" points="315.2,416.5 300.5,416.8 300.5,397.2 339.5,396.5 339.5,416 323,416.3 			"/>
			<polygon class="st12" points="347.5,396.6 386.5,395.9 386.5,414.4 369.4,414.8 347.5,415.4 			"/>
			<path class="st12" d="M306.5,404c0,0,0.4-0.1,1.2-0.4c1.3-0.4,3.5-0.9,6.4-1.3c1.9-0.3,4.1-0.5,6.5-0.5c3.6,0,7.6,0.4,11.7,1.5"
				/>
			<line class="st12" x1="306.9" y1="401.9" x2="307.6" y2="403.7"/>
			<line class="st12" x1="310.4" y1="401.1" x2="310.9" y2="402.8"/>
			<polyline class="st12" points="313.7,400.6 314,402.4 314,402.4 			"/>
			<line class="st12" x1="316.5" y1="400" x2="316.5" y2="402"/>
			<polyline class="st12" points="320.5,400 320.5,401.9 320.5,402 			"/>
			<line class="st12" x1="325.9" y1="400.6" x2="325.5" y2="402.2"/>
			<line class="st12" x1="330.2" y1="401.5" x2="329.6" y2="402.8"/>
			<path class="st12" d="M352.6,402.5c0,0,0.4-0.1,1.2-0.4c1.3-0.4,3.5-0.9,6.4-1.3c1.1-0.1,2.2-0.3,3.4-0.3
				c4.3-0.3,9.5-0.1,14.8,1.4"/>
			<line class="st12" x1="353" y1="400.3" x2="353.8" y2="402.1"/>
			<line class="st12" x1="356.5" y1="399.5" x2="357" y2="401.2"/>
			<polyline class="st12" points="359.8,399 360.1,400.8 360.1,400.8 			"/>
			<polyline class="st12" points="363.5,398 363.5,400.4 363.5,401 			"/>
			<line class="st12" x1="367.5" y1="398" x2="367.5" y2="400"/>
			<line class="st12" x1="372" y1="399" x2="371.6" y2="400.6"/>
			<line class="st12" x1="376.3" y1="399.9" x2="375.7" y2="401.2"/>
			<path class="st12" d="M315.2,416.5c0,0,3.9-5.3,7.8-0.2"/>
			<path class="st12" d="M361.4,415c0,0,3.6-5.4,8-0.2"/>
			<rect x="306.5" y="379.5" class="st12" width="3" height="11"/>
			<rect x="318.5" y="379.5" class="st12" width="3" height="11"/>
			<rect x="330.5" y="378.5" class="st12" width="3" height="11"/>
			<rect x="353.5" y="378.5" class="st12" width="3" height="11"/>
			<rect x="365.5" y="378.5" class="st12" width="3" height="11"/>
			<rect x="377.5" y="378.5" class="st12" width="3" height="10"/>
			<rect x="405.5" y="377.5" class="st12" width="4" height="9"/>
			<rect x="417.5" y="377.5" class="st12" width="3" height="9"/>
			<rect x="439.5" y="376.5" class="st12" width="3" height="10"/>
			<rect x="460.5" y="376.5" class="st12" width="4" height="10"/>
			<rect x="449.5" y="376.5" class="st12" width="3" height="10"/>
			<polyline class="st12" points="378.5,371 378.5,369.7 355.5,370 307.5,370.7 307.5,372 			"/>
			<line class="st12" x1="367.5" y1="370" x2="367.5" y2="371"/>
			<line class="st12" x1="355.5" y1="370" x2="355.5" y2="371"/>
			<line class="st12" x1="332.5" y1="371" x2="332.5" y2="372"/>
			<line class="st12" x1="320.5" y1="371" x2="320.5" y2="372"/>
			<polyline class="st12" points="417.5,371 417.5,369.5 406.5,369.5 406.5,371 			"/>
			<polyline class="st12" points="461.5,369 461.5,367.6 440.5,368.4 440.5,370 			"/>
			<line class="st12" x1="451.5" y1="368" x2="451.5" y2="370"/>
			<path class="st12" d="M326.6,308.9c0,0.4,0.1,0.8,0.1,1.2c0,6.4-5.2,11.6-11.6,11.6s-11.6-5.2-11.6-11.6c0-0.8,0.1-1.7,0.3-2.4
				c1.1-5.2,5.8-9.2,11.4-9.2C321,298.5,326,303,326.6,308.9z"/>
			<path class="st12" d="M321.6,306.2c0.8,1.2,1.2,2.6,1.2,4.2c0,4.3-3.5,7.7-7.7,7.7c-4.3,0-7.7-3.5-7.7-7.7c0-1.6,0.5-3.1,1.4-4.4
				c1.4-2,3.7-3.3,6.4-3.3C317.8,302.7,320.2,304.1,321.6,306.2L321.6,306.2z"/>
			<path class="st12" d="M321.2,310.4c0,2.8-2.3,5.1-5.1,5.1c-2.8,0-5.1-2.3-5.1-5.1c0-2.8,2.3-5.1,5.1-5.1
				C318.9,305.2,321.2,307.5,321.2,310.4z"/>
			<path class="st12" d="M290.4,304.7c0.8,1,1.3,2.2,1.3,3.6c0,1.4-0.6,2.8-1.5,3.8c-1,1.2-2.5,1.9-4.2,1.9c-0.5,0-1-0.1-1.5-0.2
				c-1.6-0.4-2.9-1.5-3.6-3c-0.4-0.8-0.6-1.6-0.6-2.5c0-3.1,2.5-5.7,5.7-5.7c0.4,0,0.8,0,1.1,0.1C288.4,303,289.5,303.7,290.4,304.7
				z"/>
			<path class="st12" d="M287.1,302.8l6-3.7c0,0,3.1-0.2,2.1,2.7c0,0-4.5,2.2-4.9,3"/>
			<path class="st12" d="M280.9,310.8c0,0-2.8,7.3-2,12.4c0,0,1.6,2.9,3.9,0.5c0,0-0.3-7.5,1.7-9.7"/>
			<path class="st12" d="M414.4,318.9c1.4-1.4,3.4-2.3,5.6-2.3c4.4,0,8,3.6,8,7.9c0,4.4-3.6,8-8,8s-7.9-3.6-7.9-8
				C412.1,322.3,413,320.3,414.4,318.9z"/>
			<path class="st12" d="M426.6,325c0,3.4-2.8,6.2-6.2,6.2c-3.4,0-6.2-2.8-6.2-6.2s2.8-6.2,6.2-6.2
				C423.8,318.9,426.6,321.6,426.6,325z"/>
			<path class="st12" d="M441.8,306c0.5,0.5,0.8,1.2,0.8,1.9c0,1.5-1.2,2.7-2.7,2.7c-0.3,0-0.7-0.1-1-0.2c-1-0.4-1.7-1.4-1.7-2.5
				c0-1.1,0.7-2.1,1.7-2.5c0.3-0.1,0.6-0.2,1-0.2C440.7,305.2,441.3,305.5,441.8,306"/>
			<path class="st12" d="M439,305.4c0,0-0.6-1-2.7-1c0,0-2.9,0.1-2.9,2.7c0,0,0,1,0.3,2c0.3,1.2,1,2.4,2.6,2.4c0,0,2.8-0.1,2.8-1.1"
				/>
			<path class="st12" d="M442.6,306.1c0.2,0.5,0.2,1.1,0.2,1.7c0,3.3-2.7,5.9-5.9,5.9c-2.5,0-4.7-1.6-5.5-3.8
				c-0.3-0.7-0.4-1.4-0.4-2.2c0-3.3,2.7-5.9,5.9-5.9C439.6,301.9,441.8,303.7,442.6,306.1z"/>
			<path class="st12" d="M422.3,302.4c0,1.1-0.9,2-2,2c-1.1,0-2-0.9-2-2s0.9-2,2-2C421.4,300.4,422.3,301.3,422.3,302.4z"/>
			<path class="st12" d="M340.7,302c0,1.3-1,2.4-2.4,2.4c-1.3,0-2.4-1.1-2.4-2.4s1.1-2.4,2.4-2.4C339.7,299.7,340.7,300.7,340.7,302
				z"/>
			<path class="st12" d="M472.5,301.9c2,0.7,3.5,2.6,3.5,4.8c0,2.7-2.1,4.9-4.7,5c-0.1,0-0.3,0-0.4,0c-1.1,0-2-0.3-2.9-0.9
				c-1.3-0.9-2.2-2.5-2.2-4.2c0-2,1.2-3.8,2.9-4.6c0.7-0.3,1.4-0.5,2.2-0.5C471.5,301.6,472,301.7,472.5,301.9z"/>
			<path class="st12" d="M466.8,310.9c0.4,0,0.8,0,1.3,0"/>
			<path class="st12" d="M465.3,310.6c0.4,0.1,0.9,0.2,1.5,0.3"/>
			<path class="st12" d="M468.7,302.1c0,0-1.4-1.3-4-0.2c-0.2,0.1-0.4,0.2-0.6,0.2c0,0-1.6,0.9-1.9,3.1c0,0.2,0,0.4-0.1,0.5
				c0,0-0.3,2.5,1.8,4.2c0,0,0.4,0.4,1.2,0.7"/>
			<path class="st12" d="M464.7,301.9l-3.4-2.2c0,0-4.8,0.1-2.3,3.4c0,0,1.8,1.1,3.2,2.2"/>
			<path class="st12" d="M471.3,311.7c2.1,2.2,1.9,11.4,1.9,11.4c-2.3,2.8-3.9-0.3-3.9-0.3c0.8-4.9-2.5-11.9-2.5-11.9l0,0l-1.5-0.3
				l0,0l-20.8-4.1l-1.9-0.4l-0.7-0.1l0,0"/>
			<path class="st12" d="M266.4,371.1c0,1.2-1,2.2-2.2,2.2c-1.2,0-2.2-1-2.2-2.2c0-1.2,1-2.2,2.2-2.2
				C265.4,368.9,266.4,369.9,266.4,371.1z"/>
			<path class="st12" d="M487.5,366.6c0,1.2-1,2.1-2.1,2.1c-1.2,0-2.1-1-2.1-2.1c0-1.2,1-2.1,2.1-2.1
				C486.6,364.5,487.5,365.4,487.5,366.6z"/>
			<path class="st12" d="M283.9,381.4c0.4,0.7,0.6,1.4,0.6,2.3c0,2.7-2.2,4.9-4.9,4.9c-2.7,0-4.9-2.2-4.9-4.9c0-0.3,0-0.6,0.1-0.9
				c0.2-1,0.7-1.9,1.4-2.6c0.9-0.9,2.1-1.4,3.5-1.4l0,0c0.8,0,1.6,0.2,2.3,0.6c0.4,0.2,0.8,0.5,1.2,0.9
				C283.3,380.5,283.6,380.9,283.9,381.4z"/>
			<path class="st12" d="M283,397.5c0,1.7-1.3,3-3,3s-3-1.3-3-3s1.3-3,3-3C281.6,394.5,283,395.9,283,397.5z"/>
			<path class="st12" d="M282.1,397.5c0,1.2-1,2.2-2.2,2.2c-1.2,0-2.1-1-2.1-2.2s1-2.2,2.1-2.2S282.1,396.3,282.1,397.5z"/>
			<path class="st12" d="M266.8,429.1c0,1.2-1,2.2-2.2,2.2c-1.2,0-2.2-1-2.2-2.2c0-1.2,1-2.2,2.2-2.2
				C265.8,426.9,266.8,427.9,266.8,429.1z"/>
			<path class="st12" d="M486,420.6c0,1.2-0.9,2.1-2.1,2.1c-1.2,0-2.1-0.9-2.1-2.1c0-1.1,0.9-2.1,2.1-2.1
				C485.1,418.5,486,419.5,486,420.6z"/>
			<path class="st12" d="M340,358.4c-1-0.8-1.6-2.1-1.6-3.5c0-2.5,2-4.5,4.5-4.5c0.9,0,1.8,0.3,2.5,0.8"/>
			<path class="st12" d="M345.4,351.3c1.2,0.8,1.9,2.2,1.9,3.7c0,2.5-2,4.5-4.5,4.5c-1,0-1.9-0.3-2.7-0.9"/>
			<path class="st12" d="M345.4,351.3L345.4,351.3l-3-2.5c0,0-2.7-0.5-4.7,2.5c0,0-1.5,2.3-0.5,5.1l2.8,2.1l0.2,0.1"/>
			<path class="st12" d="M421.4,402.2c0.1,0.1,0.3,0.2,0.4,0.3c0.3,0.2,0.5,0.5,0.8,0.7c1.3,1.5,2.1,3.4,2.1,5.5
				c0,4.5-3.7,8.2-8.2,8.2c-1,0-2-0.2-2.9-0.5c-1.3-0.5-2.4-1.3-3.2-2.3c-1.2-1.4-2-3.3-2-5.4c0-4.5,3.7-8.2,8.2-8.2
				c1.8,0,3.4,0.6,4.8,1.5"/>
			<path class="st12" d="M421.4,402.2l-0.1-0.1l-4.8-3.5c0,0-3.7-2.2-8.2,2.4c0,0-3.9,3.8-2.1,8.9l4.1,4.1l0.7,0.7"/>
			<path class="st12" d="M422.6,403.2c0,0-1.9-5.8-6.1-6.7c0,0-5.9-2-10.2,3.3c0,0-3,3.2-2.7,7.7c0,0-0.1,4.5,3.8,7.1
				c0,0,3.2,2.2,6.1,1.6"/>
			<path class="st12" d="M460.4,399.8c0.1,0.1,0.3,0.2,0.4,0.3c0.3,0.2,0.5,0.5,0.7,0.7c1.3,1.5,2.1,3.4,2.1,5.5
				c0,4.5-3.7,8.2-8.2,8.2c-1,0-2-0.2-2.9-0.5c-1.3-0.5-2.4-1.3-3.3-2.3c-1.2-1.4-2-3.3-2-5.3c0-4.5,3.7-8.2,8.2-8.2
				c1.8,0,3.4,0.6,4.8,1.5"/>
			<path class="st12" d="M460.4,399.8l-0.1-0.1l-4.8-3.5c0,0-3.7-2.2-8.2,2.4c0,0-3.9,3.8-2.1,8.9l4,4.1l0.7,0.7"/>
			<path class="st12" d="M461.6,400.8L461.6,400.8c-0.1-0.4-2-5.8-6.1-6.7c0,0-5.9-2-10.2,3.3c0,0-3,3.2-2.7,7.7
				c0,0-0.1,4.5,3.8,7.1c0,0,3.2,2.2,6.1,1.6"/>
			<rect x="305.5" y="375.5" class="st12" width="3" height="1"/>
			<rect x="318.5" y="375.5" class="st12" width="3" height="1"/>
			<rect x="330.5" y="375.5" class="st12" width="3" height="1"/>
			<rect x="354.5" y="374.5" class="st12" width="3" height="1"/>
			<rect x="377.5" y="374.5" class="st12" width="3" height="1"/>
			<rect x="365.5" y="374.5" class="st12" width="3" height="1"/>
			<rect x="405.5" y="373.5" class="st12" width="4" height="2"/>
			<rect x="416.5" y="373.5" class="st12" width="3" height="2"/>
			<rect x="438.5" y="372.5" class="st12" width="3" height="2"/>
			<rect x="449.5" y="372.5" class="st12" width="3" height="2"/>
			<rect x="460.5" y="371.5" class="st12" width="4" height="2"/>
			<path class="st12" d="M283,409.5c0,1.7-1.3,3-3,3s-3-1.4-3-3c0-1.7,1.3-3,3-3C281.6,406.5,283,407.8,283,409.5z"/>
			<path class="st12" d="M282.1,409.4c0,1.2-1,2.2-2.2,2.2c-1.2,0-2.1-1-2.1-2.2c0-1.2,1-2.2,2.1-2.2S282.1,408.2,282.1,409.4z"/>
			<path class="st12" d="M283,419.8c0,1.7-1.3,3-3,3s-3-1.3-3-3s1.3-3,3-3C281.6,416.8,283,418.2,283,419.8z"/>
			<path class="st12" d="M282.1,419.8c0,1.2-1,2.2-2.2,2.2c-1.2,0-2.1-1-2.1-2.2s1-2.2,2.1-2.2S282.1,418.6,282.1,419.8z"/>
			<line class="st12" x1="274.6" y1="382.7" x2="273.4" y2="382.4"/>
			<line class="st12" x1="275.3" y1="381.1" x2="274" y2="380.7"/>
			<line class="st12" x1="276" y1="380.1" x2="274.9" y2="379.1"/>
			<line class="st12" x1="277" y1="379.1" x2="276.2" y2="378"/>
			<line class="st12" x1="278.2" y1="378.7" x2="277.8" y2="377.1"/>
			<polyline class="st12" points="279.5,379 279.5,378.7 279.5,376 			"/>
			<line class="st12" x1="280.6" y1="378.8" x2="281.2" y2="377.1"/>
			<line class="st12" x1="281.8" y1="379.3" x2="282.7" y2="378"/>
			<line class="st12" x1="283" y1="380.1" x2="284.2" y2="379.3"/>
			<polyline class="st12" points="283.9,381.4 283.9,381.4 285.3,380.9 			"/>
			<polyline class="st12" points="414.7,316.4 414.7,316.4 431.3,310 433.6,309.1 436.9,307.8 			"/>
			<polyline class="st12" points="308.7,306 303.6,307.7 301.5,308.4 300.5,308.7 290.2,312.1 			"/>
			<polyline class="st12" points="280.3,308.3 258.5,274.7 258.4,274.5 			"/>
			<line class="st12" x1="472.5" y1="301.9" x2="492.6" y2="216"/>
		</g>
	</g>
</g>
<g id="drive" class="st27">
	
		<image style="display:inline;overflow:visible;enable-background:new    ;" width="600" height="843" xlink:href="insp/824409576735_TTq9U5Cd_l.jpg"  transform="matrix(1 0 0 1 -375.4795 -116.2598)">
	</image>
</g>
<g id="reels_smaller" class="st27">
</g>
<g id="reels_paint" class="st27">
	<g id="XMLID_1_" class="st18">
		<g>
			<path class="st28" d="M462.5,135c43.4,0,78.6,35.2,78.6,78.6s-35.2,78.6-78.6,78.6s-78.6-35.2-78.6-78.6
				C383.8,170.2,419,135,462.5,135z M524.3,190.1c0,0,2.5-0.5,1.1-4.1c0,0-4.8-13.3-15.5-22.7c0,0-1.7-2.1-3.8,0l-17.8,23.3
				c0,0-1.4,1.2,0,3.3l7.3,10.7c0,0,0.5,1.1,3,0L524.3,190.1z M483.4,278.7c0,0,2.1-0.7,1.3-4.2l-10.3-28.9c0,0-0.4-2.1-2.1-1.6
				c0,0-6.4,2.4-11.7,1.5c0,0-2.1-1.1-2.4,1.2l-4,31.9c0,0-0.5,3.3,2.4,3.7C456.6,282.2,472.5,284.5,483.4,278.7z M487.9,213.2
				c0-12.6-10.2-22.8-22.8-22.8c-12.6,0-22.8,10.2-22.8,22.8c0,12.6,10.2,22.8,22.8,22.8C477.7,236.1,487.9,225.8,487.9,213.2z
				 M436,194.2c0,0,1.1-1.5,0-2.3l-26-21c0,0-2.6-2-4.4,0.6c0,0-8,11-10.7,26.4c0,0-1.3,2.9,2.6,3.7l31,6c0,0,2.1,0.9,2.3-1.2
				C430.9,206.4,431.5,200.9,436,194.2z"/>
			<path class="st25" d="M465.1,190.4c12.6,0,22.8,10.2,22.8,22.8c0,12.6-10.2,22.8-22.8,22.8c-12.6,0-22.8-10.2-22.8-22.8
				C442.3,200.6,452.5,190.4,465.1,190.4z M478.8,213.3c0-7.8-6.3-14-14-14s-14,6.3-14,14c0,7.8,6.3,14,14,14S478.8,221,478.8,213.3
				z"/>
			<path class="st16" d="M464.8,199.2c7.8,0,14,6.3,14,14c0,7.8-6.3,14-14,14s-14-6.3-14-14C450.8,205.5,457,199.2,464.8,199.2z
				 M470.6,213.5c0-3.1-2.5-5.7-5.7-5.7c-3.2,0-5.7,2.5-5.7,5.7s2.5,5.7,5.7,5.7C468.1,219.2,470.6,216.6,470.6,213.5z"/>
			<path class="st4" d="M465,207.8c3.1,0,5.7,2.5,5.7,5.7s-2.5,5.7-5.7,5.7s-5.7-2.5-5.7-5.7S461.8,207.8,465,207.8z"/>
			<path class="st28" d="M297.2,124.7c46.1,0,83.5,37.4,83.5,83.5c0,46.1-37.4,83.5-83.5,83.5c-46.1,0-83.5-37.4-83.5-83.5
				C213.7,162,251,124.7,297.2,124.7z M369.3,203.9c0,0,1.2-15-9.6-28.7c0,0-1.5-0.9-4.6,0.8c0,0-12.5,5.5-22.2,15
				c0,0-2.2,1.7-1.9,3.7c0,0,1.4,6.6,4.4,12.2c0,0,0.5,1.1,3.2,1.6c0,0,11.2,2,27.5-1.3C366.2,207,369.6,206.9,369.3,203.9z
				 M321.3,208c0-13.2-10.7-23.9-23.8-23.9c-13.2,0-23.9,10.7-23.9,23.9s10.7,23.9,23.9,23.9S321.3,221.2,321.3,208z M298.9,277
				c0,0,2.2-15.6-0.5-28.9c0,0-0.2-2.8-2.1-3.5c0,0-6.3-2.4-12.6-2.9c0,0-1.2-0.2-3.1,1.8c0,0-8.1,9-14.2,24.5c0,0-1.7,2.8,1,4.3
				c0,0,12,9.1,29.3,7.5C296.7,279.8,298.7,280.5,298.9,277z M277.8,178.2c0,0,0.8-0.9,0-3.6c0,0-3.6-11.6-13.9-24.6
				c0,0-1.6-2.9-4.2-1.3c0,0-13.9,5.7-21.3,21.5c0,0-1.6,1.3,1.3,3.3c0,0,12.3,9.8,25.2,14.2c0,0,2.5,1.2,4.1,0
				C268.9,187.6,274.2,183.4,277.8,178.2z"/>
			<path class="st25" d="M297.5,184.2c13.2,0,23.8,10.7,23.8,23.9c0,13.2-10.7,23.9-23.8,23.9c-13.2,0-23.9-10.7-23.9-23.9
				C273.6,194.9,284.3,184.2,297.5,184.2z M312.5,208.4c0-8.5-6.9-15.5-15.5-15.5s-15.5,6.9-15.5,15.5c0,8.5,6.9,15.5,15.5,15.5
				C305.5,223.9,312.5,216.9,312.5,208.4z"/>
			<path class="st16" d="M297,192.9c8.5,0,15.5,6.9,15.5,15.5c0,8.5-6.9,15.5-15.5,15.5s-15.5-6.9-15.5-15.5
				C281.5,199.9,288.4,192.9,297,192.9z M304.2,208.8c0-3.9-3.2-7.1-7.1-7.1s-7.1,3.2-7.1,7.1c0,3.9,3.2,7.1,7.1,7.1
				S304.2,212.8,304.2,208.8z"/>
			<path class="st4" d="M297.1,201.7c3.9,0,7.1,3.2,7.1,7.1c0,3.9-3.2,7.1-7.1,7.1s-7.1-3.2-7.1-7.1
				C290,204.9,293.2,201.7,297.1,201.7z"/>
		</g>
		<g>
			<path class="st12" d="M380.7,208.2c0,46.1-37.4,83.5-83.5,83.5c-46.1,0-83.5-37.4-83.5-83.5c0-46.1,37.4-83.5,83.5-83.5
				C343.3,124.7,380.7,162,380.7,208.2z"/>
			<path class="st12" d="M541.1,213.6c0,43.4-35.2,78.6-78.6,78.6s-78.6-35.2-78.6-78.6s35.2-78.6,78.6-78.6
				S541.1,170.2,541.1,213.6z"/>
			<path class="st12" d="M263.9,150c0,0-1.6-2.9-4.2-1.3c0,0-13.9,5.7-21.3,21.5c0,0-1.6,1.3,1.3,3.3c0,0,12.3,9.8,25.2,14.2
				c0,0,2.5,1.2,4.1,0c0,0,5.3-4.2,8.9-9.4c0,0,0.8-0.9,0-3.6C277.8,174.6,274.2,163,263.9,150z"/>
			<path class="st12" d="M266.4,268c0,0-1.7,2.8,1,4.3c0,0,12,9.1,29.3,7.5c0,0,1.9,0.7,2.2-2.8c0,0,2.2-15.6-0.5-28.9
				c0,0-0.2-2.8-2.1-3.5c0,0-6.3-2.4-12.6-2.9c0,0-1.2-0.2-3.1,1.8C280.6,243.5,272.5,252.5,266.4,268z"/>
			<path class="st12" d="M366.2,207c0,0,3.3-0.1,3.1-3.2c0,0,1.2-15-9.6-28.7c0,0-1.5-0.9-4.6,0.8c0,0-12.5,5.5-22.2,15
				c0,0-2.2,1.7-1.9,3.7c0,0,1.4,6.6,4.4,12.2c0,0,0.5,1.1,3.2,1.6C338.8,208.4,349.9,210.3,366.2,207z"/>
			<path class="st12" d="M321.3,208c0,13.2-10.7,23.9-23.8,23.9c-13.2,0-23.9-10.7-23.9-23.9s10.7-23.9,23.9-23.9
				C310.7,184.2,321.3,194.9,321.3,208z"/>
			<path class="st12" d="M304.2,208.8c0,3.9-3.2,7.1-7.1,7.1s-7.1-3.2-7.1-7.1c0-3.9,3.2-7.1,7.1-7.1S304.2,204.9,304.2,208.8z"/>
			<path class="st12" d="M312.5,208.4c0,8.5-6.9,15.5-15.5,15.5s-15.5-6.9-15.5-15.5c0-8.5,6.9-15.5,15.5-15.5
				C305.5,192.9,312.5,199.9,312.5,208.4z"/>
			<path class="st12" d="M506,163.4l-17.8,23.3c0,0-1.4,1.2,0,3.3l7.3,10.7c0,0,0.5,1.1,3,0l25.7-10.6c0,0,2.5-0.5,1.1-4.1
				c0,0-4.8-13.3-15.5-22.7C509.8,163.4,508.2,161.3,506,163.4z"/>
			<path class="st12" d="M472.2,243.9c0,0-6.4,2.4-11.7,1.5c0,0-2.1-1.1-2.4,1.2l-4,31.9c0,0-0.5,3.3,2.4,3.7c0,0,15.9,2.3,26.8-3.6
				c0,0,2.1-0.7,1.3-4.2l-10.3-28.9C474.4,245.5,474,243.4,472.2,243.9z"/>
			<path class="st12" d="M436,191.9l-26-21c0,0-2.6-2-4.4,0.6c0,0-8,11-10.7,26.4c0,0-1.3,2.9,2.6,3.7l31,6c0,0,2.1,0.9,2.3-1.2
				c0,0,0.7-5.6,5.2-12.2C436,194.2,437.1,192.8,436,191.9z"/>
			<circle class="st12" cx="465.1" cy="213.2" r="22.8"/>
			<circle class="st12" cx="464.8" cy="213.3" r="14"/>
			<path class="st12" d="M470.6,213.5c0,3.1-2.5,5.7-5.7,5.7c-3.2,0-5.7-2.5-5.7-5.7s2.5-5.7,5.7-5.7
				C468.1,207.8,470.6,210.4,470.6,213.5z"/>
		</g>
	</g>
</g>
</svg>
