<?xml version="1.0" encoding="utf-8"?>
<!-- Generator: Adobe Illustrator 16.0.0, SVG Export Plug-In . SVG Version: 6.00 Build 0)  -->
<!DOCTYPE svg PUBLIC "-//W3C//DTD SVG 1.1//EN" "http://www.w3.org/Graphics/SVG/1.1/DTD/svg11.dtd">
<svg version="1.1" xmlns="http://www.w3.org/2000/svg" xmlns:xlink="http://www.w3.org/1999/xlink" x="0px" y="0px" width="246px"
	 height="208.2px" viewBox="0 0 246 208.2" style="enable-background:new 0 0 246 208.2;" xml:space="preserve">
<style type="text/css">
<![CDATA[
	.st0{fill:#48555E;}
	.st1{fill:#7C9499;}
	.st2{display:inline;fill:none;stroke:#0B0146;stroke-width:0.9033;stroke-miterlimit:10;}
	.st3{fill:#111516;}
	.st4{fill:#B0B6B7;}
	.st5{fill:#B1E4EF;}
	.st6{display:inline;fill:none;stroke:#0B0146;stroke-miterlimit:10;}
	.st7{display:inline;fill:none;stroke:#0B0146;stroke-width:0.9243;stroke-miterlimit:10;}
	.st8{display:inline;fill:none;stroke:#0B0146;stroke-width:0.7161;stroke-miterlimit:10;}
	.st9{fill:#1B2123;}
	.st10{display:inline;fill:none;stroke:#0B0146;stroke-width:1.2001;stroke-miterlimit:10;}
	.st11{fill:#8AB0BC;}
	.st12{fill:none;stroke:#221F20;stroke-width:0.7151;stroke-miterlimit:10;}
	.st13{fill:#5D777F;}
	.st14{opacity:0.6;fill:#435054;}
	.st15{fill:#C11616;}
	.st16{display:inline;fill:none;stroke:#0B0146;stroke-width:1.0603;stroke-miterlimit:10;}
	.st17{fill:#C7CFD1;}
	.st18{fill:#2E3738;}
	.st19{fill:#FFFFFF;}
	.st20{display:inline;}
	.st21{fill:#30393D;}
	.st22{fill:#9ECBDC;}
	.st23{display:inline;fill:none;stroke:#0B0146;stroke-width:1.0352;stroke-miterlimit:10;}
	.st24{fill:#6E8389;}
	.st25{display:inline;fill:none;stroke:#0B0146;stroke-width:0.9813;stroke-miterlimit:10;}
	.st26{fill:#3A4549;}
	.st27{fill:#D7E0E3;}
	.st28{display:inline;fill:none;stroke:#0B0146;stroke-width:0.9634;stroke-miterlimit:10;}
	.st29{display:none;}
	.st30{fill:#73949B;}
]]>
</style>
<g id="photo" class="st29">
	
		<image style="display:inline;overflow:visible;opacity:0.6;" width="1193" height="1200" xlink:href="tape_02.jpg"  transform="matrix(0.2784 0 0 0.2784 5.9971 -32.4438)">
	</image>
</g>
<g id="body" class="st29">
	<path class="st6" d="M67.5,29.5v138l-0.1,188.3c0,0-1.2,4.2,4,4.2l283.9-11.6c0,0,1.7,0.3,1.7-1.7l4.3-174l3.3-137.3
		c0-3.2-3.3-3-3.3-3l-119.6-3.7l-32.9-1.3l-133.6-5C75.2,22.5,67.5,21.2,67.5,29.5z"/>
	<path class="st6" d="M72.8,366.6l-1.4,5.8c0,0-0.6,1.3,1.4,1.3l15-0.5c0,0,1.4,0,1-1.8l-1.3-5.3"/>
	<line class="st6" x1="69.8" y1="360.1" x2="71.3" y2="373.1"/>
	<line class="st6" x1="87.8" y1="359.5" x2="88.8" y2="372.4"/>
	<path class="st6" d="M325.8,349.8l15.5,11.6c0,0,1.5,1.2,3.9,1l11.2-0.3c0,0,1.2,0,1.3-2l-0.3-4.5c0,0-0.4-1.1-1.6-1.9l-4.9-5"/>
	<path class="st6" d="M357,355h-12c0,0-1.4-0.1-1.5,1.4l-0.6,4.1c0,0-0.2,1.4,1,1.9"/>
	<line class="st6" x1="343.9" y1="355" x2="337.2" y2="349.3"/>
	<path class="st6" d="M160.2,205.9l4.2-1.8l103,0.5c1.9-0.1,1.8,0.1,1.8,0.1l1.5,2.2l-22.5,23.5c-1.2,1.2-2.1,1.6-2.1,1.6h-63.6
		c-1.9,0-2.5-1.2-2.5-1.2l-16.9-18l-1.8-1.5l-3.8-25c0.6-2.3,4.5-2.2,4.5-2.2l10.8-0.1l4.4,2.6c0,0,0.4,0.2,1.2-0.9l4.3-10.2
		l20.7-28.9c0,0,0.4-1.1,2.7-1.1l39.4,0.5c0,0,1.7-0.3,2.9,1.8l18.3,27.8l9.4,12c0,0,0.1-0.4,0,0.5c0,0.2,0,0.5,0,0.9l4.6,5.8
		c0,0,0.3,0.9-0.5,1.8l-7.7,8.7c0,0-0.6,0.6-1.6-0.3l-2.1-2.1l-11.2-0.1v-6.9l-69.2-0.1L188,202l-24.7-0.2l0.4-13.2
		c0,0,0.1-2.1,2.8-2l109.5,1.1"/>
	<path class="st6" d="M247.2,146.1l-3.7-2.5c0,0-1.1-0.6-3-0.6l-39.3-0.7c0,0-1.5-0.1-3.5,3.1L170.4,182H125c0,0-1.5-0.4-1.5,3v29.5
		l17.8,17.5l40-0.2"/>
	<polyline class="st6" points="246,232 285.2,232 302.5,214.5 	"/>
	<polyline class="st6" points="125,182.2 121.5,183.3 121.5,222.5 136.5,238.5 201,238.8 	"/>
	<polyline class="st6" points="200.5,232.5 200.5,243.5 202.7,245 218.5,245 218.5,240 203,240 	"/>
	<line class="st6" x1="202.5" y1="245.5" x2="202.5" y2="232.5"/>
	<polyline class="st6" points="220.2,232.5 219,238.8 287.8,238 302.5,222.5 302.5,183 273,183 	"/>
	<polygon class="st6" points="212.2,154.7 238.5,155 238.5,165 212,165 	"/>
	<rect x="246.5" y="159" class="st6" width="4" height="6"/>
	<polyline class="st6" points="246.6,159 245.6,158 250,158 250.5,158.5 	"/>
	<polyline class="st6" points="245.5,158.5 245.5,163.5 246.1,165 	"/>
	<rect x="201.5" y="158" class="st6" width="4" height="6"/>
	<polyline class="st6" points="201.6,158 200.6,157 205,157 205.5,157.5 	"/>
	<polyline class="st6" points="200.5,157.5 200.5,162.5 201.1,164 	"/>
	<path class="st6" d="M87.8,359.5l0,5.8c0.1,1-0.7,1.2-0.7,1.2L73.6,367c-1.1,0-1-1-1-1l-1.2-5.9c-3.1-1.4-1.9-4.6-1.9-4.6v-329
		c0,0,1-4.2,4.5-4.1"/>
	<polyline class="st6" points="359.7,238.8 218.5,240 219,238.8 	"/>
	<line class="st6" x1="200" y1="240" x2="71" y2="240"/>
	<rect x="188.5" y="206" class="st6" width="56" height="12"/>
	<polygon class="st6" points="81.5,248.3 347.5,245 347.5,263.5 81.5,268 	"/>
	<rect x="212.5" y="248" class="st6" width="15" height="10"/>
	<path class="st6" d="M235.3,253"/>
	<polygon class="st6" points="235.5,262.5 235.5,252.5 306.5,251.5 306.5,261.5 	"/>
	<line class="st6" x1="253.5" y1="252.5" x2="253.5" y2="262.5"/>
	<line class="st6" x1="271.5" y1="251.5" x2="271.5" y2="261.5"/>
	<line class="st6" x1="289.5" y1="251.5" x2="289.5" y2="261.5"/>
	<polygon class="st6" points="310.5,252 344.5,252 344.5,260.5 310.5,261.5 	"/>
	<line class="st6" x1="327.5" y1="252.5" x2="327.5" y2="261.5"/>
	<rect x="87.5" y="254" class="st6" width="11" height="12"/>
	<rect x="114.5" y="253" class="st6" width="5" height="12"/>
	<rect x="129.5" y="253" class="st6" width="5" height="12"/>
	<rect x="144.5" y="253" class="st6" width="5" height="12"/>
	<rect x="202.5" y="261" class="st6" width="6" height="3"/>
	<polyline class="st6" points="202.5,264.3 200.5,262.5 200.5,258.5 202.5,261 	"/>
	<polyline class="st6" points="200,259 206,259 208.5,260.7 	"/>
	<polyline class="st6" points="207.5,260.5 207.5,252 200.5,252 200.5,258.5 	"/>
	<path class="st6" d="M120.1,311.3l51.3-0.7c0,0,1.8-0.2,1.8,1.8l-0.4,27.3c0,0,0.1,1.1-1.4,1.1l-50.8,1.3c0,0-1.2,0.1-1.2-2.1
		v-27.4C119.5,312.5,119.2,311.6,120.1,311.3z"/>
	<path class="st6" d="M179.1,310.3l51.3-0.7c0,0,1.8-0.2,1.8,1.8l-0.4,25.3c0,0,0.1,2.1-1.4,2.1l-50.8,1.3c0,0-1.2,0.1-1.2-2.1
		v-26.4C178.5,311.5,178.2,310.6,179.1,310.3z"/>
	<polygon class="st6" points="121.5,313.9 170.5,313 170.5,337.5 121.5,338.5 	"/>
	<polygon class="st6" points="180.5,313.2 229.5,312.3 229.5,335.5 180.5,336.8 	"/>
	<path class="st6" d="M129.4,322.5c0,0,15.6-5.5,32.4-0.8"/>
	<line class="st6" x1="129.9" y1="319.9" x2="130.8" y2="322.1"/>
	<line class="st6" x1="134.2" y1="318.8" x2="134.9" y2="321"/>
	<line class="st6" x1="138.4" y1="318.2" x2="138.8" y2="320.5"/>
	<line class="st6" x1="142.5" y1="317.5" x2="142.5" y2="320.5"/>
	<line class="st6" x1="147.5" y1="317.5" x2="147.5" y2="319.5"/>
	<line class="st6" x1="153.8" y1="318.2" x2="153.3" y2="320.2"/>
	<line class="st6" x1="159.2" y1="319.3" x2="158.4" y2="321"/>
	<path class="st6" d="M187.4,320.5c0,0,15.6-5.5,32.4-0.8"/>
	<line class="st6" x1="187.9" y1="317.9" x2="188.8" y2="320.1"/>
	<line class="st6" x1="192.2" y1="316.8" x2="192.9" y2="319"/>
	<line class="st6" x1="196.4" y1="316.2" x2="196.8" y2="318.5"/>
	<line class="st6" x1="200.5" y1="315.5" x2="200.5" y2="318.5"/>
	<line class="st6" x1="205.5" y1="315.5" x2="205.5" y2="317.5"/>
	<line class="st6" x1="211.8" y1="316.2" x2="211.3" y2="318.2"/>
	<line class="st6" x1="217.2" y1="317.3" x2="216.4" y2="319"/>
	<path class="st6" d="M140.4,338.2c0,0,4.9-6.7,9.7-0.2"/>
	<path class="st6" d="M198.4,336.3c0,0,4.5-6.8,10.1-0.3"/>
	<rect x="129.5" y="292" class="st6" width="4" height="13"/>
	<rect x="144.5" y="292" class="st6" width="4" height="13"/>
	<rect x="159.5" y="291" class="st6" width="4" height="13"/>
	<rect x="188.5" y="291" class="st6" width="4" height="13"/>
	<rect x="203.5" y="291" class="st6" width="4" height="13"/>
	<rect x="218.5" y="290" class="st6" width="4" height="13"/>
	<rect x="254.5" y="289" class="st6" width="4" height="12"/>
	<rect x="268.5" y="289" class="st6" width="4" height="12"/>
	<rect x="296.5" y="288" class="st6" width="4" height="12"/>
	<rect x="323.5" y="288" class="st6" width="4" height="12"/>
	<rect x="309.5" y="288" class="st6" width="4" height="12"/>
	<polyline class="st6" points="219.5,280.5 219.5,279.3 130.5,280.7 130.5,282.5 	"/>
	<line class="st6" x1="205.5" y1="279.5" x2="205.5" y2="280.5"/>
	<line class="st6" x1="190.5" y1="279.5" x2="190.5" y2="280.5"/>
	<line class="st6" x1="161.5" y1="280.5" x2="161.5" y2="282.5"/>
	<line class="st6" x1="146.5" y1="280.5" x2="146.5" y2="282.5"/>
	<polyline class="st6" points="269.5,280.5 269.5,279 255.5,279 255.5,280.5 	"/>
	<polyline class="st6" points="324.5,278.5 324.5,276.7 297.5,277.7 297.5,279.5 	"/>
	<line class="st6" x1="311.5" y1="277.5" x2="311.5" y2="279.5"/>
	<circle class="st23" cx="140.1" cy="204.4" r="14.6"/>
	<circle class="st16" cx="140.2" cy="204.8" r="9.7"/>
	<circle class="st10" cx="141.4" cy="204.7" r="6.4"/>
	<circle class="st10" cx="103.6" cy="202.2" r="7.1"/>
	<path class="st10" d="M105.8,195l6.9-4.5c0,0,3.9-0.2,2.6,3.4c0,0-5.6,2.8-6.1,3.7"/>
	<path class="st10" d="M97.3,205.4c0,0-3.5,9.2-2.5,15.6c0,0,2,3.6,4.9,0.6c0,0-0.4-9.4,2.1-12.2"/>
	<circle class="st10" cx="272.2" cy="222.5" r="10"/>
	<circle class="st6" cx="272.7" cy="223.2" r="7.8"/>
	<circle class="st6" cx="297.2" cy="201.7" r="3.4"/>
	<path class="st6" d="M296,198.5c0,0-0.7-1.3-3.4-1.3c0,0-3.7,0.1-3.7,3.4c0,0-0.1,5.6,3.6,5.6c0,0,3.6-0.1,3.6-1.4"/>
	<circle class="st6" cx="293.3" cy="201.5" r="7.5"/>
	<circle class="st6" cx="272.5" cy="194.7" r="2.5"/>
	<circle class="st6" cx="169.5" cy="194.3" r="3"/>
	<circle class="st6" cx="336.2" cy="200.1" r="6.4"/>
	<path class="st6" d="M333.4,194.4c0,0-2-1.8-5.7,0c0,0-2.3,1.3-2.5,4.6c0,0-0.4,3.2,2.3,5.2c0,0,1.9,1.6,5.1,1.1"/>
	<path class="st6" d="M328.4,194l-4.3-2.7c0,0-6.1,0.1-2.9,4.2c0,0,2.2,1.4,4.1,2.8"/>
	<path class="st6" d="M331,205.4c0,0,4.1,8.8,3.1,14.9c0,0,2,3.9,4.9,0.4c0,0,0.3-11.6-2.4-14.3"/>
	<circle class="st6" cx="76.2" cy="281.1" r="2.8"/>
	<circle class="st6" cx="354.4" cy="275.5" r="2.7"/>
	<path class="st6" d="M101.6,296.9c0,3.4-2.8,6.2-6.2,6.2s-6.2-2.8-6.2-6.2c0-1.7,0.7-3.3,1.8-4.4c1.1-1.1,2.7-1.8,4.4-1.8
		C98.9,290.7,101.6,293.4,101.6,296.9z"/>
	<circle class="st6" cx="96" cy="314.4" r="3.8"/>
	<circle class="st8" cx="96" cy="314.3" r="2.7"/>
	<circle class="st6" cx="76.8" cy="354" r="2.8"/>
	<circle class="st6" cx="352.6" cy="343.4" r="2.6"/>
	<circle class="st6" cx="175.1" cy="260.8" r="5.6"/>
	<path class="st6" d="M178.4,256.2l-3.8-3.1c0,0-3.4-0.7-5.9,3.1c0,0-1.9,2.9-0.6,6.4l3.7,2.8"/>
	<path class="st6" d="M278.1,328.4c0,5.7-4.6,10.3-10.3,10.3c-5.7,0-10.3-4.6-10.3-10.3c0-5.7,4.6-10.3,10.3-10.3
		c2.5,0,4.9,0.9,6.7,2.5C276.7,322.5,278.1,325.3,278.1,328.4z"/>
	<path class="st6" d="M273.9,320.2l-6.2-4.5c0,0-4.6-2.8-10.3,3c0,0-4.9,4.8-2.6,11.2l5.9,6.1"/>
	<path class="st6" d="M275.4,321.5c0,0-2.3-7.3-7.6-8.4c0,0-7.4-2.5-12.8,4.2c0,0-3.8,4-3.3,9.7c0,0-0.1,5.7,4.8,9c0,0,4,2.8,7.6,2"
		/>
	<path class="st6" d="M327.1,325.4c0,5.7-4.6,10.3-10.3,10.3c-5.7,0-10.3-4.6-10.3-10.3c0-5.7,4.6-10.3,10.3-10.3
		c2.5,0,4.9,0.9,6.7,2.5C325.7,319.5,327.1,322.3,327.1,325.4z"/>
	<path class="st6" d="M322.9,317.2l-6.2-4.5c0,0-4.6-2.8-10.3,3c0,0-4.9,4.8-2.6,11.2l5.9,6.1"/>
	<path class="st6" d="M324.4,318.5c0,0-2.3-7.3-7.6-8.4c0,0-7.4-2.5-12.8,4.2c0,0-3.8,4-3.3,9.7c0,0-0.1,5.7,4.8,9c0,0,4,2.8,7.6,2"
		/>
	<rect x="128.5" y="286" class="st6" width="4" height="2"/>
	<rect x="144.5" y="286" class="st6" width="4" height="2"/>
	<rect x="159.5" y="286" class="st6" width="4" height="2"/>
	<rect x="189.5" y="285" class="st6" width="4" height="2"/>
	<rect x="218.5" y="285" class="st6" width="4" height="2"/>
	<rect x="203.5" y="285" class="st6" width="4" height="2"/>
	<rect x="254.5" y="284" class="st6" width="4" height="2"/>
	<rect x="267.5" y="284" class="st6" width="4" height="2"/>
	<rect x="295.5" y="283" class="st6" width="4" height="2"/>
	<rect x="309.5" y="283" class="st6" width="4" height="2"/>
	<rect x="323.5" y="282" class="st6" width="4" height="2"/>
	<circle class="st6" cx="96" cy="329.4" r="3.8"/>
	<circle class="st8" cx="96" cy="329.3" r="2.7"/>
	<circle class="st6" cx="96" cy="342.4" r="3.8"/>
	<circle class="st8" cx="96" cy="342.3" r="2.7"/>
	<line class="st6" x1="89.4" y1="295.7" x2="87.8" y2="295.4"/>
	<line class="st6" x1="90.1" y1="293.7" x2="88.6" y2="293.2"/>
	<path class="st6" d="M89.4,290.7"/>
	<line class="st6" x1="91.1" y1="292.5" x2="89.6" y2="291.2"/>
	<line class="st6" x1="92.2" y1="291.2" x2="91.4" y2="289.7"/>
	<line class="st6" x1="93.9" y1="290.7" x2="93.2" y2="288.6"/>
	<line class="st6" x1="95.5" y1="290.5" x2="95.5" y2="287.5"/>
	<line class="st6" x1="96.9" y1="290.8" x2="97.6" y2="288.6"/>
	<line class="st6" x1="98.4" y1="291.4" x2="99.5" y2="289.7"/>
	<line class="st6" x1="99.8" y1="292.5" x2="101.4" y2="291.4"/>
	<line class="st6" x1="100.9" y1="294" x2="102.8" y2="293.4"/>
	<line class="st6" x1="102" y1="296" x2="103" y2="296"/>
</g>
<g id="reels" class="st29">
	<circle class="st25" cx="117.7" cy="76.2" r="105"/>
	<circle class="st7" cx="325.6" cy="83.1" r="98.9"/>
	<path class="st7" d="M75.8,3c0,0-2-3.7-5.3-1.7c0,0-17.5,7.2-26.8,27c0,0-2,1.7,1.7,4.2c0,0,15.5,12.3,31.7,17.8c0,0,3.2,1.5,5.2,0
		c0,0,6.7-5.3,11.2-11.8c0,0,1-1.2,0-4.5C93.3,34,88.8,19.5,75.8,3z"/>
	<path class="st7" d="M79,150.1c0,0-2.1,3.6,1.3,5.4c0,0,15,11.5,36.9,9.4c0,0,2.5,0.9,2.7-3.5c0,0,2.8-19.6-0.7-36.3
		c0,0-0.3-3.5-2.6-4.5c0,0-8-3-15.9-3.6c0,0-1.5-0.3-3.9,2.3C96.8,119.3,86.6,130.7,79,150.1z"/>
	<path class="st7" d="M204.5,74.8c0,0,4.2-0.1,3.9-4c0,0,1.5-18.9-12-36.1c0,0-1.9-1.2-5.8,1c0,0-15.7,6.9-27.9,18.9
		c0,0-2.8,2.2-2.3,4.6c0,0,1.8,8.4,5.5,15.3c0,0,0.6,1.4,4,2C170,76.5,184,79,204.5,74.8z"/>
	<circle class="st7" cx="82.8" cy="86.7" r="3.2"/>
	<circle class="st7" cx="147.8" cy="103.7" r="3.2"/>
	<circle class="st7" cx="129.8" cy="39.7" r="3.2"/>
	<path class="st2" d="M149.8,75.2c0,16-13,27.5-29,27.5c-16,0-29-11.5-29-27.5c0-16,13-29,29-29C136.8,46.2,149.8,59.2,149.8,75.2z"
		/>
	<circle class="st2" cx="119.3" cy="76" r="30"/>
	<circle class="st2" cx="120.1" cy="75.8" r="8.9"/>
	<circle class="st2" cx="121" cy="73.7" r="3.3"/>
	<circle class="st2" cx="120" cy="75.3" r="19.5"/>
	<polygon class="st2" points="127.6,-5.8 139,-3.6 133,28.5 121.6,25.9 	"/>
	<polygon class="st2" points="160.6,106 148.6,118.5 185.4,154.2 197.5,141.2 	"/>
	<path class="st7" d="M374,19.9l-22.3,29.3c0,0-1.8,1.5,0,4.2l9.2,13.5c0,0,0.7,1.3,3.8,0L397,53.5c0,0,3.2-0.7,1.3-5.2
		c0,0-6-16.7-19.5-28.5C378.8,19.9,376.8,17.3,374,19.9z"/>
	<path class="st7" d="M337.8,123.7c0,0-8,3-14.7,1.8c0,0-2.7-1.3-3,1.5l-5,40.2c0,0-0.7,4.2,3,4.7c0,0,20,2.8,33.7-4.5
		c0,0,2.7-0.8,1.7-5.3l-13-36.3C340.5,125.7,340.1,123,337.8,123.7z"/>
	<path class="st7" d="M292.3,55.8l-32.7-26.4c0,0-3.3-2.6-5.5,0.8c0,0-10,13.8-13.5,33.2c0,0-1.7,3.7,3.3,4.7l39,7.5
		c0,0,2.7,1.2,2.8-1.5c0,0,0.8-7,6.5-15.3C292.3,58.7,293.7,56.9,292.3,55.8z"/>
	<circle class="st7" cx="290.6" cy="87.3" r="2.8"/>
	<circle class="st7" cx="339" cy="50.7" r="2.8"/>
	<circle class="st7" cx="345.9" cy="113.1" r="2.8"/>
	<circle class="st7" cx="329.2" cy="119.5" r="4.5"/>
	<circle class="st7" cx="330.8" cy="82" r="26.3"/>
	<circle class="st28" cx="328.9" cy="82.6" r="28.7"/>
	<circle class="st28" cx="331" cy="81.4" r="17.7"/>
	<circle class="st28" cx="332.5" cy="81.7" r="3.6"/>
	<circle class="st28" cx="330" cy="82.9" r="7.1"/>
	<path class="st6" d="M321.1,46.2l-4.7,0.9c0,0-2.1,0.9,0,1.9h4.6L321.1,46.2z"/>
	<polygon class="st6" points="290.9,11 343.5,6.5 343.5,14.5 292.9,18.7 	"/>
</g>
<g id="body_smaller">
	<g>
		<ellipse class="st14" cx="123" cy="196.4" rx="123" ry="11.8"/>
		<g id="XMLID_2_">
			<g>
				<path class="st0" d="M72.9,91.2c-0.1,0-0.4-0.1-0.7,0.2l-1.1,0.4v11l-7.4,2.4c0.6-0.7,1-1.7,1-2.7c0-1-0.4-1.9-0.9-2.6h0
					c0.3-0.5,3.5-2.1,3.5-2.1c0.7-2.1-1.5-1.9-1.5-1.9l-4.3,2.6c-0.3,0-0.5-0.1-0.8-0.1c-2.2,0-4.1,1.8-4.1,4L41.1,78.5V2.7
					c0,0,0.5-1.6,1.7-2.2c0,0,0,0,0,0c1-0.3,1.8-0.1,1.8-0.1l75.9,2.8L139.3,4l68,2.1c0,0,1.9-0.1,1.9,1.7l-0.7,28.7l-14.3,61.4v0
					c-0.4-0.1-0.8-0.2-1.2-0.2c-0.6,0-1.1,0.1-1.6,0.4c0,0-1-0.9-2.9-0.2l-2.5-1.6c0,0-3.5,0.1-1.6,2.4c0,0,1.3,0.8,2.3,1.6
					c0,0.1,0,0.3,0,0.4c0,0-0.3,1.8,1.3,3c0,0,0.3,0.3,0.9,0.5l-14.9-2.9V92h-16.8l-0.1,0.1l-3.7-4.8l-10.4-15.8
					c-0.2-0.4-0.5-0.6-0.7-0.8l0.1-0.1l-2.1-1.4c0,0-0.6-0.4-1.7-0.4l-22.3-0.4c0,0-0.9,0-2,1.9l-15.6,21L72.9,91.2
					C72.9,91.2,72.9,91.2,72.9,91.2z"/>
				<path class="st0" d="M208.5,36.5l-1.2,49.4l-0.9,37.5h0l-80.2,0.7h-0.1l0.3-0.7l0.1,0l0,0.1l39.2-0.5l8.5-8.9v-4.2v-8.6
					l14.9,2.9l0,0c0.3,0.1,0.6,0.2,1.1,0.2h0c0,0,2.3,5,1.8,8.5c0,0,1.1,2.2,2.8,0.2c0,0,0.2-6.6-1.3-8.1c1.9-0.1,3.3-1.7,3.3-3.6
					c0-1.6-1-3-2.5-3.4v0L208.5,36.5z"/>
				<path class="st13" d="M186.3,168.7c-0.1-0.2-1.4-4.2-4.3-4.8c0,0-4.2-1.4-7.3,2.4c0,0-2.2,2.3-1.9,5.5c0,0,0,3.2,2.7,5.1
					c0,0,2.3,1.6,4.3,1.2c0.6,0.2,1.4,0.4,2.1,0.4c3.2,0,5.8-2.6,5.8-5.8C187.8,171.1,187.3,169.7,186.3,168.7L186.3,168.7z
					 M116.9,126.8l0.2,0.2h9.1v-2.9v0l80.2-0.7h0l-1.5,61.5c0,1.1-0.9,1-0.9,1l-2.5,0.1l-7.8,0.3l-6.5,0.3L51.8,192h0l-9.3,0.4
					c-0.1,0-0.1,0-0.2,0c-1.7-0.8-1.2-2.6-1.2-2.6v-65.6h74.7h0.4v1.9L116.9,126.8z M59.3,154.8c-0.2-0.3-0.4-0.6-0.6-0.9
					c-0.2-0.2-0.5-0.5-0.8-0.6c-0.5-0.3-1.1-0.4-1.6-0.4h0c-1,0-1.9,0.4-2.5,1c-0.5,0.5-0.8,1.1-1,1.9c0,0.2-0.1,0.4-0.1,0.6
					c0,1.9,1.6,3.5,3.5,3.5c1.9,0,3.5-1.6,3.5-3.5C59.6,155.8,59.5,155.3,59.3,154.8z M204.9,144.2c0-0.8-0.7-1.5-1.5-1.5
					c-0.8,0-1.5,0.7-1.5,1.5c0,0.8,0.7,1.5,1.5,1.5C204.2,145.7,204.9,145.1,204.9,144.2z M203.8,182.9c0-0.8-0.7-1.5-1.5-1.5
					c-0.8,0-1.5,0.7-1.5,1.5c0,0.8,0.7,1.5,1.5,1.5C203.2,184.4,203.8,183.7,203.8,182.9z M199.2,137.5v-10.5l-150.9,1.8V140
					L199.2,137.5z M188.4,158.5v-7.2h-2.9v7.2H188.4z M188.4,149.2v-1.4h-2.9v1.4H188.4z M179.9,158.5v-7.2h-2.1v7.2H179.9z
					 M179.9,149.9v-1.4h-2.1v1.4H179.9z M172.7,158.5v-7.2h-2.1v7.2H172.7z M172,149.9v-1.4h-2.1v1.4H172z M160,174.3
					c0-1.5-0.6-2.9-1.5-3.9c0,0-1.3-4.2-4.3-4.8c0,0-4.2-1.4-7.3,2.4c0,0-2.2,2.3-1.9,5.5c0,0,0,3.2,2.7,5.1c0,0,2.3,1.6,4.3,1.1
					c0.7,0.2,1.4,0.4,2.1,0.4C157.4,180.2,160,177.6,160,174.3z M157,158.5V152h-2.1v6.4H157z M156.3,150.6v-1.4h-2.1v1.4H156.3z
					 M149.1,158.5V152h-2.9v6.4H149.1z M149.1,150.6v-1.4h-2.9v1.4H149.1z M133.7,179l0.2-14.4c0-1.1-1-1-1-1l-29.2,0.4
					c-0.5,0.2-0.4,0.7-0.4,0.7v15c0,1.2,0.7,1.2,0.7,1.2l28.9-0.8C133.7,180.2,133.7,179,133.7,179z M128.4,159.9v-7.2h-2.1v7.2
					H128.4z M128.4,150.6v-0.7h-2.1v0.7H128.4z M119.8,160.6v-7.9h-2.1v7.9H119.8z M119.8,150.6v-0.7h-2.1v0.7H119.8z M111.9,150.6
					v-0.7h-2.1v0.7H111.9z M111.2,160.6v-7.9h-2.1v7.9H111.2z M100.1,180.7l0.2-15.5c0-1.1-1-1-1-1l-29.2,0.4
					c-0.5,0.2-0.4,0.7-0.4,0.7v15.6c0,1.2,0.7,1.2,0.7,1.2l28.9-0.8C100.2,181.3,100.1,180.7,100.1,180.7z M94.8,160.6v-7.9h-2.1
					v7.9H94.8z M94.8,151.3v-0.7h-2.1v0.7H94.8z M86.2,161.3v-7.9H84v7.9H86.2z M86.2,151.3v-0.7H84v0.7H86.2z M77.6,161.3v-7.9
					h-2.1v7.9H77.6z M76.9,151.3v-0.7h-2.1v0.7H76.9z M58.6,166.4c0-1.2-1-2.2-2.2-2.2c-1.2,0-2.2,1-2.2,2.2c0,1.2,1,2.2,2.2,2.2
					C57.7,168.5,58.6,167.6,58.6,166.4z M58.6,174.9c0-1.2-1-2.2-2.2-2.2c-1.2,0-2.2,1-2.2,2.2c0,1.2,1,2.2,2.2,2.2
					C57.7,177,58.6,176.1,58.6,174.9z M58.6,182.3c0-1.2-1-2.2-2.2-2.2c-1.2,0-2.2,1-2.2,2.2c0,1.2,1,2.2,2.2,2.2
					C57.7,184.4,58.6,183.5,58.6,182.3z M47.1,188.9c0-0.9-0.7-1.6-1.6-1.6c-0.9,0-1.6,0.7-1.6,1.6c0,0.9,0.7,1.6,1.6,1.6
					C46.4,190.5,47.1,189.8,47.1,188.9z M46.8,147.4c0-0.9-0.7-1.6-1.6-1.6c-0.9,0-1.6,0.7-1.6,1.6c0,0.9,0.7,1.6,1.6,1.6
					C46.1,149,46.8,148.3,46.8,147.4z"/>
				<path class="st21" d="M205.1,189.8l0.2,2.5c-0.1,1.2-0.7,1.1-0.7,1.1l-6.4,0.2c-0.4,0-0.7,0-1-0.1l0-0.1c-0.7-0.3-0.4-1-0.4-1
					l0.4-2.4c0-0.3,0.1-0.5,0.3-0.6c0.3-0.3,0.6-0.3,0.6-0.3h6.5l0.1-0.1C205,189.5,205.1,189.8,205.1,189.8z"/>
				<path class="st26" d="M204.6,189.1l-0.1,0.1H198c0,0-0.3,0-0.6,0.3l0,0l-3.8-3.3l7.8-0.3l2.8,2.8
					C204.4,188.9,204.5,189,204.6,189.1z"/>
				<path class="st27" d="M203.4,142.7c0.8,0,1.5,0.7,1.5,1.5c0,0.8-0.7,1.5-1.5,1.5c-0.8,0-1.5-0.7-1.5-1.5
					C201.9,143.4,202.6,142.7,203.4,142.7z"/>
				<path class="st27" d="M202.3,181.4c0.8,0,1.5,0.7,1.5,1.5c0,0.8-0.7,1.5-1.5,1.5c-0.8,0-1.5-0.7-1.5-1.5
					C200.8,182,201.5,181.4,202.3,181.4z"/>
				<path class="st0" d="M117,137.7h3.5v-1.4h-3.6v1.3v0.1H117z M146.2,131l-10.7,0.1v5.7l10.7-0.2l10-0.1l10-0.1l10-0.1v-5.7
					l-10,0.1l-10,0.1L146.2,131z M119.8,135.3v-4.8h-3.6v3.9v0.1v0.3h0.2h2.6L119.8,135.3z M199.2,126.9v10.5L48.3,140v-11.2
					L199.2,126.9z M197.7,135.7v-5.2h-9.3h-10v5.7l10-0.3L197.7,135.7z M131.2,134.1v-5.7h-8.6v5.7H131.2z M104.6,135.9
					c0-1.1-0.5-2.1-1.4-2.6l0,0l-2.1-1.8c0,0-2-0.4-3.3,1.8c0,0-1.1,1.6-0.4,3.6l2,1.5l0.1,0.1c0.5,0.4,1.2,0.6,1.9,0.6
					C103.2,139.1,104.6,137.7,104.6,135.9z M86.9,138.4v-7.2H84v7.2H86.9z M78.3,138.4v-7.2h-2.9v7.2H78.3z M69.7,138.4v-7.2h-2.9
					v7.2H69.7z M57.6,139.1V132h-5.7v7.2H57.6z"/>
				<polygon class="st27" points="197.7,130.6 197.7,135.7 188.4,136 188.4,136 188.4,130.9 188.4,130.6 				"/>
				<path class="st21" d="M197.4,189.5L197.4,189.5c-0.1,0.2-0.2,0.4-0.2,0.6l-0.4,2.4c0,0-0.3,0.7,0.4,1l0,0.1
					c-0.8-0.2-1.2-0.5-1.2-0.5l-8.8-6.6l6.5-0.3L197.4,189.5z"/>
				<path class="st22" d="M194.2,97.9c1.4,0.5,2.5,1.8,2.5,3.4c0,1.9-1.5,3.5-3.3,3.6c-0.1,0-0.2,0-0.3,0c-0.8,0-1.5-0.2-2-0.6
					c-1-0.7-1.6-1.8-1.6-3c0-1.4,0.8-2.7,2.1-3.3c0.5-0.2,1-0.4,1.6-0.4C193.4,97.7,193.8,97.8,194.2,97.9z"/>
				<path class="st9" d="M193.3,105c1.5,1.5,1.3,8.1,1.3,8.1c-1.7,2-2.8-0.2-2.8-0.2c0.6-3.5-1.8-8.5-1.8-8.5c0.3,0,0.6,0,0.9,0
					c0.6,0.4,1.3,0.6,2,0.6C193.1,105,193.2,105,193.3,105z"/>
				<path class="st21" d="M191.5,98.1c-1.2,0.6-2.1,1.8-2.1,3.3c0,1.2,0.6,2.3,1.6,3c-0.3,0-0.6,0-0.9,0h0l-1.1-0.2l0,0
					c-0.6-0.2-0.9-0.5-0.9-0.5c-1.6-1.2-1.3-3-1.3-3c0-0.1,0-0.3,0-0.4c0.2-1.6,1.4-2.2,1.4-2.2c0.1-0.1,0.3-0.1,0.4-0.2
					C190.5,97.2,191.5,98.1,191.5,98.1z"/>
				<path class="st9" d="M186.1,96.4l2.5,1.6c-0.1,0.1-0.3,0.1-0.4,0.2c0,0-1.1,0.6-1.4,2.2c-1.1-0.8-2.3-1.6-2.3-1.6
					C182.7,96.4,186.1,96.4,186.1,96.4z"/>
				<rect x="185.6" y="151.3" class="st27" width="2.9" height="7.2"/>
				<rect x="185.6" y="147.7" class="st15" width="2.9" height="1.4"/>
				<polygon class="st27" points="188.4,136 188.4,136 178.4,136.3 178.4,130.6 188.4,130.6 188.4,130.9 				"/>
				<path class="st22" d="M177.6,176.5c-0.9-1-1.4-2.4-1.4-3.8c0-3.2,2.6-5.8,5.8-5.8c1.3,0,2.4,0.4,3.4,1.1l0.1,0.1
					c0.1,0.1,0.2,0.1,0.3,0.2c0.2,0.2,0.4,0.3,0.5,0.5c1,1,1.5,2.4,1.5,3.9c0,3.2-2.6,5.8-5.8,5.8c-0.7,0-1.4-0.1-2.1-0.4
					C179,177.8,178.2,177.2,177.6,176.5z"/>
				<path class="st22" d="M186.3,168.7L186.3,168.7c-0.2-0.2-0.3-0.4-0.5-0.5c-0.1-0.1-0.2-0.2-0.3-0.2l-0.1-0.1l-3.4-2.5
					c0,0-2.6-1.6-5.8,1.7c0,0-2.8,2.7-1.5,6.4l2.9,2.9c0.6,0.7,1.4,1.3,2.3,1.7c-2.1,0.4-4.3-1.2-4.3-1.2c-2.8-1.9-2.7-5.1-2.7-5.1
					c-0.3-3.2,1.9-5.5,1.9-5.5c3-3.8,7.3-2.4,7.3-2.4C184.9,164.5,186.2,168.5,186.3,168.7z"/>
				<path class="st21" d="M182,165.4l3.4,2.5c-1-0.7-2.1-1.1-3.4-1.1c-3.2,0-5.8,2.6-5.8,5.8c0,1.5,0.5,2.8,1.4,3.8l-2.9-2.9
					c-1.3-3.7,1.5-6.4,1.5-6.4C179.4,163.8,182,165.4,182,165.4z"/>
				<rect x="177.7" y="151.3" class="st27" width="2.1" height="7.2"/>
				<polygon class="st27" points="176.3,130.6 176.3,136.3 166.3,136.5 166.3,130.9 166.3,130.8 				"/>
				<polygon class="st21" points="174.1,109.9 174.1,114.1 165.6,123 126.5,123.4 126.5,123.4 127.2,120 127.2,119.8 141.6,119.8 
					141.7,119.8 156.6,119.8 164.1,119.8 173.8,109.9 				"/>
				<path class="st0" d="M174.1,101.3v8.6h-0.3l-9.7,10h-7.4v0c3.1,0,5.7-2.5,5.7-5.7c0-3.1-2.5-5.7-5.7-5.7c-1.6,0-3,0.6-4,1.7
					l-0.8-0.7l1-1.1h0l11.9-4.6c0.6,1.6,2.2,2.7,4,2.7c2.3,0,4.2-1.9,4.2-4.2c0-0.4-0.1-0.8-0.2-1.2L174.1,101.3z"/>
				<path class="st0" d="M174.1,92v9.3l-1.4-0.3c-0.5-1.8-2.1-3.1-4.1-3.1c-2.3,0-4.2,1.9-4.2,4.2c0,0.5,0.1,1.1,0.3,1.5l-11.9,4.6
					l2.9-3.1l-0.9-1.3c0,0,0,0,0,0l0.5-0.5l0.4,0.5c0.5,0.5,0.9,0.2,0.9,0.2l4.4-4.9c0.5-0.5,0.3-1,0.3-1l-2.6-3.3
					c0-0.2,0-0.4,0-0.5c0-0.5,0-0.3,0-0.3l-1.6-2l0.1-0.1H174.1z"/>
				<path class="st22" d="M172.7,101c0.1,0.4,0.2,0.8,0.2,1.2c0,2.3-1.9,4.2-4.2,4.2c-1.8,0-3.3-1.1-4-2.7l1.6-0.6
					c0.2,0.8,0.7,1.7,1.8,1.7c0,0,2-0.1,2-0.8c0.2,0.1,0.5,0.1,0.7,0.1c1.1,0,1.9-0.9,1.9-1.9c0-0.5-0.2-1-0.6-1.4L172.7,101z"/>
				<path class="st22" d="M172.7,101l-0.5-0.1h0c-0.3-0.3-0.8-0.5-1.3-0.5c-0.2,0-0.5,0-0.7,0.1c0,0-0.4-0.7-2-0.7
					c0,0-2.1,0.1-2.1,1.9c0,0,0,0.7,0.2,1.4l-1.6,0.6c-0.2-0.5-0.3-1-0.3-1.5c0-2.3,1.9-4.2,4.2-4.2
					C170.6,97.9,172.2,99.2,172.7,101z"/>
				<rect x="170.6" y="151.3" class="st27" width="2.1" height="7.2"/>
				<path class="st22" d="M172.2,100.9c0.4,0.4,0.6,0.8,0.6,1.4c0,1.1-0.9,1.9-1.9,1.9c-0.2,0-0.5-0.1-0.7-0.1
					c-0.7-0.3-1.2-1-1.2-1.8c0-0.8,0.5-1.5,1.2-1.8c0.2-0.1,0.5-0.1,0.7-0.1C171.4,100.3,171.9,100.6,172.2,100.9L172.2,100.9z"/>
				<rect x="169.8" y="148.4" class="st15" width="2.1" height="1.4"/>
				<path class="st21" d="M166.3,103.1c-0.2-0.7-0.2-1.4-0.2-1.4c0-1.8,2.1-1.9,2.1-1.9c1.5,0,2,0.7,2,0.7c-0.7,0.3-1.2,1-1.2,1.8
					c0,0.8,0.5,1.5,1.2,1.8c0,0.7-2,0.8-2,0.8C167.1,104.8,166.6,103.9,166.3,103.1z"/>
				<polygon class="st27" points="166.3,130.9 166.3,136.5 156.3,136.6 156.3,130.9 156.3,130.9 166.3,130.8 				"/>
				<path class="st22" d="M161.4,98.1c0,0,0.2,0.5-0.3,1l-4.4,4.9c0,0-0.4,0.4-0.9-0.2l-0.4-0.5l-0.7-0.7l-6.3-0.1v-3.9L109,98.7
					l-0.2,3.8l-14-0.1l0.2-7.5c0,0,0-1.2,1.6-1.1l6.1,0.1l56.2,0.6c0,0.1,0,0.3,0,0.5L161.4,98.1z M158.2,98.3
					c0-0.8-0.6-1.4-1.4-1.4c-0.8,0-1.4,0.6-1.4,1.4s0.6,1.4,1.4,1.4C157.6,99.7,158.2,99.1,158.2,98.3z M99.9,98.1
					c0-0.9-0.8-1.7-1.7-1.7c-0.9,0-1.7,0.8-1.7,1.7c0,0.9,0.8,1.7,1.7,1.7C99.2,99.7,99.9,99,99.9,98.1z"/>
				<path class="st21" d="M156.6,108.5c3.1,0,5.7,2.5,5.7,5.7c0,3.1-2.5,5.7-5.7,5.7c-3.1,0-5.7-2.5-5.7-5.7c0-1.6,0.6-3,1.7-4
					C153.6,109.1,155.1,108.5,156.6,108.5z M161.3,114.5c0-2.4-2-4.4-4.4-4.4c-2.5,0-4.4,2-4.4,4.4c0,2.5,2,4.4,4.4,4.4
					C159.4,118.9,161.3,117,161.3,114.5z"/>
				<path class="st22" d="M156.9,110.1c2.4,0,4.4,2,4.4,4.4c0,2.5-2,4.4-4.4,4.4c-2.5,0-4.4-2-4.4-4.4
					C152.5,112.1,154.5,110.1,156.9,110.1z"/>
				<path class="st22" d="M149.7,178.2c-0.9-1-1.4-2.4-1.4-3.8c0-3.2,2.6-5.8,5.8-5.8c1.3,0,2.4,0.4,3.4,1.1l0.1,0.1
					c0.1,0.1,0.2,0.2,0.3,0.2c0.2,0.2,0.4,0.3,0.5,0.5c0.9,1,1.5,2.4,1.5,3.9c0,3.2-2.6,5.8-5.8,5.8c-0.7,0-1.4-0.1-2.1-0.4
					C151.1,179.5,150.3,178.9,149.7,178.2z"/>
				<path class="st5" d="M116.2,77.6V80v1.2h2.9v-3.6H116.2z M158.8,94.1c0,0,0.1-0.2,0,0.3l-56.2-0.6v-0.2c0.1,0,0.3-0.1,0.6-0.5
					l2.5-5.8l11.7-16.4c0,0,0.2-0.6,1.6-0.6l22.4,0.3c0,0,0.4-0.1,0.9,0.2c0.2,0.1,0.5,0.4,0.7,0.8l10.4,15.8l3.7,4.8L158.8,94.1z
					 M144.1,81.2v-2.9H142v2.9H144.1z M137.7,81.2v-5.5l-15-0.3l-0.2,5.8H137.7z"/>
				<path class="st22" d="M158.5,170.4c-0.2-0.2-0.4-0.4-0.5-0.5c-0.1-0.1-0.2-0.2-0.3-0.2l-0.1-0.1l-3.4-2.5c0,0-2.6-1.6-5.8,1.7
					c0,0-2.8,2.7-1.5,6.4l2.9,3c0.6,0.7,1.4,1.3,2.3,1.6c-2.1,0.4-4.3-1.1-4.3-1.1c-2.8-1.9-2.7-5.1-2.7-5.1
					c-0.3-3.2,1.9-5.5,1.9-5.5c3-3.8,7.3-2.4,7.3-2.4C157.1,166.3,158.5,170.4,158.5,170.4z"/>
				<path class="st27" d="M156.8,96.9c0.8,0,1.4,0.6,1.4,1.4s-0.6,1.4-1.4,1.4c-0.8,0-1.4-0.6-1.4-1.4S156,96.9,156.8,96.9z"/>
				<path class="st21" d="M154.1,167.1l3.4,2.5c-1-0.7-2.1-1.1-3.4-1.1c-3.2,0-5.8,2.6-5.8,5.8c0,1.5,0.5,2.8,1.4,3.8l-2.9-3
					c-1.3-3.6,1.5-6.4,1.5-6.4C151.5,165.6,154.1,167.1,154.1,167.1z"/>
				<rect x="154.8" y="152" class="st27" width="2.1" height="6.4"/>
				<path class="st0" d="M156.6,119.8L156.6,119.8l-14.9,0c0,0,0.5-0.4,1.2-1.1l8.9-9.4l0.8,0.7c-1,1-1.7,2.4-1.7,4
					C150.9,117.3,153.5,119.8,156.6,119.8z"/>
				<rect x="154.1" y="149.2" class="st15" width="2.1" height="1.4"/>
				<polygon class="st27" points="156.3,130.9 156.3,136.6 146.2,136.7 146.2,136.6 146.2,131 156.3,130.9 				"/>
				<path class="st22" d="M116.9,119.8h-0.7h-10.6c-0.5,0-0.9-0.2-1.1-0.4c-0.2-0.2-0.3-0.5-0.3-0.5l-9.6-10.3l-1-0.9l-0.5-3.2
					l2.3-1l13.5,0.1l45.1,0.2c0.9-0.1,1,0,1,0c0,0,0,0,0,0l0.9,1.3l-2.9,3.1h0l-1,1.1l-8.9,9.4c-0.7,0.7-1.2,1.1-1.2,1.1h-0.1h-14.4
					H116.9z M141.2,111.3v-6.4h-32.2v6.4H141.2z"/>
				<path class="st13" d="M154.7,102.8l0.7,0.7l-0.5,0.5c0,0-0.1-0.1-1,0l-45.1-0.2l0-1.2l0.2-3.8l39.4,0.1v3.9L154.7,102.8z"/>
				<rect x="146.2" y="152" class="st27" width="2.9" height="6.4"/>
				<polygon class="st27" points="146.2,136.6 146.2,136.7 135.5,136.9 135.5,131.2 146.2,131 				"/>
				<rect x="142" y="78.4" class="st27" width="2.1" height="2.9"/>
				<path class="st13" d="M140.3,69.2l2.1,1.4l-0.1,0.1c-0.5-0.3-0.9-0.2-0.9-0.2L119,70.2c-1.4,0-1.6,0.6-1.6,0.6l-11.7,16.4
					l-2.5,5.8c-0.3,0.5-0.5,0.5-0.6,0.5c0,0,0,0,0,0l-2.5-1.5l-1.3,0l0-1l15.6-21c1.1-1.9,2-1.9,2-1.9l22.3,0.4
					C139.7,68.9,140.3,69.2,140.3,69.2z"/>
				<rect x="109.1" y="104.8" class="st11" width="32.2" height="6.4"/>
				<polygon points="137.7,75.8 137.7,81.2 122.4,81.2 122.6,75.5 				"/>
				<path class="st22" d="M133.9,164.6l-0.2,14.4c0,0,0.1,1.2-0.8,1.2L104,181c0,0-0.7,0-0.7-1.2v-15c0,0-0.1-0.5,0.4-0.7l29.2-0.4
					C132.9,163.6,133.9,163.5,133.9,164.6z M132.7,178.4v-13.2l-27.9,0.5v13.4l15.7-0.4L132.7,178.4z"/>
				<rect x="122.6" y="128.4" class="st26" width="8.6" height="5.7"/>
				<rect x="126.2" y="152.7" class="st27" width="2.1" height="7.2"/>
				<polygon class="st24" points="127.2,119.8 127.2,120 126.5,123.4 126.4,123.4 126.1,124.1 126.2,124.1 126.2,124.1 117.3,124.1 
					116.9,124.1 116.9,119.8 				"/>
				<polygon class="st1" points="126.2,124.1 126.2,127 117.1,127 116.9,126.8 116.9,124.1 117.3,124.1 				"/>
				<polygon class="st27" points="120.5,136.3 120.5,137.7 117,137.7 116.9,137.6 116.9,136.3 				"/>
				<rect x="117.6" y="152.7" class="st27" width="2.1" height="7.9"/>
				<polygon class="st27" points="119.8,130.6 119.8,135.3 119,134.9 116.4,134.9 116.2,134.6 116.2,134.5 116.2,130.6 				"/>
				<polygon class="st27" points="116.2,80 116.2,77.6 119.1,77.6 119.1,81.2 116.2,81.2 				"/>
				<path class="st0" d="M116.2,123.4v0.8h-0.4H41.1V78.5l15.6,24.1c0,0.7,0.1,1.3,0.4,1.8c0,0-2,5.2-1.4,8.9c0,0,1.1,2.1,2.8,0.4
					c0,0-0.2-5.3,1.2-7l0-0.1c0.3,0.1,0.7,0.1,1,0.1c1.2,0,2.3-0.5,3-1.4l7.4-2.4v11.3l8.4,9.1L116.2,123.4z"/>
				<path class="st21" d="M116.2,119.8v3.5l-36.6-0.1l-8.4-9.1v-11.3l0.7-0.2v7l10.2,10l22.4-0.1c0.2,0.2,0.6,0.4,1.1,0.4H116.2z"/>
				<rect x="109.1" y="152.7" class="st27" width="2.1" height="7.9"/>
				<path class="st13" d="M108.8,102.5l0,1.2l-13.5-0.1l-2.3,1l-1.7-11.1c0.4-1.3,2.6-1.3,2.6-1.3l4.8-0.1l1.3,0l2.5,1.5
					c0,0,0,0,0,0v0.2l-6.1-0.1C95,93.7,95,94.9,95,94.9l-0.2,7.5L108.8,102.5z"/>
				<path class="st0" d="M104.5,119.4l-22.4,0.1l-10.2-10v-7l1.5-0.5c-0.1,0.6-0.2,1.1-0.2,1.7c0,4.6,3.7,8.3,8.3,8.3
					s8.3-3.7,8.3-8.3c0-0.3,0-0.6,0-0.9l3.1,1.7l0.1,0l0.5,3.2l1,0.9l9.6,10.3C104.1,119,104.2,119.2,104.5,119.4z"/>
				<path class="st22" d="M103.3,133.3c0.8,0.6,1.4,1.5,1.4,2.6c0,1.8-1.4,3.2-3.2,3.2c-0.7,0-1.4-0.2-1.9-0.6l-0.1-0.1
					c-0.7-0.6-1.2-1.5-1.2-2.5c0-1.8,1.4-3.2,3.2-3.2C102.1,132.7,102.7,132.9,103.3,133.3L103.3,133.3z"/>
				<path class="st21" d="M101.1,131.5l2.1,1.8c-0.5-0.3-1.1-0.5-1.8-0.5c-1.8,0-3.2,1.4-3.2,3.2c0,1,0.5,1.9,1.2,2.5l-2-1.5
					c-0.7-2,0.4-3.6,0.4-3.6C99.2,131.1,101.1,131.5,101.1,131.5z"/>
				<path class="st22" d="M100.3,165.2l-0.2,15.5c0,0,0.1,0.6-0.8,0.6l-28.9,0.8c0,0-0.7,0-0.7-1.2v-15.6c0,0-0.1-0.5,0.4-0.7
					l29.2-0.4C99.3,164.2,100.3,164.1,100.3,165.2z M99,179.5v-13.9l-27.9,0.5v14l10.5-0.2l5.5-0.1L99,179.5z"/>
				<path class="st27" d="M98.2,96.4c0.9,0,1.7,0.8,1.7,1.7c0,0.9-0.8,1.7-1.7,1.7c-0.9,0-1.7-0.8-1.7-1.7
					C96.5,97.1,97.3,96.4,98.2,96.4z"/>
				<path class="st0" d="M98.7,91.2l0,1L94,92.3c0,0-2.2,0-2.6,1.3l1.7,11.1l-0.1,0l-3.1-1.7c-0.4-4.2-4-7.4-8.3-7.4
					c-4,0-7.3,2.8-8.1,6.6l-1.5,0.5v-9.8c0-0.7,0.2-1.1,0.4-1.4l0.7-0.2c0,0,0,0,0,0H98.7z"/>
				<rect x="92.6" y="152.7" class="st27" width="2.1" height="7.9"/>
				<path class="st22" d="M89.8,103c0,0.3,0,0.6,0,0.9c0,4.6-3.7,8.3-8.3,8.3s-8.3-3.7-8.3-8.3c0-0.6,0.1-1.2,0.2-1.7l3.6-1.2
					c-0.6,0.9-1,2-1,3.1c0,3.1,2.5,5.5,5.5,5.5c3.1,0,5.5-2.5,5.5-5.5c0-1.1-0.3-2.1-0.9-3L89.8,103z"/>
				<path class="st22" d="M89.8,103l-3.6-1.9c0,0,0,0,0,0c-1-1.5-2.7-2.5-4.6-2.5c-1.9,0-3.6,0.9-4.5,2.4l-3.6,1.2
					c0.8-3.8,4.1-6.6,8.1-6.6C85.8,95.5,89.4,98.8,89.8,103z"/>
				<rect x="84" y="131.3" class="st27" width="2.9" height="7.2"/>
				<path class="st21" d="M86.2,101c0.6,0.9,0.9,1.9,0.9,3c0,3.1-2.5,5.5-5.5,5.5c-3.1,0-5.5-2.5-5.5-5.5c0-1.2,0.4-2.2,1-3.1
					c1-1.4,2.7-2.4,4.5-2.4C83.5,98.5,85.3,99.5,86.2,101C86.2,101,86.2,101,86.2,101z M85.9,104c0-2-1.6-3.7-3.7-3.7
					c-2,0-3.7,1.6-3.7,3.7c0,2,1.6,3.7,3.7,3.7C84.3,107.7,85.9,106,85.9,104z"/>
				<rect x="84" y="153.5" class="st27" width="2.1" height="7.9"/>
				<path class="st22" d="M82.3,100.3c2,0,3.7,1.6,3.7,3.7c0,2-1.6,3.7-3.7,3.7c-2,0-3.7-1.6-3.7-3.7
					C78.6,102,80.3,100.3,82.3,100.3z"/>
				<rect x="75.4" y="131.3" class="st27" width="2.9" height="7.2"/>
				<rect x="75.4" y="153.5" class="st27" width="2.1" height="7.9"/>
				<rect x="66.9" y="131.3" class="st27" width="2.9" height="7.2"/>
				<path class="st9" d="M65.9,95.9c0,0,2.2-0.1,1.5,1.9c0,0-3.2,1.6-3.5,2.1h0c-0.6-0.7-1.4-1.2-2.3-1.4L65.9,95.9z"/>
				<path class="st22" d="M63.9,100c0.6,0.7,0.9,1.6,0.9,2.6c0,1-0.4,2-1,2.7c-0.7,0.8-1.8,1.4-3,1.4c-0.4,0-0.7,0-1-0.1
					c-1.1-0.3-2.1-1.1-2.6-2.1c-0.3-0.5-0.4-1.2-0.4-1.8c0-2.2,1.8-4,4.1-4c0.3,0,0.5,0,0.8,0.1C62.5,98.8,63.3,99.3,63.9,100z"/>
				<path class="st9" d="M59.7,106.5l0,0.1c-1.4,1.6-1.2,7-1.2,7c-1.6,1.7-2.8-0.4-2.8-0.4c-0.6-3.6,1.4-8.9,1.4-8.9
					C57.7,105.4,58.6,106.2,59.7,106.5z"/>
				<path class="st22" d="M59.3,154.8c0.3,0.5,0.4,1,0.4,1.6c0,1.9-1.6,3.5-3.5,3.5c-1.9,0-3.5-1.6-3.5-3.5c0-0.2,0-0.4,0.1-0.6
					c0.1-0.7,0.5-1.4,1-1.9c0.6-0.6,1.5-1,2.5-1h0c0.6,0,1.2,0.2,1.6,0.4c0.3,0.2,0.6,0.4,0.8,0.6C58.9,154.2,59.1,154.5,59.3,154.8
					z"/>
				<path class="st22" d="M56.5,164.2c1.2,0,2.2,1,2.2,2.2c0,1.2-1,2.2-2.2,2.2c-1.2,0-2.2-1-2.2-2.2
					C54.3,165.2,55.3,164.2,56.5,164.2z M58,166.3c0-0.9-0.7-1.5-1.5-1.5c-0.9,0-1.5,0.7-1.5,1.5c0,0.9,0.7,1.5,1.5,1.5
					C57.3,167.9,58,167.2,58,166.3z"/>
				<circle class="st3" cx="56.4" cy="166.3" r="1.5"/>
				<circle class="st3" cx="56.4" cy="174.8" r="1.5"/>
				<path class="st3" d="M56.4,180.7c0.9,0,1.5,0.7,1.5,1.5c0,0.9-0.7,1.5-1.5,1.5c-0.9,0-1.5-0.7-1.5-1.5
					C54.9,181.4,55.6,180.7,56.4,180.7z"/>
				<rect x="51.8" y="132" class="st15" width="5.7" height="7.2"/>
				<path class="st21" d="M52.3,198.9l0,0.4c0,0.6-0.6,0.6-0.6,0.6l-8.5,0.3c-0.7,0-0.8-0.3-0.8-0.5c0-0.1,0.1-0.2,0.1-0.2l0.8-3.3
					c0.1,0.1,0.2,0.2,0.5,0.2l7.7-0.3c0,0,0.1,0,0.2-0.1L52.3,198.9C52.3,198.9,52.3,198.9,52.3,198.9z"/>
				<path class="st26" d="M51.8,195.3c0,0.3-0.1,0.5-0.2,0.6v0c-0.1,0.1-0.2,0.1-0.2,0.1l-7.7,0.3c-0.3,0-0.4-0.1-0.5-0.2
					c-0.1-0.2-0.1-0.3-0.1-0.3l-0.8-3.4c0,0,0,0,0,0c0.1,0,0.1,0,0.2,0l9.3-0.4L51.8,195.3z"/>
				<path class="st27" d="M45.5,187.3c0.9,0,1.6,0.7,1.6,1.6c0,0.9-0.7,1.6-1.6,1.6c-0.9,0-1.6-0.7-1.6-1.6
					C43.9,188,44.6,187.3,45.5,187.3z"/>
				<path class="st27" d="M45.2,145.8c0.9,0,1.6,0.7,1.6,1.6c0,0.9-0.7,1.6-1.6,1.6c-0.9,0-1.6-0.7-1.6-1.6
					C43.6,146.6,44.3,145.8,45.2,145.8z"/>
				<path class="st21" d="M43.2,196.1l-0.8,3.3c0,0-0.1,0.1-0.1,0.2h0l-0.8-7.3l0-0.1c0.2,0.1,0.5,0.1,0.7,0.1c0,0,0,0,0,0l0.8,3.4
					C43.2,195.7,43.1,195.9,43.2,196.1z"/>
				<path class="st18" d="M41.1,78.5v45.6v65.6c0,0-0.5,1.8,1.2,2.6c-0.3,0-0.5,0-0.7-0.1c-1.9-0.4-1.3-2.3-1.3-2.3l0.2-107.1V4.4
					c0-2.6,1.3-3.5,2.4-3.9c-1.3,0.5-1.7,2.2-1.7,2.2V78.5z"/>
			</g>
			<g>
				<path class="st12" d="M42.8,0.5c-1.2,0.3-2.4,1.3-2.4,3.9v78.5L40.2,190c0,0-0.6,1.9,1.3,2.3c0.2,0.1,0.5,0.1,0.7,0.1
					c0.1,0,0.1,0,0.2,0l9.3-0.4h0l135.4-5.5l6.5-0.3l7.8-0.3l2.5-0.1c0,0,0.9,0.2,0.9-1l1.5-61.5l0.9-37.5l1.2-49.4l0.7-28.7
					c0-1.8-1.9-1.7-1.9-1.7l-68-2.1l-18.7-0.8L44.7,0.4C44.7,0.4,43.8,0.3,42.8,0.5"/>
				<path class="st12" d="M43.2,196.1l-0.8,3.3c0,0-0.1,0.1-0.1,0.2c0,0.2,0.1,0.5,0.8,0.5l8.5-0.3c0,0,0.6,0,0.6-0.6
					c0-0.1,0-0.2,0-0.4c0,0,0,0,0,0l-0.8-3"/>
				<polyline class="st12" points="41.6,192.4 42.4,199.6 42.4,199.8 				"/>
				<polyline class="st12" points="51.8,192 52.3,198.9 52.4,199.3 52.4,199.3 				"/>
				<path class="st12" d="M187.1,186.5l8.8,6.6c0,0,0.4,0.4,1.2,0.5c0.3,0.1,0.6,0.1,1,0.1l6.4-0.2c0,0,0.7,0,0.7-1.1l-0.2-2.5
					c0,0-0.1-0.4-0.5-0.7c-0.1-0.1-0.3-0.2-0.4-0.4l-2.8-2.8"/>
				<path class="st12" d="M204.5,189.2H198c0,0-0.3,0-0.6,0.3c-0.1,0.1-0.2,0.3-0.3,0.6l-0.4,2.4c0,0-0.3,0.7,0.4,1"/>
				<line class="st12" x1="197.4" y1="189.5" x2="193.6" y2="186.2"/>
				<path class="st12" d="M152.8,108.3l2.9-3.1l-0.9-1.3c0,0,0,0,0,0c0,0-0.1-0.1-1,0l-45.1-0.2l-13.5-0.1l-2.3,1l-0.1,0l-3.1-1.7
					l-3.6-1.9"/>
				<path class="st12" d="M141.7,119.8c0,0,0.5-0.4,1.2-1.1l8.9-9.4l1-1.1"/>
				<path class="st12" d="M158.8,94.4l-56.2-0.6l-6.1-0.1C95,93.7,95,94.9,95,94.9l-0.2,7.5l14,0.1l0.2-3.8l39.4,0.1v3.9l6.3,0.1
					l0.7,0.7l0.4,0.5c0.5,0.5,0.9,0.2,0.9,0.2l4.4-4.9c0.5-0.5,0.3-1,0.3-1l-2.6-3.3C158.8,94.7,158.8,94.5,158.8,94.4
					c0-0.5,0-0.3,0-0.3l-1.6-2l-3.7-4.8l-10.4-15.8c-0.2-0.4-0.5-0.6-0.7-0.8c-0.5-0.3-0.9-0.2-0.9-0.2L119,70.2
					c-1.4,0-1.6,0.6-1.6,0.6l-11.7,16.4l-2.5,5.8c-0.3,0.5-0.5,0.5-0.6,0.5c0,0,0,0,0,0l-2.5-1.5l-1.3,0L94,92.3c0,0-2.2,0-2.6,1.3
					l1.7,11.1l0.5,3.2l1,0.9l9.6,10.3c0,0,0.1,0.2,0.3,0.5c0.2,0.2,0.6,0.4,1.1,0.4h10.6h0.7h10.2h14.4"/>
				<path class="st12" d="M142.5,70.6L142.5,70.6l-2.1-1.4c0,0-0.6-0.4-1.7-0.4l-22.3-0.4c0,0-0.9,0-2,1.9l-15.6,21H72.9
					c0,0,0,0,0,0c-0.1,0-0.4-0.1-0.7,0.2c-0.2,0.2-0.4,0.6-0.4,1.4v9.8v7l10.2,10l22.4-0.1h0.4"/>
				<polyline class="st12" points="141.6,119.8 141.7,119.8 156.6,119.8 164.1,119.8 173.8,109.9 				"/>
				<polyline class="st12" points="73,91.2 72.9,91.2 72.2,91.5 71.2,91.8 71.2,102.8 71.2,114.1 79.6,123.2 116.2,123.4 
					116.3,123.4 				"/>
				<polyline class="st12" points="116.2,119.5 116.2,119.8 116.2,123.4 116.2,124.1 116.2,126.1 116.9,126.8 117.1,127 126.2,127 
					126.2,124.1 117.3,124.1 				"/>
				<polyline class="st12" points="116.9,127.4 116.9,126.8 116.9,124.1 116.9,119.8 116.9,119.5 				"/>
				<polyline class="st12" points="127.2,120 126.5,123.4 126.5,123.4 165.6,123 174.1,114.1 174.1,109.9 174.1,101.3 174.1,92 
					157.3,92 				"/>
				<polygon class="st12" points="122.6,75.5 137.7,75.8 137.7,81.2 122.4,81.2 				"/>
				<rect x="142" y="78.4" class="st12" width="2.1" height="2.9"/>
				<polyline class="st12" points="142.1,78.1 141.5,77.6 144,77.6 144.3,77.9 				"/>
				<polyline class="st12" points="141.2,78 141.2,80.6 141.6,81.6 				"/>
				<polyline class="st12" points="116.2,77.6 119.1,77.6 119.1,81.2 116.2,81.2 116.2,80 				"/>
				<polyline class="st12" points="116.5,77.4 115.9,76.9 118.4,76.9 118.7,77.2 				"/>
				<polyline class="st12" points="116.2,77.3 116.2,77.6 116.2,80 116.5,80.9 				"/>
				<path class="st12" d="M51.8,192l0,3.3c0,0.3-0.1,0.5-0.2,0.6v0c-0.1,0.1-0.2,0.1-0.2,0.1l-7.7,0.3c-0.3,0-0.4-0.1-0.5-0.2
					c-0.1-0.2-0.1-0.3-0.1-0.3l-0.8-3.4c0,0,0,0,0,0c-1.7-0.8-1.2-2.6-1.2-2.6v-65.6V78.5V2.7c0,0,0.5-1.6,1.7-2.2c0,0,0,0,0,0
					c0.3-0.1,0.6-0.2,0.9-0.2"/>
				<polyline class="st12" points="206.4,123.4 126.2,124.1 126.1,124.1 126.4,123.4 				"/>
				<line class="st12" x1="115.8" y1="124.1" x2="41.1" y2="124.1"/>
				<rect x="109.1" y="104.8" class="st12" width="32.2" height="6.4"/>
				<polygon class="st12" points="48.3,128.8 199.2,126.9 199.2,137.5 48.3,140 				"/>
				<rect x="122.6" y="128.4" class="st12" width="8.6" height="5.7"/>
				<polygon class="st12" points="146.2,136.7 135.5,136.9 135.5,131.2 146.2,131 156.3,130.9 166.3,130.8 176.3,130.6 176.3,136.3 
					166.3,136.5 156.3,136.6 				"/>
				<polyline class="st12" points="146.2,130.9 146.2,131 146.2,136.6 				"/>
				<polyline class="st12" points="156.3,130.9 156.3,136.6 156.3,136.6 				"/>
				<polyline class="st12" points="166.3,130.9 166.3,136.5 166.3,136.6 				"/>
				<polygon class="st12" points="188.4,136 178.4,136.3 178.4,130.6 188.4,130.6 197.7,130.6 197.7,135.7 				"/>
				<line class="st12" x1="188.4" y1="130.9" x2="188.4" y2="136"/>
				<rect x="51.8" y="132" class="st12" width="5.7" height="7.2"/>
				<rect x="66.9" y="131.3" class="st12" width="2.9" height="7.2"/>
				<rect x="75.4" y="131.3" class="st12" width="2.9" height="7.2"/>
				<rect x="84" y="131.3" class="st12" width="2.9" height="7.2"/>
				<polygon class="st12" points="116.9,137.6 116.9,136.3 120.5,136.3 120.5,137.7 117,137.7 116.9,137.7 				"/>
				<polyline class="st12" points="117.2,137.9 117,137.7 116.9,137.6 116.2,136.9 116.2,134.9 116.2,134.6 116.4,134.9 117.3,136 
									"/>
				<polyline class="st12" points="115.8,134.9 116.2,134.9 116.4,134.9 119,134.9 119.8,135.3 120.6,135.8 				"/>
				<polyline class="st12" points="119.8,135.9 119.8,135.3 119.8,130.6 116.2,130.6 116.2,134.5 				"/>
				<path class="st12" d="M70.1,164.6l29.2-0.4c0,0,1-0.1,1,1l-0.2,15.5c0,0,0.1,0.6-0.8,0.6l-28.9,0.8c0,0-0.7,0-0.7-1.2v-15.6
					C69.7,165.3,69.6,164.8,70.1,164.6z"/>
				<path class="st12" d="M103.7,164.1l29.2-0.4c0,0,1-0.1,1,1l-0.2,14.4c0,0,0.1,1.2-0.8,1.2L104,181c0,0-0.7,0-0.7-1.2v-15
					C103.3,164.8,103.2,164.2,103.7,164.1z"/>
				<polygon class="st12" points="81.7,179.9 71.2,180.1 71.2,166.1 99,165.6 99,179.5 87.2,179.8 				"/>
				<polygon class="st12" points="104.8,165.7 132.7,165.2 132.7,178.4 120.4,178.7 104.8,179.1 				"/>
				<path class="st12" d="M75.4,171c0,0,0.3-0.1,0.8-0.3c0.9-0.3,2.5-0.7,4.5-0.9c1.4-0.2,2.9-0.3,4.7-0.3c2.6,0,5.4,0.3,8.4,1.1"/>
				<line class="st12" x1="75.7" y1="169.5" x2="76.3" y2="170.7"/>
				<line class="st12" x1="78.2" y1="168.9" x2="78.6" y2="170.1"/>
				<polyline class="st12" points="80.6,168.5 80.8,169.8 80.8,169.8 				"/>
				<line class="st12" x1="82.6" y1="168.1" x2="82.6" y2="169.5"/>
				<polyline class="st12" points="85.5,168.1 85.5,169.5 85.5,169.5 				"/>
				<line class="st12" x1="89.3" y1="168.5" x2="89" y2="169.7"/>
				<line class="st12" x1="92.4" y1="169.2" x2="91.9" y2="170.1"/>
				<path class="st12" d="M108.4,169.9c0,0,0.3-0.1,0.8-0.3c0.9-0.3,2.5-0.7,4.5-0.9c0.8-0.1,1.6-0.2,2.4-0.2
					c3.1-0.2,6.8-0.1,10.6,1"/>
				<line class="st12" x1="108.7" y1="168.3" x2="109.2" y2="169.6"/>
				<line class="st12" x1="111.2" y1="167.7" x2="111.5" y2="169"/>
				<polyline class="st12" points="113.6,167.4 113.8,168.7 113.8,168.7 				"/>
				<polyline class="st12" points="116.2,166.7 116.2,168.4 116.2,168.8 				"/>
				<line class="st12" x1="119.1" y1="166.7" x2="119.1" y2="168.1"/>
				<line class="st12" x1="122.3" y1="167.4" x2="122" y2="168.5"/>
				<line class="st12" x1="125.4" y1="168" x2="124.9" y2="169"/>
				<path class="st12" d="M81.7,179.9c0,0,2.8-3.8,5.5-0.1"/>
				<path class="st12" d="M114.7,178.8c0,0,2.6-3.9,5.7-0.1"/>
				<rect x="75.4" y="153.5" class="st12" width="2.1" height="7.9"/>
				<rect x="84" y="153.5" class="st12" width="2.1" height="7.9"/>
				<rect x="92.6" y="152.7" class="st12" width="2.1" height="7.9"/>
				<rect x="109.1" y="152.7" class="st12" width="2.1" height="7.9"/>
				<rect x="117.6" y="152.7" class="st12" width="2.1" height="7.9"/>
				<rect x="126.2" y="152.7" class="st12" width="2.1" height="7.2"/>
				<rect x="146.2" y="152" class="st12" width="2.9" height="6.4"/>
				<rect x="154.8" y="152" class="st12" width="2.1" height="6.4"/>
				<rect x="170.6" y="151.3" class="st12" width="2.1" height="7.2"/>
				<rect x="185.6" y="151.3" class="st12" width="2.9" height="7.2"/>
				<rect x="177.7" y="151.3" class="st12" width="2.1" height="7.2"/>
				<polyline class="st12" points="126.9,147.4 126.9,146.4 110.5,146.7 76.2,147.2 76.2,148.1 				"/>
				<line class="st12" x1="119.1" y1="146.7" x2="119.1" y2="147.4"/>
				<line class="st12" x1="110.5" y1="146.7" x2="110.5" y2="147.4"/>
				<line class="st12" x1="94" y1="147.4" x2="94" y2="148.1"/>
				<line class="st12" x1="85.5" y1="147.4" x2="85.5" y2="148.1"/>
				<polyline class="st12" points="154.8,147.4 154.8,146.3 147,146.3 147,147.4 				"/>
				<polyline class="st12" points="186.3,145.9 186.3,144.9 171.3,145.5 171.3,146.7 				"/>
				<line class="st12" x1="179.1" y1="145.2" x2="179.1" y2="146.7"/>
				<path class="st12" d="M89.8,103c0,0.3,0,0.6,0,0.9c0,4.6-3.7,8.3-8.3,8.3s-8.3-3.7-8.3-8.3c0-0.6,0.1-1.2,0.2-1.7
					c0.8-3.8,4.1-6.6,8.1-6.6C85.8,95.5,89.4,98.8,89.8,103z"/>
				<path class="st12" d="M86.2,101c0.6,0.9,0.9,1.9,0.9,3c0,3.1-2.5,5.5-5.5,5.5c-3.1,0-5.5-2.5-5.5-5.5c0-1.2,0.4-2.2,1-3.1
					c1-1.4,2.7-2.4,4.5-2.4C83.5,98.5,85.3,99.5,86.2,101C86.2,101,86.2,101,86.2,101z"/>
				<path class="st12" d="M85.9,104c0,2-1.6,3.7-3.7,3.7c-2,0-3.7-1.6-3.7-3.7c0-2,1.6-3.7,3.7-3.7C84.3,100.3,85.9,102,85.9,104z"
					/>
				<path class="st12" d="M63.9,100c0.6,0.7,0.9,1.6,0.9,2.6c0,1-0.4,2-1,2.7c-0.7,0.8-1.8,1.4-3,1.4c-0.4,0-0.7,0-1-0.1
					c-1.1-0.3-2.1-1.1-2.6-2.1c-0.3-0.5-0.4-1.2-0.4-1.8c0-2.2,1.8-4,4.1-4c0.3,0,0.5,0,0.8,0.1C62.5,98.8,63.3,99.3,63.9,100z"/>
				<path class="st12" d="M61.6,98.6l4.3-2.6c0,0,2.2-0.1,1.5,1.9c0,0-3.2,1.6-3.5,2.1"/>
				<path class="st12" d="M57.2,104.4c0,0-2,5.2-1.4,8.9c0,0,1.1,2.1,2.8,0.4c0,0-0.2-5.3,1.2-7"/>
				<path class="st12" d="M152.6,110.1c1-1,2.4-1.7,4-1.7c3.1,0,5.7,2.5,5.7,5.7c0,3.1-2.5,5.7-5.7,5.7c-3.1,0-5.7-2.5-5.7-5.7
					C150.9,112.6,151.6,111.1,152.6,110.1z"/>
				<path class="st12" d="M161.3,114.5c0,2.5-2,4.4-4.4,4.4c-2.5,0-4.4-2-4.4-4.4c0-2.4,2-4.4,4.4-4.4
					C159.4,110.1,161.3,112.1,161.3,114.5z"/>
				<path class="st12" d="M172.2,100.9c0.4,0.4,0.6,0.8,0.6,1.4c0,1.1-0.9,1.9-1.9,1.9c-0.2,0-0.5-0.1-0.7-0.1
					c-0.7-0.3-1.2-1-1.2-1.8c0-0.8,0.5-1.5,1.2-1.8c0.2-0.1,0.5-0.1,0.7-0.1C171.4,100.3,171.9,100.6,172.2,100.9"/>
				<path class="st12" d="M170.2,100.5c0,0-0.4-0.7-2-0.7c0,0-2.1,0.1-2.1,1.9c0,0,0,0.7,0.2,1.4c0.2,0.8,0.7,1.7,1.8,1.7
					c0,0,2-0.1,2-0.8"/>
				<path class="st12" d="M172.7,101c0.1,0.4,0.2,0.8,0.2,1.2c0,2.3-1.9,4.2-4.2,4.2c-1.8,0-3.3-1.1-4-2.7c-0.2-0.5-0.3-1-0.3-1.5
					c0-2.3,1.9-4.2,4.2-4.2C170.6,97.9,172.2,99.2,172.7,101z"/>
				<path class="st12" d="M158.2,98.3c0,0.8-0.6,1.4-1.4,1.4c-0.8,0-1.4-0.6-1.4-1.4s0.6-1.4,1.4-1.4
					C157.6,96.9,158.2,97.5,158.2,98.3z"/>
				<path class="st12" d="M99.9,98.1c0,0.9-0.8,1.7-1.7,1.7c-0.9,0-1.7-0.8-1.7-1.7c0-0.9,0.8-1.7,1.7-1.7
					C99.2,96.4,99.9,97.1,99.9,98.1z"/>
				<path class="st12" d="M194.2,97.9c1.4,0.5,2.5,1.8,2.5,3.4c0,1.9-1.5,3.5-3.3,3.6c-0.1,0-0.2,0-0.3,0c-0.8,0-1.5-0.2-2-0.6
					c-1-0.7-1.6-1.8-1.6-3c0-1.4,0.8-2.7,2.1-3.3c0.5-0.2,1-0.4,1.6-0.4C193.4,97.7,193.8,97.8,194.2,97.9z"/>
				<path class="st12" d="M190.1,104.4c0.3,0,0.6,0,0.9,0"/>
				<path class="st12" d="M189,104.2c0.3,0.1,0.6,0.2,1.1,0.2"/>
				<path class="st12" d="M191.5,98.1c0,0-1-0.9-2.9-0.2c-0.1,0.1-0.3,0.1-0.4,0.2c0,0-1.1,0.6-1.4,2.2c0,0.1,0,0.3,0,0.4
					c0,0-0.3,1.8,1.3,3c0,0,0.3,0.3,0.9,0.5"/>
				<path class="st12" d="M188.6,97.9l-2.5-1.6c0,0-3.5,0.1-1.6,2.4c0,0,1.3,0.8,2.3,1.6"/>
				<path class="st12" d="M193.3,105c1.5,1.5,1.3,8.1,1.3,8.1c-1.7,2-2.8-0.2-2.8-0.2c0.6-3.5-1.8-8.5-1.8-8.5h0l-1.1-0.2l0,0
					l-14.9-2.9l-1.4-0.3l-0.5-0.1h0"/>
				<path class="st12" d="M46.8,147.4c0,0.9-0.7,1.6-1.6,1.6c-0.9,0-1.6-0.7-1.6-1.6c0-0.9,0.7-1.6,1.6-1.6
					C46.1,145.8,46.8,146.6,46.8,147.4z"/>
				<path class="st12" d="M204.9,144.2c0,0.8-0.7,1.5-1.5,1.5c-0.8,0-1.5-0.7-1.5-1.5c0-0.8,0.7-1.5,1.5-1.5
					C204.2,142.7,204.9,143.4,204.9,144.2z"/>
				<path class="st12" d="M59.3,154.8c0.3,0.5,0.4,1,0.4,1.6c0,1.9-1.6,3.5-3.5,3.5c-1.9,0-3.5-1.6-3.5-3.5c0-0.2,0-0.4,0.1-0.6
					c0.1-0.7,0.5-1.4,1-1.9c0.6-0.6,1.5-1,2.5-1h0c0.6,0,1.2,0.2,1.6,0.4c0.3,0.2,0.6,0.4,0.8,0.6C58.9,154.2,59.1,154.5,59.3,154.8
					z"/>
				<path class="st12" d="M58.6,166.4c0,1.2-1,2.2-2.2,2.2c-1.2,0-2.2-1-2.2-2.2c0-1.2,1-2.2,2.2-2.2
					C57.7,164.2,58.6,165.2,58.6,166.4z"/>
				<path class="st12" d="M58,166.3c0,0.9-0.7,1.5-1.5,1.5c-0.9,0-1.5-0.7-1.5-1.5c0-0.9,0.7-1.5,1.5-1.5
					C57.3,164.8,58,165.5,58,166.3z"/>
				<path class="st12" d="M47.1,188.9c0,0.9-0.7,1.6-1.6,1.6c-0.9,0-1.6-0.7-1.6-1.6c0-0.9,0.7-1.6,1.6-1.6
					C46.4,187.3,47.1,188,47.1,188.9z"/>
				<path class="st12" d="M203.8,182.9c0,0.8-0.7,1.5-1.5,1.5c-0.8,0-1.5-0.7-1.5-1.5c0-0.8,0.7-1.5,1.5-1.5
					C203.2,181.4,203.8,182,203.8,182.9z"/>
				<path class="st12" d="M99.4,138.4c-0.7-0.6-1.2-1.5-1.2-2.5c0-1.8,1.4-3.2,3.2-3.2c0.7,0,1.3,0.2,1.8,0.5"/>
				<path class="st12" d="M103.3,133.3c0.8,0.6,1.4,1.5,1.4,2.6c0,1.8-1.4,3.2-3.2,3.2c-0.7,0-1.4-0.2-1.9-0.6"/>
				<path class="st12" d="M103.3,133.3L103.3,133.3l-2.2-1.8c0,0-2-0.4-3.3,1.8c0,0-1.1,1.6-0.4,3.6l2,1.5l0.1,0.1"/>
				<path class="st12" d="M157.6,169.7c0.1,0.1,0.2,0.2,0.3,0.2c0.2,0.2,0.4,0.3,0.5,0.5c0.9,1,1.5,2.4,1.5,3.9
					c0,3.2-2.6,5.8-5.8,5.8c-0.7,0-1.4-0.1-2.1-0.4c-0.9-0.3-1.7-0.9-2.3-1.6c-0.9-1-1.4-2.4-1.4-3.8c0-3.2,2.6-5.8,5.8-5.8
					c1.3,0,2.4,0.4,3.4,1.1"/>
				<path class="st12" d="M157.6,169.7l-0.1-0.1l-3.4-2.5c0,0-2.6-1.6-5.8,1.7c0,0-2.8,2.7-1.5,6.4l2.9,3l0.5,0.5"/>
				<path class="st12" d="M158.5,170.4c0,0-1.3-4.2-4.3-4.8c0,0-4.2-1.4-7.3,2.4c0,0-2.2,2.3-1.9,5.5c0,0,0,3.2,2.7,5.1
					c0,0,2.3,1.6,4.3,1.1"/>
				<path class="st12" d="M185.5,168c0.1,0.1,0.2,0.1,0.3,0.2c0.2,0.2,0.4,0.3,0.5,0.5c1,1,1.5,2.4,1.5,3.9c0,3.2-2.6,5.8-5.8,5.8
					c-0.7,0-1.4-0.1-2.1-0.4c-0.9-0.4-1.7-0.9-2.3-1.7c-0.9-1-1.4-2.4-1.4-3.8c0-3.2,2.6-5.8,5.8-5.8c1.3,0,2.4,0.4,3.4,1.1"/>
				<path class="st12" d="M185.5,168l-0.1-0.1l-3.4-2.5c0,0-2.6-1.6-5.8,1.7c0,0-2.8,2.7-1.5,6.4l2.9,2.9l0.5,0.5"/>
				<path class="st12" d="M186.3,168.7C186.3,168.7,186.3,168.7,186.3,168.7c-0.1-0.3-1.4-4.2-4.3-4.8c0,0-4.2-1.4-7.3,2.4
					c0,0-2.2,2.3-1.9,5.5c0,0,0,3.2,2.7,5.1c0,0,2.3,1.6,4.3,1.2"/>
				<rect x="74.7" y="150.6" class="st12" width="2.1" height="0.7"/>
				<rect x="84" y="150.6" class="st12" width="2.1" height="0.7"/>
				<rect x="92.6" y="150.6" class="st12" width="2.1" height="0.7"/>
				<rect x="109.8" y="149.9" class="st12" width="2.1" height="0.7"/>
				<rect x="126.2" y="149.9" class="st12" width="2.1" height="0.7"/>
				<rect x="117.6" y="149.9" class="st12" width="2.1" height="0.7"/>
				<rect x="146.2" y="149.2" class="st12" width="2.9" height="1.4"/>
				<rect x="154.1" y="149.2" class="st12" width="2.1" height="1.4"/>
				<rect x="169.8" y="148.4" class="st12" width="2.1" height="1.4"/>
				<rect x="177.7" y="148.4" class="st12" width="2.1" height="1.4"/>
				<rect x="185.6" y="147.7" class="st12" width="2.9" height="1.4"/>
				<path class="st12" d="M58.6,174.9c0,1.2-1,2.2-2.2,2.2c-1.2,0-2.2-1-2.2-2.2c0-1.2,1-2.2,2.2-2.2
					C57.7,172.7,58.6,173.7,58.6,174.9z"/>
				<path class="st12" d="M58,174.8c0,0.9-0.7,1.5-1.5,1.5c-0.9,0-1.5-0.7-1.5-1.5c0-0.9,0.7-1.5,1.5-1.5
					C57.3,173.3,58,174,58,174.8z"/>
				<path class="st12" d="M58.6,182.3c0,1.2-1,2.2-2.2,2.2c-1.2,0-2.2-1-2.2-2.2c0-1.2,1-2.2,2.2-2.2
					C57.7,180.1,58.6,181.1,58.6,182.3z"/>
				<circle class="st12" cx="56.4" cy="182.2" r="1.5"/>
				<line class="st12" x1="52.7" y1="155.8" x2="51.8" y2="155.5"/>
				<line class="st12" x1="53.1" y1="154.6" x2="52.2" y2="154.3"/>
				<line class="st12" x1="53.6" y1="153.9" x2="52.8" y2="153.2"/>
				<line class="st12" x1="54.3" y1="153.2" x2="53.8" y2="152.3"/>
				<line class="st12" x1="55.2" y1="152.9" x2="54.9" y2="151.7"/>
				<polyline class="st12" points="56.1,153.1 56.1,152.9 56.1,150.9 				"/>
				<line class="st12" x1="56.9" y1="153" x2="57.4" y2="151.7"/>
				<line class="st12" x1="57.8" y1="153.3" x2="58.4" y2="152.3"/>
				<line class="st12" x1="58.6" y1="153.9" x2="59.5" y2="153.3"/>
				<polyline class="st12" points="59.2,154.8 59.3,154.8 60.3,154.4 				"/>
				<polyline class="st12" points="152.8,108.3 152.8,108.3 164.7,103.7 166.3,103.1 168.7,102.2 				"/>
				<polyline class="st12" points="77,100.9 73.4,102.1 71.9,102.6 71.2,102.8 63.8,105.3 				"/>
				<polyline class="st12" points="56.7,102.6 41.1,78.5 41,78.4 				"/>
				<line class="st12" x1="194.2" y1="97.9" x2="208.5" y2="36.5"/>
			</g>
		</g>
	</g>
</g>
<g id="drive" class="st29">
	
		<image style="display:inline;overflow:visible;" width="600" height="843" xlink:href="insp/824409576735_TTq9U5Cd_l.jpg"  transform="matrix(1 0 0 1 -576.4795 -269.7109)">
	</image>
</g>
<g id="reels_smaller" class="st29">
</g>
<g id="reels_paint" class="st29">
	<g id="XMLID_3_" class="st20">
		<g>
			<path class="st30" d="M187-21.4c31.1,0,56.2,25.2,56.2,56.2c0,31.1-25.2,56.2-56.2,56.2c-31.1,0-56.2-25.2-56.2-56.2
				C130.8,3.8,155.9-21.4,187-21.4z M231.2,18c0,0,1.8-0.4,0.8-2.9c0,0-3.4-9.5-11.1-16.2c0,0-1.2-1.5-2.7,0l-12.7,16.7
				c0,0-1,0.8,0,2.4l5.2,7.7c0,0,0.4,0.8,2.2,0L231.2,18z M201.9,81.3c0,0,1.5-0.5,0.9-3l-7.4-20.7c0,0-0.2-1.5-1.5-1.1
				c0,0-4.6,1.7-8.3,1c0,0-1.5-0.8-1.7,0.9l-2.8,22.8c0,0-0.4,2.4,1.7,2.7C182.8,83.9,194.2,85.5,201.9,81.3z M203.3,34.8
				c0-9-7.3-16.3-16.3-16.3s-16.3,7.3-16.3,16.3c0,9,7.3,16.3,16.3,16.3S203.3,43.9,203.3,34.8z M168.1,21c0,0,0.8-1,0-1.7l-18.6-15
				c0,0-1.9-1.5-3.1,0.4c0,0-5.7,7.9-7.7,18.9c0,0-1,2.1,1.9,2.7l22.2,4.3c0,0,1.5,0.7,1.6-0.9C164.4,29.7,164.9,25.7,168.1,21z"/>
			<path class="st27" d="M187,18.5c9,0,16.3,7.3,16.3,16.3c0,9-7.3,16.3-16.3,16.3s-16.3-7.3-16.3-16.3
				C170.7,25.8,178,18.5,187,18.5z M198.5,34.8c0-6.4-5.1-11.5-11.5-11.5c-6.4,0-11.5,5.2-11.5,11.5c0,6.4,5.2,11.5,11.5,11.5
				C193.4,46.4,198.5,41.2,198.5,34.8z"/>
			<path class="st17" d="M187,23.3c6.4,0,11.5,5.2,11.5,11.5c0,6.4-5.1,11.5-11.5,11.5c-6.4,0-11.5-5.2-11.5-11.5
				C175.5,28.5,180.6,23.3,187,23.3z M192.1,34.8c0-2.8-2.3-5.1-5.1-5.1s-5.1,2.3-5.1,5.1c0,2.8,2.3,5.1,5.1,5.1
				S192.1,37.6,192.1,34.8z"/>
			<path class="st4" d="M187,29.8c2.8,0,5.1,2.3,5.1,5.1c0,2.8-2.3,5.1-5.1,5.1s-5.1-2.3-5.1-5.1C181.9,32,184.2,29.8,187,29.8z"/>
			<path class="st30" d="M68.8-28.8c33,0,59.7,26.7,59.7,59.7c0,33-26.7,59.7-59.7,59.7c-33,0-59.7-26.7-59.7-59.7
				C9.1-2.1,35.8-28.8,68.8-28.8z M120.4,27.8c0,0,0.8-10.7-6.8-20.5c0,0-1.1-0.7-3.3,0.6c0,0-8.9,3.9-15.8,10.7
				c0,0-1.6,1.2-1.3,2.6c0,0,1,4.8,3.1,8.7c0,0,0.3,0.8,2.3,1.2c0,0,8,1.4,19.7-0.9C118.2,30.1,120.5,30.1,120.4,27.8z M86.1,30.8
				c0-9.4-7.6-17.1-17.1-17.1c-2.4,0-4.7,0.5-6.8,1.4c-0.2,0.1-0.4,0.2-0.6,0.3c-5.8,2.7-9.9,8.6-9.9,15.5c0,9.4,7.6,17.1,17.1,17.1
				c2.4,0,4.7-0.5,6.8-1.4c0.2-0.1,0.4-0.2,0.6-0.3C82,43.6,86.1,37.7,86.1,30.8z M70,80.1c0,0,1.6-11.2-0.4-20.7c0,0-0.2-2-1.5-2.5
				c0,0-4.5-1.7-9-2.1c0,0-0.9-0.2-2.2,1.3c0,0-5.8,6.4-10.2,17.5c0,0-1.2,2,0.7,3.1c0,0,8.6,6.5,21,5.4
				C68.5,82.1,69.9,82.6,70,80.1z M54.9,9.5c0,0,0.6-0.7,0-2.6c0,0-2.6-8.3-9.9-17.6c0,0-1.1-2.1-3-0.9c0,0-9.9,4.1-15.3,15.3
				c0,0-1.1,1,0.9,2.4c0,0,8.8,7,18,10.1c0,0,1.8,0.9,2.9,0C48.6,16.2,52.4,13.2,54.9,9.5z"/>
			<path class="st19" d="M69,13.8c9.4,0,17.1,7.6,17.1,17.1c0,6.9-4,12.8-9.9,15.5c5.7-2.8,9.7-8.6,9.7-15.4
				c0-9.4-7.6-17.1-17.1-17.1c-2.3,0-4.6,0.5-6.6,1.3C64.3,14.3,66.6,13.8,69,13.8z"/>
			<path class="st27" d="M68.8,13.9c9.4,0,17.1,7.6,17.1,17.1c0,6.8-3.9,12.6-9.7,15.4c-0.2,0.1-0.4,0.2-0.6,0.3
				c-2,0.9-4.3,1.3-6.6,1.3c-9.4,0-17.1-7.6-17.1-17.1c0-6.8,3.9-12.6,9.7-15.4c0.2-0.1,0.4-0.2,0.6-0.3
				C64.2,14.3,66.4,13.9,68.8,13.9z M80.3,30.9c0-6.4-5.2-11.5-11.5-11.5c-6.4,0-11.5,5.2-11.5,11.5c0,6.4,5.2,11.5,11.5,11.5
				C75.1,42.4,80.3,37.3,80.3,30.9z"/>
			<path class="st17" d="M68.8,19.4c6.4,0,11.5,5.2,11.5,11.5c0,6.4-5.2,11.5-11.5,11.5c-6.4,0-11.5-5.2-11.5-11.5
				C57.3,24.6,62.4,19.4,68.8,19.4z M73.8,30.9c0-2.8-2.3-5.1-5.1-5.1c-2.8,0-5.1,2.3-5.1,5.1c0,2.8,2.3,5.1,5.1,5.1
				C71.6,36,73.8,33.7,73.8,30.9z"/>
			<path class="st4" d="M68.8,25.9c2.8,0,5.1,2.3,5.1,5.1c0,2.8-2.3,5.1-5.1,5.1c-2.8,0-5.1-2.3-5.1-5.1
				C63.7,28.1,66,25.9,68.8,25.9z"/>
			<path class="st19" d="M69,47.9c2.3,0,4.6-0.5,6.6-1.3c-2.1,0.9-4.4,1.4-6.8,1.4c-9.4,0-17.1-7.6-17.1-17.1c0-6.9,4-12.8,9.9-15.5
				c-5.7,2.8-9.7,8.6-9.7,15.4C51.9,40.2,59.6,47.9,69,47.9z"/>
		</g>
		<g>
			<path class="st12" d="M68.8-28.8c33,0,59.7,26.7,59.7,59.7c0,33-26.7,59.7-59.7,59.7c-33,0-59.7-26.7-59.7-59.7
				C9.1-2.1,35.8-28.8,68.8-28.8z"/>
			<path class="st12" d="M187-21.4c31.1,0,56.2,25.2,56.2,56.2c0,31.1-25.2,56.2-56.2,56.2c-31.1,0-56.2-25.2-56.2-56.2
				C130.8,3.8,155.9-21.4,187-21.4z"/>
			<path class="st12" d="M54.9,9.5c0,0,0.6-0.7,0-2.6c0,0-2.6-8.3-9.9-17.6c0,0-1.1-2.1-3-0.9c0,0-9.9,4.1-15.3,15.3
				c0,0-1.1,1,0.9,2.4c0,0,8.8,7,18,10.1c0,0,1.8,0.9,2.9,0C48.6,16.2,52.4,13.2,54.9,9.5z"/>
			<path class="st12" d="M70,80.1c0,0,1.6-11.2-0.4-20.7c0,0-0.2-2-1.5-2.5c0,0-4.5-1.7-9-2.1c0,0-0.9-0.2-2.2,1.3
				c0,0-5.8,6.4-10.2,17.5c0,0-1.2,2,0.7,3.1c0,0,8.6,6.5,21,5.4C68.5,82.1,69.9,82.6,70,80.1z"/>
			<path class="st12" d="M120.4,27.8c0,0,0.8-10.7-6.8-20.5c0,0-1.1-0.7-3.3,0.6c0,0-8.9,3.9-15.8,10.7c0,0-1.6,1.2-1.3,2.6
				c0,0,1,4.8,3.1,8.7c0,0,0.3,0.8,2.3,1.2c0,0,8,1.4,19.7-0.9C118.2,30.1,120.5,30.1,120.4,27.8z"/>
			<path class="st12" d="M62.2,15.2c2-0.9,4.2-1.3,6.6-1.3c9.4,0,17.1,7.6,17.1,17.1c0,6.8-3.9,12.6-9.7,15.4
				c-0.2,0.1-0.4,0.2-0.6,0.3c-2.1,0.9-4.4,1.4-6.8,1.4c-9.4,0-17.1-7.6-17.1-17.1c0-6.9,4-12.8,9.9-15.5
				C61.8,15.4,62,15.3,62.2,15.2z"/>
			<path class="st12" d="M80.3,30.9c0,6.4-5.2,11.5-11.5,11.5c-6.4,0-11.5-5.2-11.5-11.5c0-6.4,5.2-11.5,11.5-11.5
				C75.1,19.4,80.3,24.6,80.3,30.9z"/>
			<path class="st12" d="M73.8,30.9c0,2.8-2.3,5.1-5.1,5.1c-2.8,0-5.1-2.3-5.1-5.1c0-2.8,2.3-5.1,5.1-5.1
				C71.6,25.9,73.8,28.1,73.8,30.9z"/>
			<path class="st12" d="M231.2,18c0,0,1.8-0.4,0.8-2.9c0,0-3.4-9.5-11.1-16.2c0,0-1.2-1.5-2.7,0l-12.7,16.7c0,0-1,0.8,0,2.4
				l5.2,7.7c0,0,0.4,0.8,2.2,0L231.2,18z"/>
			<path class="st12" d="M201.9,81.3c0,0,1.5-0.5,0.9-3l-7.4-20.7c0,0-0.2-1.5-1.5-1.1c0,0-4.6,1.7-8.3,1c0,0-1.5-0.8-1.7,0.9
				l-2.8,22.8c0,0-0.4,2.4,1.7,2.7C182.8,83.9,194.2,85.5,201.9,81.3z"/>
			<path class="st12" d="M168.1,21c0,0,0.8-1,0-1.7l-18.6-15c0,0-1.9-1.5-3.1,0.4c0,0-5.7,7.9-7.7,18.9c0,0-1,2.1,1.9,2.7l22.2,4.3
				c0,0,1.5,0.7,1.6-0.9C164.4,29.7,164.9,25.7,168.1,21z"/>
			<path class="st12" d="M203.3,34.8c0,9-7.3,16.3-16.3,16.3s-16.3-7.3-16.3-16.3c0-9,7.3-16.3,16.3-16.3S203.3,25.8,203.3,34.8z"/>
			<path class="st12" d="M198.5,34.8c0,6.4-5.1,11.5-11.5,11.5c-6.4,0-11.5-5.2-11.5-11.5c0-6.4,5.2-11.5,11.5-11.5
				C193.4,23.3,198.5,28.5,198.5,34.8z"/>
			<path class="st12" d="M192.1,34.8c0,2.8-2.3,5.1-5.1,5.1s-5.1-2.3-5.1-5.1c0-2.8,2.3-5.1,5.1-5.1S192.1,32,192.1,34.8z"/>
		</g>
	</g>
</g>
</svg>
