<?xml version="1.0" encoding="utf-8"?>
<!-- Generator: Adobe Illustrator 16.0.0, SVG Export Plug-In . SVG Version: 6.00 Build 0)  -->
<!DOCTYPE svg PUBLIC "-//W3C//DTD SVG 1.1//EN" "http://www.w3.org/Graphics/SVG/1.1/DTD/svg11.dtd">
<svg version="1.1" xmlns="http://www.w3.org/2000/svg" xmlns:xlink="http://www.w3.org/1999/xlink" x="0px" y="0px" width="158.3px"
	 height="158.3px" viewBox="0 0 158.3 158.3" style="enable-background:new 0 0 158.3 158.3;" xml:space="preserve">
<style type="text/css">
<![CDATA[
	.st0{fill:#48555E;}
	.st1{fill:#7C9499;}
	.st2{display:inline;fill:none;stroke:#0B0146;stroke-width:0.9033;stroke-miterlimit:10;}
	.st3{fill:#111516;}
	.st4{fill:#B0B6B7;}
	.st5{fill:#B1E4EF;}
	.st6{display:inline;fill:none;stroke:#0B0146;stroke-miterlimit:10;}
	.st7{display:inline;fill:none;stroke:#0B0146;stroke-width:0.9243;stroke-miterlimit:10;}
	.st8{display:inline;fill:none;stroke:#0B0146;stroke-width:0.7161;stroke-miterlimit:10;}
	.st9{fill:#1B2123;}
	.st10{display:inline;fill:none;stroke:#0B0146;stroke-width:1.2001;stroke-miterlimit:10;}
	.st11{fill:#8AB0BC;}
	.st12{fill:none;stroke:#221F20;stroke-miterlimit:10;}
	.st13{fill:#5D777F;}
	.st14{fill:#C11616;}
	.st15{display:inline;opacity:0.6;fill:#435054;}
	.st16{display:inline;fill:none;stroke:#0B0146;stroke-width:1.0603;stroke-miterlimit:10;}
	.st17{fill:#C7CFD1;}
	.st18{fill:#2E3738;}
	.st19{display:inline;}
	.st20{fill:#30393D;}
	.st21{fill:#9ECBDC;}
	.st22{display:inline;fill:none;stroke:#0B0146;stroke-width:1.0352;stroke-miterlimit:10;}
	.st23{fill:#6E8389;}
	.st24{display:inline;fill:none;stroke:#0B0146;stroke-width:0.9813;stroke-miterlimit:10;}
	.st25{fill:#3A4549;}
	.st26{fill:#D7E0E3;}
	.st27{display:inline;fill:none;stroke:#0B0146;stroke-width:0.9634;stroke-miterlimit:10;}
	.st28{display:none;}
	.st29{fill:#73949B;}
]]>
</style>
<g id="photo" class="st28">
	
		<image style="display:inline;overflow:visible;opacity:0.6;" width="1193" height="1200" xlink:href="tape_02.jpg"  transform="matrix(0.2784 0 0 0.2784 -176.3428 -13.4927)">
	</image>
</g>
<g id="body" class="st28">
	<path class="st6" d="M-114.8,48.5v138l-0.1,188.3c0,0-1.2,4.2,4,4.2L173,367.5c0,0,1.7,0.3,1.7-1.7l4.3-174l3.3-137.3
		c0-3.2-3.3-3-3.3-3L59.4,47.8l-32.9-1.3l-133.6-5C-107.1,41.5-114.8,40.2-114.8,48.5z"/>
	<path class="st6" d="M-109.6,385.6l-1.4,5.8c0,0-0.6,1.3,1.4,1.3l15-0.5c0,0,1.4,0,1-1.8l-1.3-5.3"/>
	<line class="st6" x1="-112.5" y1="379.1" x2="-111" y2="392.1"/>
	<line class="st6" x1="-94.6" y1="378.4" x2="-93.5" y2="391.3"/>
	<path class="st6" d="M143.5,368.7l15.5,11.6c0,0,1.5,1.2,3.9,1l11.2-0.3c0,0,1.2,0,1.3-2l-0.3-4.5c0,0-0.4-1.1-1.6-1.9l-4.9-5"/>
	<path class="st6" d="M174.7,374h-12c0,0-1.4-0.1-1.5,1.4l-0.6,4.1c0,0-0.2,1.4,1,1.9"/>
	<line class="st6" x1="161.5" y1="374" x2="154.9" y2="368.2"/>
	<path class="st6" d="M-22.1,224.8l4.2-1.8l103,0.5c1.9-0.1,1.8,0.1,1.8,0.1l1.5,2.2l-22.5,23.5c-1.2,1.2-2.1,1.6-2.1,1.6H0
		c-1.9,0-2.5-1.2-2.5-1.2l-16.9-18l-1.8-1.5l-3.8-25c0.6-2.3,4.5-2.2,4.5-2.2l10.8-0.1l4.4,2.6c0,0,0.4,0.2,1.2-0.9l4.3-10.2
		L21,165.3c0,0,0.4-1.1,2.7-1.1l39.4,0.5c0,0,1.7-0.3,2.9,1.8l18.3,27.8l9.4,12c0,0,0.1-0.4,0,0.5c0,0.2,0,0.5,0,0.9l4.6,5.8
		c0,0,0.3,0.9-0.5,1.8l-7.7,8.7c0,0-0.6,0.6-1.6-0.3l-2.1-2.1l-11.2-0.1v-6.9l-69.2-0.1L5.7,221l-24.7-0.2l0.4-13.2
		c0,0,0.1-2.1,2.8-2l109.5,1.1"/>
	<path class="st6" d="M64.9,165l-3.7-2.5c0,0-1.1-0.6-3-0.6l-39.3-0.7c0,0-1.5-0.1-3.5,3.1L-12,201h-45.4c0,0-1.5-0.4-1.5,3v29.5
		l17.8,17.5l40-0.2"/>
	<polyline class="st6" points="63.7,251 102.9,251 120.2,233.5 	"/>
	<polyline class="st6" points="-57.3,201.1 -60.8,202.2 -60.8,241.5 -45.8,257.5 18.7,257.8 	"/>
	<polyline class="st6" points="18.2,251.5 18.2,262.5 20.3,264 36.2,264 36.2,259 20.7,259 	"/>
	<line class="st6" x1="20.2" y1="264.5" x2="20.2" y2="251.5"/>
	<polyline class="st6" points="37.8,251.5 36.7,257.8 105.4,257 120.2,241.5 120.2,202 90.7,202 	"/>
	<polygon class="st6" points="29.9,173.7 56.2,174 56.2,184 29.7,184 	"/>
	<rect x="64.2" y="178" class="st6" width="4" height="6"/>
	<polyline class="st6" points="64.2,177.9 63.2,177 67.7,177 68.2,177.5 	"/>
	<polyline class="st6" points="63.2,177.5 63.2,182.5 63.7,184 	"/>
	<rect x="19.2" y="177" class="st6" width="4" height="6"/>
	<polyline class="st6" points="19.2,176.9 18.2,176 22.7,176 23.2,176.5 	"/>
	<polyline class="st6" points="18.2,176.5 18.2,181.5 18.7,183 	"/>
	<path class="st6" d="M-94.6,378.4l0,5.8c0.1,1-0.7,1.2-0.7,1.2l-13.5,0.5c-1.1,0-1-1-1-1l-1.2-5.9c-3.1-1.4-1.9-4.6-1.9-4.6v-329
		c0,0,1-4.2,4.5-4.1"/>
	<polyline class="st6" points="177.4,257.8 36.2,259 36.7,257.8 	"/>
	<line class="st6" x1="17.7" y1="259" x2="-111.3" y2="259"/>
	<rect x="6.2" y="225" class="st6" width="56" height="12"/>
	<polygon class="st6" points="-100.8,267.2 165.2,264 165.2,282.5 -100.8,287 	"/>
	<rect x="30.2" y="267" class="st6" width="15" height="10"/>
	<path class="st6" d="M53,272"/>
	<polygon class="st6" points="53.2,281.5 53.2,271.5 124.2,270.5 124.2,280.5 	"/>
	<line class="st6" x1="71.2" y1="271.5" x2="71.2" y2="281.5"/>
	<line class="st6" x1="89.2" y1="270.5" x2="89.2" y2="280.5"/>
	<line class="st6" x1="107.2" y1="270.5" x2="107.2" y2="280.5"/>
	<polygon class="st6" points="128.2,271 162.2,271 162.2,279.5 128.2,280.5 	"/>
	<line class="st6" x1="145.2" y1="271.5" x2="145.2" y2="280.5"/>
	<rect x="-94.8" y="273" class="st6" width="11" height="12"/>
	<rect x="-67.8" y="272" class="st6" width="5" height="12"/>
	<rect x="-52.8" y="272" class="st6" width="5" height="12"/>
	<rect x="-37.8" y="272" class="st6" width="5" height="12"/>
	<rect x="20.2" y="280" class="st6" width="6" height="3"/>
	<polyline class="st6" points="20.2,283.2 18.2,281.5 18.2,277.5 20.2,280 	"/>
	<polyline class="st6" points="17.7,278 23.7,278 26.2,279.7 	"/>
	<polyline class="st6" points="25.2,279.5 25.2,271 18.2,271 18.2,277.5 	"/>
	<path class="st6" d="M-62.2,330.3l51.3-0.7c0,0,1.8-0.2,1.8,1.8l-0.4,27.3c0,0,0.1,1.1-1.4,1.1l-50.8,1.3c0,0-1.2,0.1-1.2-2.1
		v-27.4C-62.8,331.5-63.1,330.6-62.2,330.3z"/>
	<path class="st6" d="M-3.2,329.3l51.3-0.7c0,0,1.8-0.2,1.8,1.8l-0.4,25.3c0,0,0.1,2.1-1.4,2.1l-50.8,1.3c0,0-1.2,0.1-1.2-2.1v-26.4
		C-3.8,330.5-4.1,329.6-3.2,329.3z"/>
	<polygon class="st6" points="-60.8,332.9 -11.8,332 -11.8,356.5 -60.8,357.5 	"/>
	<polygon class="st6" points="-1.8,332.1 47.2,331.2 47.2,354.5 -1.8,355.8 	"/>
	<path class="st6" d="M-53,341.5c0,0,15.6-5.5,32.4-0.8"/>
	<line class="st6" x1="-52.5" y1="338.8" x2="-51.5" y2="341"/>
	<line class="st6" x1="-48.1" y1="337.8" x2="-47.5" y2="339.9"/>
	<line class="st6" x1="-43.9" y1="337.1" x2="-43.5" y2="339.4"/>
	<line class="st6" x1="-39.8" y1="336.5" x2="-39.8" y2="339.5"/>
	<line class="st6" x1="-34.8" y1="336.5" x2="-34.8" y2="338.5"/>
	<line class="st6" x1="-28.6" y1="337.1" x2="-29" y2="339.1"/>
	<line class="st6" x1="-23.2" y1="338.3" x2="-23.9" y2="339.9"/>
	<path class="st6" d="M5,339.5c0,0,15.6-5.5,32.4-0.8"/>
	<line class="st6" x1="5.5" y1="336.8" x2="6.5" y2="339"/>
	<line class="st6" x1="9.9" y1="335.8" x2="10.5" y2="337.9"/>
	<line class="st6" x1="14.1" y1="335.1" x2="14.5" y2="337.4"/>
	<line class="st6" x1="18.2" y1="334.5" x2="18.2" y2="337.5"/>
	<line class="st6" x1="23.2" y1="334.5" x2="23.2" y2="336.5"/>
	<line class="st6" x1="29.4" y1="335.1" x2="29" y2="337.1"/>
	<line class="st6" x1="34.8" y1="336.3" x2="34.1" y2="337.9"/>
	<path class="st6" d="M-42,357.1c0,0,4.9-6.7,9.7-0.2"/>
	<path class="st6" d="M16,355.3c0,0,4.5-6.8,10.1-0.3"/>
	<rect x="-52.8" y="311" class="st6" width="4" height="13"/>
	<rect x="-37.8" y="311" class="st6" width="4" height="13"/>
	<rect x="-22.8" y="310" class="st6" width="4" height="13"/>
	<rect x="6.2" y="310" class="st6" width="4" height="13"/>
	<rect x="21.2" y="310" class="st6" width="4" height="13"/>
	<rect x="36.2" y="309" class="st6" width="4" height="13"/>
	<rect x="72.2" y="308" class="st6" width="4" height="12"/>
	<rect x="86.2" y="308" class="st6" width="4" height="12"/>
	<rect x="114.2" y="307" class="st6" width="4" height="12"/>
	<rect x="141.2" y="307" class="st6" width="4" height="12"/>
	<rect x="127.2" y="307" class="st6" width="4" height="12"/>
	<polyline class="st6" points="37.2,299.5 37.2,298.2 -51.8,299.6 -51.8,301.5 	"/>
	<line class="st6" x1="23.2" y1="298.5" x2="23.2" y2="299.5"/>
	<line class="st6" x1="8.2" y1="298.5" x2="8.2" y2="299.5"/>
	<line class="st6" x1="-20.8" y1="299.5" x2="-20.8" y2="301.5"/>
	<line class="st6" x1="-35.8" y1="299.5" x2="-35.8" y2="301.5"/>
	<polyline class="st6" points="87.2,299.5 87.2,298 73.2,298 73.2,299.5 	"/>
	<polyline class="st6" points="142.2,297.5 142.2,295.6 115.2,296.6 115.2,298.5 	"/>
	<line class="st6" x1="129.2" y1="296.5" x2="129.2" y2="298.5"/>
	<circle class="st22" cx="-42.2" cy="223.4" r="14.6"/>
	<circle class="st16" cx="-42.1" cy="223.7" r="9.7"/>
	<circle class="st10" cx="-40.9" cy="223.7" r="6.4"/>
	<circle class="st10" cx="-78.7" cy="221.1" r="7.1"/>
	<path class="st10" d="M-76.6,214l6.9-4.5c0,0,3.9-0.2,2.6,3.4c0,0-5.6,2.8-6.1,3.7"/>
	<path class="st10" d="M-85.1,224.3c0,0-3.5,9.2-2.5,15.6c0,0,2,3.6,4.9,0.6c0,0-0.4-9.4,2.1-12.2"/>
	<circle class="st10" cx="89.8" cy="241.5" r="10"/>
	<circle class="st6" cx="90.3" cy="242.2" r="7.8"/>
	<circle class="st6" cx="114.9" cy="220.6" r="3.4"/>
	<path class="st6" d="M113.7,217.5c0,0-0.7-1.3-3.4-1.3c0,0-3.7,0.1-3.7,3.4c0,0-0.1,5.6,3.6,5.6c0,0,3.6-0.1,3.6-1.4"/>
	<circle class="st6" cx="111" cy="220.5" r="7.5"/>
	<circle class="st6" cx="90.2" cy="213.7" r="2.5"/>
	<circle class="st6" cx="-12.9" cy="213.2" r="3"/>
	<circle class="st6" cx="153.9" cy="219" r="6.4"/>
	<path class="st6" d="M151.1,213.3c0,0-2-1.8-5.7,0c0,0-2.3,1.3-2.5,4.6c0,0-0.4,3.2,2.3,5.2c0,0,1.9,1.6,5.1,1.1"/>
	<path class="st6" d="M146.1,213l-4.3-2.7c0,0-6.1,0.1-2.9,4.2c0,0,2.2,1.4,4.1,2.8"/>
	<path class="st6" d="M148.7,224.4c0,0,4.1,8.8,3.1,14.9c0,0,2,3.9,4.9,0.4c0,0,0.3-11.6-2.4-14.3"/>
	<circle class="st6" cx="-106.2" cy="300.1" r="2.8"/>
	<circle class="st6" cx="172.1" cy="294.4" r="2.7"/>
	<path class="st6" d="M-80.7,315.8c0,3.4-2.8,6.2-6.2,6.2s-6.2-2.8-6.2-6.2c0-1.7,0.7-3.3,1.8-4.4c1.1-1.1,2.7-1.8,4.4-1.8
		C-83.5,309.6-80.7,312.4-80.7,315.8z"/>
	<circle class="st6" cx="-86.3" cy="333.3" r="3.8"/>
	<circle class="st8" cx="-86.4" cy="333.3" r="2.7"/>
	<circle class="st6" cx="-105.6" cy="373" r="2.8"/>
	<circle class="st6" cx="170.2" cy="362.4" r="2.6"/>
	<circle class="st6" cx="-7.2" cy="279.8" r="5.6"/>
	<path class="st6" d="M-4,275.1l-3.8-3.1c0,0-3.4-0.7-5.9,3.1c0,0-1.9,2.9-0.6,6.4l3.7,2.8"/>
	<path class="st6" d="M95.7,347.4c0,5.7-4.6,10.3-10.3,10.3c-5.7,0-10.3-4.6-10.3-10.3c0-5.7,4.6-10.3,10.3-10.3
		c2.5,0,4.9,0.9,6.7,2.5C94.3,341.4,95.7,344.3,95.7,347.4z"/>
	<path class="st6" d="M91.6,339.1l-6.2-4.5c0,0-4.6-2.8-10.3,3c0,0-4.9,4.8-2.6,11.2l5.9,6.1"/>
	<path class="st6" d="M93.1,340.5c0,0-2.3-7.3-7.6-8.4c0,0-7.4-2.5-12.8,4.2c0,0-3.8,4-3.3,9.7c0,0-0.1,5.7,4.8,9c0,0,4,2.8,7.6,2"
		/>
	<path class="st6" d="M144.7,344.4c0,5.7-4.6,10.3-10.3,10.3c-5.7,0-10.3-4.6-10.3-10.3c0-5.7,4.6-10.3,10.3-10.3
		c2.5,0,4.9,0.9,6.7,2.5C143.3,338.4,144.7,341.3,144.7,344.4z"/>
	<path class="st6" d="M140.6,336.1l-6.2-4.5c0,0-4.6-2.8-10.3,3c0,0-4.9,4.8-2.6,11.2l5.9,6.1"/>
	<path class="st6" d="M142.1,337.5c0,0-2.3-7.3-7.6-8.4c0,0-7.4-2.5-12.8,4.2c0,0-3.8,4-3.3,9.7c0,0-0.1,5.7,4.8,9c0,0,4,2.8,7.6,2"
		/>
	<rect x="-53.8" y="305" class="st6" width="4" height="2"/>
	<rect x="-37.8" y="305" class="st6" width="4" height="2"/>
	<rect x="-22.8" y="305" class="st6" width="4" height="2"/>
	<rect x="7.2" y="304" class="st6" width="4" height="2"/>
	<rect x="36.2" y="304" class="st6" width="4" height="2"/>
	<rect x="21.2" y="304" class="st6" width="4" height="2"/>
	<rect x="72.2" y="303" class="st6" width="4" height="2"/>
	<rect x="85.2" y="303" class="st6" width="4" height="2"/>
	<rect x="113.2" y="302" class="st6" width="4" height="2"/>
	<rect x="127.2" y="302" class="st6" width="4" height="2"/>
	<rect x="141.2" y="301" class="st6" width="4" height="2"/>
	<circle class="st6" cx="-86.3" cy="348.3" r="3.8"/>
	<circle class="st8" cx="-86.4" cy="348.3" r="2.7"/>
	<circle class="st6" cx="-86.3" cy="361.3" r="3.8"/>
	<circle class="st8" cx="-86.4" cy="361.3" r="2.7"/>
	<line class="st6" x1="-93" y1="314.7" x2="-94.6" y2="314.3"/>
	<line class="st6" x1="-92.2" y1="312.6" x2="-93.8" y2="312.1"/>
	<path class="st6" d="M-93,309.6"/>
	<line class="st6" x1="-91.3" y1="311.4" x2="-92.7" y2="310.2"/>
	<line class="st6" x1="-90.1" y1="310.2" x2="-91" y2="308.7"/>
	<line class="st6" x1="-88.5" y1="309.6" x2="-89.1" y2="307.6"/>
	<line class="st6" x1="-86.8" y1="309.5" x2="-86.8" y2="306.5"/>
	<line class="st6" x1="-85.5" y1="309.8" x2="-84.7" y2="307.6"/>
	<line class="st6" x1="-84" y1="310.4" x2="-82.8" y2="308.7"/>
	<line class="st6" x1="-82.5" y1="311.4" x2="-81" y2="310.4"/>
	<line class="st6" x1="-81.4" y1="313" x2="-79.6" y2="312.4"/>
	<line class="st6" x1="-80.3" y1="315" x2="-79.3" y2="315"/>
</g>
<g id="reels" class="st28">
	<circle class="st24" cx="-64.7" cy="95.2" r="105"/>
	<circle class="st7" cx="143.2" cy="102.1" r="98.9"/>
	<path class="st7" d="M-106.5,22c0,0-2-3.7-5.3-1.7c0,0-17.5,7.2-26.8,27c0,0-2,1.7,1.7,4.2c0,0,15.5,12.3,31.7,17.8
		c0,0,3.2,1.5,5.2,0c0,0,6.7-5.3,11.2-11.8c0,0,1-1.2,0-4.5C-89,53-93.6,38.4-106.5,22z"/>
	<path class="st7" d="M-103.3,169.1c0,0-2.1,3.6,1.3,5.4c0,0,15,11.5,36.9,9.4c0,0,2.5,0.9,2.7-3.5c0,0,2.8-19.6-0.7-36.3
		c0,0-0.3-3.5-2.6-4.5c0,0-8-3-15.9-3.6c0,0-1.5-0.3-3.9,2.3C-85.5,138.3-95.7,149.6-103.3,169.1z"/>
	<path class="st7" d="M22.2,93.8c0,0,4.2-0.1,3.9-4c0,0,1.5-18.9-12-36.1c0,0-1.9-1.2-5.8,1c0,0-15.7,6.9-27.9,18.9
		c0,0-2.8,2.2-2.3,4.6c0,0,1.8,8.4,5.5,15.3c0,0,0.6,1.4,4,2C-12.4,95.4,1.7,97.9,22.2,93.8z"/>
	<circle class="st7" cx="-99.5" cy="105.7" r="3.2"/>
	<circle class="st7" cx="-34.5" cy="122.7" r="3.2"/>
	<circle class="st7" cx="-52.5" cy="58.7" r="3.2"/>
	<path class="st2" d="M-32.6,94.2c0,16-13,27.5-29,27.5c-16,0-29-11.5-29-27.5c0-16,13-29,29-29C-45.6,65.2-32.6,78.1-32.6,94.2z"/>
	<circle class="st2" cx="-63" cy="95" r="30"/>
	<circle class="st2" cx="-62.3" cy="94.7" r="8.9"/>
	<circle class="st2" cx="-61.3" cy="92.7" r="3.3"/>
	<circle class="st2" cx="-62.4" cy="94.2" r="19.5"/>
	<polygon class="st2" points="-54.7,13.1 -43.3,15.4 -49.3,47.5 -60.7,44.9 	"/>
	<polygon class="st2" points="-21.7,125 -33.7,137.5 3,173.1 15.2,160.1 	"/>
	<path class="st7" d="M191.7,38.8l-22.3,29.3c0,0-1.8,1.5,0,4.2l9.2,13.5c0,0,0.7,1.3,3.8,0l32.3-13.3c0,0,3.2-0.7,1.3-5.2
		c0,0-6-16.7-19.5-28.5C196.5,38.8,194.4,36.2,191.7,38.8z"/>
	<path class="st7" d="M155.5,142.7c0,0-8,3-14.7,1.8c0,0-2.7-1.3-3,1.5l-5,40.2c0,0-0.7,4.2,3,4.7c0,0,20,2.8,33.7-4.5
		c0,0,2.7-0.8,1.7-5.3l-13-36.3C158.2,144.7,157.7,142,155.5,142.7z"/>
	<path class="st7" d="M110,74.7L77.3,48.4c0,0-3.3-2.6-5.5,0.8c0,0-10,13.8-13.5,33.2c0,0-1.7,3.7,3.3,4.7l39,7.5
		c0,0,2.7,1.2,2.8-1.5c0,0,0.8-7,6.5-15.3C110,77.7,111.3,75.8,110,74.7z"/>
	<circle class="st7" cx="108.2" cy="106.2" r="2.8"/>
	<circle class="st7" cx="156.7" cy="69.7" r="2.8"/>
	<circle class="st7" cx="163.6" cy="132.1" r="2.8"/>
	<circle class="st7" cx="146.8" cy="138.5" r="4.5"/>
	<circle class="st7" cx="148.5" cy="101" r="26.3"/>
	<circle class="st27" cx="146.5" cy="101.5" r="28.7"/>
	<circle class="st27" cx="148.7" cy="100.3" r="17.7"/>
	<circle class="st27" cx="150.2" cy="100.6" r="3.6"/>
	<circle class="st27" cx="147.6" cy="101.9" r="7.1"/>
	<path class="st6" d="M138.7,65.2l-4.7,0.9c0,0-2.1,0.9,0,1.9h4.6L138.7,65.2z"/>
	<polygon class="st6" points="108.6,30 161.2,25.5 161.2,33.5 110.6,37.7 	"/>
</g>
<g id="body_smaller" class="st28">
	<ellipse class="st15" cx="-10.3" cy="305" rx="172" ry="16.5"/>
	<g id="XMLID_2_" class="st19">
		<g>
			<path class="st0" d="M-80.4,158c-0.1,0-0.6-0.1-1,0.3l-1.5,0.5v15.4l-10.3,3.4c0.9-1,1.5-2.3,1.5-3.8c0-1.4-0.5-2.6-1.3-3.6h0
				c0.4-0.7,4.9-3,4.9-3c1-2.9-2.1-2.7-2.1-2.7l-6,3.7c-0.4-0.1-0.7-0.1-1.1-0.1c-3.1,0-5.7,2.5-5.7,5.7l-21.8-33.7v-106
				c0,0,0.6-2.3,2.4-3c0,0,0,0,0,0c1.3-0.4,2.6-0.2,2.6-0.2l106.1,4L12.5,36l95.1,2.9c0,0,2.6-0.1,2.6,2.4l-1,40.2l-20.1,85.8v0
				c-0.5-0.2-1-0.3-1.6-0.3c-0.8,0-1.5,0.2-2.2,0.5c0,0-1.4-1.3-4-0.2l-3.4-2.2c0,0-4.8,0.1-2.3,3.4c0,0,1.8,1.1,3.2,2.2
				c0,0.2,0,0.4-0.1,0.5c0,0-0.3,2.5,1.8,4.2c0,0,0.4,0.4,1.2,0.7L61.2,172v-13H37.7l-0.2,0.1l-5.2-6.7l-14.6-22.1
				c-0.3-0.5-0.7-0.9-1-1.1l0.1-0.1l-2.9-2c0,0-0.9-0.5-2.4-0.5l-31.2-0.6c0,0-1.2,0-2.8,2.6L-44.3,158L-80.4,158
				C-80.3,158-80.4,158-80.4,158z"/>
			<path class="st0" d="M109.3,81.5l-1.7,69l-1.3,52.4h0l-112.1,1H-6l0.4-1l0.1,0l0,0.1l54.8-0.6L61.2,190v-5.9V172l20.8,4.1l0,0
				c0.4,0.1,0.9,0.2,1.5,0.3h0c0,0,3.3,7,2.5,11.9c0,0,1.6,3.1,3.9,0.3c0,0,0.2-9.2-1.9-11.4c2.6-0.2,4.7-2.4,4.7-5
				c0-2.2-1.5-4.1-3.5-4.8v0L109.3,81.5z"/>
			<path class="st13" d="M78.2,266.3c-0.1-0.3-2-5.8-6-6.7c0,0-5.9-2-10.2,3.3c0,0-3,3.2-2.7,7.7c0,0-0.1,4.5,3.8,7.1
				c0,0,3.2,2.2,6.1,1.6c0.9,0.3,1.9,0.5,2.9,0.5c4.5,0,8.2-3.7,8.2-8.2C80.3,269.7,79.5,267.8,78.2,266.3L78.2,266.3z M-18.8,207.7
				l0.2,0.3h12.8v-4v-0.1l112.1-1h0l-2.1,85.9c0,1.6-1.3,1.3-1.3,1.3l-3.5,0.1l-10.9,0.4l-9.1,0.4l-189.3,7.7h0l-12.9,0.5
				c-0.1,0-0.2,0-0.2,0c-2.4-1.1-1.7-3.6-1.7-3.6V204h104.5h0.5v2.7L-18.8,207.7z M-99.5,246.9c-0.2-0.5-0.5-0.9-0.9-1.2
				c-0.3-0.3-0.7-0.6-1.2-0.9c-0.7-0.4-1.5-0.6-2.3-0.6h0c-1.4,0-2.6,0.5-3.5,1.4c-0.7,0.7-1.2,1.6-1.4,2.6
				c-0.1,0.3-0.1,0.6-0.1,0.9c0,2.7,2.2,4.9,4.9,4.9c2.7,0,4.9-2.2,4.9-4.9C-98.9,248.3-99.1,247.5-99.5,246.9z M104.2,232.1
				c0-1.2-1-2.1-2.1-2.1c-1.2,0-2.1,0.9-2.1,2.1c0,1.2,1,2.1,2.1,2.1C103.2,234.2,104.2,233.3,104.2,232.1z M102.7,286.1
				c0-1.1-0.9-2.1-2.1-2.1c-1.2,0-2.1,0.9-2.1,2.1c0,1.2,0.9,2.1,2.1,2.1C101.8,288.2,102.7,287.3,102.7,286.1z M96.2,222.6v-14.7
				l-211,2.6v15.7L96.2,222.6z M81.2,252v-10h-4v10H81.2z M81.2,239v-2h-4v2H81.2z M69.2,252v-10h-3v10H69.2z M69.2,240v-2h-3v2
				H69.2z M59.2,252v-10h-3v10H59.2z M58.2,240v-2h-3v2H58.2z M41.4,274.2c0-2.1-0.8-4-2.1-5.5c0,0-1.9-5.8-6.1-6.7
				c0,0-5.9-2-10.2,3.3c0,0-3,3.2-2.7,7.7c0,0-0.1,4.5,3.8,7.1c0,0,3.2,2.2,6.1,1.6c0.9,0.3,1.9,0.5,2.9,0.5
				C37.7,282.4,41.4,278.7,41.4,274.2z M37.2,252v-9h-3v9H37.2z M36.2,241v-2h-3v2H36.2z M26.2,252v-9h-4v9H26.2z M26.2,241v-2h-4v2
				H26.2z M4.6,280.8l0.3-20.1c0-1.6-1.5-1.4-1.5-1.4l-40.8,0.6c-0.7,0.2-0.5,1-0.5,1v21c0,1.7,1,1.7,1,1.7l40.4-1
				C4.7,282.4,4.6,280.8,4.6,280.8z M-2.8,254v-10h-3v10H-2.8z M-2.8,241v-1h-3v1H-2.8z M-14.8,255v-11h-3v11H-14.8z M-14.8,241v-1
				h-3v1H-14.8z M-25.8,241v-1h-3v1H-25.8z M-26.8,255v-11h-3v11H-26.8z M-42.3,283.1l0.3-21.7c0-1.6-1.5-1.4-1.5-1.4l-40.8,0.6
				c-0.7,0.2-0.6,1-0.6,1v21.8c0,1.7,1,1.7,1,1.7l40.4-1C-42.2,284-42.3,283.1-42.3,283.1z M-49.8,255v-11h-3v11H-49.8z M-49.8,242
				v-1h-3v1H-49.8z M-61.8,256v-11h-3v11H-61.8z M-61.8,242v-1h-3v1H-61.8z M-73.8,256v-11h-3v11H-73.8z M-74.8,242v-1h-3v1H-74.8z
				 M-100.4,263c0-1.7-1.3-3-3-3c-1.7,0-3,1.3-3,3c0,1.7,1.3,3,3,3C-101.7,266.1-100.4,264.7-100.4,263z M-100.4,275
				c0-1.7-1.3-3-3-3c-1.7,0-3,1.4-3,3c0,1.7,1.3,3,3,3C-101.7,278-100.4,276.6-100.4,275z M-100.4,285.3c0-1.7-1.3-3-3-3
				c-1.7,0-3,1.3-3,3c0,1.7,1.3,3,3,3C-101.7,288.3-100.4,287-100.4,285.3z M-116.5,294.6c0-1.2-1-2.2-2.2-2.2c-1.2,0-2.2,1-2.2,2.2
				s1,2.2,2.2,2.2C-117.5,296.8-116.5,295.8-116.5,294.6z M-116.9,236.6c0-1.2-1-2.2-2.2-2.2c-1.2,0-2.2,1-2.2,2.2
				c0,1.2,1,2.2,2.2,2.2C-117.9,238.8-116.9,237.8-116.9,236.6z"/>
			<path class="st20" d="M104.5,295.9l0.2,3.5c-0.1,1.6-1,1.6-1,1.6l-8.9,0.2c-0.5,0-1,0-1.4-0.1l0-0.2c-1-0.4-0.5-1.4-0.5-1.4
				l0.5-3.3c0-0.4,0.2-0.7,0.4-0.8c0.4-0.4,0.8-0.4,0.8-0.4h9.1l0.2-0.2C104.3,295.4,104.5,295.9,104.5,295.9z"/>
			<path class="st25" d="M103.8,294.8l-0.2,0.2h-9.1c0,0-0.5,0.1-0.8,0.4l-0.1-0.1l-5.3-4.6l10.9-0.4l3.9,4
				C103.5,294.5,103.7,294.7,103.8,294.8z"/>
			<path class="st26" d="M102.1,230c1.2,0,2.1,0.9,2.1,2.1c0,1.2-1,2.1-2.1,2.1c-1.2,0-2.1-1-2.1-2.1C100,230.9,100.9,230,102.1,230
				z"/>
			<path class="st26" d="M100.6,284c1.1,0,2.1,0.9,2.1,2.1c0,1.2-0.9,2.1-2.1,2.1c-1.2,0-2.1-0.9-2.1-2.1
				C98.5,285,99.5,284,100.6,284z"/>
			<path class="st0" d="M-18.7,223h4.9v-2h-5v1.8v0.2H-18.7z M22.2,213.7l-15,0.2v8l15-0.2l14-0.2l14-0.2l14-0.2v-8l-14,0.2l-14,0.2
				L22.2,213.7z M-14.8,219.7V213h-5v5.5v0.2v0.3h0.3h3.6L-14.8,219.7z M96.2,207.9v14.7l-211,3.6v-15.7L96.2,207.9z M94.2,220.2
				V213h-13h-14v8l14-0.4L94.2,220.2z M1.2,218v-8h-12v8H1.2z M-36,220.5c0-1.5-0.8-2.9-1.9-3.7l0,0l-3-2.5c0,0-2.7-0.5-4.7,2.5
				c0,0-1.5,2.3-0.5,5.1l2.8,2.1l0.2,0.1c0.7,0.6,1.7,0.9,2.7,0.9C-38,224.9-36,222.9-36,220.5z M-60.8,224v-10h-4v10H-60.8z
				 M-72.8,224v-10h-4v10H-72.8z M-84.8,224v-10h-4v10H-84.8z M-101.8,225v-10h-8v10H-101.8z"/>
			<polygon class="st26" points="94.2,213 94.2,220.2 81.2,220.6 81.2,220.6 81.2,213.5 81.2,213 			"/>
			<path class="st20" d="M93.7,295.4L93.7,295.4c-0.1,0.2-0.3,0.5-0.3,0.9l-0.5,3.3c0,0-0.4,1,0.5,1.4l0,0.2
				c-1.1-0.2-1.7-0.8-1.7-0.8l-12.3-9.2l9.1-0.4L93.7,295.4z"/>
			<path class="st21" d="M89.2,167.4c2,0.7,3.5,2.6,3.5,4.8c0,2.7-2.1,4.9-4.7,5c-0.1,0-0.3,0-0.4,0c-1.1,0-2-0.3-2.9-0.9
				c-1.3-0.9-2.2-2.5-2.2-4.2c0-2,1.2-3.8,2.9-4.6c0.7-0.3,1.4-0.5,2.2-0.5C88.2,167.1,88.7,167.2,89.2,167.4z"/>
			<path class="st9" d="M88,177.2c2.1,2.2,1.9,11.4,1.9,11.4c-2.3,2.8-3.9-0.3-3.9-0.3c0.8-4.9-2.5-11.9-2.5-11.9c0.4,0,0.8,0,1.3,0
				c0.8,0.5,1.8,0.9,2.9,0.9C87.7,177.2,87.9,177.2,88,177.2z"/>
			<path class="st20" d="M85.4,167.6c-1.7,0.8-2.9,2.6-2.9,4.6c0,1.7,0.9,3.3,2.2,4.2c-0.5,0.1-0.9,0.1-1.3,0h0l-1.5-0.3l0,0
				c-0.8-0.3-1.2-0.7-1.2-0.7c-2.2-1.6-1.8-4.2-1.8-4.2c0-0.2,0-0.4,0.1-0.5c0.3-2.2,1.9-3.1,1.9-3.1c0.2-0.1,0.4-0.2,0.6-0.2
				C84,166.3,85.4,167.6,85.4,167.6z"/>
			<path class="st9" d="M78,165.2l3.4,2.2c-0.2,0.1-0.4,0.2-0.6,0.2c0,0-1.6,0.9-1.9,3.1c-1.5-1.1-3.2-2.2-3.2-2.2
				C73.1,165.3,78,165.2,78,165.2z"/>
			<rect x="77.2" y="242" class="st26" width="4" height="10"/>
			<rect x="77.2" y="237" class="st14" width="4" height="2"/>
			<polygon class="st26" points="81.2,220.6 81.2,220.6 67.2,221 67.2,213 81.2,213 81.2,213.5 			"/>
			<path class="st21" d="M66,277.2c-1.2-1.4-2-3.3-2-5.3c0-4.5,3.7-8.2,8.2-8.2c1.8,0,3.4,0.6,4.8,1.5l0.1,0.1
				c0.1,0.1,0.3,0.2,0.4,0.3c0.3,0.2,0.5,0.5,0.7,0.7c1.3,1.5,2.1,3.4,2.1,5.5c0,4.5-3.7,8.2-8.2,8.2c-1,0-2-0.2-2.9-0.5
				C68,279,66.8,278.2,66,277.2z"/>
			<path class="st21" d="M78.2,266.3L78.2,266.3c-0.2-0.2-0.5-0.5-0.7-0.7c-0.1-0.1-0.3-0.2-0.4-0.3l-0.1-0.1l-4.8-3.5
				c0,0-3.7-2.2-8.2,2.4c0,0-3.9,3.8-2.1,8.9l4,4.1c0.9,1,2,1.8,3.3,2.3c-2.9,0.6-6.1-1.6-6.1-1.6c-3.9-2.6-3.8-7.1-3.8-7.1
				c-0.4-4.5,2.7-7.7,2.7-7.7c4.2-5.3,10.2-3.3,10.2-3.3C76.2,260.5,78.1,266,78.2,266.3z"/>
			<path class="st20" d="M72.2,261.7l4.8,3.5c-1.3-1-3-1.5-4.8-1.5c-4.5,0-8.2,3.7-8.2,8.2c0,2,0.8,3.9,2,5.3l-4-4.1
				c-1.9-5.1,2.1-8.9,2.1-8.9C68.5,259.5,72.2,261.7,72.2,261.7z"/>
			<rect x="66.2" y="242" class="st26" width="3" height="10"/>
			<polygon class="st26" points="64.2,213.1 64.2,221 50.2,221.2 50.2,213.5 50.2,213.3 			"/>
			<polygon class="st20" points="61.2,184.1 61.2,190 49.3,202.4 -5.5,203 -5.5,203 -4.5,198.2 -4.5,198 15.7,198 15.9,198 
				36.7,198 47.1,198 60.7,184.1 			"/>
			<path class="st0" d="M61.2,172v12.1h-0.5L47.1,198H36.7v0c4.4,0,8-3.6,8-8c0-4.4-3.6-7.9-8-7.9c-2.2,0-4.2,0.9-5.6,2.3l-1.1-1
				l1.4-1.5h0l16.6-6.4c0.9,2.2,3,3.8,5.5,3.8c3.3,0,5.9-2.7,5.9-5.9c0-0.6-0.1-1.1-0.2-1.7L61.2,172z"/>
			<path class="st0" d="M61.2,159v13l-1.9-0.4c-0.7-2.5-3-4.3-5.7-4.3c-3.3,0-5.9,2.7-5.9,5.9c0,0.8,0.1,1.5,0.4,2.2l-16.6,6.4
				l4-4.3l-1.2-1.8c0,0,0,0,0,0l0.7-0.7l0.6,0.6c0.8,0.8,1.2,0.2,1.2,0.2l6.1-6.9c0.7-0.7,0.4-1.4,0.4-1.4l-3.6-4.6
				c0-0.3,0-0.5,0-0.7c0-0.7,0-0.4,0-0.4l-2.2-2.9l0.2-0.1H61.2z"/>
			<path class="st21" d="M59.2,171.6c0.2,0.5,0.2,1.1,0.2,1.7c0,3.3-2.7,5.9-5.9,5.9c-2.5,0-4.7-1.6-5.5-3.8l2.2-0.9
				c0.3,1.2,1,2.4,2.6,2.4c0,0,2.8-0.1,2.8-1.1c0.3,0.1,0.6,0.2,1,0.2c1.5,0,2.7-1.2,2.7-2.7c0-0.8-0.3-1.4-0.8-1.9L59.2,171.6z"/>
			<path class="st21" d="M59.2,171.6l-0.7-0.1h0c-0.5-0.5-1.1-0.8-1.9-0.8c-0.3,0-0.7,0.1-1,0.2c0,0-0.6-1-2.7-1
				c0,0-2.9,0.1-2.9,2.7c0,0,0,1,0.3,2l-2.2,0.9c-0.3-0.7-0.4-1.4-0.4-2.2c0-3.3,2.7-5.9,5.9-5.9C56.2,167.4,58.5,169.2,59.2,171.6z
				"/>
			<rect x="56.2" y="242" class="st26" width="3" height="10"/>
			<path class="st21" d="M58.5,171.5c0.5,0.5,0.8,1.2,0.8,1.9c0,1.5-1.2,2.7-2.7,2.7c-0.3,0-0.7-0.1-1-0.2c-1-0.4-1.7-1.4-1.7-2.5
				c0-1.1,0.7-2.1,1.7-2.5c0.3-0.1,0.6-0.2,1-0.2C57.4,170.7,58,171,58.5,171.5L58.5,171.5z"/>
			<rect x="55.2" y="238" class="st14" width="3" height="2"/>
			<path class="st20" d="M50.2,174.6c-0.3-1-0.3-2-0.3-2c0-2.6,2.9-2.7,2.9-2.7c2.1,0,2.7,1,2.7,1c-1,0.4-1.7,1.4-1.7,2.5
				c0,1.1,0.7,2.1,1.7,2.5c0,1-2.8,1.1-2.8,1.1C51.3,177,50.6,175.8,50.2,174.6z"/>
			<polygon class="st26" points="50.2,213.5 50.2,221.2 36.2,221.4 36.2,213.5 36.2,213.5 50.2,213.3 			"/>
			<path class="st21" d="M43.3,167.7c0,0,0.2,0.7-0.4,1.4l-6.1,6.9c0,0-0.5,0.5-1.2-0.2l-0.6-0.6l-1-1l-8.9-0.1v-5.5l-55.1-0.1
				l-0.2,5.3l-19.6-0.1l0.3-10.5c0,0,0.1-1.7,2.2-1.6l8.5,0.1l78.6,0.8c0,0.2,0,0.4,0,0.7L43.3,167.7z M39,167.9c0-1.1-0.9-2-2-2
				s-2,0.9-2,2s0.9,2,2,2S39,169,39,167.9z M-42.6,167.5c0-1.3-1-2.4-2.4-2.4c-1.3,0-2.4,1-2.4,2.4c0,1.3,1.1,2.4,2.4,2.4
				C-43.7,169.9-42.6,168.8-42.6,167.5z"/>
			<path class="st20" d="M36.7,182.1c4.4,0,8,3.6,8,7.9c0,4.4-3.6,8-8,8c-4.4,0-7.9-3.6-7.9-8c0-2.2,0.9-4.2,2.3-5.6
				C32.5,183,34.5,182.1,36.7,182.1z M43.3,190.5c0-3.4-2.8-6.2-6.2-6.2c-3.4,0-6.2,2.8-6.2,6.2c0,3.4,2.8,6.2,6.2,6.2
				C40.5,196.8,43.3,194,43.3,190.5z"/>
			<path class="st21" d="M37.1,184.4c3.4,0,6.2,2.8,6.2,6.2c0,3.4-2.8,6.2-6.2,6.2c-3.4,0-6.2-2.8-6.2-6.2
				C30.9,187.1,33.7,184.4,37.1,184.4z"/>
			<path class="st21" d="M27,279.6c-1.2-1.4-2-3.3-2-5.4c0-4.5,3.7-8.2,8.2-8.2c1.8,0,3.4,0.6,4.8,1.5l0.1,0.1
				c0.1,0.1,0.3,0.2,0.4,0.3c0.3,0.2,0.5,0.5,0.8,0.7c1.3,1.5,2.1,3.4,2.1,5.5c0,4.5-3.7,8.2-8.2,8.2c-1,0-2-0.2-2.9-0.5
				C29,281.4,27.9,280.6,27,279.6z"/>
			<path class="st5" d="M-19.8,139v3.3v1.7h4v-5H-19.8z M39.7,162c0,0,0.1-0.3,0,0.4l-78.6-0.8v-0.3c0.1,0,0.4-0.1,0.9-0.7l3.5-8.1
				l16.4-23c0,0,0.3-0.9,2.2-0.9l31.3,0.4c0,0,0.6-0.1,1.3,0.3c0.3,0.2,0.7,0.5,1,1.1l14.6,22.1l5.2,6.7L39.7,162z M19.2,144v-4h-3
				v4H19.2z M10.2,144v-7.6l-21-0.4l-0.3,8.1H10.2z"/>
			<path class="st21" d="M39.3,268.7c-0.2-0.3-0.5-0.5-0.8-0.7c-0.1-0.1-0.3-0.2-0.4-0.3l-0.1-0.1l-4.8-3.5c0,0-3.7-2.2-8.2,2.4
				c0,0-3.9,3.8-2.1,8.9l4.1,4.1c0.9,1,2,1.8,3.2,2.3c-2.9,0.6-6.1-1.6-6.1-1.6c-3.9-2.6-3.8-7.1-3.8-7.1c-0.4-4.5,2.7-7.7,2.7-7.7
				c4.2-5.3,10.2-3.3,10.2-3.3C37.4,262.9,39.3,268.7,39.3,268.7z"/>
			<path class="st26" d="M37,165.9c1.1,0,2,0.9,2,2s-0.9,2-2,2s-2-0.9-2-2S35.9,165.9,37,165.9z"/>
			<path class="st20" d="M33.2,264.1l4.8,3.5c-1.3-1-3-1.5-4.8-1.5c-4.5,0-8.2,3.7-8.2,8.2c0,2,0.8,3.9,2,5.4l-4.1-4.1
				c-1.8-5.1,2.1-8.9,2.1-8.9C29.5,261.9,33.2,264.1,33.2,264.1z"/>
			<rect x="34.2" y="243" class="st26" width="3" height="9"/>
			<path class="st0" d="M36.7,198L36.7,198l-20.8,0c0,0,0.7-0.5,1.7-1.5L30,183.4l1.1,1c-1.4,1.4-2.3,3.4-2.3,5.6
				C28.7,194.4,32.3,198,36.7,198z"/>
			<rect x="33.2" y="239" class="st14" width="3" height="2"/>
			<polygon class="st26" points="36.2,213.5 36.2,221.4 22.2,221.6 22.2,221.5 22.2,213.7 36.2,213.5 			"/>
			<path class="st21" d="M-18.8,198h-1h-14.9c-0.7,0-1.2-0.3-1.5-0.6c-0.4-0.3-0.5-0.6-0.5-0.6l-13.4-14.4l-1.4-1.2l-0.7-4.4
				l3.1-1.3l18.8,0.1l63.1,0.3c1.3-0.1,1.4,0,1.4,0.1c0,0,0,0,0,0l1.2,1.8l-4,4.3h0l-1.4,1.5l-12.4,13.1c-1,1-1.7,1.5-1.7,1.5h-0.2
				H-4.5H-18.8z M15.2,186v-9h-45v9H15.2z"/>
			<path class="st13" d="M34,174.1l1,1l-0.7,0.7c0,0-0.1-0.2-1.4-0.1l-63.1-0.3l0-1.7l0.2-5.3l55.1,0.1v5.5L34,174.1z"/>
			<rect x="22.2" y="243" class="st26" width="4" height="9"/>
			<polygon class="st26" points="22.2,221.5 22.2,221.6 7.2,221.8 7.2,213.9 22.2,213.7 			"/>
			<rect x="16.2" y="140" class="st26" width="3" height="4"/>
			<path class="st13" d="M13.9,127.2l2.9,2l-0.1,0.1c-0.7-0.4-1.3-0.3-1.3-0.3l-31.3-0.4c-1.9,0-2.2,0.9-2.2,0.9l-16.4,23l-3.5,8.1
				c-0.4,0.7-0.8,0.7-0.9,0.7c0,0,0,0,0,0l-3.5-2l-1.9,0l0-1.3l21.8-29.3c1.6-2.6,2.8-2.6,2.8-2.6l31.2,0.6
				C13.1,126.7,13.9,127.2,13.9,127.2z"/>
			<rect x="-29.8" y="177" class="st11" width="45" height="9"/>
			<polygon points="10.2,136.4 10.2,144 -11.2,144 -10.8,135.9 			"/>
			<path class="st21" d="M4.9,260.7l-0.3,20.1c0,0,0.1,1.7-1.1,1.7l-40.4,1c0,0-1,0.1-1-1.7v-21c0,0-0.2-0.8,0.5-1l40.8-0.6
				C3.5,259.2,4.9,259.1,4.9,260.7z M3.2,279.9v-18.5l-39,0.7v18.8l21.9-0.6L3.2,279.9z"/>
			<rect x="-10.8" y="210" class="st25" width="12" height="8"/>
			<rect x="-5.8" y="244" class="st26" width="3" height="10"/>
			<polygon class="st23" points="-4.5,198 -4.5,198.2 -5.5,203 -5.6,203 -6,203.9 -5.8,203.9 -5.8,204 -18.3,204 -18.8,204 
				-18.8,198 			"/>
			<polygon class="st1" points="-5.8,204 -5.8,208 -18.6,208 -18.8,207.7 -18.8,204 -18.3,204 			"/>
			<polygon class="st26" points="-13.8,221 -13.8,223 -18.7,223 -18.8,222.8 -18.8,221 			"/>
			<rect x="-17.8" y="244" class="st26" width="3" height="11"/>
			<polygon class="st26" points="-14.8,213 -14.8,219.7 -15.9,219 -19.6,219 -19.8,218.7 -19.8,218.5 -19.8,213 			"/>
			<polygon class="st26" points="-19.8,142.3 -19.8,139 -15.8,139 -15.8,144 -19.8,144 			"/>
			<path class="st0" d="M-19.8,203v1h-0.5h-104.5v-63.8l21.8,33.7c0,0.9,0.2,1.8,0.6,2.5c0,0-2.8,7.3-2,12.4c0,0,1.6,2.9,3.9,0.5
				c0,0-0.3-7.5,1.7-9.7l0-0.2c0.5,0.1,1,0.2,1.5,0.2c1.7,0,3.2-0.7,4.2-1.9l10.3-3.4V190l11.8,12.7L-19.8,203z"/>
			<path class="st20" d="M-19.8,198v5l-51.2-0.2L-82.8,190v-15.8l1-0.3v9.8l14.3,13.9l31.4-0.2c0.3,0.3,0.8,0.6,1.5,0.6H-19.8z"/>
			<rect x="-29.8" y="244" class="st26" width="3" height="11"/>
			<path class="st13" d="M-30.2,173.7l0,1.7l-18.8-0.1l-3.1,1.3l-2.3-15.5c0.5-1.8,3.6-1.8,3.6-1.8l6.7-0.1l1.9,0l3.5,2c0,0,0,0,0,0
				v0.3l-8.5-0.1c-2.2-0.1-2.2,1.6-2.2,1.6l-0.3,10.5L-30.2,173.7z"/>
			<path class="st0" d="M-36.2,197.4l-31.4,0.2l-14.3-13.9v-9.8l2.1-0.7c-0.2,0.8-0.3,1.6-0.3,2.4c0,6.4,5.2,11.6,11.6,11.6
				s11.6-5.2,11.6-11.6c0-0.4,0-0.8-0.1-1.2l4.4,2.4l0.2-0.1l0.7,4.4l1.4,1.2l13.4,14.4C-36.7,196.8-36.6,197.1-36.2,197.4z"/>
			<path class="st21" d="M-37.9,216.8c1.2,0.8,1.9,2.2,1.9,3.7c0,2.5-2,4.5-4.5,4.5c-1,0-1.9-0.3-2.7-0.9l-0.2-0.1
				c-1-0.8-1.6-2.1-1.6-3.5c0-2.5,2-4.5,4.5-4.5C-39.5,216-38.7,216.2-37.9,216.8L-37.9,216.8z"/>
			<path class="st20" d="M-40.9,214.3l3,2.5c-0.7-0.5-1.6-0.8-2.5-0.8c-2.5,0-4.5,2-4.5,4.5c0,1.4,0.6,2.6,1.6,3.5l-2.8-2.1
				c-1-2.8,0.5-5.1,0.5-5.1C-43.7,213.8-40.9,214.3-40.9,214.3z"/>
			<path class="st21" d="M-42,261.5l-0.3,21.7c0,0,0.1,0.9-1.1,0.9l-40.4,1c0,0-1,0.1-1-1.7v-21.8c0,0-0.1-0.7,0.6-1l40.8-0.6
				C-43.5,260-42.1,259.9-42,261.5z M-43.8,281.5V262l-39,0.7v19.6l14.7-0.3l7.8-0.2L-43.8,281.5z"/>
			<path class="st26" d="M-45,165.2c1.3,0,2.4,1,2.4,2.4c0,1.3-1,2.4-2.4,2.4c-1.3,0-2.4-1.1-2.4-2.4
				C-47.3,166.2-46.3,165.2-45,165.2z"/>
			<path class="st0" d="M-44.3,158l0,1.3l-6.7,0.1c0,0-3.1,0-3.6,1.8l2.3,15.5l-0.2,0.1l-4.4-2.4c-0.6-5.8-5.6-10.4-11.6-10.4
				c-5.6,0-10.2,3.9-11.4,9.2l-2.1,0.7v-13.7c0-1,0.2-1.6,0.5-1.9l1-0.3c0,0,0,0,0,0H-44.3z"/>
			<rect x="-52.8" y="244" class="st26" width="3" height="11"/>
			<path class="st21" d="M-56.8,174.4c0,0.4,0.1,0.8,0.1,1.2c0,6.4-5.2,11.6-11.6,11.6s-11.6-5.2-11.6-11.6c0-0.8,0.1-1.7,0.3-2.4
				l5.1-1.7c-0.9,1.2-1.4,2.8-1.4,4.4c0,4.3,3.5,7.7,7.7,7.7c4.3,0,7.7-3.5,7.7-7.7c0-1.5-0.4-3-1.2-4.2L-56.8,174.4z"/>
			<path class="st21" d="M-56.8,174.4l-5-2.7c0,0,0,0,0,0c-1.4-2.1-3.8-3.5-6.5-3.5c-2.6,0-5,1.3-6.4,3.3l-5.1,1.7
				c1.1-5.2,5.8-9.2,11.4-9.2C-62.3,164-57.4,168.5-56.8,174.4z"/>
			<rect x="-64.8" y="214" class="st26" width="4" height="10"/>
			<path class="st20" d="M-61.7,171.7c0.8,1.2,1.2,2.6,1.2,4.2c0,4.3-3.5,7.7-7.7,7.7c-4.3,0-7.7-3.5-7.7-7.7c0-1.6,0.5-3.1,1.4-4.4
				c1.4-2,3.7-3.3,6.4-3.3C-65.5,168.2-63.1,169.6-61.7,171.7C-61.7,171.7-61.7,171.7-61.7,171.7z M-62.2,175.9
				c0-2.8-2.3-5.1-5.1-5.1c-2.8,0-5.1,2.3-5.1,5.1s2.3,5.1,5.1,5.1C-64.4,181-62.2,178.7-62.2,175.9z"/>
			<rect x="-64.8" y="245" class="st26" width="3" height="11"/>
			<path class="st21" d="M-67.3,170.7c2.8,0,5.1,2.3,5.1,5.1s-2.3,5.1-5.1,5.1c-2.8,0-5.1-2.3-5.1-5.1S-70.1,170.7-67.3,170.7z"/>
			<rect x="-76.8" y="214" class="st26" width="4" height="10"/>
			<rect x="-76.8" y="245" class="st26" width="3" height="11"/>
			<rect x="-88.8" y="214" class="st26" width="4" height="10"/>
			<path class="st9" d="M-90.2,164.6c0,0,3.1-0.2,2.1,2.7c0,0-4.5,2.2-4.9,3h0c-0.8-1-1.9-1.7-3.2-2L-90.2,164.6z"/>
			<path class="st21" d="M-93,170.2c0.8,1,1.3,2.2,1.3,3.6c0,1.4-0.6,2.8-1.5,3.8c-1,1.2-2.5,1.9-4.2,1.9c-0.5,0-1-0.1-1.5-0.2
				c-1.6-0.4-2.9-1.5-3.6-3c-0.4-0.8-0.6-1.6-0.6-2.5c0-3.1,2.5-5.7,5.7-5.7c0.4,0,0.8,0,1.1,0.1C-94.9,168.5-93.8,169.2-93,170.2z"
				/>
			<path class="st9" d="M-98.8,179.3l0,0.2c-2,2.3-1.7,9.7-1.7,9.7c-2.3,2.4-3.9-0.5-3.9-0.5c-0.8-5.1,2-12.4,2-12.4
				C-101.7,177.8-100.4,178.9-98.8,179.3z"/>
			<path class="st21" d="M-99.5,246.9c0.4,0.7,0.6,1.4,0.6,2.3c0,2.7-2.2,4.9-4.9,4.9c-2.7,0-4.9-2.2-4.9-4.9c0-0.3,0-0.6,0.1-0.9
				c0.2-1,0.7-1.9,1.4-2.6c0.9-0.9,2.1-1.4,3.5-1.4h0c0.8,0,1.6,0.2,2.3,0.6c0.4,0.2,0.8,0.5,1.2,0.9
				C-100,246-99.7,246.4-99.5,246.9z"/>
			<path class="st21" d="M-103.4,260c1.7,0,3,1.3,3,3c0,1.7-1.3,3-3,3c-1.7,0-3-1.3-3-3C-106.4,261.4-105,260-103.4,260z
				 M-101.3,263c0-1.2-1-2.2-2.2-2.2s-2.1,1-2.1,2.2c0,1.2,1,2.2,2.1,2.2S-101.3,264.2-101.3,263z"/>
			<path class="st3" d="M-103.4,260.8c1.2,0,2.2,1,2.2,2.2c0,1.2-1,2.2-2.2,2.2s-2.1-1-2.1-2.2
				C-105.6,261.8-104.6,260.8-103.4,260.8z"/>
			<path class="st3" d="M-103.4,272.8c1.2,0,2.2,1,2.2,2.2c0,1.2-1,2.2-2.2,2.2s-2.1-1-2.1-2.2
				C-105.6,273.7-104.6,272.8-103.4,272.8z"/>
			<path class="st3" d="M-103.4,283.1c1.2,0,2.2,1,2.2,2.2c0,1.2-1,2.2-2.2,2.2s-2.1-1-2.1-2.2
				C-105.6,284.1-104.6,283.1-103.4,283.1z"/>
			<rect x="-109.8" y="215" class="st14" width="8" height="10"/>
			<path class="st20" d="M-109.2,308.6l0,0.5c-0.1,0.8-0.8,0.8-0.8,0.8l-11.9,0.4c-1,0-1.2-0.4-1.2-0.7c0-0.2,0.1-0.3,0.1-0.3
				l1.1-4.6c0.1,0.2,0.3,0.3,0.7,0.3l10.7-0.4c0,0,0.1,0,0.3-0.1L-109.2,308.6C-109.2,308.5-109.2,308.5-109.2,308.6z"/>
			<path class="st25" d="M-110,303.5c0,0.4-0.1,0.7-0.3,0.8v0c-0.1,0.1-0.3,0.1-0.3,0.1l-10.7,0.4c-0.4,0-0.6-0.1-0.7-0.3
				c-0.1-0.2-0.1-0.5-0.1-0.5l-1.2-4.7c0,0,0,0,0,0c0.1,0,0.2,0,0.2,0l12.9-0.5L-110,303.5z"/>
			<path class="st26" d="M-118.7,292.4c1.2,0,2.2,1,2.2,2.2s-1,2.2-2.2,2.2c-1.2,0-2.2-1-2.2-2.2S-119.9,292.4-118.7,292.4z"/>
			<path class="st26" d="M-119.2,234.4c1.2,0,2.2,1,2.2,2.2c0,1.2-1,2.2-2.2,2.2c-1.2,0-2.2-1-2.2-2.2
				C-121.4,235.4-120.4,234.4-119.2,234.4z"/>
			<path class="st20" d="M-121.9,304.6l-1.1,4.6c0,0-0.1,0.2-0.1,0.3h0l-1.2-10.2l0-0.1c0.3,0.1,0.6,0.1,1,0.1c0,0,0,0,0,0l1.2,4.7
				C-122,304.1-122,304.4-121.9,304.6z"/>
			<path class="st18" d="M-124.8,140.2V204v91.8c0,0-0.8,2.5,1.7,3.6c-0.4,0-0.7,0-1-0.1c-2.7-0.6-1.9-3.2-1.9-3.2l0.2-149.8V36.5
				c0-3.6,1.8-4.9,3.4-5.4c-1.8,0.8-2.4,3-2.4,3V140.2z"/>
		</g>
		<g>
			<path class="st12" d="M-122.4,31.2c-1.6,0.5-3.4,1.8-3.4,5.4v109.7l-0.2,149.8c0,0-0.8,2.6,1.9,3.2c0.3,0.1,0.6,0.1,1,0.1
				c0.1,0,0.2,0,0.2,0l12.9-0.5h0l189.3-7.7l9.1-0.4l10.9-0.4l3.5-0.1c0,0,1.3,0.3,1.3-1.3l2.1-85.9l1.3-52.4l1.7-69l1-40.2
				c0-2.5-2.6-2.4-2.6-2.4L12.5,36L-13.7,35l-106.1-4C-119.8,31-121.1,30.8-122.4,31.2"/>
			<path class="st12" d="M-121.9,304.6l-1.1,4.6c0,0-0.1,0.2-0.1,0.3c0,0.3,0.2,0.7,1.2,0.7l11.9-0.4c0,0,0.8,0,0.8-0.8
				c0-0.1,0-0.3,0-0.5c0,0,0,0,0,0l-1.1-4.2"/>
			<polyline class="st12" points="-124.2,299.4 -123,309.6 -123,309.8 			"/>
			<polyline class="st12" points="-109.9,298.9 -109.2,308.6 -109.1,309.1 -109.1,309.2 			"/>
			<path class="st12" d="M79.3,291.2l12.3,9.2c0,0,0.6,0.5,1.7,0.8c0.4,0.1,0.9,0.1,1.4,0.1l8.9-0.2c0,0,0.9,0,1-1.6l-0.2-3.5
				c0,0-0.2-0.5-0.7-1c-0.2-0.2-0.4-0.3-0.6-0.5l-3.9-4"/>
			<path class="st12" d="M103.7,295h-9.1c0,0-0.5,0.1-0.8,0.4c-0.2,0.2-0.3,0.5-0.4,0.8l-0.5,3.3c0,0-0.4,1,0.5,1.4"/>
			<line class="st12" x1="93.7" y1="295.4" x2="88.4" y2="290.8"/>
			<path class="st12" d="M31.4,181.9l4-4.3l-1.2-1.8c0,0,0,0,0,0c0,0-0.1-0.2-1.4-0.1l-63.1-0.3l-18.8-0.1l-3.1,1.3l-0.2,0.1
				l-4.4-2.4l-5-2.7"/>
			<path class="st12" d="M15.9,198c0,0,0.7-0.5,1.7-1.5L30,183.4l1.4-1.5"/>
			<path class="st12" d="M39.8,162.4l-78.6-0.8l-8.5-0.1c-2.2-0.1-2.2,1.6-2.2,1.6l-0.3,10.5l19.6,0.1l0.2-5.3l55.1,0.1v5.5l8.9,0.1
				l1,1l0.6,0.6c0.8,0.8,1.2,0.2,1.2,0.2l6.1-6.9c0.7-0.7,0.4-1.4,0.4-1.4l-3.6-4.6C39.7,162.8,39.8,162.6,39.8,162.4
				c0-0.7,0-0.4,0-0.4l-2.2-2.9l-5.2-6.7l-14.6-22.1c-0.3-0.5-0.7-0.9-1-1.1c-0.7-0.4-1.3-0.3-1.3-0.3l-31.3-0.4
				c-1.9,0-2.2,0.9-2.2,0.9l-16.4,23l-3.5,8.1c-0.4,0.7-0.8,0.7-0.9,0.7c0,0,0,0,0,0l-3.5-2l-1.9,0l-6.7,0.1c0,0-3.1,0-3.6,1.8
				l2.3,15.5l0.7,4.4l1.4,1.2l13.4,14.4c0,0,0.1,0.3,0.5,0.6c0.3,0.3,0.8,0.6,1.5,0.6h14.9h1h14.3h20.2"/>
			<path class="st12" d="M16.9,129.2L16.9,129.2l-3-2c0,0-0.9-0.5-2.4-0.5l-31.2-0.6c0,0-1.2,0-2.8,2.6L-44.3,158h-36.1c0,0,0,0,0,0
				c-0.1,0-0.6-0.1-1,0.3c-0.3,0.3-0.5,0.9-0.5,1.9v13.7v9.8l14.3,13.9l31.4-0.2h0.5"/>
			<polyline class="st12" points="15.7,198 15.9,198 36.7,198 47.1,198 60.7,184.1 			"/>
			<polyline class="st12" points="-80.2,157.9 -80.4,158 -81.3,158.3 -82.8,158.8 -82.8,174.2 -82.8,190 -71.1,202.8 -19.8,203 
				-19.8,203 			"/>
			<polyline class="st12" points="-19.8,197.5 -19.8,198 -19.8,203 -19.8,204 -19.8,206.7 -18.8,207.7 -18.6,208 -5.8,208 -5.8,204 
				-18.3,204 			"/>
			<polyline class="st12" points="-18.8,208.5 -18.8,207.7 -18.8,204 -18.8,198 -18.8,197.5 			"/>
			<polyline class="st12" points="-4.5,198.2 -5.5,203 -5.5,203 49.3,202.4 61.2,190 61.2,184.1 61.2,172 61.2,159 37.7,159 			"/>
			<polygon class="st12" points="-10.8,135.9 10.2,136.4 10.2,144 -11.2,144 			"/>
			<rect x="16.2" y="140" class="st12" width="3" height="4"/>
			<polyline class="st12" points="16.3,139.6 15.5,139 19,139 19.5,139.3 			"/>
			<polyline class="st12" points="15.2,139.5 15.2,143.1 15.6,144.5 			"/>
			<polyline class="st12" points="-19.8,139 -15.8,139 -15.8,144 -19.8,144 -19.8,142.3 			"/>
			<polyline class="st12" points="-19.4,138.7 -20.2,138 -16.7,138 -16.3,138.4 			"/>
			<polyline class="st12" points="-19.8,138.5 -19.8,139 -19.8,142.3 -19.4,143.6 			"/>
			<path class="st12" d="M-110,298.9l0,4.6c0,0.4-0.1,0.7-0.3,0.8v0c-0.1,0.1-0.3,0.1-0.3,0.1l-10.7,0.4c-0.4,0-0.6-0.1-0.7-0.3
				c-0.1-0.2-0.1-0.5-0.1-0.5l-1.2-4.7c0,0,0,0,0,0c-2.4-1.1-1.7-3.6-1.7-3.6V204v-63.8v-106c0,0,0.6-2.3,2.4-3c0,0,0,0,0,0
				c0.4-0.2,0.8-0.2,1.3-0.2"/>
			<polyline class="st12" points="106.3,203 -5.8,203.9 -6,203.9 -5.6,203 			"/>
			<line class="st12" x1="-20.3" y1="204" x2="-124.8" y2="204"/>
			<rect x="-29.8" y="177" class="st12" width="45" height="9"/>
			<polygon class="st12" points="-114.8,210.5 96.2,207.9 96.2,222.6 -114.8,226.2 			"/>
			<rect x="-10.8" y="210" class="st12" width="12" height="8"/>
			<polygon class="st12" points="22.2,221.6 7.2,221.8 7.2,213.9 22.2,213.7 36.2,213.5 50.2,213.3 64.2,213.1 64.2,221 50.2,221.2 
				36.2,221.4 			"/>
			<polyline class="st12" points="22.2,213.5 22.2,213.7 22.2,221.5 			"/>
			<polyline class="st12" points="36.2,213.5 36.2,221.4 36.2,221.5 			"/>
			<polyline class="st12" points="50.2,213.5 50.2,221.2 50.2,221.5 			"/>
			<polygon class="st12" points="81.2,220.6 67.2,221 67.2,213 81.2,213 94.2,213 94.2,220.2 			"/>
			<line class="st12" x1="81.2" y1="213.5" x2="81.2" y2="220.6"/>
			<rect x="-109.8" y="215" class="st12" width="8" height="10"/>
			<rect x="-88.8" y="214" class="st12" width="4" height="10"/>
			<rect x="-76.8" y="214" class="st12" width="4" height="10"/>
			<rect x="-64.8" y="214" class="st12" width="4" height="10"/>
			<polygon class="st12" points="-18.8,222.8 -18.8,221 -13.8,221 -13.8,223 -18.7,223 -18.8,223 			"/>
			<polyline class="st12" points="-18.5,223.2 -18.7,223 -18.8,222.8 -19.8,221.8 -19.8,219 -19.8,218.7 -19.6,219 -18.4,220.6 			
				"/>
			<polyline class="st12" points="-20.3,219 -19.8,219 -19.6,219 -15.9,219 -14.8,219.7 -13.8,220.3 			"/>
			<polyline class="st12" points="-14.8,220.5 -14.8,219.7 -14.8,213 -19.8,213 -19.8,218.5 			"/>
			<path class="st12" d="M-84.3,260.6l40.8-0.6c0,0,1.4-0.2,1.5,1.4l-0.3,21.7c0,0,0.1,0.9-1.1,0.9l-40.4,1c0,0-1,0.1-1-1.7v-21.8
				C-84.8,261.6-85,260.8-84.3,260.6z"/>
			<path class="st12" d="M-37.3,259.8l40.8-0.6c0,0,1.4-0.2,1.5,1.4l-0.3,20.1c0,0,0.1,1.7-1.1,1.7l-40.4,1c0,0-1,0.1-1-1.7v-21
				C-37.8,260.8-38,260-37.3,259.8z"/>
			<polygon class="st12" points="-68.1,282 -82.8,282.3 -82.8,262.7 -43.8,262 -43.8,281.5 -60.4,281.8 			"/>
			<polygon class="st12" points="-35.8,262.1 3.2,261.4 3.2,279.9 -13.9,280.3 -35.8,280.9 			"/>
			<path class="st12" d="M-76.9,269.5c0,0,0.4-0.1,1.2-0.4c1.3-0.4,3.5-0.9,6.4-1.3c1.9-0.3,4.1-0.5,6.5-0.5c3.6,0,7.6,0.4,11.7,1.5
				"/>
			<line class="st12" x1="-76.5" y1="267.4" x2="-75.7" y2="269.2"/>
			<line class="st12" x1="-73" y1="266.6" x2="-72.5" y2="268.3"/>
			<polyline class="st12" points="-69.7,266.1 -69.3,267.9 -69.3,267.9 			"/>
			<line class="st12" x1="-66.8" y1="265.5" x2="-66.8" y2="267.5"/>
			<polyline class="st12" points="-62.8,265.5 -62.8,267.4 -62.8,267.5 			"/>
			<line class="st12" x1="-57.5" y1="266.1" x2="-57.8" y2="267.7"/>
			<line class="st12" x1="-53.2" y1="267" x2="-53.8" y2="268.3"/>
			<path class="st12" d="M-30.8,268c0,0,0.4-0.1,1.2-0.4c1.3-0.4,3.5-0.9,6.4-1.3c1.1-0.1,2.2-0.3,3.4-0.3c4.3-0.3,9.5-0.1,14.8,1.4
				"/>
			<line class="st12" x1="-30.3" y1="265.8" x2="-29.6" y2="267.6"/>
			<line class="st12" x1="-26.9" y1="265" x2="-26.4" y2="266.7"/>
			<polyline class="st12" points="-23.5,264.5 -23.2,266.3 -23.2,266.3 			"/>
			<polyline class="st12" points="-19.8,263.5 -19.8,265.9 -19.8,266.5 			"/>
			<line class="st12" x1="-15.8" y1="263.5" x2="-15.8" y2="265.5"/>
			<line class="st12" x1="-11.4" y1="264.5" x2="-11.7" y2="266.1"/>
			<line class="st12" x1="-7" y1="265.4" x2="-7.6" y2="266.7"/>
			<path class="st12" d="M-68.1,282c0,0,3.9-5.3,7.8-0.2"/>
			<path class="st12" d="M-22,280.5c0,0,3.6-5.4,8-0.2"/>
			<rect x="-76.8" y="245" class="st12" width="3" height="11"/>
			<rect x="-64.8" y="245" class="st12" width="3" height="11"/>
			<rect x="-52.8" y="244" class="st12" width="3" height="11"/>
			<rect x="-29.8" y="244" class="st12" width="3" height="11"/>
			<rect x="-17.8" y="244" class="st12" width="3" height="11"/>
			<rect x="-5.8" y="244" class="st12" width="3" height="10"/>
			<rect x="22.2" y="243" class="st12" width="4" height="9"/>
			<rect x="34.2" y="243" class="st12" width="3" height="9"/>
			<rect x="56.2" y="242" class="st12" width="3" height="10"/>
			<rect x="77.2" y="242" class="st12" width="4" height="10"/>
			<rect x="66.2" y="242" class="st12" width="3" height="10"/>
			<polyline class="st12" points="-4.8,236.5 -4.8,235.2 -27.8,235.5 -75.8,236.2 -75.8,237.5 			"/>
			<line class="st12" x1="-15.8" y1="235.5" x2="-15.8" y2="236.5"/>
			<line class="st12" x1="-27.8" y1="235.5" x2="-27.8" y2="236.5"/>
			<line class="st12" x1="-50.8" y1="236.5" x2="-50.8" y2="237.5"/>
			<line class="st12" x1="-62.8" y1="236.5" x2="-62.8" y2="237.5"/>
			<polyline class="st12" points="34.2,236.5 34.2,235 23.2,235 23.2,236.5 			"/>
			<polyline class="st12" points="78.2,234.5 78.2,233.1 57.2,233.9 57.2,235.5 			"/>
			<line class="st12" x1="68.2" y1="233.5" x2="68.2" y2="235.5"/>
			<path class="st12" d="M-56.8,174.4c0,0.4,0.1,0.8,0.1,1.2c0,6.4-5.2,11.6-11.6,11.6s-11.6-5.2-11.6-11.6c0-0.8,0.1-1.7,0.3-2.4
				c1.1-5.2,5.8-9.2,11.4-9.2C-62.3,164-57.4,168.5-56.8,174.4z"/>
			<path class="st12" d="M-61.7,171.7c0.8,1.2,1.2,2.6,1.2,4.2c0,4.3-3.5,7.7-7.7,7.7c-4.3,0-7.7-3.5-7.7-7.7c0-1.6,0.5-3.1,1.4-4.4
				c1.4-2,3.7-3.3,6.4-3.3C-65.5,168.2-63.1,169.6-61.7,171.7C-61.7,171.7-61.7,171.7-61.7,171.7z"/>
			<path class="st12" d="M-62.2,175.9c0,2.8-2.3,5.1-5.1,5.1c-2.8,0-5.1-2.3-5.1-5.1s2.3-5.1,5.1-5.1
				C-64.4,170.7-62.2,173-62.2,175.9z"/>
			<path class="st12" d="M-93,170.2c0.8,1,1.3,2.2,1.3,3.6c0,1.4-0.6,2.8-1.5,3.8c-1,1.2-2.5,1.9-4.2,1.9c-0.5,0-1-0.1-1.5-0.2
				c-1.6-0.4-2.9-1.5-3.6-3c-0.4-0.8-0.6-1.6-0.6-2.5c0-3.1,2.5-5.7,5.7-5.7c0.4,0,0.8,0,1.1,0.1C-94.9,168.5-93.8,169.2-93,170.2z"
				/>
			<path class="st12" d="M-96.2,168.3l6-3.7c0,0,3.1-0.2,2.1,2.7c0,0-4.5,2.2-4.9,3"/>
			<path class="st12" d="M-102.4,176.3c0,0-2.8,7.3-2,12.4c0,0,1.6,2.9,3.9,0.5c0,0-0.3-7.5,1.7-9.7"/>
			<path class="st12" d="M31.1,184.4c1.4-1.4,3.4-2.3,5.6-2.3c4.4,0,8,3.6,8,7.9c0,4.4-3.6,8-8,8c-4.4,0-7.9-3.6-7.9-8
				C28.7,187.8,29.6,185.8,31.1,184.4z"/>
			<path class="st12" d="M43.3,190.5c0,3.4-2.8,6.2-6.2,6.2c-3.4,0-6.2-2.8-6.2-6.2c0-3.4,2.8-6.2,6.2-6.2
				C40.5,184.4,43.3,187.1,43.3,190.5z"/>
			<path class="st12" d="M58.5,171.5c0.5,0.5,0.8,1.2,0.8,1.9c0,1.5-1.2,2.7-2.7,2.7c-0.3,0-0.7-0.1-1-0.2c-1-0.4-1.7-1.4-1.7-2.5
				c0-1.1,0.7-2.1,1.7-2.5c0.3-0.1,0.6-0.2,1-0.2C57.4,170.7,58,171,58.5,171.5"/>
			<path class="st12" d="M55.6,170.9c0,0-0.6-1-2.7-1c0,0-2.9,0.1-2.9,2.7c0,0,0,1,0.3,2c0.3,1.2,1,2.4,2.6,2.4c0,0,2.8-0.1,2.8-1.1
				"/>
			<path class="st12" d="M59.2,171.6c0.2,0.5,0.2,1.1,0.2,1.7c0,3.3-2.7,5.9-5.9,5.9c-2.5,0-4.7-1.6-5.5-3.8
				c-0.3-0.7-0.4-1.4-0.4-2.2c0-3.3,2.7-5.9,5.9-5.9C56.2,167.4,58.5,169.2,59.2,171.6z"/>
			<path class="st12" d="M39,167.9c0,1.1-0.9,2-2,2s-2-0.9-2-2s0.9-2,2-2S39,166.8,39,167.9z"/>
			<path class="st12" d="M-42.6,167.5c0,1.3-1,2.4-2.4,2.4c-1.3,0-2.4-1.1-2.4-2.4c0-1.3,1.1-2.4,2.4-2.4
				C-43.7,165.2-42.6,166.2-42.6,167.5z"/>
			<path class="st12" d="M89.2,167.4c2,0.7,3.5,2.6,3.5,4.8c0,2.7-2.1,4.9-4.7,5c-0.1,0-0.3,0-0.4,0c-1.1,0-2-0.3-2.9-0.9
				c-1.3-0.9-2.2-2.5-2.2-4.2c0-2,1.2-3.8,2.9-4.6c0.7-0.3,1.4-0.5,2.2-0.5C88.2,167.1,88.7,167.2,89.2,167.4z"/>
			<path class="st12" d="M83.5,176.4c0.4,0,0.8,0,1.3,0"/>
			<path class="st12" d="M82,176.1c0.4,0.1,0.9,0.2,1.5,0.3"/>
			<path class="st12" d="M85.4,167.6c0,0-1.4-1.3-4-0.2c-0.2,0.1-0.4,0.2-0.6,0.2c0,0-1.6,0.9-1.9,3.1c0,0.2,0,0.4-0.1,0.5
				c0,0-0.3,2.5,1.8,4.2c0,0,0.4,0.4,1.2,0.7"/>
			<path class="st12" d="M81.4,167.4l-3.4-2.2c0,0-4.8,0.1-2.3,3.4c0,0,1.8,1.1,3.2,2.2"/>
			<path class="st12" d="M88,177.2c2.1,2.2,1.9,11.4,1.9,11.4c-2.3,2.8-3.9-0.3-3.9-0.3c0.8-4.9-2.5-11.9-2.5-11.9h0l-1.5-0.3l0,0
				L61.2,172l-1.9-0.4l-0.7-0.1h0"/>
			<path class="st12" d="M-116.9,236.6c0,1.2-1,2.2-2.2,2.2c-1.2,0-2.2-1-2.2-2.2c0-1.2,1-2.2,2.2-2.2
				C-117.9,234.4-116.9,235.4-116.9,236.6z"/>
			<path class="st12" d="M104.2,232.1c0,1.2-1,2.1-2.1,2.1c-1.2,0-2.1-1-2.1-2.1c0-1.2,1-2.1,2.1-2.1
				C103.2,230,104.2,230.9,104.2,232.1z"/>
			<path class="st12" d="M-99.5,246.9c0.4,0.7,0.6,1.4,0.6,2.3c0,2.7-2.2,4.9-4.9,4.9c-2.7,0-4.9-2.2-4.9-4.9c0-0.3,0-0.6,0.1-0.9
				c0.2-1,0.7-1.9,1.4-2.6c0.9-0.9,2.1-1.4,3.5-1.4h0c0.8,0,1.6,0.2,2.3,0.6c0.4,0.2,0.8,0.5,1.2,0.9
				C-100,246-99.7,246.4-99.5,246.9z"/>
			<path class="st12" d="M-100.4,263c0,1.7-1.3,3-3,3c-1.7,0-3-1.3-3-3c0-1.7,1.3-3,3-3C-101.7,260-100.4,261.4-100.4,263z"/>
			<path class="st12" d="M-101.3,263c0,1.2-1,2.2-2.2,2.2s-2.1-1-2.1-2.2c0-1.2,1-2.2,2.1-2.2S-101.3,261.8-101.3,263z"/>
			<path class="st12" d="M-116.5,294.6c0,1.2-1,2.2-2.2,2.2c-1.2,0-2.2-1-2.2-2.2s1-2.2,2.2-2.2
				C-117.5,292.4-116.5,293.4-116.5,294.6z"/>
			<path class="st12" d="M102.7,286.1c0,1.2-0.9,2.1-2.1,2.1c-1.2,0-2.1-0.9-2.1-2.1c0-1.1,0.9-2.1,2.1-2.1
				C101.8,284,102.7,285,102.7,286.1z"/>
			<path class="st12" d="M-43.3,223.9c-1-0.8-1.6-2.1-1.6-3.5c0-2.5,2-4.5,4.5-4.5c0.9,0,1.8,0.3,2.5,0.8"/>
			<path class="st12" d="M-37.9,216.8c1.2,0.8,1.9,2.2,1.9,3.7c0,2.5-2,4.5-4.5,4.5c-1,0-1.9-0.3-2.7-0.9"/>
			<path class="st12" d="M-37.9,216.8L-37.9,216.8l-3-2.5c0,0-2.7-0.5-4.7,2.5c0,0-1.5,2.3-0.5,5.1l2.8,2.1l0.2,0.1"/>
			<path class="st12" d="M38.1,267.7c0.1,0.1,0.3,0.2,0.4,0.3c0.3,0.2,0.5,0.5,0.8,0.7c1.3,1.5,2.1,3.4,2.1,5.5
				c0,4.5-3.7,8.2-8.2,8.2c-1,0-2-0.2-2.9-0.5c-1.3-0.5-2.4-1.3-3.2-2.3c-1.2-1.4-2-3.3-2-5.4c0-4.5,3.7-8.2,8.2-8.2
				c1.8,0,3.4,0.6,4.8,1.5"/>
			<path class="st12" d="M38.1,267.7l-0.1-0.1l-4.8-3.5c0,0-3.7-2.2-8.2,2.4c0,0-3.9,3.8-2.1,8.9l4.1,4.1l0.7,0.7"/>
			<path class="st12" d="M39.3,268.7c0,0-1.9-5.8-6.1-6.7c0,0-5.9-2-10.2,3.3c0,0-3,3.2-2.7,7.7c0,0-0.1,4.5,3.8,7.1
				c0,0,3.2,2.2,6.1,1.6"/>
			<path class="st12" d="M77,265.3c0.1,0.1,0.3,0.2,0.4,0.3c0.3,0.2,0.5,0.5,0.7,0.7c1.3,1.5,2.1,3.4,2.1,5.5c0,4.5-3.7,8.2-8.2,8.2
				c-1,0-2-0.2-2.9-0.5c-1.3-0.5-2.4-1.3-3.3-2.3c-1.2-1.4-2-3.3-2-5.3c0-4.5,3.7-8.2,8.2-8.2c1.8,0,3.4,0.6,4.8,1.5"/>
			<path class="st12" d="M77,265.3l-0.1-0.1l-4.8-3.5c0,0-3.7-2.2-8.2,2.4c0,0-3.9,3.8-2.1,8.9l4,4.1l0.7,0.7"/>
			<path class="st12" d="M78.2,266.3C78.2,266.3,78.2,266.3,78.2,266.3c-0.1-0.4-2-5.8-6.1-6.7c0,0-5.9-2-10.2,3.3
				c0,0-3,3.2-2.7,7.7c0,0-0.1,4.5,3.8,7.1c0,0,3.2,2.2,6.1,1.6"/>
			<rect x="-77.8" y="241" class="st12" width="3" height="1"/>
			<rect x="-64.8" y="241" class="st12" width="3" height="1"/>
			<rect x="-52.8" y="241" class="st12" width="3" height="1"/>
			<rect x="-28.8" y="240" class="st12" width="3" height="1"/>
			<rect x="-5.8" y="240" class="st12" width="3" height="1"/>
			<rect x="-17.8" y="240" class="st12" width="3" height="1"/>
			<rect x="22.2" y="239" class="st12" width="4" height="2"/>
			<rect x="33.2" y="239" class="st12" width="3" height="2"/>
			<rect x="55.2" y="238" class="st12" width="3" height="2"/>
			<rect x="66.2" y="238" class="st12" width="3" height="2"/>
			<rect x="77.2" y="237" class="st12" width="4" height="2"/>
			<path class="st12" d="M-100.4,275c0,1.7-1.3,3-3,3c-1.7,0-3-1.4-3-3c0-1.7,1.3-3,3-3C-101.7,272-100.4,273.3-100.4,275z"/>
			<path class="st12" d="M-101.3,274.9c0,1.2-1,2.2-2.2,2.2s-2.1-1-2.1-2.2c0-1.2,1-2.2,2.1-2.2S-101.3,273.7-101.3,274.9z"/>
			<path class="st12" d="M-100.4,285.3c0,1.7-1.3,3-3,3c-1.7,0-3-1.3-3-3c0-1.7,1.3-3,3-3C-101.7,282.3-100.4,283.7-100.4,285.3z"/>
			<path class="st12" d="M-101.3,285.3c0,1.2-1,2.2-2.2,2.2s-2.1-1-2.1-2.2c0-1.2,1-2.2,2.1-2.2S-101.3,284.1-101.3,285.3z"/>
			<line class="st12" x1="-108.7" y1="248.2" x2="-110" y2="247.9"/>
			<line class="st12" x1="-108.1" y1="246.6" x2="-109.3" y2="246.2"/>
			<line class="st12" x1="-107.3" y1="245.6" x2="-108.5" y2="244.6"/>
			<line class="st12" x1="-106.4" y1="244.6" x2="-107.1" y2="243.5"/>
			<line class="st12" x1="-105.1" y1="244.2" x2="-105.6" y2="242.6"/>
			<polyline class="st12" points="-103.8,244.5 -103.8,244.2 -103.8,241.5 			"/>
			<line class="st12" x1="-102.7" y1="244.3" x2="-102.1" y2="242.6"/>
			<line class="st12" x1="-101.5" y1="244.8" x2="-100.6" y2="243.5"/>
			<line class="st12" x1="-100.4" y1="245.6" x2="-99.1" y2="244.8"/>
			<polyline class="st12" points="-99.5,246.9 -99.5,246.9 -98,246.4 			"/>
			<polyline class="st12" points="31.4,181.9 31.4,181.9 48,175.5 50.2,174.6 53.5,173.3 			"/>
			<polyline class="st12" points="-74.6,171.5 -79.7,173.2 -81.8,173.9 -82.8,174.2 -93.1,177.6 			"/>
			<polyline class="st12" points="-103,173.8 -124.8,140.2 -124.9,140 			"/>
			<line class="st12" x1="89.2" y1="167.4" x2="109.3" y2="81.5"/>
		</g>
	</g>
</g>
<g id="drive" class="st28">
	
		<image style="display:inline;overflow:visible;" width="600" height="843" xlink:href="insp/824409576735_TTq9U5Cd_l.jpg"  transform="matrix(1 0 0 1 -758.8193 -250.7598)">
	</image>
</g>
<g id="reels_smaller" class="st28">
</g>
<g id="reels_paint">
	<g id="XMLID_3_">
		<g>
			<path class="st29" d="M79.1,0.5c43.4,0,78.6,35.2,78.6,78.6c0,43.4-35.2,78.6-78.6,78.6c-43.4,0-78.6-35.2-78.6-78.6
				C0.5,35.7,35.7,0.5,79.1,0.5z M141,55.6c0,0,2.5-0.5,1.1-4.1c0,0-4.8-13.3-15.5-22.7c0,0-1.7-2.1-3.8,0l-17.8,23.3
				c0,0-1.4,1.2,0,3.3l7.3,10.7c0,0,0.5,1.1,3,0L141,55.6z M100,144.2c0,0,2.1-0.7,1.3-4.2L91,111c0,0-0.4-2.1-2.1-1.6
				c0,0-6.4,2.4-11.7,1.5c0,0-2.1-1.1-2.4,1.2l-4,31.9c0,0-0.5,3.3,2.4,3.7C73.3,147.7,89.2,150,100,144.2z M102,79.1
				c0-12.6-10.2-22.8-22.8-22.8c-12.6,0-22.8,10.2-22.8,22.8c0,12.6,10.2,22.8,22.8,22.8C91.8,102,102,91.8,102,79.1z M52.7,59.8
				c0,0,1.1-1.5,0-2.3l-26-21c0,0-2.6-2-4.4,0.6c0,0-8,11-10.7,26.4c0,0-1.3,2.9,2.6,3.7l31,6c0,0,2.1,0.9,2.3-1.2
				C47.5,71.9,48.2,66.4,52.7,59.8z"/>
			<path class="st26" d="M79.1,56.3c12.6,0,22.8,10.2,22.8,22.8c0,12.6-10.2,22.8-22.8,22.8c-12.6,0-22.8-10.2-22.8-22.8
				C56.3,66.5,66.5,56.3,79.1,56.3z M95.2,79.1C95.2,70.2,88,63,79.1,63C70.2,63,63,70.2,63,79.1c0,8.9,7.2,16.1,16.1,16.1
				C88,95.2,95.2,88,95.2,79.1z"/>
			<path class="st17" d="M79.1,63c8.9,0,16.1,7.2,16.1,16.1c0,8.9-7.2,16.1-16.1,16.1C70.2,95.2,63,88,63,79.1
				C63,70.2,70.2,63,79.1,63z M86.2,79.1c0-3.9-3.2-7.1-7.1-7.1c-3.9,0-7.1,3.2-7.1,7.1c0,3.9,3.2,7.1,7.1,7.1
				C83.1,86.2,86.2,83.1,86.2,79.1z"/>
			<path class="st4" d="M79.1,72c3.9,0,7.1,3.2,7.1,7.1c0,3.9-3.2,7.1-7.1,7.1c-3.9,0-7.1-3.2-7.1-7.1C72,75.2,75.2,72,79.1,72z"/>
		</g>
		<g>
			<path class="st12" d="M79.1,0.5c43.4,0,78.6,35.2,78.6,78.6c0,43.4-35.2,78.6-78.6,78.6c-43.4,0-78.6-35.2-78.6-78.6
				C0.5,35.7,35.7,0.5,79.1,0.5z"/>
			<path class="st12" d="M141,55.6c0,0,2.5-0.5,1.1-4.1c0,0-4.8-13.3-15.5-22.7c0,0-1.7-2.1-3.8,0l-17.8,23.3c0,0-1.4,1.2,0,3.3
				l7.3,10.7c0,0,0.5,1.1,3,0L141,55.6z"/>
			<path class="st12" d="M100,144.2c0,0,2.1-0.7,1.3-4.2L91,111c0,0-0.4-2.1-2.1-1.6c0,0-6.4,2.4-11.7,1.5c0,0-2.1-1.1-2.4,1.2
				l-4,31.9c0,0-0.5,3.3,2.4,3.7C73.3,147.7,89.2,150,100,144.2z"/>
			<path class="st12" d="M52.7,59.8c0,0,1.1-1.5,0-2.3l-26-21c0,0-2.6-2-4.4,0.6c0,0-8,11-10.7,26.4c0,0-1.3,2.9,2.6,3.7l31,6
				c0,0,2.1,0.9,2.3-1.2C47.5,71.9,48.2,66.4,52.7,59.8z"/>
			<path class="st12" d="M102,79.1c0,12.6-10.2,22.8-22.8,22.8c-12.6,0-22.8-10.2-22.8-22.8c0-12.6,10.2-22.8,22.8-22.8
				C91.8,56.3,102,66.5,102,79.1z"/>
			<path class="st12" d="M95.2,79.1c0,8.9-7.2,16.1-16.1,16.1C70.2,95.2,63,88,63,79.1C63,70.2,70.2,63,79.1,63
				C88,63,95.2,70.2,95.2,79.1z"/>
			<path class="st12" d="M86.2,79.1c0,3.9-3.2,7.1-7.1,7.1c-3.9,0-7.1-3.2-7.1-7.1c0-3.9,3.2-7.1,7.1-7.1
				C83.1,72,86.2,75.2,86.2,79.1z"/>
		</g>
	</g>
</g>
</svg>
