<?xml version="1.0" encoding="utf-8"?>
<!-- Generator: Adobe Illustrator 16.0.0, SVG Export Plug-In . SVG Version: 6.00 Build 0)  -->
<!DOCTYPE svg PUBLIC "-//W3C//DTD SVG 1.1//EN" "http://www.w3.org/Graphics/SVG/1.1/DTD/svg11.dtd">
<svg version="1.1" xmlns="http://www.w3.org/2000/svg" xmlns:xlink="http://www.w3.org/1999/xlink" x="0px" y="0px" width="168px"
	 height="168px" viewBox="0 0 168 168" style="enable-background:new 0 0 168 168;" xml:space="preserve">
<style type="text/css">
<![CDATA[
	.st0{fill:#48555E;}
	.st1{fill:#7C9499;}
	.st2{display:inline;fill:none;stroke:#0B0146;stroke-width:0.9033;stroke-miterlimit:10;}
	.st3{fill:#111516;}
	.st4{fill:#B0B6B7;}
	.st5{fill:#B1E4EF;}
	.st6{display:inline;fill:none;stroke:#0B0146;stroke-miterlimit:10;}
	.st7{display:inline;fill:none;stroke:#0B0146;stroke-width:0.9243;stroke-miterlimit:10;}
	.st8{display:inline;fill:none;stroke:#0B0146;stroke-width:0.7161;stroke-miterlimit:10;}
	.st9{fill:#1B2123;}
	.st10{display:inline;fill:none;stroke:#0B0146;stroke-width:1.2001;stroke-miterlimit:10;}
	.st11{fill:#8AB0BC;}
	.st12{fill:none;stroke:#221F20;stroke-miterlimit:10;}
	.st13{fill:#5D777F;}
	.st14{fill:#C11616;}
	.st15{display:inline;opacity:0.6;fill:#435054;}
	.st16{display:inline;fill:none;stroke:#0B0146;stroke-width:1.0603;stroke-miterlimit:10;}
	.st17{fill:#C7CFD1;}
	.st18{fill:#2E3738;}
	.st19{fill:#FFFFFF;}
	.st20{display:inline;}
	.st21{fill:#30393D;}
	.st22{fill:#9ECBDC;}
	.st23{display:inline;fill:none;stroke:#0B0146;stroke-width:1.0352;stroke-miterlimit:10;}
	.st24{fill:#6E8389;}
	.st25{display:inline;fill:none;stroke:#0B0146;stroke-width:0.9813;stroke-miterlimit:10;}
	.st26{fill:#3A4549;}
	.st27{fill:#D7E0E3;}
	.st28{display:inline;fill:none;stroke:#0B0146;stroke-width:0.9634;stroke-miterlimit:10;}
	.st29{display:none;}
	.st30{fill:#73949B;}
]]>
</style>
<g id="photo" class="st29">
	
		<image style="display:inline;overflow:visible;opacity:0.6;" width="1193" height="1200" xlink:href="tape_02.jpg"  transform="matrix(0.2784 0 0 0.2784 -6.1729 -3.1626)">
	</image>
</g>
<g id="body" class="st29">
	<path class="st6" d="M55.3,58.8v138l-0.1,188.3c0,0-1.2,4.2,4,4.2l283.9-11.6c0,0,1.7,0.3,1.7-1.7l4.3-174l3.3-137.3
		c0-3.2-3.3-3-3.3-3l-119.6-3.7l-32.9-1.3L63,51.8C63,51.8,55.3,50.5,55.3,58.8z"/>
	<path class="st6" d="M60.6,395.9l-1.4,5.8c0,0-0.6,1.3,1.4,1.3l15-0.5c0,0,1.4,0,1-1.8l-1.3-5.3"/>
	<line class="st6" x1="57.7" y1="389.4" x2="59.2" y2="402.4"/>
	<line class="st6" x1="75.6" y1="388.7" x2="76.7" y2="401.7"/>
	<path class="st6" d="M313.7,379l15.5,11.6c0,0,1.5,1.2,3.9,1l11.2-0.3c0,0,1.2,0,1.3-2l-0.3-4.5c0,0-0.4-1.1-1.6-1.9l-4.9-5"/>
	<path class="st6" d="M344.8,384.3h-12c0,0-1.4-0.1-1.5,1.4l-0.6,4.1c0,0-0.2,1.4,1,1.9"/>
	<line class="st6" x1="331.7" y1="384.3" x2="325.1" y2="378.6"/>
	<path class="st6" d="M148,235.1l4.2-1.8l103,0.5c1.9-0.1,1.8,0.1,1.8,0.1l1.5,2.2L236,259.7c-1.2,1.2-2.1,1.6-2.1,1.6h-63.6
		c-1.9,0-2.5-1.2-2.5-1.2l-16.9-18l-1.8-1.5l-3.8-25c0.6-2.3,4.5-2.2,4.5-2.2l10.8-0.1l4.4,2.6c0,0,0.4,0.2,1.2-0.9l4.3-10.2
		l20.7-28.9c0,0,0.4-1.1,2.7-1.1l39.4,0.5c0,0,1.7-0.3,2.9,1.8l18.3,27.8l9.4,12c0,0,0.1-0.4,0,0.5c0,0.2,0,0.5,0,0.9l4.6,5.8
		c0,0,0.3,0.9-0.5,1.8l-7.7,8.7c0,0-0.6,0.6-1.6-0.3l-2.1-2.1l-11.2-0.1v-6.9l-69.2-0.1l-0.2,6.6l-24.7-0.2l0.4-13.2
		c0,0,0.1-2.1,2.8-2l109.5,1.1"/>
	<path class="st6" d="M235.1,175.4l-3.7-2.5c0,0-1.1-0.6-3-0.6l-39.3-0.7c0,0-1.5-0.1-3.5,3.1l-27.4,36.7h-45.4c0,0-1.5-0.4-1.5,3
		v29.5l17.8,17.5l40-0.2"/>
	<polyline class="st6" points="233.8,261.3 273.1,261.3 290.3,243.8 	"/>
	<polyline class="st6" points="112.8,211.5 109.3,212.6 109.3,251.8 124.3,267.8 188.8,268.1 	"/>
	<polyline class="st6" points="188.3,261.8 188.3,272.8 190.5,274.3 206.3,274.3 206.3,269.3 190.8,269.3 	"/>
	<line class="st6" x1="190.3" y1="274.8" x2="190.3" y2="261.8"/>
	<polyline class="st6" points="208,261.8 206.9,268.1 275.6,267.3 290.3,251.8 290.3,212.3 260.8,212.3 	"/>
	<polygon class="st6" points="200.1,184 226.3,184.3 226.3,194.3 199.8,194.3 	"/>
	<rect x="234.3" y="188.3" class="st6" width="4" height="6"/>
	<polyline class="st6" points="234.4,188.2 233.4,187.3 237.8,187.3 238.3,187.8 	"/>
	<polyline class="st6" points="233.3,187.8 233.3,192.8 233.9,194.3 	"/>
	<rect x="189.3" y="187.3" class="st6" width="4" height="6"/>
	<polyline class="st6" points="189.4,187.2 188.4,186.3 192.8,186.3 193.3,186.8 	"/>
	<polyline class="st6" points="188.3,186.8 188.3,191.8 188.9,193.3 	"/>
	<path class="st6" d="M75.6,388.7l0,5.8c0.1,1-0.7,1.2-0.7,1.2l-13.5,0.5c-1.1,0-1-1-1-1l-1.2-5.9c-3.1-1.4-1.9-4.6-1.9-4.6v-329
		c0,0,1-4.2,4.5-4.1"/>
	<polyline class="st6" points="347.5,268.1 206.3,269.3 206.9,268.1 	"/>
	<line class="st6" x1="187.8" y1="269.3" x2="58.8" y2="269.3"/>
	<rect x="176.3" y="235.3" class="st6" width="56" height="12"/>
	<polygon class="st6" points="69.3,277.6 335.3,274.3 335.3,292.8 69.3,297.3 	"/>
	<rect x="200.3" y="277.3" class="st6" width="15" height="10"/>
	<path class="st6" d="M223.2,282.3"/>
	<polygon class="st6" points="223.3,291.8 223.3,281.8 294.3,280.8 294.3,290.8 	"/>
	<line class="st6" x1="241.3" y1="281.8" x2="241.3" y2="291.8"/>
	<line class="st6" x1="259.3" y1="280.8" x2="259.3" y2="290.8"/>
	<line class="st6" x1="277.3" y1="280.8" x2="277.3" y2="290.8"/>
	<polygon class="st6" points="298.3,281.3 332.3,281.3 332.3,289.8 298.3,290.8 	"/>
	<line class="st6" x1="315.3" y1="281.8" x2="315.3" y2="290.8"/>
	<rect x="75.3" y="283.3" class="st6" width="11" height="12"/>
	<rect x="102.3" y="282.3" class="st6" width="5" height="12"/>
	<rect x="117.3" y="282.3" class="st6" width="5" height="12"/>
	<rect x="132.3" y="282.3" class="st6" width="5" height="12"/>
	<rect x="190.3" y="290.3" class="st6" width="6" height="3"/>
	<polyline class="st6" points="190.3,293.6 188.3,291.8 188.3,287.8 190.3,290.3 	"/>
	<polyline class="st6" points="187.8,288.3 193.8,288.3 196.3,290 	"/>
	<polyline class="st6" points="195.3,289.8 195.3,281.3 188.3,281.3 188.3,287.8 	"/>
	<path class="st6" d="M108,340.6l51.3-0.7c0,0,1.8-0.2,1.8,1.8l-0.4,27.3c0,0,0.1,1.1-1.4,1.1l-50.8,1.3c0,0-1.2,0.1-1.2-2.1v-27.4
		C107.3,341.8,107.1,340.9,108,340.6z"/>
	<path class="st6" d="M167,339.6l51.3-0.7c0,0,1.8-0.2,1.8,1.8l-0.4,25.3c0,0,0.1,2.1-1.4,2.1l-50.8,1.3c0,0-1.2,0.1-1.2-2.1v-26.4
		C166.3,340.8,166.1,339.9,167,339.6z"/>
	<polygon class="st6" points="109.3,343.2 158.3,342.3 158.3,366.8 109.3,367.8 	"/>
	<polygon class="st6" points="168.3,342.5 217.3,341.6 217.3,364.8 168.3,366.1 	"/>
	<path class="st6" d="M117.2,351.8c0,0,15.6-5.5,32.4-0.8"/>
	<line class="st6" x1="117.7" y1="349.1" x2="118.7" y2="351.4"/>
	<line class="st6" x1="122.1" y1="348.1" x2="122.7" y2="350.3"/>
	<line class="st6" x1="126.3" y1="347.5" x2="126.7" y2="349.7"/>
	<line class="st6" x1="130.3" y1="346.8" x2="130.3" y2="349.8"/>
	<line class="st6" x1="135.3" y1="346.8" x2="135.3" y2="348.8"/>
	<line class="st6" x1="141.6" y1="347.5" x2="141.1" y2="349.5"/>
	<line class="st6" x1="147" y1="348.6" x2="146.3" y2="350.3"/>
	<path class="st6" d="M175.2,349.8c0,0,15.6-5.5,32.4-0.8"/>
	<line class="st6" x1="175.7" y1="347.1" x2="176.7" y2="349.4"/>
	<line class="st6" x1="180.1" y1="346.1" x2="180.7" y2="348.3"/>
	<line class="st6" x1="184.3" y1="345.5" x2="184.7" y2="347.7"/>
	<line class="st6" x1="188.3" y1="344.8" x2="188.3" y2="347.8"/>
	<line class="st6" x1="193.3" y1="344.8" x2="193.3" y2="346.8"/>
	<line class="st6" x1="199.6" y1="345.5" x2="199.1" y2="347.5"/>
	<line class="st6" x1="205" y1="346.6" x2="204.3" y2="348.3"/>
	<path class="st6" d="M128.2,367.4c0,0,4.9-6.7,9.7-0.2"/>
	<path class="st6" d="M186.2,365.6c0,0,4.5-6.8,10.1-0.3"/>
	<rect x="117.3" y="321.3" class="st6" width="4" height="13"/>
	<rect x="132.3" y="321.3" class="st6" width="4" height="13"/>
	<rect x="147.3" y="320.3" class="st6" width="4" height="13"/>
	<rect x="176.3" y="320.3" class="st6" width="4" height="13"/>
	<rect x="191.3" y="320.3" class="st6" width="4" height="13"/>
	<rect x="206.3" y="319.3" class="st6" width="4" height="13"/>
	<rect x="242.3" y="318.3" class="st6" width="4" height="12"/>
	<rect x="256.3" y="318.3" class="st6" width="4" height="12"/>
	<rect x="284.3" y="317.3" class="st6" width="4" height="12"/>
	<rect x="311.3" y="317.3" class="st6" width="4" height="12"/>
	<rect x="297.3" y="317.3" class="st6" width="4" height="12"/>
	<polyline class="st6" points="207.3,309.8 207.3,308.6 118.3,310 118.3,311.8 	"/>
	<line class="st6" x1="193.3" y1="308.8" x2="193.3" y2="309.8"/>
	<line class="st6" x1="178.3" y1="308.8" x2="178.3" y2="309.8"/>
	<line class="st6" x1="149.3" y1="309.8" x2="149.3" y2="311.8"/>
	<line class="st6" x1="134.3" y1="309.8" x2="134.3" y2="311.8"/>
	<polyline class="st6" points="257.3,309.8 257.3,308.3 243.3,308.3 243.3,309.8 	"/>
	<polyline class="st6" points="312.3,307.8 312.3,306 285.3,307 285.3,308.8 	"/>
	<line class="st6" x1="299.3" y1="306.8" x2="299.3" y2="308.8"/>
	<circle class="st23" cx="128" cy="233.7" r="14.6"/>
	<circle class="st16" cx="128.1" cy="234.1" r="9.7"/>
	<circle class="st10" cx="129.3" cy="234" r="6.4"/>
	<circle class="st10" cx="91.5" cy="231.5" r="7.1"/>
	<path class="st10" d="M93.6,224.3l6.9-4.5c0,0,3.9-0.2,2.6,3.4c0,0-5.6,2.8-6.1,3.7"/>
	<path class="st10" d="M85.1,234.6c0,0-3.5,9.2-2.5,15.6c0,0,2,3.6,4.9,0.6c0,0-0.4-9.4,2.1-12.2"/>
	<circle class="st10" cx="260" cy="251.8" r="10"/>
	<circle class="st6" cx="260.5" cy="252.5" r="7.8"/>
	<circle class="st6" cx="285.1" cy="231" r="3.4"/>
	<path class="st6" d="M283.8,227.8c0,0-0.7-1.3-3.4-1.3c0,0-3.7,0.1-3.7,3.4c0,0-0.1,5.6,3.6,5.6c0,0,3.6-0.1,3.6-1.4"/>
	<circle class="st6" cx="281.2" cy="230.8" r="7.5"/>
	<circle class="st6" cx="260.3" cy="224" r="2.5"/>
	<circle class="st6" cx="157.3" cy="223.5" r="3"/>
	<circle class="st6" cx="324" cy="229.4" r="6.4"/>
	<path class="st6" d="M321.3,223.6c0,0-2-1.8-5.7,0c0,0-2.3,1.3-2.5,4.6c0,0-0.4,3.2,2.3,5.2c0,0,1.9,1.6,5.1,1.1"/>
	<path class="st6" d="M316.2,223.3l-4.3-2.7c0,0-6.1,0.1-2.9,4.2c0,0,2.2,1.4,4.1,2.8"/>
	<path class="st6" d="M318.8,234.7c0,0,4.1,8.8,3.1,14.9c0,0,2,3.9,4.9,0.4c0,0,0.3-11.6-2.4-14.3"/>
	<circle class="st6" cx="64" cy="310.4" r="2.8"/>
	<circle class="st6" cx="342.2" cy="304.7" r="2.7"/>
	<path class="st6" d="M89.5,326.1c0,3.4-2.8,6.2-6.2,6.2s-6.2-2.8-6.2-6.2c0-1.7,0.7-3.3,1.8-4.4c1.1-1.1,2.7-1.8,4.4-1.8
		C86.7,320,89.5,322.7,89.5,326.1z"/>
	<circle class="st6" cx="83.9" cy="343.7" r="3.8"/>
	<circle class="st8" cx="83.8" cy="343.6" r="2.7"/>
	<circle class="st6" cx="64.6" cy="383.3" r="2.8"/>
	<circle class="st6" cx="340.4" cy="372.7" r="2.6"/>
	<circle class="st6" cx="163" cy="290.1" r="5.6"/>
	<path class="st6" d="M166.2,285.5l-3.8-3.1c0,0-3.4-0.7-5.9,3.1c0,0-1.9,2.9-0.6,6.4l3.7,2.8"/>
	<path class="st6" d="M265.9,357.7c0,5.7-4.6,10.3-10.3,10.3c-5.7,0-10.3-4.6-10.3-10.3c0-5.7,4.6-10.3,10.3-10.3
		c2.5,0,4.9,0.9,6.7,2.5C264.5,351.8,265.9,354.6,265.9,357.7z"/>
	<path class="st6" d="M261.8,349.5l-6.2-4.5c0,0-4.6-2.8-10.3,3c0,0-4.9,4.8-2.6,11.2l5.9,6.1"/>
	<path class="st6" d="M263.2,350.8c0,0-2.3-7.3-7.6-8.4c0,0-7.4-2.5-12.8,4.2c0,0-3.8,4-3.3,9.7c0,0-0.1,5.7,4.8,9c0,0,4,2.8,7.6,2"
		/>
	<path class="st6" d="M314.9,354.7c0,5.7-4.6,10.3-10.3,10.3c-5.7,0-10.3-4.6-10.3-10.3c0-5.7,4.6-10.3,10.3-10.3
		c2.5,0,4.9,0.9,6.7,2.5C313.5,348.8,314.9,351.6,314.9,354.7z"/>
	<path class="st6" d="M310.8,346.5l-6.2-4.5c0,0-4.6-2.8-10.3,3c0,0-4.9,4.8-2.6,11.2l5.9,6.1"/>
	<path class="st6" d="M312.2,347.8c0,0-2.3-7.3-7.6-8.4c0,0-7.4-2.5-12.8,4.2c0,0-3.8,4-3.3,9.7c0,0-0.1,5.7,4.8,9c0,0,4,2.8,7.6,2"
		/>
	<rect x="116.3" y="315.3" class="st6" width="4" height="2"/>
	<rect x="132.3" y="315.3" class="st6" width="4" height="2"/>
	<rect x="147.3" y="315.3" class="st6" width="4" height="2"/>
	<rect x="177.3" y="314.3" class="st6" width="4" height="2"/>
	<rect x="206.3" y="314.3" class="st6" width="4" height="2"/>
	<rect x="191.3" y="314.3" class="st6" width="4" height="2"/>
	<rect x="242.3" y="313.3" class="st6" width="4" height="2"/>
	<rect x="255.3" y="313.3" class="st6" width="4" height="2"/>
	<rect x="283.3" y="312.3" class="st6" width="4" height="2"/>
	<rect x="297.3" y="312.3" class="st6" width="4" height="2"/>
	<rect x="311.3" y="311.3" class="st6" width="4" height="2"/>
	<circle class="st6" cx="83.9" cy="358.7" r="3.8"/>
	<circle class="st8" cx="83.8" cy="358.6" r="2.7"/>
	<circle class="st6" cx="83.9" cy="371.7" r="3.8"/>
	<circle class="st8" cx="83.8" cy="371.6" r="2.7"/>
	<line class="st6" x1="77.2" y1="325" x2="75.6" y2="324.6"/>
	<line class="st6" x1="78" y1="323" x2="76.4" y2="322.5"/>
	<path class="st6" d="M77.2,320"/>
	<line class="st6" x1="78.9" y1="321.8" x2="77.5" y2="320.5"/>
	<line class="st6" x1="80.1" y1="320.5" x2="79.2" y2="319"/>
	<line class="st6" x1="81.7" y1="320" x2="81.1" y2="317.9"/>
	<line class="st6" x1="83.3" y1="319.8" x2="83.3" y2="316.8"/>
	<line class="st6" x1="84.7" y1="320.1" x2="85.5" y2="317.9"/>
	<line class="st6" x1="86.2" y1="320.7" x2="87.3" y2="319"/>
	<line class="st6" x1="87.7" y1="321.8" x2="89.2" y2="320.7"/>
	<line class="st6" x1="88.8" y1="323.3" x2="90.6" y2="322.7"/>
	<line class="st6" x1="89.8" y1="325.3" x2="90.8" y2="325.3"/>
</g>
<g id="reels" class="st29">
	<circle class="st25" cx="105.5" cy="105.5" r="105"/>
	<circle class="st7" cx="313.4" cy="112.4" r="98.9"/>
	<path class="st7" d="M63.7,32.3c0,0-2-3.7-5.3-1.7c0,0-17.5,7.2-26.8,27c0,0-2,1.7,1.7,4.2c0,0,15.5,12.3,31.7,17.8
		c0,0,3.2,1.5,5.2,0c0,0,6.7-5.3,11.2-11.8c0,0,1-1.2,0-4.5C81.2,63.3,76.6,48.8,63.7,32.3z"/>
	<path class="st7" d="M66.8,179.4c0,0-2.1,3.6,1.3,5.4c0,0,15,11.5,36.9,9.4c0,0,2.5,0.9,2.7-3.5c0,0,2.8-19.6-0.7-36.3
		c0,0-0.3-3.5-2.6-4.5c0,0-8-3-15.9-3.6c0,0-1.5-0.3-3.9,2.3C84.7,148.6,74.4,159.9,66.8,179.4z"/>
	<path class="st7" d="M192.4,104.1c0,0,4.2-0.1,3.9-4c0,0,1.5-18.9-12-36.1c0,0-1.9-1.2-5.8,1c0,0-15.7,6.9-27.9,18.9
		c0,0-2.8,2.2-2.3,4.6c0,0,1.8,8.4,5.5,15.3c0,0,0.6,1.4,4,2C157.8,105.7,171.9,108.2,192.4,104.1z"/>
	<circle class="st7" cx="70.7" cy="116" r="3.2"/>
	<circle class="st7" cx="135.7" cy="133" r="3.2"/>
	<circle class="st7" cx="117.7" cy="69" r="3.2"/>
	<path class="st2" d="M137.6,104.5c0,16-13,27.5-29,27.5c-16,0-29-11.5-29-27.5c0-16,13-29,29-29C124.6,75.5,137.6,88.5,137.6,104.5
		z"/>
	<circle class="st2" cx="107.2" cy="105.3" r="30"/>
	<circle class="st2" cx="107.9" cy="105.1" r="8.9"/>
	<circle class="st2" cx="108.8" cy="103" r="3.3"/>
	<circle class="st2" cx="107.8" cy="104.5" r="19.5"/>
	<polygon class="st2" points="115.5,23.5 126.8,25.7 120.8,57.8 109.5,55.2 	"/>
	<polygon class="st2" points="148.5,135.3 136.5,147.8 173.2,183.5 185.3,170.4 	"/>
	<path class="st7" d="M361.8,49.2l-22.3,29.3c0,0-1.8,1.5,0,4.2l9.2,13.5c0,0,0.7,1.3,3.8,0l32.3-13.3c0,0,3.2-0.7,1.3-5.2
		c0,0-6-16.7-19.5-28.5C366.7,49.2,364.6,46.6,361.8,49.2z"/>
	<path class="st7" d="M325.7,153c0,0-8,3-14.7,1.8c0,0-2.7-1.3-3,1.5l-5,40.2c0,0-0.7,4.2,3,4.7c0,0,20,2.8,33.7-4.5
		c0,0,2.7-0.8,1.7-5.3l-13-36.3C328.3,155,327.9,152.3,325.7,153z"/>
	<path class="st7" d="M280.2,85.1l-32.7-26.4c0,0-3.3-2.6-5.5,0.8c0,0-10,13.8-13.5,33.2c0,0-1.7,3.7,3.3,4.7l39,7.5
		c0,0,2.7,1.2,2.8-1.5c0,0,0.8-7,6.5-15.3C280.2,88,281.5,86.2,280.2,85.1z"/>
	<circle class="st7" cx="278.4" cy="116.6" r="2.8"/>
	<circle class="st7" cx="326.8" cy="80" r="2.8"/>
	<circle class="st7" cx="333.7" cy="142.4" r="2.8"/>
	<circle class="st7" cx="317" cy="148.8" r="4.5"/>
	<circle class="st7" cx="318.7" cy="111.3" r="26.3"/>
	<circle class="st28" cx="316.7" cy="111.9" r="28.7"/>
	<circle class="st28" cx="318.8" cy="110.7" r="17.7"/>
	<circle class="st28" cx="320.3" cy="111" r="3.6"/>
	<circle class="st28" cx="317.8" cy="112.2" r="7.1"/>
	<path class="st6" d="M308.9,75.5l-4.7,0.9c0,0-2.1,0.9,0,1.9h4.6L308.9,75.5z"/>
	<polygon class="st6" points="278.7,40.3 331.3,35.8 331.3,43.8 280.8,48 	"/>
</g>
<g id="body_smaller" class="st29">
	<ellipse class="st15" cx="159.8" cy="315.3" rx="172" ry="16.5"/>
	<g id="XMLID_2_" class="st20">
		<g>
			<path class="st0" d="M89.8,168.3c-0.1,0-0.6-0.1-1,0.3l-1.5,0.5v15.4L77,187.9c0.9-1,1.5-2.3,1.5-3.8c0-1.4-0.5-2.6-1.3-3.6h0
				c0.4-0.7,4.9-3,4.9-3c1-2.9-2.1-2.7-2.1-2.7l-6,3.7c-0.4-0.1-0.7-0.1-1.1-0.1c-3.1,0-5.7,2.5-5.7,5.7l-21.8-33.7v-106
				c0,0,0.6-2.3,2.4-3c0,0,0,0,0,0c1.3-0.4,2.6-0.2,2.6-0.2l106.1,4l26.2,1.1l95.1,2.9c0,0,2.6-0.1,2.6,2.4l-1,40.2l-20.1,85.8v0
				c-0.5-0.2-1-0.3-1.6-0.3c-0.8,0-1.5,0.2-2.2,0.5c0,0-1.4-1.3-4-0.2l-3.4-2.2c0,0-4.8,0.1-2.3,3.4c0,0,1.8,1.1,3.2,2.2
				c0,0.2,0,0.4-0.1,0.5c0,0-0.3,2.5,1.8,4.2c0,0,0.4,0.4,1.2,0.7l-20.8-4.1v-13h-23.5l-0.2,0.1l-5.2-6.7l-14.6-22.1
				c-0.3-0.5-0.7-0.9-1-1.1l0.1-0.1l-2.9-2c0,0-0.9-0.5-2.4-0.5l-31.2-0.6c0,0-1.2,0-2.8,2.6l-21.8,29.3L89.8,168.3
				C89.8,168.3,89.8,168.3,89.8,168.3z"/>
			<path class="st0" d="M279.4,91.9l-1.7,69l-1.3,52.4h0l-112.1,1h-0.2l0.4-1l0.1,0l0,0.1l54.8-0.6l11.9-12.4v-5.9v-12.1l20.8,4.1
				l0,0c0.4,0.1,0.9,0.2,1.5,0.3h0c0,0,3.3,7,2.5,11.9c0,0,1.6,3.1,3.9,0.3c0,0,0.2-9.2-1.9-11.4c2.6-0.2,4.7-2.4,4.7-5
				c0-2.2-1.5-4.1-3.5-4.8v0L279.4,91.9z"/>
			<path class="st13" d="M248.4,276.7c-0.1-0.3-2-5.8-6-6.7c0,0-5.9-2-10.2,3.3c0,0-3,3.2-2.7,7.7c0,0-0.1,4.5,3.8,7.1
				c0,0,3.2,2.2,6.1,1.6c0.9,0.3,1.9,0.5,2.9,0.5c4.5,0,8.2-3.7,8.2-8.2C250.5,280,249.7,278.1,248.4,276.7L248.4,276.7z
				 M151.3,218.1l0.2,0.3h12.8v-4v-0.1l112.1-1h0l-2.1,85.9c0,1.6-1.3,1.3-1.3,1.3l-3.5,0.1l-10.9,0.4l-9.1,0.4l-189.3,7.7h0
				l-12.9,0.5c-0.1,0-0.2,0-0.2,0c-2.4-1.1-1.7-3.6-1.7-3.6v-91.8h104.5h0.5v2.7L151.3,218.1z M70.7,257.2c-0.2-0.5-0.5-0.9-0.9-1.2
				c-0.3-0.3-0.7-0.6-1.2-0.9c-0.7-0.4-1.5-0.6-2.3-0.6h0c-1.4,0-2.6,0.5-3.5,1.4c-0.7,0.7-1.2,1.6-1.4,2.6
				c-0.1,0.3-0.1,0.6-0.1,0.9c0,2.7,2.2,4.9,4.9,4.9c2.7,0,4.9-2.2,4.9-4.9C71.2,258.6,71,257.9,70.7,257.2z M274.4,242.4
				c0-1.2-1-2.1-2.1-2.1c-1.2,0-2.1,0.9-2.1,2.1c0,1.2,1,2.1,2.1,2.1C273.4,244.5,274.4,243.6,274.4,242.4z M272.9,296.5
				c0-1.1-0.9-2.1-2.1-2.1c-1.2,0-2.1,0.9-2.1,2.1c0,1.2,0.9,2.1,2.1,2.1C271.9,298.6,272.9,297.6,272.9,296.5z M266.3,233v-14.7
				l-211,2.6v15.7L266.3,233z M251.3,262.3v-10h-4v10H251.3z M251.3,249.3v-2h-4v2H251.3z M239.3,262.3v-10h-3v10H239.3z
				 M239.3,250.3v-2h-3v2H239.3z M229.3,262.3v-10h-3v10H229.3z M228.3,250.3v-2h-3v2H228.3z M211.5,284.5c0-2.1-0.8-4-2.1-5.5
				c0,0-1.9-5.8-6.1-6.7c0,0-5.9-2-10.2,3.3c0,0-3,3.2-2.7,7.7c0,0-0.1,4.5,3.8,7.1c0,0,3.2,2.2,6.1,1.6c0.9,0.3,1.9,0.5,2.9,0.5
				C207.9,292.7,211.5,289.1,211.5,284.5z M207.3,262.3v-9h-3v9H207.3z M206.3,251.3v-2h-3v2H206.3z M196.3,262.3v-9h-4v9H196.3z
				 M196.3,251.3v-2h-4v2H196.3z M174.8,291.1l0.3-20.1c0-1.6-1.5-1.4-1.5-1.4l-40.8,0.6c-0.7,0.2-0.5,1-0.5,1v21c0,1.7,1,1.7,1,1.7
				l40.4-1C174.9,292.7,174.8,291.1,174.8,291.1z M167.3,264.3v-10h-3v10H167.3z M167.3,251.3v-1h-3v1H167.3z M155.3,265.3v-11h-3
				v11H155.3z M155.3,251.3v-1h-3v1H155.3z M144.3,251.3v-1h-3v1H144.3z M143.3,265.3v-11h-3v11H143.3z M127.9,293.5l0.3-21.7
				c0-1.6-1.5-1.4-1.5-1.4L85.9,271c-0.7,0.2-0.6,1-0.6,1v21.8c0,1.7,1,1.7,1,1.7l40.4-1C127.9,294.3,127.9,293.5,127.9,293.5z
				 M120.3,265.3v-11h-3v11H120.3z M120.3,252.3v-1h-3v1H120.3z M108.3,266.3v-11h-3v11H108.3z M108.3,252.3v-1h-3v1H108.3z
				 M96.3,266.3v-11h-3v11H96.3z M95.3,252.3v-1h-3v1H95.3z M69.8,273.4c0-1.7-1.3-3-3-3c-1.7,0-3,1.3-3,3c0,1.7,1.3,3,3,3
				C68.5,276.4,69.8,275,69.8,273.4z M69.8,285.3c0-1.7-1.3-3-3-3c-1.7,0-3,1.4-3,3c0,1.7,1.3,3,3,3C68.5,288.3,69.8,287,69.8,285.3
				z M69.8,295.7c0-1.7-1.3-3-3-3c-1.7,0-3,1.3-3,3c0,1.7,1.3,3,3,3C68.5,298.7,69.8,297.3,69.8,295.7z M53.6,304.9
				c0-1.2-1-2.2-2.2-2.2c-1.2,0-2.2,1-2.2,2.2s1,2.2,2.2,2.2C52.7,307.1,53.6,306.1,53.6,304.9z M53.2,246.9c0-1.2-1-2.2-2.2-2.2
				c-1.2,0-2.2,1-2.2,2.2c0,1.2,1,2.2,2.2,2.2C52.2,249.2,53.2,248.2,53.2,246.9z"/>
			<path class="st21" d="M274.7,306.2l0.2,3.5c-0.1,1.6-1,1.6-1,1.6l-8.9,0.2c-0.5,0-1,0-1.4-0.1l0-0.2c-1-0.4-0.5-1.4-0.5-1.4
				l0.5-3.3c0-0.4,0.2-0.7,0.4-0.8c0.4-0.4,0.8-0.4,0.8-0.4h9.1l0.2-0.2C274.5,305.7,274.7,306.2,274.7,306.2z"/>
			<path class="st26" d="M274,305.2l-0.2,0.2h-9.1c0,0-0.5,0.1-0.8,0.4l-0.1-0.1l-5.3-4.6l10.9-0.4l3.9,4
				C273.6,304.8,273.8,305,274,305.2z"/>
			<path class="st27" d="M272.2,240.3c1.2,0,2.1,0.9,2.1,2.1c0,1.2-1,2.1-2.1,2.1c-1.2,0-2.1-1-2.1-2.1
				C270.1,241.3,271.1,240.3,272.2,240.3z"/>
			<path class="st27" d="M270.8,294.4c1.1,0,2.1,0.9,2.1,2.1c0,1.2-0.9,2.1-2.1,2.1c-1.2,0-2.1-0.9-2.1-2.1
				C268.7,295.3,269.6,294.4,270.8,294.4z"/>
			<path class="st0" d="M151.5,233.3h4.9v-2h-5v1.8v0.2H151.5z M192.3,224l-15,0.2v8l15-0.2l14-0.2l14-0.2l14-0.2v-8l-14,0.2
				l-14,0.2L192.3,224z M155.3,230v-6.7h-5v5.5v0.2v0.3h0.3h3.6L155.3,230z M266.3,218.2V233l-211,3.6v-15.7L266.3,218.2z
				 M264.3,230.6v-7.2h-13h-14v8l14-0.4L264.3,230.6z M171.3,228.3v-8h-12v8H171.3z M134.2,230.8c0-1.5-0.8-2.9-1.9-3.7l0,0l-3-2.5
				c0,0-2.7-0.5-4.7,2.5c0,0-1.5,2.3-0.5,5.1l2.8,2.1l0.2,0.1c0.7,0.6,1.7,0.9,2.7,0.9C132.2,235.3,134.2,233.2,134.2,230.8z
				 M109.3,234.3v-10h-4v10H109.3z M97.3,234.3v-10h-4v10H97.3z M85.3,234.3v-10h-4v10H85.3z M68.3,235.3v-10h-8v10H68.3z"/>
			<polygon class="st27" points="264.3,223.3 264.3,230.6 251.3,231 251.3,231 251.3,223.8 251.3,223.3 			"/>
			<path class="st21" d="M263.9,305.7L263.9,305.7c-0.1,0.2-0.3,0.5-0.3,0.9l-0.5,3.3c0,0-0.4,1,0.5,1.4l0,0.2
				c-1.1-0.2-1.7-0.8-1.7-0.8l-12.3-9.2l9.1-0.4L263.9,305.7z"/>
			<path class="st22" d="M259.4,177.7c2,0.7,3.5,2.6,3.5,4.8c0,2.7-2.1,4.9-4.7,5c-0.1,0-0.3,0-0.4,0c-1.1,0-2-0.3-2.9-0.9
				c-1.3-0.9-2.2-2.5-2.2-4.2c0-2,1.2-3.8,2.9-4.6c0.7-0.3,1.4-0.5,2.2-0.5C258.3,177.4,258.9,177.5,259.4,177.7z"/>
			<path class="st9" d="M258.2,187.5c2.1,2.2,1.9,11.4,1.9,11.4c-2.3,2.8-3.9-0.3-3.9-0.3c0.8-4.9-2.5-11.9-2.5-11.9
				c0.4,0,0.8,0,1.3,0c0.8,0.5,1.8,0.9,2.9,0.9C257.9,187.6,258,187.6,258.2,187.5z"/>
			<path class="st21" d="M255.6,177.9c-1.7,0.8-2.9,2.6-2.9,4.6c0,1.7,0.9,3.3,2.2,4.2c-0.5,0.1-0.9,0.1-1.3,0h0l-1.5-0.3l0,0
				c-0.8-0.3-1.2-0.7-1.2-0.7c-2.2-1.6-1.8-4.2-1.8-4.2c0-0.2,0-0.4,0.1-0.5c0.3-2.2,1.9-3.1,1.9-3.1c0.2-0.1,0.4-0.2,0.6-0.2
				C254.2,176.7,255.6,177.9,255.6,177.9z"/>
			<path class="st9" d="M248.1,175.5l3.4,2.2c-0.2,0.1-0.4,0.2-0.6,0.2c0,0-1.6,0.9-1.9,3.1c-1.5-1.1-3.2-2.2-3.2-2.2
				C243.3,175.6,248.1,175.5,248.1,175.5z"/>
			<rect x="247.3" y="252.3" class="st27" width="4" height="10"/>
			<rect x="247.3" y="247.3" class="st14" width="4" height="2"/>
			<polygon class="st27" points="251.3,231 251.3,231 237.3,231.4 237.3,223.3 251.3,223.3 251.3,223.8 			"/>
			<path class="st22" d="M236.1,287.5c-1.2-1.4-2-3.3-2-5.3c0-4.5,3.7-8.2,8.2-8.2c1.8,0,3.4,0.6,4.8,1.5l0.1,0.1
				c0.1,0.1,0.3,0.2,0.4,0.3c0.3,0.2,0.5,0.5,0.7,0.7c1.3,1.5,2.1,3.4,2.1,5.5c0,4.5-3.7,8.2-8.2,8.2c-1,0-2-0.2-2.9-0.5
				C238.1,289.3,237,288.5,236.1,287.5z"/>
			<path class="st22" d="M248.4,276.7L248.4,276.7c-0.2-0.2-0.5-0.5-0.7-0.7c-0.1-0.1-0.3-0.2-0.4-0.3l-0.1-0.1l-4.8-3.5
				c0,0-3.7-2.2-8.2,2.4c0,0-3.9,3.8-2.1,8.9l4,4.1c0.9,1,2,1.8,3.3,2.3c-2.9,0.6-6.1-1.6-6.1-1.6c-3.9-2.6-3.8-7.1-3.8-7.1
				c-0.4-4.5,2.7-7.7,2.7-7.7c4.2-5.3,10.2-3.3,10.2-3.3C246.4,270.8,248.3,276.3,248.4,276.7z"/>
			<path class="st21" d="M242.3,272l4.8,3.5c-1.3-1-3-1.5-4.8-1.5c-4.5,0-8.2,3.7-8.2,8.2c0,2,0.8,3.9,2,5.3l-4-4.1
				c-1.9-5.1,2.1-8.9,2.1-8.9C238.7,269.9,242.3,272,242.3,272z"/>
			<rect x="236.3" y="252.3" class="st27" width="3" height="10"/>
			<polygon class="st27" points="234.3,223.4 234.3,231.4 220.3,231.6 220.3,223.8 220.3,223.6 			"/>
			<polygon class="st21" points="231.3,194.4 231.3,200.3 219.5,212.7 164.7,213.4 164.7,213.3 165.7,208.5 165.7,208.3 
				185.8,208.3 186,208.3 206.8,208.3 217.2,208.3 230.9,194.4 			"/>
			<path class="st0" d="M231.3,182.4v12.1h-0.5l-13.6,13.9h-10.4v0c4.4,0,8-3.6,8-8c0-4.4-3.6-7.9-8-7.9c-2.2,0-4.2,0.9-5.6,2.3
				l-1.1-1l1.4-1.5h0l16.6-6.4c0.9,2.2,3,3.8,5.5,3.8c3.3,0,5.9-2.7,5.9-5.9c0-0.6-0.1-1.1-0.2-1.7L231.3,182.4z"/>
			<path class="st0" d="M231.3,169.3v13l-1.9-0.4c-0.7-2.5-3-4.3-5.7-4.3c-3.3,0-5.9,2.7-5.9,5.9c0,0.8,0.1,1.5,0.4,2.2l-16.6,6.4
				l4-4.3l-1.2-1.8c0,0,0,0,0,0l0.7-0.7l0.6,0.6c0.8,0.8,1.2,0.2,1.2,0.2l6.1-6.9c0.7-0.7,0.4-1.4,0.4-1.4l-3.6-4.6
				c0-0.3,0-0.5,0-0.7c0-0.7,0-0.4,0-0.4l-2.2-2.9l0.2-0.1H231.3z"/>
			<path class="st22" d="M229.4,182c0.2,0.5,0.2,1.1,0.2,1.7c0,3.3-2.7,5.9-5.9,5.9c-2.5,0-4.7-1.6-5.5-3.8l2.2-0.9
				c0.3,1.2,1,2.4,2.6,2.4c0,0,2.8-0.1,2.8-1.1c0.3,0.1,0.6,0.2,1,0.2c1.5,0,2.7-1.2,2.7-2.7c0-0.8-0.3-1.4-0.8-1.9L229.4,182z"/>
			<path class="st22" d="M229.4,182l-0.7-0.1h0c-0.5-0.5-1.1-0.8-1.9-0.8c-0.3,0-0.7,0.1-1,0.2c0,0-0.6-1-2.7-1c0,0-2.9,0.1-2.9,2.7
				c0,0,0,1,0.3,2l-2.2,0.9c-0.3-0.7-0.4-1.4-0.4-2.2c0-3.3,2.7-5.9,5.9-5.9C226.4,177.7,228.7,179.5,229.4,182z"/>
			<rect x="226.3" y="252.3" class="st27" width="3" height="10"/>
			<path class="st22" d="M228.7,181.8c0.5,0.5,0.8,1.2,0.8,1.9c0,1.5-1.2,2.7-2.7,2.7c-0.3,0-0.7-0.1-1-0.2c-1-0.4-1.7-1.4-1.7-2.5
				c0-1.1,0.7-2.1,1.7-2.5c0.3-0.1,0.6-0.2,1-0.2C227.5,181.1,228.2,181.4,228.7,181.8L228.7,181.8z"/>
			<rect x="225.3" y="248.3" class="st14" width="3" height="2"/>
			<path class="st21" d="M220.4,184.9c-0.3-1-0.3-2-0.3-2c0-2.6,2.9-2.7,2.9-2.7c2.1,0,2.7,1,2.7,1c-1,0.4-1.7,1.4-1.7,2.5
				c0,1.1,0.7,2.1,1.7,2.5c0,1-2.8,1.1-2.8,1.1C221.4,187.3,220.7,186.1,220.4,184.9z"/>
			<polygon class="st27" points="220.3,223.8 220.3,231.6 206.3,231.8 206.3,223.8 206.3,223.8 220.3,223.6 			"/>
			<path class="st22" d="M213.5,178c0,0,0.2,0.7-0.4,1.4l-6.1,6.9c0,0-0.5,0.5-1.2-0.2l-0.6-0.6l-1-1l-8.9-0.1v-5.5l-55.1-0.1
				L140,184l-19.6-0.1l0.3-10.5c0,0,0.1-1.7,2.2-1.6l8.5,0.1l78.6,0.8c0,0.2,0,0.4,0,0.7L213.5,178z M209.1,178.2c0-1.1-0.9-2-2-2
				s-2,0.9-2,2s0.9,2,2,2S209.1,179.3,209.1,178.2z M127.5,177.9c0-1.3-1-2.4-2.4-2.4c-1.3,0-2.4,1-2.4,2.4c0,1.3,1.1,2.4,2.4,2.4
				C126.5,180.2,127.5,179.2,127.5,177.9z"/>
			<path class="st21" d="M206.8,192.4c4.4,0,8,3.6,8,7.9c0,4.4-3.6,8-8,8c-4.4,0-7.9-3.6-7.9-8c0-2.2,0.9-4.2,2.3-5.6
				C202.7,193.3,204.7,192.4,206.8,192.4z M213.4,200.9c0-3.4-2.8-6.2-6.2-6.2c-3.4,0-6.2,2.8-6.2,6.2c0,3.4,2.8,6.2,6.2,6.2
				C210.7,207.1,213.4,204.3,213.4,200.9z"/>
			<path class="st22" d="M207.2,194.7c3.4,0,6.2,2.8,6.2,6.2c0,3.4-2.8,6.2-6.2,6.2c-3.4,0-6.2-2.8-6.2-6.2
				C201,197.5,203.8,194.7,207.2,194.7z"/>
			<path class="st22" d="M197.2,289.9c-1.2-1.4-2-3.3-2-5.4c0-4.5,3.7-8.2,8.2-8.2c1.8,0,3.4,0.6,4.8,1.5l0.1,0.1
				c0.1,0.1,0.3,0.2,0.4,0.3c0.3,0.2,0.5,0.5,0.8,0.7c1.3,1.5,2.1,3.4,2.1,5.5c0,4.5-3.7,8.2-8.2,8.2c-1,0-2-0.2-2.9-0.5
				C199.2,291.7,198.1,290.9,197.2,289.9z"/>
			<path class="st5" d="M150.3,149.3v3.3v1.7h4v-5H150.3z M209.9,172.3c0,0,0.1-0.3,0,0.4l-78.6-0.8v-0.3c0.1,0,0.4-0.1,0.9-0.7
				l3.5-8.1l16.4-23c0,0,0.3-0.9,2.2-0.9l31.3,0.4c0,0,0.6-0.1,1.3,0.3c0.3,0.2,0.7,0.5,1,1.1l14.6,22.1l5.2,6.7L209.9,172.3z
				 M189.3,154.3v-4h-3v4H189.3z M180.3,154.3v-7.6l-21-0.4l-0.3,8.1H180.3z"/>
			<path class="st22" d="M209.4,279.1c-0.2-0.3-0.5-0.5-0.8-0.7c-0.1-0.1-0.3-0.2-0.4-0.3l-0.1-0.1l-4.8-3.5c0,0-3.7-2.2-8.2,2.4
				c0,0-3.9,3.8-2.1,8.9l4.1,4.1c0.9,1,2,1.8,3.2,2.3c-2.9,0.6-6.1-1.6-6.1-1.6c-3.9-2.6-3.8-7.1-3.8-7.1c-0.4-4.5,2.7-7.7,2.7-7.7
				c4.2-5.3,10.2-3.3,10.2-3.3C207.6,273.2,209.4,279.1,209.4,279.1z"/>
			<path class="st27" d="M207.1,176.2c1.1,0,2,0.9,2,2s-0.9,2-2,2s-2-0.9-2-2S206,176.2,207.1,176.2z"/>
			<path class="st21" d="M203.4,274.4l4.8,3.5c-1.3-1-3-1.5-4.8-1.5c-4.5,0-8.2,3.7-8.2,8.2c0,2,0.8,3.9,2,5.4l-4.1-4.1
				c-1.8-5.1,2.1-8.9,2.1-8.9C199.7,272.2,203.4,274.4,203.4,274.4z"/>
			<rect x="204.3" y="253.3" class="st27" width="3" height="9"/>
			<path class="st0" d="M206.8,208.3L206.8,208.3l-20.8,0c0,0,0.7-0.5,1.7-1.5l12.4-13.1l1.1,1c-1.4,1.4-2.3,3.4-2.3,5.6
				C198.9,204.8,202.5,208.3,206.8,208.3z"/>
			<rect x="203.3" y="249.3" class="st14" width="3" height="2"/>
			<polygon class="st27" points="206.3,223.8 206.3,231.8 192.3,232 192.3,231.8 192.3,224 206.3,223.8 			"/>
			<path class="st22" d="M151.3,208.3h-1h-14.9c-0.7,0-1.2-0.3-1.5-0.6c-0.4-0.3-0.5-0.6-0.5-0.6L120,192.7l-1.4-1.2L118,187
				l3.1-1.3l18.8,0.1l63.1,0.3c1.3-0.1,1.4,0,1.4,0.1c0,0,0,0,0,0l1.2,1.8l-4,4.3h0l-1.4,1.5l-12.4,13.1c-1,1-1.7,1.5-1.7,1.5h-0.2
				h-20.2H151.3z M185.3,196.3v-9h-45v9H185.3z"/>
			<path class="st13" d="M204.2,184.5l1,1l-0.7,0.7c0,0-0.1-0.2-1.4-0.1l-63.1-0.3l0-1.7l0.2-5.3l55.1,0.1v5.5L204.2,184.5z"/>
			<rect x="192.3" y="253.3" class="st27" width="4" height="9"/>
			<polygon class="st27" points="192.3,231.8 192.3,232 177.3,232.2 177.3,224.2 192.3,224 			"/>
			<rect x="186.3" y="150.3" class="st27" width="3" height="4"/>
			<path class="st13" d="M184.1,137.5l2.9,2l-0.1,0.1c-0.7-0.4-1.3-0.3-1.3-0.3l-31.3-0.4c-1.9,0-2.2,0.9-2.2,0.9l-16.4,23l-3.5,8.1
				c-0.4,0.7-0.8,0.7-0.9,0.7c0,0,0,0,0,0l-3.5-2l-1.9,0l0-1.3l21.8-29.3c1.6-2.6,2.8-2.6,2.8-2.6l31.2,0.6
				C183.2,137,184.1,137.5,184.1,137.5z"/>
			<rect x="140.3" y="187.3" class="st11" width="45" height="9"/>
			<polygon points="180.3,146.7 180.3,154.3 159,154.3 159.3,146.3 			"/>
			<path class="st22" d="M175.1,271l-0.3,20.1c0,0,0.1,1.7-1.1,1.7l-40.4,1c0,0-1,0.1-1-1.7v-21c0,0-0.2-0.8,0.5-1l40.8-0.6
				C173.6,269.6,175,269.4,175.1,271z M173.3,290.2v-18.5l-39,0.7v18.8l21.9-0.6L173.3,290.2z"/>
			<rect x="159.3" y="220.3" class="st26" width="12" height="8"/>
			<rect x="164.3" y="254.3" class="st27" width="3" height="10"/>
			<polygon class="st24" points="165.7,208.3 165.7,208.5 164.7,213.3 164.6,213.3 164.2,214.3 164.3,214.3 164.3,214.3 
				151.8,214.3 151.3,214.3 151.3,208.3 			"/>
			<polygon class="st1" points="164.3,214.3 164.3,218.3 151.6,218.3 151.3,218.1 151.3,214.3 151.8,214.3 			"/>
			<polygon class="st27" points="156.3,231.3 156.3,233.3 151.5,233.3 151.3,233.2 151.3,231.3 			"/>
			<rect x="152.3" y="254.3" class="st27" width="3" height="11"/>
			<polygon class="st27" points="155.3,223.3 155.3,230 154.2,229.3 150.6,229.3 150.3,229 150.3,228.8 150.3,223.3 			"/>
			<polygon class="st27" points="150.3,152.6 150.3,149.3 154.3,149.3 154.3,154.3 150.3,154.3 			"/>
			<path class="st0" d="M150.3,213.3v1h-0.5H45.3v-63.8l21.8,33.7c0,0.9,0.2,1.8,0.6,2.5c0,0-2.8,7.3-2,12.4c0,0,1.6,2.9,3.9,0.5
				c0,0-0.3-7.5,1.7-9.7l0-0.2c0.5,0.1,1,0.2,1.5,0.2c1.7,0,3.2-0.7,4.2-1.9l10.3-3.4v15.8l11.8,12.7L150.3,213.3z"/>
			<path class="st21" d="M150.3,208.3v5l-51.2-0.2l-11.8-12.7v-15.8l1-0.3v9.8l14.3,13.9l31.4-0.2c0.3,0.3,0.8,0.6,1.5,0.6H150.3z"
				/>
			<rect x="140.3" y="254.3" class="st27" width="3" height="11"/>
			<path class="st13" d="M140,184l0,1.7l-18.8-0.1L118,187l-2.3-15.5c0.5-1.8,3.6-1.8,3.6-1.8l6.7-0.1l1.9,0l3.5,2c0,0,0,0,0,0v0.3
				l-8.5-0.1c-2.2-0.1-2.2,1.6-2.2,1.6l-0.3,10.5L140,184z"/>
			<path class="st0" d="M133.9,207.8l-31.4,0.2L88.3,194v-9.8l2.1-0.7c-0.2,0.8-0.3,1.6-0.3,2.4c0,6.4,5.2,11.6,11.6,11.6
				s11.6-5.2,11.6-11.6c0-0.4,0-0.8-0.1-1.2l4.4,2.4l0.2-0.1l0.7,4.4l1.4,1.2l13.4,14.4C133.5,207.1,133.6,207.5,133.9,207.8z"/>
			<path class="st22" d="M132.2,227.1c1.2,0.8,1.9,2.2,1.9,3.7c0,2.5-2,4.5-4.5,4.5c-1,0-1.9-0.3-2.7-0.9l-0.2-0.1
				c-1-0.8-1.6-2.1-1.6-3.5c0-2.5,2-4.5,4.5-4.5C130.6,226.3,131.5,226.6,132.2,227.1L132.2,227.1z"/>
			<path class="st21" d="M129.2,224.6l3,2.5c-0.7-0.5-1.6-0.8-2.5-0.8c-2.5,0-4.5,2-4.5,4.5c0,1.4,0.6,2.6,1.6,3.5l-2.8-2.1
				c-1-2.8,0.5-5.1,0.5-5.1C126.5,224.1,129.2,224.6,129.2,224.6z"/>
			<path class="st22" d="M128.1,271.8l-0.3,21.7c0,0,0.1,0.9-1.1,0.9l-40.4,1c0,0-1,0.1-1-1.7v-21.8c0,0-0.1-0.7,0.6-1l40.8-0.6
				C126.7,270.4,128.1,270.2,128.1,271.8z M126.3,291.8v-19.5l-39,0.7v19.6l14.7-0.3l7.8-0.2L126.3,291.8z"/>
			<path class="st27" d="M125.2,175.5c1.3,0,2.4,1,2.4,2.4c0,1.3-1,2.4-2.4,2.4c-1.3,0-2.4-1.1-2.4-2.4
				C122.8,176.6,123.9,175.5,125.2,175.5z"/>
			<path class="st0" d="M125.9,168.3l0,1.3l-6.7,0.1c0,0-3.1,0-3.6,1.8L118,187l-0.2,0.1l-4.4-2.4c-0.6-5.8-5.6-10.4-11.6-10.4
				c-5.6,0-10.2,3.9-11.4,9.2l-2.1,0.7v-13.7c0-1,0.2-1.6,0.5-1.9l1-0.3c0,0,0,0,0,0H125.9z"/>
			<rect x="117.3" y="254.3" class="st27" width="3" height="11"/>
			<path class="st22" d="M113.4,184.7c0,0.4,0.1,0.8,0.1,1.2c0,6.4-5.2,11.6-11.6,11.6s-11.6-5.2-11.6-11.6c0-0.8,0.1-1.7,0.3-2.4
				l5.1-1.7c-0.9,1.2-1.4,2.8-1.4,4.4c0,4.3,3.5,7.7,7.7,7.7c4.3,0,7.7-3.5,7.7-7.7c0-1.5-0.4-3-1.2-4.2L113.4,184.7z"/>
			<path class="st22" d="M113.4,184.7l-5-2.7c0,0,0,0,0,0c-1.4-2.1-3.8-3.5-6.5-3.5c-2.6,0-5,1.3-6.4,3.3l-5.1,1.7
				c1.1-5.2,5.8-9.2,11.4-9.2C107.9,174.3,112.8,178.9,113.4,184.7z"/>
			<rect x="105.3" y="224.3" class="st27" width="4" height="10"/>
			<path class="st21" d="M108.4,182c0.8,1.2,1.2,2.6,1.2,4.2c0,4.3-3.5,7.7-7.7,7.7c-4.3,0-7.7-3.5-7.7-7.7c0-1.6,0.5-3.1,1.4-4.4
				c1.4-2,3.7-3.3,6.4-3.3C104.7,178.5,107.1,179.9,108.4,182C108.4,182,108.4,182,108.4,182z M108,186.2c0-2.8-2.3-5.1-5.1-5.1
				c-2.8,0-5.1,2.3-5.1,5.1s2.3,5.1,5.1,5.1C105.7,191.3,108,189,108,186.2z"/>
			<rect x="105.3" y="255.3" class="st27" width="3" height="11"/>
			<path class="st22" d="M102.9,181.1c2.8,0,5.1,2.3,5.1,5.1s-2.3,5.1-5.1,5.1c-2.8,0-5.1-2.3-5.1-5.1S100.1,181.1,102.9,181.1z"/>
			<rect x="93.3" y="224.3" class="st27" width="4" height="10"/>
			<rect x="93.3" y="255.3" class="st27" width="3" height="11"/>
			<rect x="81.3" y="224.3" class="st27" width="4" height="10"/>
			<path class="st9" d="M80,174.9c0,0,3.1-0.2,2.1,2.7c0,0-4.5,2.2-4.9,3h0c-0.8-1-1.9-1.7-3.2-2L80,174.9z"/>
			<path class="st22" d="M77.2,180.6c0.8,1,1.3,2.2,1.3,3.6c0,1.4-0.6,2.8-1.5,3.8c-1,1.2-2.5,1.9-4.2,1.9c-0.5,0-1-0.1-1.5-0.2
				c-1.6-0.4-2.9-1.5-3.6-3c-0.4-0.8-0.6-1.6-0.6-2.5c0-3.1,2.5-5.7,5.7-5.7c0.4,0,0.8,0,1.1,0.1C75.2,178.9,76.4,179.6,77.2,180.6z
				"/>
			<path class="st9" d="M71.4,189.6l0,0.2c-2,2.3-1.7,9.7-1.7,9.7c-2.3,2.4-3.9-0.5-3.9-0.5c-0.8-5.1,2-12.4,2-12.4
				C68.5,188.1,69.8,189.2,71.4,189.6z"/>
			<path class="st22" d="M70.7,257.2c0.4,0.7,0.6,1.4,0.6,2.3c0,2.7-2.2,4.9-4.9,4.9c-2.7,0-4.9-2.2-4.9-4.9c0-0.3,0-0.6,0.1-0.9
				c0.2-1,0.7-1.9,1.4-2.6c0.9-0.9,2.1-1.4,3.5-1.4h0c0.8,0,1.6,0.2,2.3,0.6c0.4,0.2,0.8,0.5,1.2,0.9
				C70.2,256.3,70.5,256.7,70.7,257.2z"/>
			<path class="st22" d="M66.8,270.4c1.7,0,3,1.3,3,3c0,1.7-1.3,3-3,3c-1.7,0-3-1.3-3-3C63.8,271.7,65.1,270.4,66.8,270.4z
				 M68.9,273.3c0-1.2-1-2.2-2.2-2.2s-2.1,1-2.1,2.2c0,1.2,1,2.2,2.1,2.2S68.9,274.5,68.9,273.3z"/>
			<path class="st3" d="M66.7,271.2c1.2,0,2.2,1,2.2,2.2c0,1.2-1,2.2-2.2,2.2s-2.1-1-2.1-2.2C64.6,272.1,65.5,271.2,66.7,271.2z"/>
			<path class="st3" d="M66.7,283.1c1.2,0,2.2,1,2.2,2.2c0,1.2-1,2.2-2.2,2.2s-2.1-1-2.1-2.2C64.6,284.1,65.5,283.1,66.7,283.1z"/>
			<path class="st3" d="M66.7,293.4c1.2,0,2.2,1,2.2,2.2c0,1.2-1,2.2-2.2,2.2s-2.1-1-2.1-2.2C64.6,294.4,65.5,293.4,66.7,293.4z"/>
			<rect x="60.3" y="225.3" class="st14" width="8" height="10"/>
			<path class="st21" d="M61,318.9l0,0.5c-0.1,0.8-0.8,0.8-0.8,0.8l-11.9,0.4c-1,0-1.2-0.4-1.2-0.7c0-0.2,0.1-0.3,0.1-0.3l1.1-4.6
				c0.1,0.2,0.3,0.3,0.7,0.3l10.7-0.4c0,0,0.1,0,0.3-0.1L61,318.9C61,318.9,61,318.9,61,318.9z"/>
			<path class="st26" d="M60.2,313.9c0,0.4-0.1,0.7-0.3,0.8v0c-0.1,0.1-0.3,0.1-0.3,0.1L49,315.2c-0.4,0-0.6-0.1-0.7-0.3
				c-0.1-0.2-0.1-0.5-0.1-0.5l-1.2-4.7c0,0,0,0,0,0c0.1,0,0.2,0,0.2,0l12.9-0.5L60.2,313.9z"/>
			<path class="st27" d="M51.5,302.7c1.2,0,2.2,1,2.2,2.2s-1,2.2-2.2,2.2c-1.2,0-2.2-1-2.2-2.2S50.2,302.7,51.5,302.7z"/>
			<path class="st27" d="M51,244.7c1.2,0,2.2,1,2.2,2.2c0,1.2-1,2.2-2.2,2.2c-1.2,0-2.2-1-2.2-2.2C48.8,245.7,49.8,244.7,51,244.7z"
				/>
			<path class="st21" d="M48.3,314.9l-1.1,4.6c0,0-0.1,0.2-0.1,0.3h0L46,309.8l0-0.1c0.3,0.1,0.6,0.1,1,0.1c0,0,0,0,0,0l1.2,4.7
				C48.2,314.5,48.2,314.7,48.3,314.9z"/>
			<path class="st18" d="M45.3,150.5v63.8v91.8c0,0-0.8,2.5,1.7,3.6c-0.4,0-0.7,0-1-0.1c-2.7-0.6-1.9-3.2-1.9-3.2l0.2-149.8V46.9
				c0-3.6,1.8-4.9,3.4-5.4c-1.8,0.8-2.4,3-2.4,3V150.5z"/>
		</g>
		<g>
			<path class="st12" d="M47.7,41.5c-1.6,0.5-3.4,1.8-3.4,5.4v109.7l-0.2,149.8c0,0-0.8,2.6,1.9,3.2c0.3,0.1,0.6,0.1,1,0.1
				c0.1,0,0.2,0,0.2,0l12.9-0.5h0l189.3-7.7l9.1-0.4l10.9-0.4l3.5-0.1c0,0,1.3,0.3,1.3-1.3l2.1-85.9l1.3-52.4l1.7-69l1-40.2
				c0-2.5-2.6-2.4-2.6-2.4l-95.1-2.9l-26.2-1.1l-106.1-4C50.3,41.3,49.1,41.1,47.7,41.5"/>
			<path class="st12" d="M48.3,314.9l-1.1,4.6c0,0-0.1,0.2-0.1,0.3c0,0.3,0.2,0.7,1.2,0.7l11.9-0.4c0,0,0.8,0,0.8-0.8
				c0-0.1,0-0.3,0-0.5c0,0,0,0,0,0l-1.1-4.2"/>
			<polyline class="st12" points="46,309.8 47.1,319.9 47.1,320.1 			"/>
			<polyline class="st12" points="60.2,309.2 61,318.9 61.1,319.4 61.1,319.5 			"/>
			<path class="st12" d="M249.5,301.5l12.3,9.2c0,0,0.6,0.5,1.7,0.8c0.4,0.1,0.9,0.1,1.4,0.1l8.9-0.2c0,0,0.9,0,1-1.6l-0.2-3.5
				c0,0-0.2-0.5-0.7-1c-0.2-0.2-0.4-0.3-0.6-0.5l-3.9-4"/>
			<path class="st12" d="M273.8,305.3h-9.1c0,0-0.5,0.1-0.8,0.4c-0.2,0.2-0.3,0.5-0.4,0.8l-0.5,3.3c0,0-0.4,1,0.5,1.4"/>
			<line class="st12" x1="263.9" y1="305.7" x2="258.6" y2="301.1"/>
			<path class="st12" d="M201.6,192.2l4-4.3l-1.2-1.8c0,0,0,0,0,0c0,0-0.1-0.2-1.4-0.1l-63.1-0.3l-18.8-0.1L118,187l-0.2,0.1
				l-4.4-2.4l-5-2.7"/>
			<path class="st12" d="M186,208.3c0,0,0.7-0.5,1.7-1.5l12.4-13.1l1.4-1.5"/>
			<path class="st12" d="M209.9,172.7l-78.6-0.8l-8.5-0.1c-2.2-0.1-2.2,1.6-2.2,1.6l-0.3,10.5L140,184l0.2-5.3l55.1,0.1v5.5l8.9,0.1
				l1,1l0.6,0.6c0.8,0.8,1.2,0.2,1.2,0.2l6.1-6.9c0.7-0.7,0.4-1.4,0.4-1.4l-3.6-4.6C209.9,173.1,209.9,172.9,209.9,172.7
				c0-0.7,0-0.4,0-0.4l-2.2-2.9l-5.2-6.7l-14.6-22.1c-0.3-0.5-0.7-0.9-1-1.1c-0.7-0.4-1.3-0.3-1.3-0.3l-31.3-0.4
				c-1.9,0-2.2,0.9-2.2,0.9l-16.4,23l-3.5,8.1c-0.4,0.7-0.8,0.7-0.9,0.7c0,0,0,0,0,0l-3.5-2l-1.9,0l-6.7,0.1c0,0-3.1,0-3.6,1.8
				L118,187l0.7,4.4l1.4,1.2l13.4,14.4c0,0,0.1,0.3,0.5,0.6c0.3,0.3,0.8,0.6,1.5,0.6h14.9h1h14.3h20.2"/>
			<path class="st12" d="M187,139.5L187,139.5l-3-2c0,0-0.9-0.5-2.4-0.5l-31.2-0.6c0,0-1.2,0-2.8,2.6l-21.8,29.3H89.8c0,0,0,0,0,0
				c-0.1,0-0.6-0.1-1,0.3c-0.3,0.3-0.5,0.9-0.5,1.9v13.7v9.8l14.3,13.9l31.4-0.2h0.5"/>
			<polyline class="st12" points="185.8,208.3 186,208.3 206.8,208.3 217.2,208.3 230.9,194.4 			"/>
			<polyline class="st12" points="90,168.2 89.8,168.3 88.8,168.6 87.3,169.1 87.3,184.5 87.3,200.3 99.1,213.1 150.3,213.3 
				150.4,213.3 			"/>
			<polyline class="st12" points="150.3,207.8 150.3,208.3 150.3,213.3 150.3,214.3 150.3,217 151.3,218.1 151.6,218.3 164.3,218.3 
				164.3,214.3 151.8,214.3 			"/>
			<polyline class="st12" points="151.3,218.8 151.3,218.1 151.3,214.3 151.3,208.3 151.3,207.8 			"/>
			<polyline class="st12" points="165.7,208.5 164.7,213.3 164.7,213.4 219.5,212.7 231.3,200.3 231.3,194.4 231.3,182.4 
				231.3,169.3 207.8,169.3 			"/>
			<polygon class="st12" points="159.3,146.3 180.3,146.7 180.3,154.3 159,154.3 			"/>
			<rect x="186.3" y="150.3" class="st12" width="3" height="4"/>
			<polyline class="st12" points="186.5,149.9 185.7,149.3 189.2,149.3 189.6,149.6 			"/>
			<polyline class="st12" points="185.3,149.8 185.3,153.4 185.8,154.8 			"/>
			<polyline class="st12" points="150.3,149.3 154.3,149.3 154.3,154.3 150.3,154.3 150.3,152.6 			"/>
			<polyline class="st12" points="150.7,149 149.9,148.3 153.4,148.3 153.8,148.7 			"/>
			<polyline class="st12" points="150.3,148.8 150.3,149.3 150.3,152.6 150.8,153.9 			"/>
			<path class="st12" d="M60.2,309.2l0,4.6c0,0.4-0.1,0.7-0.3,0.8v0c-0.1,0.1-0.3,0.1-0.3,0.1L49,315.2c-0.4,0-0.6-0.1-0.7-0.3
				c-0.1-0.2-0.1-0.5-0.1-0.5l-1.2-4.7c0,0,0,0,0,0c-2.4-1.1-1.7-3.6-1.7-3.6v-91.8v-63.8v-106c0,0,0.6-2.3,2.4-3c0,0,0,0,0,0
				c0.4-0.2,0.8-0.2,1.3-0.2"/>
			<polyline class="st12" points="276.5,213.3 164.3,214.3 164.2,214.3 164.6,213.3 			"/>
			<line class="st12" x1="149.8" y1="214.3" x2="45.3" y2="214.3"/>
			<rect x="140.3" y="187.3" class="st12" width="45" height="9"/>
			<polygon class="st12" points="55.3,220.8 266.3,218.2 266.3,233 55.3,236.5 			"/>
			<rect x="159.3" y="220.3" class="st12" width="12" height="8"/>
			<polygon class="st12" points="192.3,232 177.3,232.2 177.3,224.2 192.3,224 206.3,223.8 220.3,223.6 234.3,223.4 234.3,231.4 
				220.3,231.6 206.3,231.8 			"/>
			<polyline class="st12" points="192.3,223.8 192.3,224 192.3,231.8 			"/>
			<polyline class="st12" points="206.3,223.8 206.3,231.8 206.3,231.8 			"/>
			<polyline class="st12" points="220.3,223.8 220.3,231.6 220.3,231.8 			"/>
			<polygon class="st12" points="251.3,231 237.3,231.4 237.3,223.3 251.3,223.3 264.3,223.3 264.3,230.6 			"/>
			<line class="st12" x1="251.3" y1="223.8" x2="251.3" y2="231"/>
			<rect x="60.3" y="225.3" class="st12" width="8" height="10"/>
			<rect x="81.3" y="224.3" class="st12" width="4" height="10"/>
			<rect x="93.3" y="224.3" class="st12" width="4" height="10"/>
			<rect x="105.3" y="224.3" class="st12" width="4" height="10"/>
			<polygon class="st12" points="151.3,233.2 151.3,231.3 156.3,231.3 156.3,233.3 151.5,233.3 151.3,233.3 			"/>
			<polyline class="st12" points="151.7,233.5 151.5,233.3 151.3,233.2 150.3,232.2 150.3,229.3 150.3,229 150.6,229.3 151.8,231 
							"/>
			<polyline class="st12" points="149.8,229.3 150.3,229.3 150.6,229.3 154.2,229.3 155.3,230 156.4,230.7 			"/>
			<polyline class="st12" points="155.3,230.8 155.3,230 155.3,223.3 150.3,223.3 150.3,228.8 			"/>
			<path class="st12" d="M85.9,271l40.8-0.6c0,0,1.4-0.2,1.5,1.4l-0.3,21.7c0,0,0.1,0.9-1.1,0.9l-40.4,1c0,0-1,0.1-1-1.7v-21.8
				C85.3,271.9,85.2,271.2,85.9,271z"/>
			<path class="st12" d="M132.8,270.2l40.8-0.6c0,0,1.4-0.2,1.5,1.4l-0.3,20.1c0,0,0.1,1.7-1.1,1.7l-40.4,1c0,0-1,0.1-1-1.7v-21
				C132.3,271.1,132.1,270.4,132.8,270.2z"/>
			<polygon class="st12" points="102.1,292.3 87.3,292.6 87.3,273 126.3,272.3 126.3,291.8 109.8,292.1 			"/>
			<polygon class="st12" points="134.3,272.4 173.3,271.7 173.3,290.2 156.2,290.6 134.3,291.2 			"/>
			<path class="st12" d="M93.3,279.9c0,0,0.4-0.1,1.2-0.4c1.3-0.4,3.5-0.9,6.4-1.3c1.9-0.3,4.1-0.5,6.5-0.5c3.6,0,7.6,0.4,11.7,1.5"
				/>
			<line class="st12" x1="93.7" y1="277.7" x2="94.5" y2="279.5"/>
			<line class="st12" x1="97.2" y1="276.9" x2="97.7" y2="278.6"/>
			<polyline class="st12" points="100.5,276.4 100.8,278.2 100.8,278.2 			"/>
			<line class="st12" x1="103.3" y1="275.8" x2="103.3" y2="277.8"/>
			<polyline class="st12" points="107.3,275.8 107.3,277.7 107.3,277.8 			"/>
			<line class="st12" x1="112.7" y1="276.4" x2="112.3" y2="278"/>
			<line class="st12" x1="117" y1="277.3" x2="116.4" y2="278.6"/>
			<path class="st12" d="M139.4,278.3c0,0,0.4-0.1,1.2-0.4c1.3-0.4,3.5-0.9,6.4-1.3c1.1-0.1,2.2-0.3,3.4-0.3
				c4.3-0.3,9.5-0.1,14.8,1.4"/>
			<line class="st12" x1="139.8" y1="276.2" x2="140.6" y2="277.9"/>
			<line class="st12" x1="143.3" y1="275.3" x2="143.8" y2="277"/>
			<polyline class="st12" points="146.6,274.8 146.9,276.6 146.9,276.6 			"/>
			<polyline class="st12" points="150.3,273.8 150.3,276.3 150.3,276.8 			"/>
			<line class="st12" x1="154.3" y1="273.8" x2="154.3" y2="275.8"/>
			<line class="st12" x1="158.8" y1="274.8" x2="158.5" y2="276.4"/>
			<line class="st12" x1="163.1" y1="275.7" x2="162.5" y2="277"/>
			<path class="st12" d="M102.1,292.3c0,0,3.9-5.3,7.8-0.2"/>
			<path class="st12" d="M148.2,290.8c0,0,3.6-5.4,8-0.2"/>
			<rect x="93.3" y="255.3" class="st12" width="3" height="11"/>
			<rect x="105.3" y="255.3" class="st12" width="3" height="11"/>
			<rect x="117.3" y="254.3" class="st12" width="3" height="11"/>
			<rect x="140.3" y="254.3" class="st12" width="3" height="11"/>
			<rect x="152.3" y="254.3" class="st12" width="3" height="11"/>
			<rect x="164.3" y="254.3" class="st12" width="3" height="10"/>
			<rect x="192.3" y="253.3" class="st12" width="4" height="9"/>
			<rect x="204.3" y="253.3" class="st12" width="3" height="9"/>
			<rect x="226.3" y="252.3" class="st12" width="3" height="10"/>
			<rect x="247.3" y="252.3" class="st12" width="4" height="10"/>
			<rect x="236.3" y="252.3" class="st12" width="3" height="10"/>
			<polyline class="st12" points="165.3,246.8 165.3,245.5 142.3,245.8 94.3,246.6 94.3,247.8 			"/>
			<line class="st12" x1="154.3" y1="245.8" x2="154.3" y2="246.8"/>
			<line class="st12" x1="142.3" y1="245.8" x2="142.3" y2="246.8"/>
			<line class="st12" x1="119.3" y1="246.8" x2="119.3" y2="247.8"/>
			<line class="st12" x1="107.3" y1="246.8" x2="107.3" y2="247.8"/>
			<polyline class="st12" points="204.3,246.8 204.3,245.3 193.3,245.3 193.3,246.8 			"/>
			<polyline class="st12" points="248.3,244.8 248.3,243.4 227.3,244.2 227.3,245.8 			"/>
			<line class="st12" x1="238.3" y1="243.8" x2="238.3" y2="245.8"/>
			<path class="st12" d="M113.4,184.7c0,0.4,0.1,0.8,0.1,1.2c0,6.4-5.2,11.6-11.6,11.6s-11.6-5.2-11.6-11.6c0-0.8,0.1-1.7,0.3-2.4
				c1.1-5.2,5.8-9.2,11.4-9.2C107.9,174.3,112.8,178.9,113.4,184.7z"/>
			<path class="st12" d="M108.4,182c0.8,1.2,1.2,2.6,1.2,4.2c0,4.3-3.5,7.7-7.7,7.7c-4.3,0-7.7-3.5-7.7-7.7c0-1.6,0.5-3.1,1.4-4.4
				c1.4-2,3.7-3.3,6.4-3.3C104.7,178.5,107.1,179.9,108.4,182C108.4,182,108.4,182,108.4,182z"/>
			<path class="st12" d="M108,186.2c0,2.8-2.3,5.1-5.1,5.1c-2.8,0-5.1-2.3-5.1-5.1s2.3-5.1,5.1-5.1C105.7,181.1,108,183.4,108,186.2
				z"/>
			<path class="st12" d="M77.2,180.6c0.8,1,1.3,2.2,1.3,3.6c0,1.4-0.6,2.8-1.5,3.8c-1,1.2-2.5,1.9-4.2,1.9c-0.5,0-1-0.1-1.5-0.2
				c-1.6-0.4-2.9-1.5-3.6-3c-0.4-0.8-0.6-1.6-0.6-2.5c0-3.1,2.5-5.7,5.7-5.7c0.4,0,0.8,0,1.1,0.1C75.2,178.9,76.4,179.6,77.2,180.6z
				"/>
			<path class="st12" d="M74,178.6l6-3.7c0,0,3.1-0.2,2.1,2.7c0,0-4.5,2.2-4.9,3"/>
			<path class="st12" d="M67.8,186.7c0,0-2.8,7.3-2,12.4c0,0,1.6,2.9,3.9,0.5c0,0-0.3-7.5,1.7-9.7"/>
			<path class="st12" d="M201.2,194.7c1.4-1.4,3.4-2.3,5.6-2.3c4.4,0,8,3.6,8,7.9c0,4.4-3.6,8-8,8c-4.4,0-7.9-3.6-7.9-8
				C198.9,198.2,199.8,196.2,201.2,194.7z"/>
			<path class="st12" d="M213.4,200.9c0,3.4-2.8,6.2-6.2,6.2c-3.4,0-6.2-2.8-6.2-6.2c0-3.4,2.8-6.2,6.2-6.2
				C210.7,194.7,213.4,197.5,213.4,200.9z"/>
			<path class="st12" d="M228.7,181.8c0.5,0.5,0.8,1.2,0.8,1.9c0,1.5-1.2,2.7-2.7,2.7c-0.3,0-0.7-0.1-1-0.2c-1-0.4-1.7-1.4-1.7-2.5
				c0-1.1,0.7-2.1,1.7-2.5c0.3-0.1,0.6-0.2,1-0.2C227.5,181.1,228.2,181.4,228.7,181.8"/>
			<path class="st12" d="M225.8,181.3c0,0-0.6-1-2.7-1c0,0-2.9,0.1-2.9,2.7c0,0,0,1,0.3,2c0.3,1.2,1,2.4,2.6,2.4
				c0,0,2.8-0.1,2.8-1.1"/>
			<path class="st12" d="M229.4,182c0.2,0.5,0.2,1.1,0.2,1.7c0,3.3-2.7,5.9-5.9,5.9c-2.5,0-4.7-1.6-5.5-3.8
				c-0.3-0.7-0.4-1.4-0.4-2.2c0-3.3,2.7-5.9,5.9-5.9C226.4,177.7,228.7,179.5,229.4,182z"/>
			<path class="st12" d="M209.1,178.2c0,1.1-0.9,2-2,2s-2-0.9-2-2s0.9-2,2-2S209.1,177.1,209.1,178.2z"/>
			<path class="st12" d="M127.5,177.9c0,1.3-1,2.4-2.4,2.4c-1.3,0-2.4-1.1-2.4-2.4c0-1.3,1.1-2.4,2.4-2.4
				C126.5,175.5,127.5,176.6,127.5,177.9z"/>
			<path class="st12" d="M259.4,177.7c2,0.7,3.5,2.6,3.5,4.8c0,2.7-2.1,4.9-4.7,5c-0.1,0-0.3,0-0.4,0c-1.1,0-2-0.3-2.9-0.9
				c-1.3-0.9-2.2-2.5-2.2-4.2c0-2,1.2-3.8,2.9-4.6c0.7-0.3,1.4-0.5,2.2-0.5C258.3,177.4,258.9,177.5,259.4,177.7z"/>
			<path class="st12" d="M253.6,186.7c0.4,0,0.8,0,1.3,0"/>
			<path class="st12" d="M252.1,186.5c0.4,0.1,0.9,0.2,1.5,0.3"/>
			<path class="st12" d="M255.6,177.9c0,0-1.4-1.3-4-0.2c-0.2,0.1-0.4,0.2-0.6,0.2c0,0-1.6,0.9-1.9,3.1c0,0.2,0,0.4-0.1,0.5
				c0,0-0.3,2.5,1.8,4.2c0,0,0.4,0.4,1.2,0.7"/>
			<path class="st12" d="M251.6,177.7l-3.4-2.2c0,0-4.8,0.1-2.3,3.4c0,0,1.8,1.1,3.2,2.2"/>
			<path class="st12" d="M258.2,187.5c2.1,2.2,1.9,11.4,1.9,11.4c-2.3,2.8-3.9-0.3-3.9-0.3c0.8-4.9-2.5-11.9-2.5-11.9h0l-1.5-0.3
				l0,0l-20.8-4.1l-1.9-0.4l-0.7-0.1h0"/>
			<path class="st12" d="M53.2,246.9c0,1.2-1,2.2-2.2,2.2c-1.2,0-2.2-1-2.2-2.2c0-1.2,1-2.2,2.2-2.2
				C52.2,244.7,53.2,245.7,53.2,246.9z"/>
			<path class="st12" d="M274.4,242.4c0,1.2-1,2.1-2.1,2.1c-1.2,0-2.1-1-2.1-2.1c0-1.2,1-2.1,2.1-2.1
				C273.4,240.3,274.4,241.3,274.4,242.4z"/>
			<path class="st12" d="M70.7,257.2c0.4,0.7,0.6,1.4,0.6,2.3c0,2.7-2.2,4.9-4.9,4.9c-2.7,0-4.9-2.2-4.9-4.9c0-0.3,0-0.6,0.1-0.9
				c0.2-1,0.7-1.9,1.4-2.6c0.9-0.9,2.1-1.4,3.5-1.4h0c0.8,0,1.6,0.2,2.3,0.6c0.4,0.2,0.8,0.5,1.2,0.9
				C70.2,256.3,70.5,256.7,70.7,257.2z"/>
			<path class="st12" d="M69.8,273.4c0,1.7-1.3,3-3,3c-1.7,0-3-1.3-3-3c0-1.7,1.3-3,3-3C68.5,270.4,69.8,271.7,69.8,273.4z"/>
			<path class="st12" d="M68.9,273.3c0,1.2-1,2.2-2.2,2.2s-2.1-1-2.1-2.2c0-1.2,1-2.2,2.1-2.2S68.9,272.1,68.9,273.3z"/>
			<path class="st12" d="M53.6,304.9c0,1.2-1,2.2-2.2,2.2c-1.2,0-2.2-1-2.2-2.2s1-2.2,2.2-2.2C52.7,302.7,53.6,303.7,53.6,304.9z"/>
			<path class="st12" d="M272.9,296.5c0,1.2-0.9,2.1-2.1,2.1c-1.2,0-2.1-0.9-2.1-2.1c0-1.1,0.9-2.1,2.1-2.1
				C271.9,294.4,272.9,295.3,272.9,296.5z"/>
			<path class="st12" d="M126.8,234.2c-1-0.8-1.6-2.1-1.6-3.5c0-2.5,2-4.5,4.5-4.5c0.9,0,1.8,0.3,2.5,0.8"/>
			<path class="st12" d="M132.2,227.1c1.2,0.8,1.9,2.2,1.9,3.7c0,2.5-2,4.5-4.5,4.5c-1,0-1.9-0.3-2.7-0.9"/>
			<path class="st12" d="M132.2,227.1L132.2,227.1l-3-2.5c0,0-2.7-0.5-4.7,2.5c0,0-1.5,2.3-0.5,5.1l2.8,2.1l0.2,0.1"/>
			<path class="st12" d="M208.2,278c0.1,0.1,0.3,0.2,0.4,0.3c0.3,0.2,0.5,0.5,0.8,0.7c1.3,1.5,2.1,3.4,2.1,5.5
				c0,4.5-3.7,8.2-8.2,8.2c-1,0-2-0.2-2.9-0.5c-1.3-0.5-2.4-1.3-3.2-2.3c-1.2-1.4-2-3.3-2-5.4c0-4.5,3.7-8.2,8.2-8.2
				c1.8,0,3.4,0.6,4.8,1.5"/>
			<path class="st12" d="M208.2,278l-0.1-0.1l-4.8-3.5c0,0-3.7-2.2-8.2,2.4c0,0-3.9,3.8-2.1,8.9l4.1,4.1l0.7,0.7"/>
			<path class="st12" d="M209.4,279.1c0,0-1.9-5.8-6.1-6.7c0,0-5.9-2-10.2,3.3c0,0-3,3.2-2.7,7.7c0,0-0.1,4.5,3.8,7.1
				c0,0,3.2,2.2,6.1,1.6"/>
			<path class="st12" d="M247.2,275.6c0.1,0.1,0.3,0.2,0.4,0.3c0.3,0.2,0.5,0.5,0.7,0.7c1.3,1.5,2.1,3.4,2.1,5.5
				c0,4.5-3.7,8.2-8.2,8.2c-1,0-2-0.2-2.9-0.5c-1.3-0.5-2.4-1.3-3.3-2.3c-1.2-1.4-2-3.3-2-5.3c0-4.5,3.7-8.2,8.2-8.2
				c1.8,0,3.4,0.6,4.8,1.5"/>
			<path class="st12" d="M247.2,275.6l-0.1-0.1l-4.8-3.5c0,0-3.7-2.2-8.2,2.4c0,0-3.9,3.8-2.1,8.9l4,4.1l0.7,0.7"/>
			<path class="st12" d="M248.4,276.7C248.4,276.7,248.4,276.7,248.4,276.7c-0.1-0.4-2-5.8-6.1-6.7c0,0-5.9-2-10.2,3.3
				c0,0-3,3.2-2.7,7.7c0,0-0.1,4.5,3.8,7.1c0,0,3.2,2.2,6.1,1.6"/>
			<rect x="92.3" y="251.3" class="st12" width="3" height="1"/>
			<rect x="105.3" y="251.3" class="st12" width="3" height="1"/>
			<rect x="117.3" y="251.3" class="st12" width="3" height="1"/>
			<rect x="141.3" y="250.3" class="st12" width="3" height="1"/>
			<rect x="164.3" y="250.3" class="st12" width="3" height="1"/>
			<rect x="152.3" y="250.3" class="st12" width="3" height="1"/>
			<rect x="192.3" y="249.3" class="st12" width="4" height="2"/>
			<rect x="203.3" y="249.3" class="st12" width="3" height="2"/>
			<rect x="225.3" y="248.3" class="st12" width="3" height="2"/>
			<rect x="236.3" y="248.3" class="st12" width="3" height="2"/>
			<rect x="247.3" y="247.3" class="st12" width="4" height="2"/>
			<path class="st12" d="M69.8,285.3c0,1.7-1.3,3-3,3c-1.7,0-3-1.4-3-3c0-1.7,1.3-3,3-3C68.5,282.3,69.8,283.7,69.8,285.3z"/>
			<path class="st12" d="M68.9,285.2c0,1.2-1,2.2-2.2,2.2s-2.1-1-2.1-2.2c0-1.2,1-2.2,2.1-2.2S68.9,284.1,68.9,285.2z"/>
			<path class="st12" d="M69.8,295.7c0,1.7-1.3,3-3,3c-1.7,0-3-1.3-3-3c0-1.7,1.3-3,3-3C68.5,292.6,69.8,294,69.8,295.7z"/>
			<path class="st12" d="M68.9,295.6c0,1.2-1,2.2-2.2,2.2s-2.1-1-2.1-2.2c0-1.2,1-2.2,2.1-2.2S68.9,294.4,68.9,295.6z"/>
			<line class="st12" x1="61.5" y1="258.6" x2="60.2" y2="258.2"/>
			<line class="st12" x1="62.1" y1="256.9" x2="60.8" y2="256.5"/>
			<line class="st12" x1="62.8" y1="256" x2="61.7" y2="255"/>
			<line class="st12" x1="63.8" y1="255" x2="63.1" y2="253.8"/>
			<line class="st12" x1="65.1" y1="254.5" x2="64.6" y2="252.9"/>
			<polyline class="st12" points="66.3,254.8 66.3,254.5 66.3,251.8 			"/>
			<line class="st12" x1="67.5" y1="254.7" x2="68.1" y2="252.9"/>
			<line class="st12" x1="68.6" y1="255.1" x2="69.6" y2="253.8"/>
			<line class="st12" x1="69.8" y1="256" x2="71" y2="255.1"/>
			<polyline class="st12" points="70.7,257.2 70.7,257.2 72.1,256.7 			"/>
			<polyline class="st12" points="201.6,192.2 201.6,192.2 218.2,185.8 220.4,184.9 223.7,183.6 			"/>
			<polyline class="st12" points="95.6,181.8 90.5,183.5 88.3,184.2 87.3,184.5 77,187.9 			"/>
			<polyline class="st12" points="67.2,184.2 45.3,150.5 45.2,150.3 			"/>
			<line class="st12" x1="259.4" y1="177.7" x2="279.4" y2="91.9"/>
		</g>
	</g>
</g>
<g id="drive" class="st29">
	
		<image style="display:inline;overflow:visible;" width="600" height="843" xlink:href="insp/824409576735_TTq9U5Cd_l.jpg"  transform="matrix(1 0 0 1 -588.6494 -240.4297)">
	</image>
</g>
<g id="reels_smaller" class="st29">
</g>
<g id="reels_paint">
	<g id="XMLID_3_">
		<g>
			<path class="st30" d="M84,0.5c46.1,0,83.5,37.4,83.5,83.5c0,46.1-37.4,83.5-83.5,83.5c-46.1,0-83.5-37.4-83.5-83.5
				C0.5,37.9,37.9,0.5,84,0.5z M156.2,79.7c0,0,1.2-15-9.6-28.7c0,0-1.5-0.9-4.6,0.8c0,0-12.5,5.5-22.2,15c0,0-2.2,1.7-1.9,3.7
				c0,0,1.4,6.6,4.4,12.2c0,0,0.5,1.1,3.2,1.6c0,0,11.2,2,27.5-1.3C153.1,82.9,156.4,82.8,156.2,79.7z M108.2,83.9
				c0-13.2-10.7-23.9-23.8-23.9c-3.4,0-6.6,0.7-9.5,2c-0.3,0.1-0.6,0.2-0.8,0.4c-8.2,3.8-13.8,12-13.8,21.6
				c0,13.2,10.7,23.9,23.9,23.9c3.4,0,6.6-0.7,9.6-2c0.3-0.1,0.5-0.2,0.8-0.4C102.5,101.7,108.2,93.5,108.2,83.9z M85.8,152.8
				c0,0,2.2-15.6-0.5-28.9c0,0-0.2-2.8-2.1-3.5c0,0-6.3-2.4-12.6-2.9c0,0-1.2-0.2-3.1,1.8c0,0-8.1,9-14.2,24.5c0,0-1.7,2.8,1,4.3
				c0,0,12,9.1,29.3,7.5C83.6,155.6,85.5,156.3,85.8,152.8z M64.6,54c0,0,0.8-0.9,0-3.6c0,0-3.6-11.6-13.9-24.6c0,0-1.6-2.9-4.2-1.3
				c0,0-13.9,5.7-21.3,21.5c0,0-1.6,1.3,1.3,3.3c0,0,12.3,9.8,25.2,14.2c0,0,2.5,1.2,4.1,0C55.8,63.5,61.1,59.2,64.6,54z"/>
			<path class="st19" d="M84.3,60c13.2,0,23.8,10.7,23.8,23.9c0,9.6-5.7,17.9-13.8,21.6c8-3.9,13.5-12,13.5-21.5
				c0-13.2-10.7-23.9-23.9-23.9c-3.3,0-6.4,0.6-9.2,1.8C77.7,60.7,80.9,60,84.3,60z"/>
			<path class="st27" d="M84,60.1c13.2,0,23.9,10.7,23.9,23.9c0,9.5-5.5,17.6-13.5,21.5c-0.3,0.1-0.5,0.2-0.8,0.4
				c-2.8,1.2-6,1.9-9.2,1.9c-13.2,0-23.9-10.7-23.9-23.9c0-9.5,5.5-17.6,13.5-21.5c0.3-0.1,0.5-0.3,0.8-0.4
				C77.6,60.8,80.7,60.1,84,60.1z M100.1,84c0-8.9-7.2-16.1-16.1-16.1c-8.9,0-16.1,7.2-16.1,16.1c0,8.9,7.2,16.1,16.1,16.1
				C92.9,100.1,100.1,92.9,100.1,84z"/>
			<path class="st17" d="M84,67.9c8.9,0,16.1,7.2,16.1,16.1c0,8.9-7.2,16.1-16.1,16.1c-8.9,0-16.1-7.2-16.1-16.1
				C67.9,75.1,75.1,67.9,84,67.9z M91.1,84c0-3.9-3.2-7.1-7.1-7.1c-3.9,0-7.1,3.2-7.1,7.1c0,3.9,3.2,7.1,7.1,7.1
				C87.9,91.1,91.1,87.9,91.1,84z"/>
			<path class="st4" d="M84,76.9c3.9,0,7.1,3.2,7.1,7.1c0,3.9-3.2,7.1-7.1,7.1c-3.9,0-7.1-3.2-7.1-7.1C76.9,80.1,80.1,76.9,84,76.9z
				"/>
			<path class="st19" d="M84.3,107.7c3.3,0,6.4-0.7,9.2-1.9c-2.9,1.3-6.2,2-9.6,2c-13.2,0-23.9-10.7-23.9-23.9
				c0-9.6,5.7-17.9,13.8-21.6c-8,3.9-13.5,12-13.5,21.5C60.5,97,71.1,107.7,84.3,107.7z"/>
		</g>
		<g>
			<path class="st12" d="M84,0.5c46.1,0,83.5,37.4,83.5,83.5c0,46.1-37.4,83.5-83.5,83.5c-46.1,0-83.5-37.4-83.5-83.5
				C0.5,37.9,37.9,0.5,84,0.5z"/>
			<path class="st12" d="M64.6,54c0,0,0.8-0.9,0-3.6c0,0-3.6-11.6-13.9-24.6c0,0-1.6-2.9-4.2-1.3c0,0-13.9,5.7-21.3,21.5
				c0,0-1.6,1.3,1.3,3.3c0,0,12.3,9.8,25.2,14.2c0,0,2.5,1.2,4.1,0C55.8,63.5,61.1,59.2,64.6,54z"/>
			<path class="st12" d="M85.8,152.8c0,0,2.2-15.6-0.5-28.9c0,0-0.2-2.8-2.1-3.5c0,0-6.3-2.4-12.6-2.9c0,0-1.2-0.2-3.1,1.8
				c0,0-8.1,9-14.2,24.5c0,0-1.7,2.8,1,4.3c0,0,12,9.1,29.3,7.5C83.6,155.6,85.5,156.3,85.8,152.8z"/>
			<path class="st12" d="M156.2,79.7c0,0,1.2-15-9.6-28.7c0,0-1.5-0.9-4.6,0.8c0,0-12.5,5.5-22.2,15c0,0-2.2,1.7-1.9,3.7
				c0,0,1.4,6.6,4.4,12.2c0,0,0.5,1.1,3.2,1.6c0,0,11.2,2,27.5-1.3C153.1,82.9,156.4,82.8,156.2,79.7z"/>
			<path class="st12" d="M74.8,62c2.8-1.2,5.9-1.8,9.2-1.8c13.2,0,23.9,10.7,23.9,23.9c0,9.5-5.5,17.6-13.5,21.5
				c-0.3,0.1-0.5,0.2-0.8,0.4c-2.9,1.3-6.2,2-9.6,2c-13.2,0-23.9-10.7-23.9-23.9c0-9.6,5.7-17.9,13.8-21.6
				C74.2,62.2,74.5,62.1,74.8,62z"/>
			<path class="st12" d="M100.1,84c0,8.9-7.2,16.1-16.1,16.1c-8.9,0-16.1-7.2-16.1-16.1c0-8.9,7.2-16.1,16.1-16.1
				C92.9,67.9,100.1,75.1,100.1,84z"/>
			<path class="st12" d="M91.1,84c0,3.9-3.2,7.1-7.1,7.1c-3.9,0-7.1-3.2-7.1-7.1c0-3.9,3.2-7.1,7.1-7.1C87.9,76.9,91.1,80.1,91.1,84
				z"/>
		</g>
	</g>
</g>
</svg>
